<?xml version="1.0" standalone="no"?>
<!DOCTYPE svg PUBLIC "-//W3C//DTD SVG 1.1//EN" "http://www.w3.org/Graphics/SVG/1.1/DTD/svg11.dtd" >
<svg xmlns="http://www.w3.org/2000/svg" xmlns:xlink="http://www.w3.org/1999/xlink" version="1.1" viewBox="-10 0 506 1000">
   <path fill="currentColor"
d="M485.352 610.906v14.9736q-1.30273 26.6934 -7.16211 49.8047q-5.85938 23.1123 -15.2988 43.2949q-9.44043 20.1816 -21.8105 36.7832q-12.3691 16.6016 -26.6924 30.9248t-31.9014 26.042t-37.7598 20.833q-20.1826 9.11426 -43.9453 14.3232
q-23.7637 5.20801 -50.4561 5.85938v-4.55762q-0.651367 -0.651367 -0.651367 -1.30176q0 -1.30273 0.651367 -2.60449q27.3438 0 50.7812 -5.53418q23.4375 -5.5332 43.6201 -14.9736q20.1816 -9.44043 37.4346 -22.1357t31.5752 -27.0176
q14.3232 -14.3232 26.3672 -31.9014q12.0449 -17.5781 20.5078 -38.4111q8.46387 -21.4844 13.6719 -46.2246q3.25586 -19.5312 3.25586 -41.0156v-11.7188q-1.30273 -25.3906 -8.13867 -48.502q-6.83594 -23.1123 -16.6016 -42.6436q-9.76562 -20.1826 -22.7861 -36.458
q-13.0205 -16.2764 -28.6455 -29.9482q-14.9746 -13.6719 -33.2031 -25.0654q-18.2295 -11.3926 -39.7139 -19.2051q-21.4844 -8.46387 -46.875 -12.3701q-14.9736 -1.95312 -30.5986 -1.95312q-11.0684 0 -22.1357 1.30176q-1.95312 9.76562 -11.7188 15.625
q-5.85938 3.90625 -13.0205 3.90625q-4.55762 0 -9.76562 -1.30176q-3.25586 -1.30176 -5.85938 -3.25488q-2.60449 -1.95312 -4.55762 -3.25586q-5.85938 3.25586 -5.85938 10.417v2.60449q1.30176 9.76562 2.60449 16.9268q1.95312 7.16113 3.58008 14.3232
q1.62793 7.16113 2.2793 15.625q0.650391 1.30176 0.650391 3.25488t-0.650391 3.90625v7.16113q1.30176 2.60449 3.90625 5.20898l4.55664 4.55664q3.90625 5.20898 6.51074 10.7422q2.60449 5.53418 3.90625 12.0449q1.30176 3.25488 1.95312 6.18457t1.95312 5.53418
q1.95312 2.60352 6.51074 3.90625q4.55664 1.30176 8.46289 3.25488q1.95312 1.30176 3.25586 2.27832q1.30176 0.976562 3.25488 1.62793q1.95312 -3.90625 1.95312 -7.16113v-3.25586q-1.95312 -3.90625 -3.25488 -8.46289q-1.95312 -4.55762 -2.60449 -9.11523
q-0.651367 -1.95312 -0.651367 -3.90625q0 -2.60352 0.651367 -5.85938q3.25488 -7.16113 9.44043 -11.7188q6.18457 -4.55664 14.6484 -4.55664h2.60352q3.25586 0 5.85938 0.650391q3.25586 1.30273 6.51074 4.55762q2.60449 1.95312 4.88281 5.20801
q2.27832 3.25586 2.92969 7.16211q0.651367 0.650391 0.651367 1.95312v1.30176q-0.651367 1.95312 -0.651367 2.60449q0 1.30176 0.651367 2.60352q0.650391 1.30273 0.650391 2.60449t-0.650391 2.60449q-0.651367 1.30176 -0.651367 1.95312
q-0.651367 3.90625 -0.651367 6.50977q0 3.25586 -1.30176 5.20898t-4.88281 2.27832t-4.23145 2.92969q-1.30273 1.95312 -1.30273 3.90625t1.30273 3.25488q0.650391 2.60449 0.650391 5.20898q0 1.30176 -0.650391 3.25488q7.16113 3.25488 14.6484 6.18457
q7.48633 2.92969 12.0439 8.78906q1.95312 2.60449 3.58105 5.53418q1.62695 2.92969 3.58008 5.53418q2.60449 1.95312 5.53418 3.90625t5.53418 3.90625q3.90625 5.20801 7.48633 10.0908q3.58105 4.88281 7.4873 10.7422q1.95312 1.95312 4.23145 5.20801
q2.2793 3.25586 4.23242 4.55762q1.95312 0.651367 3.90625 0.651367h3.90625q2.60352 0 6.18457 1.30176t7.4873 2.60449q5.85938 3.25488 12.3691 5.5332q6.51074 2.2793 13.0215 5.53418q2.60352 0.651367 5.85938 2.27832q3.25488 1.62793 6.50977 2.2793
q1.95312 0.650391 4.55762 0.650391q1.30176 0 2.60449 -0.650391h5.85938q6.50977 0 12.3691 1.30176t10.417 2.60449q1.95312 0.650391 4.55762 1.95312q2.60352 1.30176 2.60352 3.90625q-1.30176 0.650391 -2.60352 0.650391q-2.60449 0 -4.55762 -1.95312
q-3.25488 -1.30176 -6.51074 -1.30176h-1.95312l7.16211 7.16113q0.650391 0.651367 3.25488 3.90625q1.30176 1.30273 1.30176 2.60449t-1.30176 1.95312h-0.651367q-1.95312 0 -3.90625 -2.60449q-2.60352 -3.25488 -3.25488 -3.90625
q-0.651367 -1.30176 -1.30176 -1.95312q-0.651367 -0.650391 -1.30273 -0.650391v0.650391q0.651367 1.30273 1.62793 2.60449t2.27832 2.60449q0.651367 1.30176 1.95312 3.25488v1.95312q0 0.651367 -1.30176 1.30176q-0.651367 0.651367 -1.30176 0.651367
q-0.651367 0 -1.30273 -2.60449q-1.30176 -2.60352 -2.60352 -3.25488q-1.30273 -1.95312 -2.92969 -3.58105q-1.62793 -1.62695 -2.2793 -2.27832q0 0.651367 0.976562 2.27832q0.976562 1.62793 1.62793 2.92969q0.651367 0.651367 1.30176 3.90625v0.651367
q0 2.60449 -1.95312 2.60449q-1.30176 0 -1.62695 -2.2793q-0.326172 -2.27832 -0.326172 -3.58008q0 -0.651367 -1.95312 -3.58105t-3.90625 -2.92969q-1.30176 -0.651367 -3.25488 -0.651367h-1.95312q-1.30176 0.651367 -2.60449 0.651367q-1.95312 0 -3.25488 -0.651367
q-3.90625 -0.650391 -7.8125 -2.92969q-3.90625 -2.27832 -8.46387 -3.58008q-4.55664 -1.95312 -9.11426 -1.95312q-5.20801 0 -10.417 -1.30273q-4.55664 -0.650391 -9.76562 -1.62695q-5.20801 -0.976562 -9.76562 -1.62793q-5.20801 -1.30176 -10.0908 -2.27832
t-8.78906 -2.92969q-2.60449 -1.30273 -4.55762 -3.58105t-3.90625 -4.23145q-5.20801 -4.55762 -11.0674 -8.78906q-5.85938 -4.23242 -11.0674 -8.78906q-1.95312 -1.30273 -2.60449 -2.60449h-1.95312q-1.95312 3.90625 -3.58105 8.1377
q-1.62695 4.23242 -2.92969 8.78906q-1.30176 3.90625 -2.92969 8.78906q-1.62695 4.88281 -2.92969 9.44043q-1.95312 9.76562 -2.60352 19.8564q-0.651367 10.0918 -4.55762 19.2061q-1.30176 4.55762 -2.27832 9.44043t-0.976562 10.7422l-1.30273 10.416
q-0.650391 5.20898 -0.650391 11.0684v21.4844q0.650391 7.8125 0.650391 15.625v8.46289q-0.650391 12.3701 -12.3691 14.3232q-0.651367 1.95312 -0.976562 5.20801q-0.326172 3.25586 -0.976562 6.51074q-0.651367 3.25488 -0.976562 6.51074
q-0.326172 3.25488 -3.58105 4.55664h-1.95312q-1.95312 0 -3.90625 -1.30176l-5.20801 -2.60449q-4.55762 6.51074 -13.3467 6.83594q-8.78906 0.326172 -17.9033 2.2793q-5.85938 0.650391 -11.3936 2.27832t-11.3936 2.27832q-11.0674 2.60449 -21.4844 5.53418
q-10.416 2.92969 -19.5312 6.83594q0.651367 2.60449 1.62793 3.90625t0.976562 4.55762q-4.55762 1.30176 -9.11426 1.30176q-1.95312 0 -3.90625 -0.651367h-4.55762q-4.55762 0 -7.8125 1.30273q-1.95312 0.650391 -4.23145 2.27832q-2.2793 1.62793 -4.23242 3.58105
q-3.90625 4.55664 -7.16113 12.3691t-9.76562 10.417h-2.60449q-3.90625 0 -5.20801 -3.25488q-1.30176 -2.60449 -1.30176 -5.20898v-2.60352q0 -4.55762 1.62695 -9.76562q1.62793 -5.20898 2.92969 -9.11523q3.90625 -7.8125 6.83594 -16.6016t7.4873 -16.6016
q1.95312 -3.25488 4.88281 -7.8125q2.92969 -4.55664 6.83594 -4.55664q1.30176 0 2.27832 0.976562t1.62793 1.62695q1.30176 0.651367 2.27832 1.30273q0.976562 0.650391 2.2793 1.30176q1.30176 1.30176 1.95312 3.25488q0.650391 1.95312 2.60352 3.25586
q0.651367 0.650391 1.95312 0.976562q1.30273 0.325195 1.95312 0.325195q1.30273 0.651367 1.95312 1.30176q0.651367 0.651367 1.95312 0.651367q1.30273 0.651367 2.60449 0.651367q3.90625 0 8.46387 -3.25586q5.20801 -3.25488 9.11426 -5.85938
q3.25488 -1.95312 6.83594 -4.23145t6.83594 -4.23145q7.8125 -4.55762 16.2764 -6.51074q8.46289 -1.95312 18.8799 -1.95312q0 -3.25488 -1.95312 -7.16113t-1.95312 -9.11523q-3.25488 -1.30176 -7.4873 -3.25488q-4.23145 -1.95312 -9.43945 -3.25488
q-1.30273 -0.651367 -3.25586 -1.30273q-0.650391 -0.650391 -1.30176 -0.650391t-1.30176 0.650391q-2.60449 0 -3.58105 2.2793q-0.976562 2.27832 -3.58105 2.27832h-1.95312q-1.95312 0 -3.25488 -0.651367q-3.25488 -0.650391 -5.85938 -1.30176t-5.85938 -1.30176
q-1.30176 -0.651367 -2.60449 -0.651367q-1.30176 0 -2.60352 0.651367q-2.60449 0.650391 -5.53418 1.95312q-2.92969 1.30176 -4.88281 2.60352q-4.55762 3.25586 -8.1377 6.18555q-3.58105 2.92969 -9.44043 5.5332q-1.95312 0.651367 -5.20801 1.95312
q-1.95312 0.651367 -3.90625 0.651367q-1.30273 0 -2.60449 -0.651367q-3.25488 -1.30176 -3.25488 -6.50977q0 -0.651367 0.650391 -1.30273q0 -5.85938 0.651367 -9.11426q3.25488 -11.0674 10.417 -16.6016q7.16113 -5.53418 16.2754 -11.3936
q1.95312 -1.95312 5.20898 -4.55664q3.25488 -2.60449 5.85938 -5.20898q3.25488 -2.60352 7.16113 -6.50977q2.60449 -2.60449 6.51074 -2.60449q1.95312 0 3.25488 0.651367q1.95312 0.650391 4.55762 3.58008q2.60352 2.92969 3.90625 4.23242
q1.30176 1.95312 2.27832 2.92969t1.62793 2.27832q1.30176 1.30176 2.60352 2.27832q1.30273 0.976562 1.95312 2.2793q0 0.650391 0.326172 1.95312q0.325195 1.30176 0.976562 1.30176q1.95312 1.30176 5.20801 1.62793q3.25488 0.325195 5.85938 0.325195h10.417
v-7.8125q0.650391 -1.95312 0.650391 -3.90625t-0.650391 -3.90625q-0.651367 -1.95312 -1.95312 -3.25488q-1.30273 -1.30273 -1.95312 -3.25586q-0.651367 -3.25488 -1.30273 -7.16113q-0.650391 -3.90625 -0.650391 -7.8125q-1.30273 -5.20801 -2.60449 -9.76562
q-0.651367 -2.60449 -0.651367 -5.20801v-3.25586q0 -3.90625 1.62793 -7.16113t3.58105 -7.16113q1.30176 -2.60449 3.25488 -5.85938q1.95312 -3.25586 3.25488 -6.51074q0.651367 -2.60449 1.30273 -4.88281q0.650391 -2.27832 1.30176 -4.88281t2.27832 -4.23145
q1.62793 -1.62793 2.92969 -3.58105q0.651367 -2.60449 0.651367 -5.85938v-3.90625q-0.651367 -5.20801 -1.30176 -9.76562q-1.30273 -9.11426 -3.25586 -16.6016t-4.55664 -15.9502q-1.30273 -3.90625 -2.2793 -7.8125t-2.27832 -8.46387
q-3.25488 -6.51074 -5.53418 -14.3232q-2.27832 -7.8125 -6.18457 -14.9736q-3.25488 -6.51074 -4.88281 -14.6484t-4.23145 -15.9502q-1.95312 -2.60449 -3.58105 -5.53418t-2.92969 -6.18457q-1.30176 -2.60449 -2.92969 -5.85938q-1.62793 -3.25586 -2.27832 -7.16211
q0 -3.90625 0.650391 -7.8125q0.651367 -3.90625 0.651367 -8.46289q0 -4.55762 0.325195 -9.11523q0.326172 -4.55664 0.976562 -8.46289q0.651367 -8.46387 0.976562 -16.9277q0.326172 -8.46289 1.62793 -16.2754q-31.25 13.0205 -56.6406 32.5518t-44.2705 45.5732
q-18.2295 25.3906 -30.5996 58.9189q-12.3691 33.5283 -13.0205 74.5439h-7.16113v-7.16113q1.95312 -42.3174 14.9736 -75.5205t33.2031 -59.8965q17.5781 -22.7861 39.3877 -40.6895q21.8105 -17.9043 49.8047 -30.2734q3.90625 -1.95312 7.8125 -3.58105t7.8125 -3.58105
l1.30273 -0.650391v-0.651367q1.30176 -1.30176 1.30176 -3.25488v-3.90625q1.95312 -11.0684 8.1377 -19.2061q6.18555 -8.1377 16.6016 -10.7422q5.20898 -1.95312 9.76562 -1.95312q7.16211 0 14.3232 4.55762q10.417 7.8125 11.0674 22.1348h0.651367
q9.76562 -0.650391 18.8799 -0.650391q18.8809 0 36.459 2.60352q25.3906 3.90625 47.8516 12.3701t41.0156 20.5078t34.1797 26.3672t28.9707 31.9014q13.3467 17.5781 23.4375 38.0859q10.0918 20.5078 16.2764 44.2705t7.4873 51.7578z" />
</svg>
