<?xml version="1.0" standalone="no"?>
<!DOCTYPE svg PUBLIC "-//W3C//DTD SVG 1.1//EN" "http://www.w3.org/Graphics/SVG/1.1/DTD/svg11.dtd" >
<svg xmlns="http://www.w3.org/2000/svg" xmlns:xlink="http://www.w3.org/1999/xlink" version="1.1" viewBox="-10 0 520 1000">
   <path fill="currentColor"
d="M182.291 653.875q-8.46289 -8.46387 -18.2285 -20.1826q-8.46387 31.25 -22.1357 54.0371l5.85938 5.20801q23.4375 -13.0205 55.9893 -21.4844q-12.3691 -8.46387 -21.4844 -17.5781zM84.6348 774.317q2.60449 -2.60352 2.60449 -4.55664q0 -2.60449 -2.60449 -4.55762
l-18.2285 -17.5781q-1.95312 -2.60449 -4.55762 -2.60449q-1.95312 0 -4.55762 2.60449q-1.95312 2.60449 -1.95312 5.20801q0 1.95312 1.95312 4.55762l18.2295 16.9268q1.95312 1.95312 4.55762 1.95312q2.60352 0 4.55664 -1.95312zM59.8955 797.104
q2.60449 -2.60449 2.60449 -4.55762q0 -2.60449 -2.60449 -5.20801l-18.2295 -16.9277q-1.95312 -2.60352 -4.55664 -2.60352q-2.60449 0 -5.20898 2.60352q-1.95312 1.95312 -1.95312 4.55762q0 1.95312 1.95312 4.55762l18.2295 17.5781q1.95312 1.95312 5.20801 1.95312
q2.60449 0 4.55762 -1.95312zM425.781 419.5q35.8066 33.8545 35.8066 83.9844q0 16.2764 -3.90625 33.8545q-13.6719 -7.16211 -28.6455 -9.76562q1.30176 -5.85938 1.30176 -9.11523q0.651367 -7.16113 0.651367 -13.0205q0 -39.7139 -26.6924 -65.1045
q-26.042 -26.041 -68.3594 -26.041q-59.8965 0 -108.073 46.875q-41.0156 39.7129 -48.1768 89.1924q-1.30273 8.46387 -1.30273 15.625q0 39.7139 27.3438 65.7549q26.042 24.7402 68.3594 24.7402q13.0215 0 26.6934 -2.60449q3.25488 13.6719 9.11426 24.7393
l1.30176 2.60449q-7.8125 1.95312 -24.7393 4.55762q-108.724 13.6719 -141.276 44.9219q-39.7129 38.4111 -98.958 94.4004q-3.25488 3.25586 -7.16113 3.25586q-3.25586 0 -6.51074 -3.25586l-29.2969 -27.9941q-3.25488 -3.25586 -3.25488 -6.51074t3.25488 -6.51074
q70.9639 -67.0566 100.911 -95.7031q26.042 -25.3906 45.5732 -136.719q11.7188 -67.708 56.6406 -111.328q57.292 -54.6875 129.558 -54.6875q54.6875 0 89.8438 33.8545zM326.172 671.453q-9.76562 -18.8799 -9.76562 -39.7139v-2.60352l14.9736 14.3223
q26.042 24.7402 27.3438 26.042q20.833 20.1826 48.8281 20.1826q13.6719 0 26.6924 -5.85938q9.11523 -4.55762 16.2764 -11.7188q7.16113 -6.51074 11.7188 -15.625q7.8125 -14.9746 7.8125 -29.2969q0 -23.4375 -21.4844 -44.9219q-1.95312 -1.30273 -28.6455 -26.6934
l-12.3701 -12.3691h0.651367q56.6406 0 82.0312 48.8281q9.76562 19.5312 9.76562 39.0625q0 13.6719 -5.20898 27.9941q-11.7188 34.5059 -45.5723 50.7812q-19.5312 9.76562 -41.0156 9.76562q-56.6406 0 -82.0312 -48.1768zM341.797 634.344l-22.7871 -21.4844
q0.651367 -4.55762 2.60449 -9.11426q11.7188 -35.1562 45.5732 -50.7812q11.0674 -5.20898 22.7861 -7.8125l20.1826 19.5312q26.6924 26.041 28.6455 27.9941q16.9268 16.2764 16.9268 34.5059q0 11.7188 -5.85938 24.0879q-3.25488 5.85938 -9.11426 11.7188
t-12.3701 8.46387q-11.7188 5.85938 -23.4375 5.85938q-18.8799 0 -35.8066 -16.2764q-0.651367 -1.30176 -27.3438 -26.6924z" />
</svg>
