<?xml version="1.0" standalone="no"?>
<!DOCTYPE svg PUBLIC "-//W3C//DTD SVG 1.1//EN" "http://www.w3.org/Graphics/SVG/1.1/DTD/svg11.dtd" >
<svg xmlns="http://www.w3.org/2000/svg" xmlns:xlink="http://www.w3.org/1999/xlink" version="1.1" viewBox="-10 0 520 1000">
   <path fill="currentColor"
d="M235.025 755.112h1.30273q13.0205 0 22.1348 -9.11523q10.417 -9.11426 10.417 -22.7861t-9.76562 -24.0889q-9.11426 -10.416 -23.4375 -10.416q-13.6719 0 -22.7861 9.76562q-10.417 9.76562 -11.0684 23.4375q0 13.0205 9.76562 22.7861
q9.76562 10.417 23.4375 10.417zM37.7598 553.94q22.1357 -56.6406 52.084 -82.0312q40.3643 -33.8545 134.114 -57.9434q-167.969 9.76562 -186.198 139.975zM309.896 667.222q22.7861 27.9941 27.3438 58.5938q1.30176 6.50977 1.30176 13.0205q0 36.458 -31.9004 58.5938
q-11.7188 9.11426 -42.3184 20.833q-1.95312 0.651367 -5.85938 0.651367q-19.5312 0 -90.4941 -22.1357q-21.4844 -6.50977 -25.3906 -7.8125q-5.85938 -1.30176 -12.3701 -1.30176q-15.625 0 -27.9951 7.8125q-1.95312 1.30176 -31.25 14.9736
q-16.9268 -22.1348 -18.2285 -23.4375q-27.9951 -36.458 -27.9951 -37.1094q-3.90625 -5.20801 -3.90625 -9.76562q0 -2.60352 2.60449 -6.50977q4.55664 -6.51074 4.55664 -14.3232q0 -6.51074 -3.25488 -13.6719q-24.7393 -55.9893 -24.7393 -106.12
q0 -66.4062 42.3174 -124.349q57.9424 -80.0781 168.62 -80.0781q18.2285 0 38.4111 2.60449q113.281 13.0205 169.922 118.489q0 0.651367 4.55762 9.76562q-53.3857 14.3232 -57.292 15.625q-37.1094 13.0205 -57.292 40.3643q-13.0205 16.9277 -13.0205 42.9688
q0 26.6934 13.6719 42.3184zM462.239 766.18q13.6719 -1.30176 14.3232 -1.95312q1.30176 -1.30176 1.30176 -5.20801q0 -3.25586 -1.30176 -9.76562q-1.30273 -10.417 -1.30273 -16.9277q0 -8.46289 -9.76562 -8.46289h-77.4736q-7.8125 0 -7.8125 6.50977v1.30273
q0.651367 5.20801 3.25488 42.3174q66.4062 -7.16113 78.7764 -7.8125zM355.469 674.383q11.7188 20.833 18.2285 24.0889q5.85938 3.25488 30.5996 3.25488h30.5986q6.51074 0 6.51074 -6.51074v-0.650391q-3.25586 -69.0107 -31.9014 -119.141
q-2.60449 -4.55762 -7.16113 -4.55762q-3.25586 0 -7.16211 1.95312q-29.2969 12.3701 -43.6191 20.833q-16.9277 9.76562 -16.9277 24.7402q0 5.20801 1.95312 11.0674q7.16211 24.7393 18.8809 44.9219zM500 762.925q0 11.0674 -3.25586 16.2754
q-5.85938 6.51074 -21.4844 7.8125l-90.4941 8.46387q-7.8125 1.30176 -33.8545 3.90625q3.25488 -12.3701 3.90625 -13.0205q6.51074 -14.9746 6.51074 -32.5527q0 -15.625 -5.85938 -32.5518q0 -0.651367 -22.1357 -40.3643q-18.2295 -33.2031 -20.1826 -55.3389v-2.60449
q0 -27.9941 22.7871 -45.5723q34.5049 -24.0889 86.5879 -35.1562q3.25586 -0.651367 50.7812 -8.46387l1.95312 22.1357q-27.9941 4.55664 -46.875 6.50977q32.5527 60.5469 35.1562 137.37l2.60449 1.30176q18.2295 1.95312 23.4375 7.8125
q5.85938 5.20898 7.8125 23.4375l2.60449 25.3906v5.20898z" />
</svg>
