<?xml version="1.0" standalone="no"?>
<!DOCTYPE svg PUBLIC "-//W3C//DTD SVG 1.1//EN" "http://www.w3.org/Graphics/SVG/1.1/DTD/svg11.dtd" >
<svg xmlns="http://www.w3.org/2000/svg" xmlns:xlink="http://www.w3.org/1999/xlink" version="1.1" viewBox="-10 0 520 1000">
   <path fill="currentColor"
d="M321.614 525.295q16.9268 -7.8125 46.2236 -22.7871q5.85938 -3.25586 12.3701 -3.25586q7.8125 0 14.9736 5.85938q55.3389 44.2715 76.8232 61.8496q22.7861 19.5312 27.3438 52.084q0.651367 4.55664 0.651367 8.46289q0 19.5312 -16.2764 31.25
q1.95312 -11.0684 1.95312 -20.834q0 -18.8789 -7.16113 -32.5508q-1.95312 18.2285 -3.90625 37.7598q-27.3438 -14.3223 -30.5996 -16.2754q-5.20801 -3.25586 -7.16113 -9.11523q-1.95312 -5.20898 -16.2764 -50.1309q0 -0.650391 -2.60352 -7.8125h-1.30273
q-0.650391 0.652344 -1.30176 0.652344q1.95312 21.4844 6.51074 61.1973q-4.55762 -0.650391 -9.76562 -0.650391q-55.9902 0 -112.631 48.1758v-77.4727q6.51074 -59.2461 22.1357 -66.4062zM264.974 452.377l-13.6719 31.25q-8.46387 19.5312 -13.0205 29.2969
q3.90625 1.95312 16.9268 7.8125q9.76562 3.90625 15.625 6.51172q5.85938 -13.0215 25.3906 -57.9434q-11.7188 -5.85938 -31.25 -16.9277zM126.953 471.258q-9.76562 -2.60352 -9.76562 -11.7188q0 -1.95312 0.650391 -4.55664q3.25586 -16.2773 6.51074 -24.7402
q8.46387 -18.8809 16.9268 -22.7871q3.25586 -1.95312 9.11523 -1.95312q7.16113 0 18.8799 3.25586q76.8232 20.1816 143.88 63.1504q5.85938 3.25586 5.85938 9.11523q0 2.60352 -1.30176 5.20898q-2.60449 6.50977 -22.7861 57.9414q-13.6719 -5.85938 -73.5684 -31.9004
q-44.2705 -19.5312 -72.2656 -31.25q-20.1816 -9.11523 -22.1348 -9.76562zM120.442 481.023l1.30176 -1.30273q0.651367 -1.30078 1.30273 -1.95312q30.5986 13.0215 82.6816 35.8086q59.8965 26.6914 82.6826 36.457l-0.651367 4.55859
q-19.5312 -1.30273 -20.1816 -1.30273q-67.709 -28.6465 -131.511 -57.291q-0.651367 -0.652344 -15.625 -14.9746zM291.016 422.43l-1.30273 -4.55664q33.2031 -10.418 41.667 -13.0215h0.651367q2.60352 0 5.20801 4.55664q6.51074 11.0684 32.5518 59.8965
q-7.16113 3.25586 -18.2285 9.11523q-13.0215 5.85938 -17.5781 8.46289l-2.60449 -2.60352q5.85938 -5.20898 13.6719 -11.7188q-20.833 -42.3184 -26.042 -52.7344q-0.650391 -1.95312 -5.20801 -1.95312q-1.95312 0 -5.20801 0.650391q-1.95312 0 -17.5781 3.90625z
M322.266 465.398q-0.651367 0.650391 -1.30273 1.95312l-1.30176 1.30273q-67.708 -46.875 -158.203 -69.0117v-3.25391q18.8799 -1.95312 19.5312 -1.95312q72.2656 11.0664 129.558 56.6406q0 0.650391 11.7188 14.3223zM322.266 513.576
q3.90625 -14.9746 20.1816 -22.1367l27.3438 -12.3691q-3.90625 14.3223 -20.1816 22.1348zM177.734 747.299q-83.9844 -5.85938 -137.37 -67.0566q-7.8125 11.7188 -7.8125 22.7871q0 13.6719 12.3701 26.6914q26.041 26.043 66.4062 37.7617
q14.9736 4.55664 31.9004 4.55664h4.55762q21.4844 -0.650391 29.9482 -24.7402zM257.812 740.789q-9.76562 7.8125 -20.834 7.8125q-7.16113 0 -14.3223 -2.60352q33.8535 -14.3242 46.2236 -49.4805q-13.6719 13.0215 -35.8076 33.8555q-0.650391 0 -1.30176 -0.652344
q-1.30176 -1.30078 -1.95312 -1.30078q8.46387 -35.1562 8.46387 -65.1055q0 -11.0664 -1.30273 -22.1348q-16.9268 65.1035 -18.8799 70.9629q-8.46387 26.6934 -20.833 46.2246q-1.30273 1.95312 -27.9951 28.6465q2.60449 0.650391 4.55762 0.650391
q18.2285 0 35.1562 -24.7402q-2.60449 17.5781 -17.5781 30.5996q-15.625 12.3691 -36.459 13.6719h-7.16113q-27.3438 0 -57.292 -13.0215q-48.8281 -20.832 -71.6143 -47.5254q-18.8799 -21.4844 -18.8799 -45.5723q0 -13.6719 5.85938 -27.3438
q16.9268 -41.668 75.5205 -134.115q14.3232 -22.1348 20.833 -31.25q6.51074 -9.11523 15.625 -9.11523q3.90625 0 8.46387 1.95312q13.0205 5.85938 70.9639 31.25q43.6191 18.8809 70.9629 30.5996q15.625 7.16211 15.625 22.1348q1.30273 65.7559 1.30273 92.4492
v13.6719q-1.30273 29.2969 -27.3438 49.4785zM326.822 794.174q11.7188 5.20898 26.042 5.20898q22.1357 0 52.083 -12.3691q50.1309 -20.1836 59.2451 -52.7344q-59.8955 35.1562 -65.1045 37.1094q-5.20801 1.95312 -72.2656 22.7852zM489.583 710.842
q1.95312 -7.16211 3.25488 -11.0684q3.25586 9.76562 3.25586 18.8809q0 23.4375 -20.1826 44.2695q-54.0361 54.6875 -135.417 56.6406h-2.60352q-37.7607 0 -57.9434 -32.5508q-0.650391 -1.95312 -15.625 -31.25q2.60449 -3.25586 7.8125 -9.11523
q5.20898 -5.85938 7.8125 -9.11523q3.90625 13.0215 5.20898 18.2305h1.30176v-16.2773q5.20801 -46.875 35.8076 -67.0566q46.2236 -31.25 86.5879 -31.25q9.76562 0 19.5312 1.95312q28.6465 5.85938 44.2715 27.3438q13.6719 17.5781 13.6719 42.3184
q0 3.90625 -0.651367 8.46289q1.30176 -3.25586 3.90625 -10.416z" />
</svg>
