<?xml version="1.0" standalone="no"?>
<!DOCTYPE svg PUBLIC "-//W3C//DTD SVG 1.1//EN" "http://www.w3.org/Graphics/SVG/1.1/DTD/svg11.dtd" >
<svg xmlns="http://www.w3.org/2000/svg" xmlns:xlink="http://www.w3.org/1999/xlink" version="1.1" viewBox="-10 0 499 1000">
   <path fill="currentColor"
d="M146.484 815.333q-41.0156 0 -50.1309 -26.6924q-2.60352 -7.8125 -2.60352 -14.9736q0 -21.4844 26.041 -35.1562q27.9951 -14.9746 29.9482 -42.9688q1.30176 -13.0215 17.5781 -13.0215q41.667 -0.650391 82.6826 -0.650391q41.666 0 82.6816 0.650391
q16.2764 0 17.5781 13.0215q1.95312 27.9941 29.9482 42.9688q26.042 13.6719 26.042 35.1562q0 7.16113 -2.60449 14.9736q-9.11426 26.6924 -50.1299 26.6924h-207.031zM170.572 670.151q26.042 -79.4277 26.042 -141.928q0 -8.46289 -0.651367 -16.2754h108.073
q-0.651367 7.8125 -0.651367 16.2754q0 62.5 26.6934 141.928h-159.506zM162.109 426.011q-8.46387 -0.651367 -9.11523 -5.20898q-1.30176 -13.0205 -7.16113 -63.8018h39.7139q2.60352 17.5781 2.60352 18.8799q0 8.46387 9.76562 8.46387h20.834
q0 -3.90625 -1.30273 -13.6719q-0.650391 -7.8125 -0.650391 -13.0205h66.4062q0 5.20801 -0.651367 13.0205q-0.651367 9.76562 -1.30176 13.6719h20.833q9.76562 0 9.76562 -8.46387q0 -1.30176 2.60449 -18.8799h40.3643q-5.85938 50.7812 -7.8125 63.8018
q-0.651367 4.55762 -9.11426 5.20898h-175.781zM420.572 840.073q3.25586 5.20801 3.25586 9.11426q0 7.8125 -14.9746 7.8125h-317.708q-14.9736 0 -14.9736 -7.8125q0 -3.90625 3.25488 -9.11426q8.46387 -13.0215 29.9482 -13.0215h281.9q20.834 0 29.2969 13.0215z
M300.781 464.422h-101.562q-16.9277 0 -16.9277 -13.0205q0 -13.6719 16.9277 -13.6719q25.3906 -0.651367 50.7812 -0.651367t50.7812 0.651367q16.9268 0 16.9268 13.0205v0.651367q0 13.0205 -16.9268 13.0205zM333.984 489.161q-0.651367 13.0215 -17.5781 13.0215
h-132.812q-16.9277 0 -16.9277 -13.0215v-0.650391q0 -13.0215 16.9277 -13.0215q33.2031 -0.650391 66.4062 -0.650391t66.4062 0.650391q17.5781 0 17.5781 13.6719z" />
</svg>
