<?xml version="1.0" standalone="no"?>
<!DOCTYPE svg PUBLIC "-//W3C//DTD SVG 1.1//EN" "http://www.w3.org/Graphics/SVG/1.1/DTD/svg11.dtd" >
<svg xmlns="http://www.w3.org/2000/svg" xmlns:xlink="http://www.w3.org/1999/xlink" version="1.1" viewBox="-10 0 519 1000">
   <path fill="currentColor"
d="M477.864 801.661q0 22.1357 -17.9033 38.0859q-17.9043 15.9512 -42.6436 15.9512t-42.3174 -15.9512q-17.5781 -15.9502 -17.5781 -38.0859q0 -22.1348 17.5781 -38.0859q17.5781 -15.9502 42.3174 -15.9502t42.6436 15.9502q17.9033 15.9512 17.9033 38.0859z
M179.036 776.271q0.651367 -2.60352 0.651367 -4.55664q0 -7.8125 -9.11523 -10.417q-2.60352 -0.651367 -4.55664 -0.651367q-7.8125 0 -10.417 9.11523l-10.417 41.666q-0.650391 1.95312 -0.650391 3.90625q0 8.46387 9.11426 11.0684h3.25488
q9.11523 0 11.7188 -8.46387zM98.958 776.271q0.651367 -2.60352 0.651367 -4.55664q0 -7.8125 -9.11523 -10.417q-2.60352 -0.651367 -4.55664 -0.651367q-7.8125 0 -10.417 9.11523l-10.417 41.666q-0.650391 2.60449 -0.650391 4.55762q0 7.8125 9.11426 10.417h3.25488
q9.11523 0 11.7188 -8.46387zM498.047 378.484q0 9.11426 -5.20898 21.4844q-25.3906 61.8486 -108.724 216.797q-110.677 205.729 -151.692 220.703q-54.0371 19.5312 -145.183 19.5312h-11.7188q-54.6875 -0.651367 -67.0576 -14.3232q-6.50977 -7.8125 -6.50977 -25.3906
q0 -5.85938 0.650391 -13.6719l0.651367 -5.85938q3.25488 -33.8535 9.76562 -46.2236q12.3701 -22.1357 46.875 -22.1357q61.1982 0.651367 176.433 0.651367q30.5986 0 115.885 -153.646q63.8027 -114.584 98.3076 -194.662q10.417 -24.7393 25.3906 -24.7393
q4.55762 0 9.11426 1.95312q13.0215 5.85938 13.0215 19.5312z" />
</svg>
