<?xml version="1.0" standalone="no"?>
<!DOCTYPE svg PUBLIC "-//W3C//DTD SVG 1.1//EN" "http://www.w3.org/Graphics/SVG/1.1/DTD/svg11.dtd" >
<svg xmlns="http://www.w3.org/2000/svg" xmlns:xlink="http://www.w3.org/1999/xlink" version="1.1" viewBox="-10 0 520 1000">
   <path fill="currentColor"
d="M59.2441 608.302v-1.95312q0 -44.2705 24.7402 -93.75q102.864 147.136 260.416 260.417q-50.7812 25.3906 -95.7031 25.3906q-19.5312 -51.4326 -82.0312 -107.422q-0.650391 0 -0.650391 -0.651367q-55.9902 -62.5 -106.771 -82.0312zM33.8535 601.141
q-11.7188 11.0674 -31.9004 31.9014q-1.95312 -10.417 -1.95312 -22.7871q0 -20.1816 4.55664 -45.5723q13.6719 -78.7764 69.0107 -133.464q0.651367 0 0.651367 -0.651367q55.3379 -55.3379 133.463 -69.0098q25.3906 -4.55762 45.5732 -4.55762
q12.3701 0 22.7861 1.95312q-20.833 20.1826 -31.9004 31.9014q-91.7969 0.650391 -150.717 60.5469q-58.9189 59.8955 -59.5703 149.739zM43.6191 630.438q39.7139 18.8799 72.2656 49.4795q-16.2754 11.0674 -80.7285 54.0361q-20.834 -37.1094 -27.3438 -68.3594
q10.416 -10.417 35.8066 -35.1562zM155.599 440.984q49.4795 -24.7393 93.75 -24.7393h1.95312q19.5312 50.7812 82.6826 106.771v0.651367q55.9893 62.5 107.422 82.0312q0 44.9219 -25.3906 95.7031q-102.865 -147.136 -260.417 -260.417zM322.916 472.886
q-30.5986 -32.5527 -49.4785 -72.917q24.7393 -24.7393 35.8066 -35.1562q30.5996 5.85938 67.709 27.3438q-42.9688 64.4531 -54.0371 80.7295zM466.146 612.859q11.7188 -11.0674 31.9014 -31.25q1.95312 10.417 1.95312 22.1357q0 20.1816 -4.55762 45.5723
q-13.6719 78.7764 -69.0107 133.464q0 0.651367 -0.650391 0.651367q-54.6875 55.3379 -133.464 69.0098q-25.3906 4.55762 -45.5732 4.55762q-11.7188 0 -22.1348 -1.95312q20.1816 -20.1826 31.25 -31.9014q91.7969 -0.650391 150.716 -60.5469
q58.9189 -59.8955 59.5703 -149.739zM457.031 583.562q-39.7139 -18.8799 -72.917 -49.4795q16.2764 -11.0674 80.7295 -54.0361q21.4844 37.1094 27.3438 68.3594zM427.083 430.567q13.0205 11.0684 22.7861 26.042q-18.8799 13.0205 -87.8906 58.5938l-9.76562 -10.417
l-9.76562 -9.76562q45.5732 -68.3594 57.9434 -87.2393q14.9736 9.76562 26.041 22.1357zM157.552 719.63q-45.5732 68.3594 -57.9424 87.2402q-14.9746 -9.76562 -26.042 -22.7871l-0.651367 -0.650391q-13.0205 -11.0684 -22.7861 -25.3906
q18.8799 -13.0215 87.8906 -58.5938l9.76562 9.76562zM115.234 472.234q5.20801 -7.16113 15.625 -14.3232q45.5723 23.4375 145.833 121.745q0.651367 0 0.651367 0.651367q98.3066 100.26 121.744 145.833q-7.16113 11.0674 -13.6719 16.2764
q-5.20801 6.50977 -16.2754 13.6719q-45.5732 -23.4375 -145.834 -121.745q-0.650391 0 -0.650391 -0.651367q-98.3076 -100.26 -121.745 -145.833q7.8125 -10.417 14.3232 -15.625zM177.734 741.114q29.9473 33.2031 48.8281 72.917l-35.1562 35.1562
q-31.25 -5.85938 -68.3594 -27.3438q42.9688 -64.4531 54.6875 -80.7295z" />
</svg>
