<?xml version="1.0" standalone="no"?>
<!DOCTYPE svg PUBLIC "-//W3C//DTD SVG 1.1//EN" "http://www.w3.org/Graphics/SVG/1.1/DTD/svg11.dtd" >
<svg xmlns="http://www.w3.org/2000/svg" xmlns:xlink="http://www.w3.org/1999/xlink" version="1.1" viewBox="-10 0 520 1000">
   <path fill="currentColor"
d="M111.328 357q40.3643 0 40.3643 5.85938q-84.6357 48.8281 -147.786 145.833q-3.90625 -9.76562 -3.90625 -44.2705v-17.5781q3.90625 -80.0781 13.6719 -80.0781q51.4316 -9.76562 97.6562 -9.76562zM200.521 372.625q111.328 29.2969 176.433 97.6562
q74.2188 74.8701 94.4004 140.625q13.0215 30.5986 13.0215 45.5732q-54.6875 128.255 -184.896 186.849q-111.328 -29.2969 -179.688 -104.167q-60.5469 -59.2441 -85.2861 -120.442q-18.8799 -52.7344 -18.8799 -65.7549q61.8486 -126.953 184.896 -180.339z
M138.021 551.011l17.5781 15.625l17.5781 -15.625h1.95312q2.60449 0 16.9268 17.5781v1.95312l-14.9736 17.5781q0 2.60352 16.9268 16.9268l17.5781 -14.9736h1.95312q2.60449 0 17.5781 16.9268v1.95312l-15.625 16.9268q0 2.60449 17.5781 17.5781
q0 -2.60352 16.9277 -17.5781q2.60352 0 18.8799 19.5312v1.95312l-14.9736 17.5781q0 2.60449 16.9268 16.9277q0 -2.60449 17.5781 -16.9277q2.60449 0 19.5312 18.8809l-15.625 17.5781v1.95312q0 2.60352 15.625 15.625h1.95312q1.95312 0 52.083 -52.084
q0 -2.60352 -17.5781 -17.5781l-17.5781 15.625q-2.60352 0 -18.8799 -19.5312l14.9736 -17.5781q0 -2.60352 -16.9268 -16.9268q0 1.95312 -15.625 14.9736h-1.95312q-2.60449 0 -19.5312 -18.8799l15.625 -16.9268q0 -2.60449 -17.5781 -17.5781
q0 1.95312 -14.9736 15.625h-1.95312q-1.95312 0 -16.9277 -17.5781v-1.95312l14.9746 -17.5781l-18.8809 -16.9277q0 1.95312 -15.625 14.9746h-1.95312q-2.60352 0 -17.5781 -16.9277v-1.95312l15.625 -17.5781l-17.5781 -15.625h-1.95312
q-52.083 48.8281 -52.083 54.0371zM498.047 705.308q1.95312 31.25 1.95312 47.5254v15.625q0 80.7295 -17.5781 80.7295q-37.1094 7.8125 -70.9639 7.8125h-15.625q-16.2764 0 -47.5264 -1.95312v-1.95312l70.3125 -52.083q52.084 -52.084 75.5215 -95.7031h3.90625z" />
</svg>
