<?xml version="1.0" standalone="no"?>
<!DOCTYPE svg PUBLIC "-//W3C//DTD SVG 1.1//EN" "http://www.w3.org/Graphics/SVG/1.1/DTD/svg11.dtd" >
<svg xmlns="http://www.w3.org/2000/svg" xmlns:xlink="http://www.w3.org/1999/xlink" version="1.1" viewBox="-10 0 520 1000">
   <path fill="currentColor"
d="M242.188 357h14.9736q131.511 0 213.542 132.161q29.2969 55.9902 29.2969 110.678v14.9736q0 131.511 -132.162 213.542q-55.9893 28.6455 -110.677 28.6455h-14.9736q-131.511 0 -213.542 -132.161q-28.6455 -55.9902 -28.6455 -110.026v-14.9736
q0 -131.511 132.161 -213.542q55.9893 -29.2969 110.026 -29.2969zM67.708 506.089q39.0625 53.3848 39.0625 62.5q-61.8486 77.4736 -61.8486 81.3799q0 18.8799 27.3438 70.9639q92.4473 7.8125 92.4473 16.2754q0 11.7188 13.0215 67.0576
q39.7129 13.6719 72.2656 13.6719q67.0566 -4.55762 67.0566 -15.625q11.7188 -69.0107 19.5312 -69.0107q93.0996 -8.46289 93.0996 -15.625q17.5781 -30.5986 27.3438 -72.2656q-7.8125 -7.16113 -63.8027 -76.8223v-4.55762q39.0625 -57.292 39.0625 -61.8486
q-37.7598 -65.1045 -102.213 -88.542q-64.4531 50.7812 -82.0312 57.9424l-81.3809 -57.9424q-72.916 33.8545 -98.958 90.4951v1.95312zM246.094 520.411h5.85938q69.0098 49.4795 82.6816 61.1982q-30.5986 101.562 -34.5049 101.562h-102.214
q-5.85938 0 -35.1562 -103.516z" />
</svg>
