<?xml version="1.0" standalone="no"?>
<!DOCTYPE svg PUBLIC "-//W3C//DTD SVG 1.1//EN" "http://www.w3.org/Graphics/SVG/1.1/DTD/svg11.dtd" >
<svg xmlns="http://www.w3.org/2000/svg" xmlns:xlink="http://www.w3.org/1999/xlink" version="1.1" viewBox="-10 0 520 1000">
   <path fill="currentColor"
d="M447.916 760.646q1.95312 -11.0674 1.95312 -20.1816q0 -14.9746 -6.50977 -22.7871l-151.693 -240.234q-23.4375 -37.1094 -41.666 -37.1094q-18.8809 0 -41.667 37.1094l-151.692 240.234q-7.8125 12.3701 -7.8125 26.6934q0 11.7188 4.55664 25.3906
q6.51074 18.8799 25.3906 24.7393h332.683q30.5986 -3.25488 36.458 -33.8545zM492.188 732.651q7.8125 9.11426 7.8125 28.6455q0 10.417 -2.60449 24.7393q-7.16113 38.4121 -45.5732 42.3184h-414.713q-23.4375 -7.16211 -31.9014 -31.9014
q-5.20801 -16.2764 -5.20801 -29.9482q0 -18.8799 9.76562 -33.8535l188.802 -300.131q29.2969 -46.875 52.083 -46.875q23.4375 0 52.7344 46.875zM117.188 702.703q17.5781 0 30.5986 11.7188q11.7188 11.7188 11.7188 29.2969t-11.7188 29.9482
q-13.0205 12.3691 -30.5986 12.3691q-16.9277 0 -29.9482 -12.3691q-11.7188 -12.3701 -11.7188 -29.9482t11.7188 -29.2969q13.0205 -11.7188 29.9482 -11.7188zM205.729 702.703q17.5781 0 29.9482 11.7188t12.3701 29.2969t-12.3701 29.9482
q-12.3701 12.3691 -29.9482 12.3691t-29.2969 -12.3691q-13.0205 -12.3701 -13.0205 -29.9482t13.0205 -29.2969q11.7188 -11.7188 29.2969 -11.7188zM294.271 702.703q17.5781 0 29.2969 11.7188q13.0205 11.7188 13.0205 29.2969t-13.0205 29.9482
q-11.7188 12.3691 -29.2969 12.3691t-29.9482 -12.3691q-12.3691 -12.3701 -12.3691 -29.9482t12.3691 -29.2969q12.3701 -11.7188 29.9482 -11.7188zM382.812 702.703q16.9268 0 29.9473 11.7188q11.7188 11.7188 11.7188 29.2969t-11.7188 29.9482
q-13.0205 12.3691 -29.9473 12.3691q-17.5781 0 -30.5996 -12.3691q-11.7188 -12.3701 -11.7188 -29.9482t11.7188 -29.2969q13.0215 -11.7188 30.5996 -11.7188zM378.255 664.292q0 16.9268 -11.7188 29.2969q-13.0205 12.3691 -29.9482 12.3691
q-17.5781 0 -29.9473 -12.3691q-12.3701 -12.3701 -12.3701 -29.2969q0 -17.5781 12.3701 -29.9482q12.3691 -12.3701 29.9473 -12.3701q16.9277 0 29.9482 12.3701q11.7188 12.3701 11.7188 29.9482zM290.364 664.292q0 16.9268 -13.0205 29.2969
q-11.7188 12.3691 -29.2969 12.3691t-29.9482 -12.3691q-12.3701 -12.3701 -12.3701 -29.2969q0 -17.5781 12.3701 -29.9482t29.9482 -12.3701t29.2969 12.3701q13.0205 12.3701 13.0205 29.9482zM205.729 628.484q-17.5781 0 -29.2969 -12.3701
q-13.0205 -12.3691 -13.0205 -29.2969q0 -17.5781 13.0205 -29.2969q11.7188 -13.0205 29.2969 -13.0205t29.9482 13.0205q12.3701 11.7188 12.3701 29.2969q0 16.9277 -12.3701 29.2969q-12.3701 12.3701 -29.9482 12.3701zM251.953 586.817q0 -17.5781 12.3691 -29.2969
q12.3701 -13.0205 29.9482 -13.0205t29.2969 13.0205q13.0205 11.7188 13.0205 29.2969q0 16.9277 -13.0205 29.2969q-11.7188 12.3701 -29.2969 12.3701t-29.9482 -12.3701q-12.3691 -12.3691 -12.3691 -29.2969zM248.047 552.312q-17.5781 0 -29.9482 -11.7188
q-12.3701 -13.0205 -12.3701 -29.9482q0 -16.9268 12.3701 -29.2969q12.3701 -12.3691 29.9482 -12.3691t29.2969 12.3691q13.0205 12.3701 13.0205 29.2969q0 16.9277 -13.0205 29.9482q-11.7188 11.7188 -29.2969 11.7188zM201.822 664.292q0 16.9268 -12.3691 29.2969
q-12.3701 12.3691 -29.9482 12.3691t-29.2969 -12.3691q-13.0205 -12.3701 -13.0205 -29.2969q0 -17.5781 13.0205 -29.9482q11.7188 -12.3701 29.2969 -12.3701t29.9482 12.3701q12.3691 12.3701 12.3691 29.9482z" />
</svg>
