<?xml version="1.0" standalone="no"?>
<!DOCTYPE svg PUBLIC "-//W3C//DTD SVG 1.1//EN" "http://www.w3.org/Graphics/SVG/1.1/DTD/svg11.dtd" >
<svg xmlns="http://www.w3.org/2000/svg" xmlns:xlink="http://www.w3.org/1999/xlink" version="1.1" viewBox="-10 0 520 1000">
   <path fill="currentColor"
d="M225.26 373.602h14.3232q63.8018 0 111.328 35.8076q-18.8799 18.8799 -19.5312 28.6455q-56.6406 -24.7393 -102.214 -24.7393q-109.375 0 -172.525 111.328q-16.9277 42.3174 -16.9277 82.6826q0 126.302 130.859 184.244q37.7607 9.11523 60.5469 9.11523
q119.141 0 178.386 -119.141q12.3701 -26.6934 15.625 -74.2188q-0.651367 -3.25586 -3.25488 -35.1562q31.25 -10.417 38.4111 -10.417q4.55762 36.458 4.55762 45.5732q0 142.578 -142.578 215.494q-45.5732 17.5781 -84.6357 17.5781h-9.76562
q-129.558 0 -205.729 -131.51q-22.1348 -52.084 -22.1348 -93.75v-16.2764q0 -111.328 106.119 -187.5q57.292 -37.7607 119.141 -37.7607zM413.411 389.227h6.51074q18.2285 0 46.875 22.1357q-111.328 115.234 -113.933 115.886h-3.90625v-45.5732
q0 -39.0625 39.0625 -66.4062q0 -3.25488 25.3906 -26.042zM477.864 425.034q22.1357 27.3438 22.1357 46.875v6.51074q-53.3857 63.8018 -80.0781 63.8018q-16.9277 2.60449 -26.042 2.60449l-31.9014 -2.60449v-1.95312q49.4795 -51.4326 115.886 -115.234z
M235.677 460.19q46.875 0 86.5889 33.2031q1.30176 10.417 1.30176 11.7188l-25.3906 17.5781q-36.458 -23.4375 -65.1045 -23.4375q-75.5205 0 -106.119 83.9844l-1.95312 24.0889q0 76.8223 84.6348 104.166q7.16211 1.95312 18.2295 1.95312h11.7188
q63.1514 0 97.6562 -81.3799q26.6924 -27.3438 35.8076 -42.9688h3.25488q0 2.60449 1.95312 15.625q0 106.771 -113.933 145.183q-22.7861 3.90625 -33.2031 3.90625q-90.4941 0 -135.416 -93.75q-9.11523 -21.4844 -9.11523 -50.7812v-4.55762
q0 -100.261 109.375 -140.625q24.7402 -3.90625 39.7139 -3.90625zM341.146 527.248h3.25488q3.90625 0 22.1357 21.4844q-81.3799 113.932 -119.792 113.932h-7.16113l-3.90625 -2.60352q0 3.90625 -20.1826 17.5781v-1.95312q15.625 -17.5781 15.625 -19.5312
l-1.95312 -9.76562q0 -37.1094 111.979 -119.141zM231.119 546.779q27.3438 3.25488 27.3438 9.11426q-60.5469 60.5469 -60.5469 96.3545h-3.90625q-21.4844 -17.5781 -21.4844 -44.9219q0 -42.3184 44.9219 -58.5938q11.0684 0 13.6719 -1.95312z" />
</svg>
