<?xml version="1.0" standalone="no"?>
<!DOCTYPE svg PUBLIC "-//W3C//DTD SVG 1.1//EN" "http://www.w3.org/Graphics/SVG/1.1/DTD/svg11.dtd" >
<svg xmlns="http://www.w3.org/2000/svg" xmlns:xlink="http://www.w3.org/1999/xlink" version="1.1" viewBox="-10 0 520 1000">
   <path fill="currentColor"
d="M472.656 368.393h9.76562q17.5781 4.55859 17.5781 10.418v2.60352q0 9.76562 -58.5938 86.5879q-154.948 211.59 -266.928 348.959q-29.9473 28.6465 -51.4316 28.6465h-5.85938q-74.8701 0 -113.281 -93.75q-3.90625 -20.834 -3.90625 -33.2031
q0 -54.6875 31.25 -54.6875q37.1094 13.0195 37.1094 41.666q0 54.6875 46.875 70.9629q31.9004 0 37.1094 7.16211h2.60352q27.9951 0 170.573 -198.568zM446.614 787.014q0 22.7852 -17.9033 39.7129q-17.9043 16.9277 -43.2949 16.9277t-43.2939 -16.9277
t-17.9033 -39.7129q0 -24.0898 17.9033 -40.3652t43.2939 -16.2754t43.2949 16.2754q17.9033 16.2754 17.9033 40.3652z" />
</svg>
