<?xml version="1.0" standalone="no"?>
<!DOCTYPE svg PUBLIC "-//W3C//DTD SVG 1.1//EN" "http://www.w3.org/Graphics/SVG/1.1/DTD/svg11.dtd" >
<svg xmlns="http://www.w3.org/2000/svg" xmlns:xlink="http://www.w3.org/1999/xlink" version="1.1" viewBox="-10 0 508 1000">
   <path fill="currentColor"
d="M409.831 766.505q15.625 0 44.2705 57.292q26.6924 29.2969 33.2031 29.2969v3.90625h-470.703q-3.90625 0 -3.90625 -3.90625q11.0674 -31.25 37.1094 -31.25q37.1094 0 56.6406 -51.4326h3.90625q65.7549 55.3389 139.974 55.3389h1.30273q78.125 0 158.203 -59.2451z
M221.68 593.979q24.0889 -14.9746 65.7549 -55.9902q-6.50977 -35.8066 -11.0674 -67.708q-30.5986 -20.833 -73.5674 -24.7393q-39.7139 14.9736 -57.9434 42.9688l-3.90625 -2.60449l3.25586 3.25488v0.651367h-1.30273q-0.650391 6.51074 -0.650391 13.0205
q0 39.7139 13.6719 66.4062q22.1348 8.46387 65.7549 24.7402zM342.122 746.323q-13.0205 4.55664 -27.3438 5.20801q-14.9736 8.46387 -30.5986 13.6719q30.5986 -4.55762 57.9424 -18.8799zM368.164 657.781q2.60449 -13.0205 2.60449 -27.3438
q0 -26.6924 -9.11523 -54.6875l-65.1035 -25.3906q-41.667 41.0156 -67.709 57.292q7.16211 32.5518 7.16211 64.4531q31.9004 25.3906 74.2188 26.6924q36.458 -15.625 57.9424 -41.0156zM399.414 499.578q19.5312 9.76562 33.2031 20.1826l1.30176 -5.85938
q-20.833 -57.9434 -70.9629 -91.7969q-5.85938 -4.55762 -12.3701 -7.8125h-2.60449q4.55762 14.3223 4.55762 27.9941v2.60449q33.2031 31.9014 46.875 54.6875zM404.622 695.542q14.3232 -18.2295 23.4375 -39.0625q-6.50977 9.11426 -14.9736 17.5781
q-3.25488 11.0674 -8.46387 21.4844zM206.706 408.433q1.95312 13.0205 3.25488 23.4375q42.9688 5.20801 73.5674 26.041q24.0889 -11.7188 54.6875 -14.9736q0 -15.625 -7.8125 -32.5518q-4.55664 -3.90625 -11.7188 -10.417q-30.5986 -10.417 -61.8486 -10.417
q-12.3701 0 -26.042 1.30273q-14.9736 8.46289 -24.0879 17.5781zM141.602 573.146q-13.6719 -27.9941 -13.6719 -67.708q0 -6.51074 0.651367 -13.0205q-11.7188 -2.60449 -22.1357 -5.20898q-3.90625 4.55762 -8.46387 11.0684q-18.2285 26.6924 -29.2969 65.1035
q0 0.651367 -0.650391 1.95312q-0.651367 6.51074 -0.651367 12.3701q0 9.76562 1.30176 18.8799q2.60449 7.16211 7.8125 18.2295l1.30273 1.30176q18.2285 8.46387 33.8535 9.11523q5.85938 -20.834 17.5781 -37.7607q5.85938 -7.8125 12.3701 -14.3232zM375.977 571.192
q9.11426 29.2969 9.11426 59.2451q0 11.0674 -1.30176 22.1357q8.46387 3.25488 21.4844 8.46289q11.7188 -12.3691 20.1826 -25.3906q14.3223 -21.4844 19.5312 -40.3643q0.650391 -12.3701 0.650391 -24.0889q-7.16113 -18.2285 -13.0205 -31.9004
q-9.76562 -9.76562 -30.5986 -22.1357q-3.90625 20.833 -19.5312 43.6201zM178.06 740.464q9.11523 7.16113 20.834 14.3223h3.90625v1.30273q14.9736 3.25488 29.2969 3.25488q35.8066 0 70.9629 -18.2295v-27.9941q-42.3174 -3.90625 -74.2188 -27.3438
q-23.4375 14.3223 -55.3379 16.9268q-1.95312 9.11426 -1.95312 17.5781t1.95312 16.2764q0 0.650391 0.650391 1.30176l3.90625 1.95312v0.651367zM157.878 735.255q-0.651367 -7.8125 -0.651367 -16.2754q0 -9.76562 1.30176 -20.1826
q-24.7393 -19.5312 -45.5723 -58.5938q-17.5781 -0.651367 -38.4121 -9.11426q19.5312 63.8018 73.5684 102.213q5.20801 0.651367 9.76562 1.95312zM34.1797 579.005q0 -91.7969 65.7549 -156.9q64.4531 -65.1045 156.25 -65.1045q92.4482 0 157.553 65.1045
q65.1035 65.1035 65.1035 156.9q0 92.4482 -65.1035 156.901q-65.1045 65.1045 -157.553 65.1045q-91.7969 0 -156.25 -65.1045q-65.7549 -64.4531 -65.7549 -156.901z" />
</svg>
