<?xml version="1.0" standalone="no"?>
<!DOCTYPE svg PUBLIC "-//W3C//DTD SVG 1.1//EN" "http://www.w3.org/Graphics/SVG/1.1/DTD/svg11.dtd" >
<svg xmlns="http://www.w3.org/2000/svg" xmlns:xlink="http://www.w3.org/1999/xlink" version="1.1" viewBox="-10 0 520 1000">
   <path fill="currentColor"
d="M278.646 760.971q49.4795 15.625 73.5674 74.8711h-201.822q24.0879 -59.2461 73.5674 -74.8711v-145.832q-42.9688 -12.3711 -70.3125 -57.293q-28.6455 -45.5723 -28.6455 -104.166q0 -15.625 2.60352 -31.25h248.047q1.95312 15.625 1.95312 31.25
q0 58.5938 -27.9941 104.166q-27.9951 44.9219 -70.9639 57.293v145.832zM197.266 698.471q-123.698 -24.0879 -172.526 -156.9q-24.7393 -68.3594 -24.7393 -134.766v-9.76562l0.650391 -18.8809h119.141v39.0625h-80.7285q3.25488 60.5469 22.1348 111.328
q39.7139 107.422 136.068 129.559v40.3633zM500 397.039v6.50977q0 68.3594 -25.3906 138.021q-48.8281 132.812 -171.875 156.9v-40.3633q96.3535 -22.1367 136.067 -129.559q18.8799 -50.7812 22.1357 -111.328h-80.7295v-39.0625h119.141z" />
</svg>
