<?xml version="1.0" standalone="no"?>
<!DOCTYPE svg PUBLIC "-//W3C//DTD SVG 1.1//EN" "http://www.w3.org/Graphics/SVG/1.1/DTD/svg11.dtd" >
<svg xmlns="http://www.w3.org/2000/svg" xmlns:xlink="http://www.w3.org/1999/xlink" version="1.1" viewBox="-10 0 520 1000">
   <path fill="currentColor"
d="M419.271 600.49q3.90625 -9.11523 3.90625 -17.5781q0 -8.46484 -3.25488 -16.2773q-6.51074 -17.5781 -23.4375 -24.7383q-9.11523 -3.90625 -18.2295 -3.90625q-8.46387 0 -16.2764 3.25391q-17.5781 6.51172 -24.7393 23.4375q-3.90625 9.11523 -3.90625 17.5781
q0 8.46484 3.25488 16.2773q6.51074 17.5781 23.4375 24.7383q9.11523 3.90625 17.5781 3.90625q8.46387 0 16.9277 -3.25391q17.5781 -6.51172 24.7393 -23.4375zM440.104 416.896q59.8965 59.8945 59.8965 134.766q0 80.0781 -71.6152 151.691
q-62.5 61.1992 -141.275 63.1523l-199.87 -197.918q1.95312 -78.125 63.8018 -139.973q71.6152 -70.9648 152.995 -70.9648q75.5205 0 136.067 59.2461zM103.516 785.385q2.60352 -3.25391 2.60352 -5.85938q0 -2.60352 -2.60352 -5.20703l-21.4844 -21.4844
q-2.60449 -2.60547 -5.20898 -2.60547q-2.60352 0 -5.85938 2.60547q-2.60352 2.60352 -2.60352 5.20703q0 2.60547 2.60352 5.85938l21.4844 21.4844q2.60449 1.95312 5.20898 1.95312q3.25488 0 5.85938 -1.95312zM74.2188 812.729q2.60352 -3.25391 2.60352 -5.85938
q0 -2.60352 -2.60352 -5.20703l-21.4844 -21.4844q-2.60449 -2.60547 -5.20898 -2.60547q-2.60352 0 -5.85938 2.60547q-2.60352 2.60352 -2.60352 5.85938q0 2.60352 2.60352 5.20703l21.4844 21.4844q1.95312 1.95312 5.20898 1.95312q3.25488 0 5.85938 -1.95312z
M88.541 601.141l166.016 163.412q-13.6719 -1.30273 -38.4111 -5.85938q-10.417 -1.95312 -19.5312 -1.95312q-38.4111 0 -66.4062 31.25q-26.6924 29.9473 -52.7344 59.2441q-8.46387 9.11523 -16.9268 9.11523q-8.46387 0 -16.9277 -8.46484l-33.8535 -33.8535
q-9.76562 -9.11523 -9.76562 -18.2285q0 -8.46484 9.11426 -16.2773q29.9482 -24.7383 60.5469 -51.4316q27.9951 -24.7402 27.9951 -63.8027q0 -12.3691 -2.60449 -25.3906q-5.20801 -25.3906 -6.51074 -37.7598z" />
</svg>
