<?xml version="1.0" standalone="no"?>
<!DOCTYPE svg PUBLIC "-//W3C//DTD SVG 1.1//EN" "http://www.w3.org/Graphics/SVG/1.1/DTD/svg11.dtd" >
<svg xmlns="http://www.w3.org/2000/svg" xmlns:xlink="http://www.w3.org/1999/xlink" version="1.1" viewBox="-10 0 520 1000">
   <path fill="currentColor"
d="M253.906 372.625h19.5312q3.90625 0.651367 3.90625 3.90625q-22.1357 23.4375 -31.25 23.4375q-67.709 0 -131.511 71.6143q-29.2969 45.5732 -35.1562 102.214l-23.4375 21.4844l-1.95312 -3.90625v-19.5312q0 -124.349 132.161 -187.5
q37.1094 -11.7188 67.709 -11.7188zM307.942 378.484q46.2236 13.6719 52.7344 23.4375v1.95312q-36.458 54.0361 -42.9688 59.8955h-1.95312q-17.5781 -16.2754 -38.4111 -54.0361v-1.95312q25.3906 -29.2969 30.5986 -29.2969zM381.51 414.942
q37.1094 27.9951 37.1094 41.0156q-8.46289 4.55762 -67.708 44.2715h-1.95312q-2.60449 0 -15.625 -14.9746v-1.95312q43.6201 -68.3594 48.1768 -68.3594zM257.812 418.849q28.6455 61.1982 129.557 141.928q27.3438 13.0205 27.3438 16.9268q0 32.5518 -19.5312 73.5674
h-1.95312q-57.291 -72.916 -110.025 -127.604l-100.912 -83.334v-1.95312q44.2715 -19.5312 75.5215 -19.5312zM158.854 455.958h3.90625q126.953 87.2402 214.844 214.844v3.90625q-7.8125 13.0215 -20.833 21.4844h-3.90625q-126.953 -87.2393 -215.495 -214.844v-3.90625
q0 -2.60352 21.4844 -21.4844zM430.338 473.536h1.95312q15.625 17.5781 23.4375 55.9902l-29.2969 27.3438h-1.95312q-37.7598 -21.4844 -54.0361 -39.0625v-1.95312q5.85938 -6.51074 59.8955 -42.3184zM120.442 500.229h1.95312q56.6406 73.5674 111.979 130.208
l98.958 81.3799v1.95312q-41.0156 18.8809 -75.5205 18.8809q-28.6465 -60.5469 -130.209 -141.276q-26.6924 -13.0205 -26.6924 -17.5781q0 -29.2969 19.5312 -73.5674zM458.984 556.87l1.95312 3.90625v22.7861q0 111.328 -117.839 178.386
q-42.9688 17.5781 -81.3799 17.5781h-19.5312q-3.90625 0 -3.90625 -3.90625q22.1348 -23.4375 31.25 -23.4375q67.708 0 131.51 -71.6152q33.2031 -52.083 33.2031 -100.911zM91.1455 595.281q31.9014 16.9268 55.9893 39.0625q0 2.60449 -61.8486 44.2705h-1.95312
q-15.625 -17.5781 -23.4375 -55.9893q27.3438 -27.3438 31.25 -27.3438zM164.713 651.271h1.95312q2.60449 0 15.625 15.625v1.95312q-43.6191 67.709 -48.8281 67.709q-36.458 -27.3438 -36.458 -40.3652q8.46387 -4.55664 67.708 -44.9219zM199.869 686.427
q38.4121 46.2246 38.4121 59.8965q-27.3438 27.3438 -30.5996 27.3438q-46.2236 -13.6719 -52.7344 -23.4375v-1.95312q35.8076 -53.3857 44.9219 -61.8496zM418.619 746.323q16.2764 0 46.2246 59.8955q27.9941 31.25 35.1562 31.25v3.90625h-496.094
q-3.90625 0 -3.90625 -3.90625q11.7188 -33.2031 39.0625 -33.2031q39.0625 0 59.8955 -54.0361h3.90625q69.0107 57.9424 147.136 57.9424h1.95312q82.0312 0 166.666 -61.8486z" />
</svg>
