<?xml version="1.0" standalone="no"?>
<!DOCTYPE svg PUBLIC "-//W3C//DTD SVG 1.1//EN" "http://www.w3.org/Graphics/SVG/1.1/DTD/svg11.dtd" >
<svg xmlns="http://www.w3.org/2000/svg" xmlns:xlink="http://www.w3.org/1999/xlink" version="1.1" viewBox="-10 0 499 1000">
   <path fill="currentColor"
d="M87.2402 677.312q-1.30273 -2.60449 -1.30273 -5.85938q0 -5.20801 4.55664 -9.76562q69.0117 -80.0781 139.975 -162.761q0.650391 -0.650391 1.95312 -3.25488q24.0879 54.0361 76.8223 76.1719q-26.6914 23.4375 -27.3438 24.0889q-120.441 104.817 -136.719 118.489
q-5.85938 5.20801 -12.3691 5.20801q-3.25586 0 -6.50977 -1.30176q-29.2969 -11.7188 -39.0625 -41.0156zM350.26 753.484q1.95312 9.76562 1.95312 18.8799q0 27.3438 -20.832 50.1309q-7.16211 7.8125 -27.3438 27.3438q-7.16211 7.16113 -14.3242 7.16113
q-6.50977 0 -13.0195 -6.51074q-5.85938 -6.50977 -5.85938 -13.0205q0 -7.16113 6.50977 -14.3232q4.55664 -4.55664 13.0215 -12.3691q9.11328 -9.11523 12.3691 -13.0215q11.7188 -11.7188 12.3691 -27.3438q0 -16.2754 -11.7188 -27.3438
q-10.416 -11.0674 -25.3906 -11.0674h-1.30078q-15.625 0 -27.9961 12.3701l-65.7539 65.7549q-23.4375 22.7861 -51.4336 22.7861q-11.0664 0 -22.1348 -3.25488q-42.3184 -12.3701 -52.7344 -54.6875q-2.60352 -11.0674 -2.60352 -20.833q0 -27.3438 20.1816 -49.4795
q5.20898 4.55762 13.6719 13.0205q9.11523 9.76562 13.0215 13.6719q-9.11523 9.76562 -9.11523 24.0889v1.30176q0 23.4375 20.834 33.8545q9.11328 4.55762 17.5781 4.55762q12.3691 0 24.0879 -9.76562q1.30273 -1.30273 11.7188 -11.0684
q55.3379 -55.3379 57.9434 -58.5938q22.7852 -21.4844 50.1289 -21.4844q11.7188 0 23.4375 3.25586q42.9688 12.3691 52.7344 55.9893zM416.666 385.646q29.2969 29.2969 29.2969 70.3125t-29.2969 69.6621l-1.95312 1.95312q-39.0625 -16.2764 -81.3789 -58.5938
q-41.668 -41.667 -57.9434 -81.3809q1.95312 -1.30176 1.95312 -1.95312q28.6465 -28.6455 69.6621 -28.6455t69.6602 28.6455zM316.406 486.558q39.0625 39.7129 76.8223 56.6406q-21.4844 11.7188 -45.5723 11.7188q-7.16211 0 -14.3223 -1.30273
q-32.5527 -4.55664 -55.9902 -27.9941t-27.9941 -55.9902q-1.30273 -7.16113 -1.30273 -14.9736q0 -23.4375 11.7188 -45.5732q16.9277 37.7607 56.6406 77.4746z" />
</svg>
