<?xml version="1.0" standalone="no"?>
<!DOCTYPE svg PUBLIC "-//W3C//DTD SVG 1.1//EN" "http://www.w3.org/Graphics/SVG/1.1/DTD/svg11.dtd" >
<svg xmlns="http://www.w3.org/2000/svg" xmlns:xlink="http://www.w3.org/1999/xlink" version="1.1" viewBox="-10 0 520 1000">
   <path fill="currentColor"
d="M111.979 357q40.3652 0 40.3652 5.85938q-85.2871 49.4795 -149.089 146.484q-3.25488 -10.417 -3.25488 -44.9219v-16.9268q3.25488 -81.3809 13.6719 -81.3809q51.4316 -9.11426 98.3066 -9.11426zM200.521 371.974q111.979 29.2969 176.433 98.959
q74.2188 73.5674 94.4004 139.974q13.6719 31.25 13.6719 45.5732q-55.9893 128.255 -185.547 186.849q-111.979 -29.9482 -179.688 -103.516q-60.5469 -60.5469 -85.2861 -121.094q-19.5312 -53.3857 -19.5312 -65.7549q63.1514 -126.953 185.547 -180.99zM138.021 551.011
l17.5781 15.625l16.9268 -15.625h1.95312q3.25586 0 17.5781 18.2285v1.30273l-14.9736 16.9268q0 3.25488 16.9268 18.2295l18.2295 -15.625h1.30176q2.60449 0 16.9277 16.9268v1.30176l-14.9746 18.2295q0 1.95312 17.5781 16.9268q0 -2.60352 16.9277 -16.9268
q1.95312 0 19.5312 18.2295v2.60352l-15.625 17.5781q0 1.95312 17.5781 17.5781q0 -3.25488 16.2754 -17.5781q3.25586 0 20.1826 19.5312l-15.625 16.9277v1.95312q0 1.95312 15.625 15.625h1.95312q2.60449 0 52.083 -52.084q0 -2.60352 -17.5781 -17.5781
l-16.9268 15.625q-3.25488 0 -19.5312 -20.1816l14.9736 -16.2764q0 -2.60449 -16.9268 -17.5781q0 2.60449 -15.625 15.625h-2.60449q-1.95312 0 -18.2285 -19.5312l14.9736 -16.9268q0 -3.25586 -17.5781 -17.5781q0 1.95312 -15.625 14.9736h-1.30176
q-1.95312 0 -16.9277 -16.9268v-1.30273l15.625 -18.2285l-20.1816 -16.9277q0 2.60449 -14.9746 14.9746h-1.30176q-3.25488 0 -18.2295 -17.5781v-1.95312l15.625 -16.9277l-17.5781 -14.9736h-1.95312q-52.083 47.5264 -52.083 53.3857zM498.047 704.656
q1.95312 31.9014 1.95312 48.8281v14.9736q0 80.7295 -16.9277 80.7295q-38.4111 7.8125 -71.6143 7.8125h-14.9736q-16.9277 0 -48.8281 -1.95312v-1.30176l71.6143 -53.3857q51.4326 -51.4326 74.8701 -95.7031h3.90625z" />
</svg>
