<?xml version="1.0" standalone="no"?>
<!DOCTYPE svg PUBLIC "-//W3C//DTD SVG 1.1//EN" "http://www.w3.org/Graphics/SVG/1.1/DTD/svg11.dtd" >
<svg xmlns="http://www.w3.org/2000/svg" xmlns:xlink="http://www.w3.org/1999/xlink" version="1.1" viewBox="-10 0 520 1000">
   <path fill="currentColor"
d="M421.224 632.064q26.042 0 44.9219 -18.2285q18.2295 -18.8809 18.2295 -44.9219q0 -26.6934 -18.2295 -44.9219q-18.8799 -18.8809 -44.9219 -18.8809q-26.6924 0 -44.9219 18.8809q-18.8799 18.2285 -18.8799 44.9219v0.650391q48.8281 13.0215 57.291 62.5h6.51074z
M360.025 586.492q8.46387 29.9473 37.7607 41.666q-8.46387 -29.9473 -37.7607 -41.666zM336.588 708.889q26.6934 0 44.9219 -18.2305q18.8809 -18.8789 18.8809 -44.9219v-0.650391q-48.8281 -13.0215 -57.292 -62.5q-3.25488 -0.650391 -6.51074 -0.650391
q-3.25488 0 -7.8125 0.650391q-8.46289 48.1777 -55.3379 61.8496v1.30078q0 26.043 18.2285 44.9219q18.8809 18.2305 44.9219 18.2305zM311.849 587.143q-27.3438 11.7188 -35.8076 40.3652q27.3438 -11.7188 35.8076 -40.3652zM259.114 632.064
q8.46387 -48.8281 55.3389 -62.5v-0.650391q0 -26.6934 -18.2295 -44.9219q-18.8799 -18.8809 -44.9219 -18.8809t-44.9219 18.8809q-18.8799 18.2285 -18.8799 44.9219l0.650391 0.650391q48.1777 13.0215 56.6406 62.5h14.3232zM190.104 586.492
q9.11523 29.9473 37.7607 41.0156q-9.11426 -29.2969 -37.7607 -41.0156zM166.666 708.889q26.6934 0 44.9219 -18.2305q18.8809 -18.8789 18.8809 -44.9219v-0.650391q-48.1777 -13.6719 -57.292 -62.5q-3.25488 -0.650391 -6.51074 -0.650391
q-5.20801 0 -9.76562 0.650391q-8.46289 46.875 -53.3848 61.1973v1.95312q0 26.043 18.2285 44.9219q18.8809 18.2305 44.9219 18.2305zM139.322 588.445q-24.7393 11.7188 -33.2031 37.7598q24.7402 -11.7188 33.2031 -37.7598zM78.7754 632.064
q5.20898 0 10.417 -0.650391q8.46387 -46.2246 53.3857 -61.1973v-1.30273q0 -26.6934 -18.8809 -44.9219q-18.2285 -18.8809 -44.9219 -18.8809q-26.041 0 -44.9219 18.8809q-18.2285 18.2285 -18.2285 44.9219q0 26.041 18.2285 44.9219q18.8809 18.2285 44.9219 18.2285z
M421.224 489.486q32.5518 0 55.3389 23.4375q23.4375 23.4375 23.4375 55.9902t-23.4375 55.9902q-22.7871 22.7852 -55.3389 22.7852h-5.20801q-1.30273 31.9023 -24.0889 54.6875q-22.7861 22.1367 -55.3389 22.1367q-31.9004 0 -54.6875 -22.1367
q-23.4375 -22.7852 -24.0879 -54.6875h-12.3701q-0.651367 31.9023 -23.4375 54.6875q-22.7861 22.1367 -55.3389 22.1367q-31.9004 0 -55.3379 -22.1367q-22.7871 -22.7852 -23.4375 -54.6875h-9.11523q-32.5518 0 -55.3379 -22.7852q-23.4375 -23.4375 -23.4375 -55.9902
t23.4375 -55.9902q22.7861 -23.4375 55.3379 -23.4375q32.5527 0 55.3389 22.7871q23.4375 22.7871 24.0889 54.6875q4.55664 -0.650391 8.46289 -0.650391q2.60449 0 5.85938 0.650391q0.651367 -32.5527 23.4375 -54.6875q23.4375 -22.7871 55.3389 -22.7871
t55.3389 22.7871q22.7861 22.1348 23.4375 54.6875q3.90625 -0.650391 6.50977 -0.650391q2.60449 0 5.20898 0.650391q1.30176 -32.5527 24.0879 -54.6875q22.7871 -22.7871 55.3389 -22.7871z" />
</svg>
