<?xml version="1.0" standalone="no"?>
<!DOCTYPE svg PUBLIC "-//W3C//DTD SVG 1.1//EN" "http://www.w3.org/Graphics/SVG/1.1/DTD/svg11.dtd" >
<svg xmlns="http://www.w3.org/2000/svg" xmlns:xlink="http://www.w3.org/1999/xlink" version="1.1" viewBox="-10 0 520 1000">
   <path fill="currentColor"
d="M380.208 357h17.5781q94.4014 0 94.4014 18.8799q7.8125 37.7607 7.8125 70.9639v17.5781q0 13.6719 -1.95312 42.3174h-2.60449q-32.5518 -46.875 -65.1045 -80.0781q-60.5469 -55.9893 -82.6816 -63.8018v-3.90625q22.7861 -1.95312 32.5518 -1.95312zM301.432 370.021
q127.604 64.4531 182.943 182.943v2.60352q-26.6934 111.328 -104.167 185.547q-83.333 76.1719 -164.062 98.3076q-6.51074 0 -15.625 4.55762q-132.161 -60.5469 -184.896 -188.803q25.3906 -104.166 97.6562 -177.083q67.0566 -64.4531 138.672 -92.4482
q48.1768 -15.625 49.4785 -15.625zM307.291 495.672l-16.9268 18.8799q2.60449 0 15.625 14.9746v2.60352q0 2.60449 -17.5781 17.5781h-1.95312l-17.5781 -15.625l-15.625 16.9277l15.625 17.5781q0 2.60352 -18.8799 19.5312h-1.95312l-16.9277 -14.9746l-14.9736 16.9277
l14.9736 16.9268q0 1.95312 -19.5312 18.8799h-1.95312l-17.5781 -15.625l-15.625 17.5781l15.625 17.5781q0 3.25586 -19.5312 19.5312l-17.5781 -14.9736q-1.95312 0 -16.2754 16.9268q0 2.60449 51.4316 51.4326q9.76562 -3.90625 16.9277 -14.9736v-1.30273
l-14.9746 -17.5781q0 -3.25488 19.5312 -19.5312l17.5781 15.625q1.95312 0 17.5781 -17.5781q-3.25488 0 -15.625 -15.625v-1.95312q0 -2.60352 18.8809 -19.5312l16.9268 14.9746q2.60449 0 16.9268 -16.9277q-1.30176 0 -14.9736 -14.9736v-1.95312
q0 -1.95312 17.5781 -16.9268h1.95312l17.5781 14.9736l16.9268 -18.8799q-1.95312 0 -15.625 -15.625v-1.95312q0 -3.25586 17.5781 -17.5781h2.60449l17.5781 15.625l16.2764 -19.5312zM1.95312 704.656h5.85938q42.9688 86.5889 144.531 146.484v3.90625
q-32.5527 1.95312 -48.1777 1.95312h-9.76562q-86.5879 0 -86.5879 -15.625q-7.8125 -41.667 -7.8125 -72.917v-15.625q0 -15.625 1.95312 -48.1768z" />
</svg>
