<?xml version="1.0" standalone="no"?>
<!DOCTYPE svg PUBLIC "-//W3C//DTD SVG 1.1//EN" "http://www.w3.org/Graphics/SVG/1.1/DTD/svg11.dtd" >
<svg xmlns="http://www.w3.org/2000/svg" xmlns:xlink="http://www.w3.org/1999/xlink" version="1.1" viewBox="-10 0 520 1000">
   <path fill="currentColor"
d="M213.541 683.823q7.8125 -7.16211 7.8125 -15.625q0 -4.55762 -2.60352 -9.76562q-2.60449 -6.51074 -5.85938 -9.76562q-9.76562 -12.3701 -29.2969 -13.6719q-3.90625 0 -14.9746 12.3691q-16.2754 18.2295 -16.2754 39.0625v1.30273q0 11.7188 2.60352 13.6719
q2.60449 1.95312 14.9746 2.60352q22.1348 -0.650391 43.6191 -20.1816zM490.234 477.442q9.76562 20.1826 9.76562 46.875q0 5.85938 -0.651367 12.3701q-3.25488 40.3643 -22.7861 67.708q-21.4844 29.9482 -63.8027 53.3857q-34.5049 19.5312 -96.3535 33.8545
q-24.0889 5.20801 -67.0576 14.9736q-46.875 9.76562 -67.0576 14.9736h0.651367q0 0.651367 -26.042 9.11523q-2.60352 0.650391 -4.55664 0.650391q-1.30273 0 -2.60449 -0.650391q-10.417 -9.11523 -24.7393 -24.0889q-1.30273 -1.30176 -1.30273 -2.60449
q0 -0.650391 0.651367 -1.95312q7.16113 -12.3691 15.625 -54.0361q3.25488 -15.625 11.7188 -59.2451q7.8125 -37.7598 12.3701 -59.8955q14.9736 -69.0107 46.875 -111.979q31.25 -41.666 71.6143 -53.3848q0.651367 0 28.6455 -5.20898q0.651367 0 5.85938 -1.30176
h21.4844q26.6934 5.20801 27.9951 5.85938q24.7393 7.8125 57.292 32.5518q43.6191 33.8545 66.4062 82.0312zM114.583 712.469l5.85938 -5.85938q5.85938 5.20801 14.9736 14.3232q11.0684 10.416 14.9746 14.3223q-76.1719 77.4746 -89.8438 91.7969
q-1.95312 1.95312 -16.2764 22.7871q-4.55762 7.16113 -11.0674 7.16113q-3.25586 0 -7.16211 -1.95312q-19.5312 -9.76562 -26.041 -29.2969v-2.60449q6.50977 -8.46289 7.16113 -8.46289q12.3701 -6.51074 39.0625 -33.2031q1.30176 -0.651367 68.3594 -69.0107z" />
</svg>
