<?xml version="1.0" standalone="no"?>
<!DOCTYPE svg PUBLIC "-//W3C//DTD SVG 1.1//EN" "http://www.w3.org/Graphics/SVG/1.1/DTD/svg11.dtd" >
<svg xmlns="http://www.w3.org/2000/svg" xmlns:xlink="http://www.w3.org/1999/xlink" version="1.1" viewBox="-10 0 499 1000">
   <path fill="currentColor"
d="M204.428 622.625q-64.4531 61.8486 -109.375 220.703q-4.55859 13.6719 -19.5312 13.6719q-5.85938 0 -13.0215 -1.95312q-20.1816 -5.85938 -20.1816 -18.2295q0 -2.60352 1.30078 -6.50977q10.418 -29.9482 31.9023 -95.7031q20.1816 -61.1982 31.9004 -95.7031
v-40.3652l-45.5723 -7.16113q-15.625 -20.833 -15.625 -44.9219q0 -15.625 6.50977 -33.2031q15.625 -41.0156 53.3848 -62.5l98.959 1.95312l22.1348 31.9014h37.1094l6.51172 27.9941l-5.20898 5.20898q-3.90625 3.25488 -5.85938 5.20801h9.11523
q5.85938 0.651367 9.11328 0.651367q37.7617 -11.7188 162.109 -22.1357q17.5781 0 17.5781 17.5781v3.90625q-1.95312 22.1357 -20.1816 23.4375q-158.203 6.51074 -233.072 76.1719zM163.412 480.698q-11.0684 0 -19.5312 7.16113q-7.16211 7.8125 -7.16211 19.5312
q0 11.0674 7.16211 18.8799q8.46289 7.8125 19.5312 7.8125q11.0664 0 18.8789 -7.8125t7.8125 -18.8799q0 -11.7188 -7.8125 -19.5312q-7.8125 -7.16113 -18.8789 -7.16113zM185.547 369.37q12.3691 12.3691 12.3691 29.9473t-12.3691 29.9482t-29.9473 12.3701
t-29.9492 -12.3701q-12.3691 -12.3701 -12.3691 -29.9482t12.3691 -29.9473q12.3711 -12.3701 29.9492 -12.3701t29.9473 12.3701z" />
</svg>
