<?xml version="1.0" standalone="no"?>
<!DOCTYPE svg PUBLIC "-//W3C//DTD SVG 1.1//EN" "http://www.w3.org/Graphics/SVG/1.1/DTD/svg11.dtd" >
<svg xmlns="http://www.w3.org/2000/svg" xmlns:xlink="http://www.w3.org/1999/xlink" version="1.1" viewBox="-10 0 520 1000">
   <path fill="currentColor"
d="M344.4 843.979q-26.041 10.416 -39.0625 10.416h-2.60352q0 -7.16113 129.557 -191.406q31.25 -34.5049 31.25 -55.9893v-0.651367q-0.650391 -10.416 -7.16113 -14.3223q-3.25488 -3.25586 -7.8125 -3.25586q-13.0205 0 -33.2031 30.5996
q-5.85938 13.0205 -20.833 26.6924q-6.51074 9.11426 -32.5527 30.5986q-4.55664 6.51074 -5.20801 6.51074h-0.651367q0 -3.25488 8.46387 -21.4844q7.8125 -16.9268 17.5781 -37.7607q7.8125 -6.50977 26.042 -70.9629q5.85938 -7.8125 15.625 -39.7139
q4.55664 -12.3701 4.55664 -21.4844q0 -9.76562 -5.20801 -14.9736q-4.55762 -5.85938 -11.7188 -5.85938q-1.95312 -0.651367 -4.55762 -0.651367q-19.5312 0 -29.2969 48.8281q-4.55664 9.11426 -9.11426 24.7393q-3.25488 2.60449 -22.7861 40.3652
q-11.7188 11.0674 -27.3438 44.2705q-6.51074 14.3232 -11.0684 14.3232q-0.650391 0 -1.30176 -0.651367q-1.95312 -1.95312 -2.60449 -6.51074q4.55762 -5.85938 19.5312 -76.8223q3.25586 -5.85938 15.625 -52.7344q0 -5.85938 14.9746 -46.875
q11.0674 -15.625 11.0674 -28.6465q0 -10.416 -7.16113 -18.8799q-6.51074 -3.90625 -12.3701 -3.90625q-8.46387 0 -16.2764 7.8125q-7.16113 6.51074 -10.416 14.9736q-3.25586 1.30273 -20.834 46.875q-6.50977 1.30273 -26.041 64.4531
q-4.55762 0.651367 -16.9277 54.6875q-5.20801 19.5312 -8.46289 19.5312q-1.30273 0 -1.95312 -2.60352q-6.51074 -2.60449 -6.51074 -11.7188q0 -3.25586 0.651367 -7.16211q2.60352 -8.46289 5.85938 -50.7812q3.25488 -10.416 5.20801 -43.6191
q0.651367 -16.9277 3.90625 -29.2969l7.16113 -18.2295q3.90625 -14.3232 3.90625 -24.7393q0 -13.0215 -7.16113 -18.8809q-4.55762 -3.90625 -10.417 -3.90625q-1.95312 0 -4.55664 0.651367h-1.30273q-16.9268 0 -30.5986 54.6875q-1.30176 13.6719 -5.85938 22.7861
q-3.25488 3.25586 -13.6719 57.292q-1.95312 4.55762 -7.8125 44.2705q0 11.7188 -4.55762 24.0889q-3.25488 1.30176 -13.6719 40.3643q-7.8125 24.0889 -39.0625 31.9014h-0.650391q-7.16211 0 -14.9746 -55.9893q-2.60352 -4.55762 -4.55664 -20.834
q-3.90625 -41.0156 -24.0889 -59.2441q-10.417 -9.76562 -20.1826 -10.417h-3.90625q-14.3223 0 -16.2754 13.0205v3.25586q0 5.85938 1.95312 12.3691q-0.651367 1.30273 -0.651367 4.55762q0 13.0205 9.76562 57.292q4.55762 11.7188 11.0674 76.8223
q0 33.8545 14.3232 76.8232q2.60449 8.46387 2.60449 11.7188q0 1.95312 -1.30273 1.95312q-1.30176 0 -4.55664 -3.25488q-74.2188 -75.5215 -74.2188 -178.386q0 -104.167 72.916 -177.734q73.5684 -73.5674 177.084 -73.5674t177.083 73.5674
q72.917 73.5674 72.917 177.734q0 77.4736 -43.6201 141.927q-42.3174 62.5 -111.979 91.1465z" />
</svg>
