<?xml version="1.0" standalone="no"?>
<!DOCTYPE svg PUBLIC "-//W3C//DTD SVG 1.1//EN" "http://www.w3.org/Graphics/SVG/1.1/DTD/svg11.dtd" >
<svg xmlns="http://www.w3.org/2000/svg" xmlns:xlink="http://www.w3.org/1999/xlink" version="1.1" viewBox="-10 0 499 1000">
   <path fill="currentColor"
d="M452.799 585.516q13.6719 16.9268 13.6719 35.8076q0 7.16113 -1.95312 14.3223q-3.25391 18.2295 -17.5781 23.4375q-16.2754 7.16211 -26.041 7.16211q-18.2285 -0.651367 -26.6934 -17.5781q-2.60352 -4.55762 -5.20703 -13.6719
q-0.652344 -3.90625 -3.90625 -3.90625q-29.2969 -5.20898 -58.5938 -33.8545q-5.85938 -5.85938 -19.5312 -22.1357q-1.30273 -1.30176 -2.60547 -1.30176q-0.650391 0 -1.95312 0.651367q-26.6914 14.9736 -31.9004 46.2236q-1.30273 7.16113 -1.30273 15.625
q0 18.2295 6.51172 40.3643q9.11328 33.2031 29.2969 59.8965q14.9727 20.833 17.5781 50.1299q0.650391 5.85938 0.650391 12.3701q0 24.7393 -7.8125 52.7344l-0.650391 5.20801h-5.20898q-24.7402 -4.55762 -26.6934 -4.55762q-44.9219 -8.46289 -86.5879 -26.6924
q-29.9473 -13.0205 -55.3379 -30.5986q-35.1562 -24.7402 -56.6406 -57.292q-29.9492 -44.2705 -29.9492 -93.75q0 -9.76562 1.30273 -19.5312q3.90625 -27.9951 16.2754 -59.8955q10.418 -27.3438 24.7402 -47.5264q31.9004 -45.5732 77.4746 -72.2656
q24.7383 -14.3232 63.1504 -24.0889q35.8066 -9.11426 69.6621 -11.7188q3.90625 0 5.20703 -3.90625q0 -0.650391 5.85938 -9.76562q-33.2031 2.60449 -35.8066 2.60449q-32.5527 3.90625 -64.4531 13.0205q-35.8066 11.0684 -64.4531 29.2969
q-31.9004 19.5312 -53.3848 44.9219q-23.4375 27.9951 -33.8555 54.6875q-6.50977 15.625 -13.6719 40.3652q-7.16016 22.7861 -9.76562 67.708q0 2.60449 1.30273 50.7812v6.51074h-0.650391q-1.30273 -1.95312 -1.30273 -2.60449q-8.46289 -44.9219 -8.46289 -78.125
q0 -9.76562 0.650391 -18.2295q3.25586 -39.0625 13.6719 -66.4062q12.3691 -33.2031 33.2031 -60.5469q14.3223 -18.8799 29.9473 -31.9004q18.8809 -15.625 42.9688 -27.9951q33.8555 -17.5781 63.8027 -24.0889q38.4121 -7.8125 72.2656 -7.8125
q14.3223 0 28.6465 1.30273h1.30078q3.90625 0 9.11523 -3.25586q4.55664 -3.90625 37.1094 -28.6455q-0.650391 4.55762 -3.25586 16.9268q-1.30078 10.417 -2.60352 16.2764q3.90625 -3.25488 11.0684 -9.11426q7.16016 -5.85938 11.0664 -9.11523
q-2.60352 27.9951 -2.60352 29.9482q0 7.16113 3.25586 40.3643q0.650391 2.60449 2.60352 4.55762q12.3691 14.9736 26.6934 44.2705q14.9727 31.9014 31.9004 80.0781q1.30273 5.20898 8.46289 14.3232z" />
</svg>
