<?xml version="1.0" standalone="no"?>
<!DOCTYPE svg PUBLIC "-//W3C//DTD SVG 1.1//EN" "http://www.w3.org/Graphics/SVG/1.1/DTD/svg11.dtd" >
<svg xmlns="http://www.w3.org/2000/svg" xmlns:xlink="http://www.w3.org/1999/xlink" version="1.1" viewBox="-10 0 520 1000">
   <path fill="currentColor"
d="M283.203 380.764q11.7188 11.7188 11.7188 27.9941q0 15.625 -11.7188 27.3438q-11.0684 11.0684 -27.9951 11.0684q-15.625 0 -27.3438 -11.0684q-11.0674 -11.7188 -11.0674 -27.3438q0 -16.2754 11.0674 -27.9941q11.7188 -11.7188 27.3438 -11.7188
q16.9268 0 27.9951 11.7188zM131.51 837.143q-4.55664 7.8125 -14.3223 7.8125q-7.8125 0 -18.2295 -4.55664q-16.2764 -7.16211 -16.2764 -17.5781q0 -4.55664 3.25586 -9.76562l136.067 -238.281q1.95312 -3.25586 1.95312 -6.50977q0 -7.8125 -7.16113 -14.3242
q-5.20898 -5.85938 -10.417 -5.85938q-3.90625 0 -7.16113 2.60547l-24.0889 18.2285q-5.85938 4.55664 -13.0205 4.55664q-7.16211 0 -14.9746 -5.20703q-9.76562 -6.51172 -9.76562 -13.6719q0 -3.90625 1.95312 -8.46484l27.3438 -35.8066l-0.650391 -18.8809
l-7.16211 -7.16016l4.55762 -10.418h-65.7549v49.4805q0 14.9727 -14.9746 14.9727h-29.9473q-14.9746 0 -14.9746 -14.9727v-49.4805h-37.7598v-13.6719h37.7598v-46.875q0 -14.9727 14.9746 -14.9727h29.9473q14.9746 0 14.9746 14.9727v46.875h71.6143l1.30176 -2.60352
q7.8125 -13.6719 21.4844 -13.6719h1.30273q14.3223 0 21.4844 16.2754h81.3799q7.8125 -16.2754 22.1357 -16.2754h0.650391q14.3232 0 22.1357 13.6719l1.30176 2.60352h70.9639v-46.875q0 -14.9727 15.625 -14.9727h29.9482q14.9736 0 14.9736 14.9727v46.875h26.042
v13.6719h-26.042v49.4805q0 14.9727 -14.9736 14.9727h-29.9482q-15.625 0 -15.625 -14.9727v-49.4805h-65.1045l3.90625 10.418l-7.16113 7.16016v18.8809l26.6924 35.8066q2.60449 4.55859 2.60449 8.46484q0 7.16016 -10.417 13.6719q-7.16113 5.20703 -14.3223 5.20703
q-7.16211 0 -13.6719 -4.55664l-24.0889 -18.2285q-2.60449 -2.60547 -5.85938 -2.60547q-5.20801 0 -11.0674 6.51172q-7.16211 6.50977 -7.16211 14.3223q0 3.25586 0.651367 5.85938l136.719 238.281q3.90625 5.20898 3.90625 9.76562q0 10.416 -16.9268 17.5781
q-10.417 4.55664 -18.2295 4.55664q-9.11426 0 -14.3232 -7.8125l-113.932 -190.754q-1.30273 -3.90625 -10.417 -3.90625q-7.8125 0 -9.76562 3.90625z" />
</svg>
