<?xml version="1.0" standalone="no"?>
<!DOCTYPE svg PUBLIC "-//W3C//DTD SVG 1.1//EN" "http://www.w3.org/Graphics/SVG/1.1/DTD/svg11.dtd" >
<svg xmlns="http://www.w3.org/2000/svg" xmlns:xlink="http://www.w3.org/1999/xlink" version="1.1" viewBox="-10 0 520 1000">
   <path fill="currentColor"
d="M395.183 569.891q8.46387 -6.51074 11.7188 -15.625q2.60449 -6.51074 2.60449 -13.6719t-3.25586 -14.9736q-5.85938 -14.3232 -20.833 -20.1826q-6.51074 -2.60449 -13.6719 -2.60449t-14.9736 3.25586q-14.3232 5.85938 -20.1826 20.833
q-2.60449 6.51074 -2.60449 13.0205q0 3.25586 0.651367 5.85938h-0.651367q0 -0.650391 -0.650391 -0.650391q-6.51074 -2.60449 -13.6719 -2.60449q-7.16211 0 -14.9746 3.25488q-14.3223 6.51074 -20.1816 20.834q-2.60449 6.50977 -2.60449 13.6719
q0 7.16113 3.25488 14.9736q6.51074 14.3232 20.834 20.1826q7.16113 2.60352 14.3223 2.60352q9.76562 0 19.5312 -5.85938l-11.7188 28.6465l9.76562 3.90625l11.7188 -28.6465q4.55762 18.2295 22.1357 25.3906q7.16113 2.60449 13.6719 2.60449
q7.8125 0 15.625 -3.25488q14.3232 -6.51074 19.5312 -20.834q3.25488 -7.16113 3.25488 -14.3223q0 -7.16211 -3.25488 -14.3232q-6.51074 -14.3232 -20.833 -20.1826q-0.651367 0 -4.55762 -1.30176zM425.781 729.396q-3.25488 11.0684 -13.6719 16.9277
q-6.50977 3.25488 -13.0205 3.25488q-3.90625 0 -8.46387 -1.30176l-164.062 -48.1777q-11.7188 -3.25488 -17.5781 -13.6719q-3.25488 -6.50977 -3.25488 -13.6719q0 -3.90625 1.30176 -8.46289l72.917 -245.443q3.25488 -11.7188 13.6719 -17.5781
q6.51074 -3.25488 13.0205 -3.25488q3.90625 0 8.46387 1.30176l164.062 48.1777q11.0674 3.25488 16.9268 13.6719q3.90625 6.50977 3.90625 13.6719q0 4.55664 -1.30176 8.46289zM355.469 761.948q-8.46289 6.50977 -18.2285 6.50977q-1.95312 0 -4.55762 -0.650391
l-168.62 -27.9951q-11.7188 -1.95312 -18.2285 -11.7188q-5.85938 -7.8125 -5.85938 -16.2764q0 -2.60352 0.650391 -5.20801l42.3184 -252.604q1.95312 -11.7188 11.0674 -18.8799q7.8125 -5.20801 16.2764 -5.20801q2.60352 0 5.20801 0.650391l35.1562 5.85938
l-65.7549 222.006q-1.95312 7.16113 -1.95312 14.3223q0 12.3701 6.50977 24.0889q9.76562 18.8799 30.5996 24.7393zM293.62 784.083q-7.8125 3.90625 -15.625 3.90625l-170.573 -11.0674q-12.3691 -0.651367 -20.1816 -9.76562q-6.51074 -7.16113 -6.51074 -16.9268
v-3.25586l15.625 -256.51q0.651367 -11.7188 9.76562 -19.5312q8.46387 -7.16211 18.8799 -7.16211h1.95312l30.5996 1.95312l-39.7139 237.631q-0.651367 4.55664 -0.651367 8.46289q0 15.625 9.76562 29.2969q12.3701 17.5781 33.2031 20.834zM177.084 804.266
l-122.396 11.7188h-1.95312q-10.416 0 -18.8799 -6.51074q-9.11426 -7.8125 -9.76562 -19.5312l-24.0889 -255.208v-3.25488q0 -9.76562 6.51074 -17.5781q7.16113 -9.11523 18.8799 -10.417l47.5264 -4.55762l-14.9736 246.745v3.25488q0 18.8809 12.3691 33.8545
q14.3232 15.625 35.1562 16.9268z" />
</svg>
