<?xml version="1.0" standalone="no"?>
<!DOCTYPE svg PUBLIC "-//W3C//DTD SVG 1.1//EN" "http://www.w3.org/Graphics/SVG/1.1/DTD/svg11.dtd" >
<svg xmlns="http://www.w3.org/2000/svg" xmlns:xlink="http://www.w3.org/1999/xlink" version="1.1" viewBox="-10 0 520 1000">
   <path fill="currentColor"
d="M84.6348 372.625q0 -7.16113 5.20898 -11.0674q4.55664 -3.90625 11.0674 -3.90625q5.20801 0 9.11426 0.650391q3.90625 0.651367 7.8125 4.55762l149.089 148.438v4.55762h-46.2236l-135.417 -139.323v-1.30176q-0.651367 -1.30273 -0.651367 -2.60449z
M318.359 530.177h181.641v32.5527h-181.641v-32.5527zM143.229 689.031q0 -4.55762 2.60449 -10.417q3.25488 -5.85938 7.16113 -11.0674t9.76562 -8.46387q5.20898 -3.25488 10.417 -3.25488q14.9736 0 25.3906 9.11426q10.417 9.76562 10.417 24.7402
q0 31.9004 -31.25 31.9004q-14.9746 0 -24.7402 -7.8125t-9.76562 -24.7393zM220.703 823.797l-1.95312 -162.109l-132.812 -135.417q-2.60449 -5.20801 -2.60449 -9.76562q0 -6.50977 6.51074 -10.416q5.20801 -2.60449 9.76562 -2.60449q4.55664 0 9.11426 3.25488
l106.771 98.3076l7.16211 -9.11426v-65.7559h76.8223v121.094q0 11.0684 -6.50977 16.2764q-6.51074 5.85938 -14.3232 9.76562q-8.46387 4.55762 -14.9736 9.76562q-6.51074 5.20801 -6.51074 15.625v137.37h195.964q0.650391 0.650391 1.95312 2.60352
q1.30176 2.60449 2.60352 4.55762q0.651367 0 0.651367 0.651367v3.25488q0 0.651367 -0.651367 0.651367q-1.30176 1.30176 -2.60352 3.25488q-1.30273 1.30176 -1.95312 1.30176h-453.125q0 -0.650391 0.650391 -3.25488v-5.20801q0.651367 -3.25586 1.95312 -5.20898
q1.30273 -2.60352 3.25586 -2.60352h214.844v-16.2764z" />
</svg>
