<?xml version="1.0" standalone="no"?>
<!DOCTYPE svg PUBLIC "-//W3C//DTD SVG 1.1//EN" "http://www.w3.org/Graphics/SVG/1.1/DTD/svg11.dtd" >
<svg xmlns="http://www.w3.org/2000/svg" xmlns:xlink="http://www.w3.org/1999/xlink" version="1.1" viewBox="-10 0 520 1000">
   <path fill="currentColor"
d="M292.969 432.195q12.3691 -12.3691 35.1562 -12.3691q22.1348 0 33.8535 12.3691q12.3701 12.3691 12.3701 34.5059q0 22.7852 -12.3701 34.5039q-11.7188 12.3711 -33.8535 12.3711q-22.7871 0 -35.1562 -12.3711q-11.7188 -11.7188 -11.7188 -34.5039
q0 -22.1367 11.7188 -34.5059zM210.286 563.055q0.651367 2.60352 5.85938 9.11523q5.20801 6.50977 6.51074 7.8125q3.25488 3.25391 9.11426 9.76562l20.1826 20.1816q2.60352 1.95312 3.90625 3.25586h5.20801q0 -0.652344 5.85938 -4.55859t14.3232 -10.416
q7.8125 -6.50977 13.0205 -9.76562l3.90625 -3.90625v-1.30273q0.651367 -0.650391 0.651367 -1.30078l-0.651367 -0.652344v-1.30078q-13.6719 -1.30273 -22.7861 -5.20898q-8.46387 -3.25586 -19.5312 -11.7188h-45.5732zM325.521 638.576
q-1.30176 0.650391 -1.95312 0.650391l-62.5 29.2969h-5.20801q-9.11523 0 -22.7871 -13.0215q-13.0205 -13.0195 -27.3438 -29.9473q-14.9736 -17.5781 -27.9941 -32.5527q-13.0215 -15.625 -22.1357 -21.4844q-7.16113 -3.90625 -14.3232 -5.20703
q-7.8125 -0.652344 -14.3223 -2.60547q-5.85938 -1.30078 -11.0684 -5.20703q-5.20801 -3.90625 -6.50977 -13.6719h-109.375v-23.4375h251.953l16.9268 10.416h130.208q10.417 0 27.9951 6.50977q16.9268 6.51172 33.2031 16.9277t27.9951 23.4375t11.7188 26.6934v188.801
h-46.2246q-1.30176 0 -4.55664 -2.60352q-2.60449 -3.25586 -3.90625 -5.85938l-37.7607 -54.6875q-2.60449 -3.25586 -11.7188 -14.3223q-9.76562 -13.0215 -18.2295 -23.4375q-10.416 -13.0215 -19.5312 -24.7402l-13.0205 -16.9277q-2.60449 -2.60352 -4.55762 -5.85938
l-3.25488 -3.90625q-3.25488 -3.25391 -9.11426 -3.25391h-2.60449z" />
</svg>
