<?xml version="1.0" standalone="no"?>
<!DOCTYPE svg PUBLIC "-//W3C//DTD SVG 1.1//EN" "http://www.w3.org/Graphics/SVG/1.1/DTD/svg11.dtd" >
<svg xmlns="http://www.w3.org/2000/svg" xmlns:xlink="http://www.w3.org/1999/xlink" version="1.1" viewBox="-10 0 520 1000">
   <path fill="currentColor"
d="M159.505 379.136q12.3701 12.3691 12.3701 29.2969q0 16.9268 -12.3701 29.2969q-11.7188 11.7188 -28.6455 11.7188q-16.9277 0 -28.6465 -11.7188q-12.3691 -12.3701 -12.3691 -29.2969q0 -16.9277 12.3691 -29.2969q11.7188 -11.7188 28.6465 -11.7188
q16.9268 0 28.6455 11.7188zM416.016 468.979q-1.30273 -44.9219 -9.11523 -93.75h20.1826q10.417 51.4316 11.7188 99.6094l61.1982 1.95312v5.20801l-60.5469 2.60449v9.76562q0 171.875 -113.933 274.088q87.2393 -97.6562 91.1455 -258.463l-227.864 0.650391
q-13.0205 4.55762 -19.5312 16.9277q-2.60449 11.0674 -2.60449 22.1348q0 9.76562 1.95312 20.1826l140.625 246.094q3.25586 4.55762 3.25586 9.11426q0 9.76562 -13.6719 16.9277q-7.8125 4.55664 -13.6719 4.55664q-7.8125 0 -12.3701 -7.8125
q-20.833 -33.8535 -62.5 -100.911q-41.667 -68.3594 -62.5 -102.214q-9.76562 -11.7188 -20.833 -11.7188q-8.46387 0 -17.5781 9.11523q-57.9434 95.0518 -108.725 176.432l-0.650391 -89.8438l95.0518 -149.088q1.30176 -14.9746 1.30176 -28.6465
q0 -14.9736 -1.95312 -27.3438q-5.20801 -11.7188 -18.2285 -20.833q-11.0684 -6.51074 -29.9482 -18.8799q-18.2295 -11.7188 -29.9482 -18.2295q-7.8125 -5.20801 -7.8125 -13.0205q0 -6.51074 5.85938 -14.9746q9.11523 -13.0205 18.8809 -13.0205
q4.55664 0 9.11426 1.95312q40.3643 25.3906 80.0781 50.1299q49.4795 0 147.136 0.651367t146.484 0.651367z" />
</svg>
