<?xml version="1.0" standalone="no"?>
<!DOCTYPE svg PUBLIC "-//W3C//DTD SVG 1.1//EN" "http://www.w3.org/Graphics/SVG/1.1/DTD/svg11.dtd" >
<svg xmlns="http://www.w3.org/2000/svg" xmlns:xlink="http://www.w3.org/1999/xlink" version="1.1" viewBox="-10 0 520 1000">
   <path fill="currentColor"
d="M169.271 756.088q1.95312 -14.9727 1.95312 -27.3438q0 -93.0977 -111.979 -93.0977h-7.8125q-7.16113 -7.8125 -7.16113 -16.9277v-1.30273q0.651367 -8.46289 5.85938 -13.0195h80.0781l26.042 -41.0156l52.7344 41.666l74.2188 -0.650391
q15.625 0.650391 19.5312 18.2285q33.2031 -12.3691 43.6191 -36.459q4.55762 -11.7188 7.8125 -46.875q59.2451 23.4375 66.4062 29.2969q16.9277 13.0215 16.9277 32.5527q0 15.625 -10.417 35.1562q-85.2861 0.650391 -102.864 93.75q-16.2764 20.834 -67.709 24.7402
q-15.625 0.650391 -44.9219 0.650391q-31.25 0 -42.3174 0.650391zM280.599 491.115q-20.1826 -18.2305 -40.3643 -18.2305q-12.3701 0 -24.7402 6.51172q-8.46289 -11.7188 -8.46289 -26.043q0 -5.85938 1.30176 -12.3691q11.7188 -35.8066 42.3174 -35.8066h5.20898
q40.3643 5.85938 44.2705 39.0625l-32.5518 -7.8125l-1.95312 21.4844l33.8535 7.16016v28.6465zM349.609 551.662l-6.51074 35.1562l-78.7764 -59.2461l-51.4316 71.6152l-53.3857 -40.3652l57.292 -72.916q12.3691 -7.8125 24.0879 -7.8125q9.76562 0 19.5312 5.20898z
M380.208 689.031q-14.9736 14.9746 -14.9736 35.8066v3.90625q0 20.834 14.9736 35.8086q15.625 14.9727 37.7607 14.9727q22.1348 0 37.7598 -14.9727q15.625 -15.625 15.625 -37.7617q0 -22.1348 -15.625 -37.7598t-37.7598 -15.625q-22.1357 0 -37.7607 15.625z
M360.025 784.734q-24.0879 -24.0879 -24.0879 -57.9434q0 -34.5039 24.0879 -58.5938q24.0889 -24.0879 57.9434 -24.0879q33.8535 0 57.9424 24.0879q24.0889 24.0898 24.0889 58.5938q0 33.8555 -24.0889 57.9434t-57.9424 24.0879q-33.8545 0 -57.9434 -24.0879z
M44.9219 689.031q-15.625 15.625 -15.625 37.7598q0 22.1367 15.625 37.7617t37.7598 15.625q21.4844 0 37.1094 -15.625t15.625 -37.7617q0 -22.1348 -15.625 -37.7598t-37.1094 -15.625q-22.1348 0 -37.7598 15.625zM24.0879 784.734q-24.0879 -24.0879 -24.0879 -57.9434
q0 -33.8535 24.0879 -57.9414q24.0889 -24.0898 58.5938 -24.0898q33.8545 0 57.9434 24.0898q24.0879 24.0879 24.0879 57.9414q0 33.8555 -24.0879 57.9434q-24.0889 24.0879 -57.9434 24.0879q-34.5049 0 -58.5938 -24.0879z" />
</svg>
