<?xml version="1.0" standalone="no"?>
<!DOCTYPE svg PUBLIC "-//W3C//DTD SVG 1.1//EN" "http://www.w3.org/Graphics/SVG/1.1/DTD/svg11.dtd" >
<svg xmlns="http://www.w3.org/2000/svg" xmlns:xlink="http://www.w3.org/1999/xlink" version="1.1" viewBox="-10 0 520 1000">
   <path fill="currentColor"
d="M266.275 511.623q11.7188 11.7188 11.7188 27.9941q0 16.2764 -11.7188 27.9951q-11.7188 11.0674 -27.9941 11.0674q-15.625 0 -27.3438 -11.0674q-11.7188 -11.7188 -11.7188 -27.9951q0 -16.2754 11.7188 -27.9941q11.7188 -11.0684 27.3438 -11.0684
q16.2754 0 27.9941 11.0684zM435.547 727.117h64.4531v41.667q-9.11523 0.651367 -33.2031 2.60449q-21.4844 1.95312 -33.2031 1.95312q-28.6465 0 -85.9375 -13.0215q-57.292 -13.0205 -85.2871 -13.0205q-25.3906 0 -83.333 15.625q-42.9688 11.0674 -70.9639 11.0674
q-6.50977 0 -12.3691 -0.650391l-95.7031 -11.0684v-35.1562h179.036l54.6875 -39.0625q9.76562 -6.50977 26.6924 -6.50977h2.60449q14.3232 0 20.833 5.20801l22.7871 33.2031q2.60352 3.90625 7.8125 3.90625q3.25488 0 9.11426 -1.95312
q9.76562 -4.55762 9.76562 -9.76562q0 -1.30176 -0.651367 -3.25488l-42.3174 -72.2656q-3.90625 -4.55762 -11.0674 -4.55762q-5.20898 0 -13.0215 3.90625l-77.4736 40.3643q-6.51074 2.60449 -11.7188 2.60449q-9.76562 0 -14.9736 -7.16113l-57.292 -81.3809v-3.90625
q0 -13.0205 7.16113 -20.1816l-16.9268 -29.2969l-47.5264 -29.9482l-14.9736 -37.7607v-1.95312q0 -4.55664 4.55762 -8.46289l29.2969 -17.5781q2.60352 -1.30273 4.55664 -1.30273q4.55762 0 7.16211 4.55762l24.0879 27.9951l1.95312 59.2441l16.2764 27.9951
q4.55762 -1.30176 9.76562 -1.30176q4.55762 0 10.417 1.30176l46.2236 69.0107l107.422 -60.5469q5.85938 -2.60449 13.6719 -2.60449q3.90625 0 8.46387 0.651367q13.6719 1.30176 20.1816 7.16113l98.959 152.995v0.650391z" />
</svg>
