<?xml version="1.0" standalone="no"?>
<!DOCTYPE svg PUBLIC "-//W3C//DTD SVG 1.1//EN" "http://www.w3.org/Graphics/SVG/1.1/DTD/svg11.dtd" >
<svg xmlns="http://www.w3.org/2000/svg" xmlns:xlink="http://www.w3.org/1999/xlink" version="1.1" viewBox="-10 0 520 1000">
   <path fill="currentColor"
d="M242.188 357h15.625q126.302 0 209.635 125q32.5527 60.5469 32.5527 117.188v15.625q0 126.953 -125 209.636q-60.5469 32.5518 -117.188 32.5518h-15.625q-126.303 0 -209.636 -125q-32.5518 -60.5469 -32.5518 -117.188v-15.625q0 -126.302 125 -209.636
q60.5469 -32.5518 117.188 -32.5518zM57.9424 552.964q24.7393 13.0205 26.6924 17.5781v54.0361q0 1.95312 -28.6455 28.6455q22.1357 78.125 76.8232 115.234q27.9941 20.834 57.291 28.6465q0 -1.95312 19.5312 -18.8809h84.6357q5.20801 1.95312 17.5781 18.8809
q75.5205 -26.6934 115.234 -95.7031q9.76562 -20.1826 16.9268 -48.1777q-28.6455 -24.0879 -28.6455 -34.5049v-48.1768q0 -2.60449 26.6924 -17.5781q-5.85938 -41.0156 -65.1035 -101.562q-60.5469 -44.2715 -126.953 -44.2715q-122.396 0 -184.896 123.047
q-7.16113 20.834 -7.16113 22.7871zM246.094 506.739h7.8125q63.8018 0 141.927 59.8965v57.9424l-59.2451 47.5264q-44.2705 42.9688 -44.2705 69.6611v16.9268q0 3.90625 -3.90625 3.90625h-76.8232q-3.90625 0 -3.90625 -3.90625v-16.9268q0 -44.2705 -103.516 -115.234
v-59.8955q78.125 -59.8965 141.928 -59.8965zM197.916 612.859q9.76562 52.083 52.084 52.083q43.6191 0 52.083 -54.0361q-9.11426 -50.1299 -54.0361 -50.1299q-50.1309 9.76562 -50.1309 52.083z" />
</svg>
