<?xml version="1.0" standalone="no"?>
<!DOCTYPE svg PUBLIC "-//W3C//DTD SVG 1.1//EN" "http://www.w3.org/Graphics/SVG/1.1/DTD/svg11.dtd" >
<svg xmlns="http://www.w3.org/2000/svg" xmlns:xlink="http://www.w3.org/1999/xlink" version="1.1" viewBox="-10 0 520 1000">
   <path fill="currentColor"
d="M334.635 419.5q11.7188 11.7188 11.7188 27.9951q0 16.2754 -11.7188 27.3438q-11.7188 11.7188 -27.9941 11.7188q-16.2764 0 -27.3438 -11.7188q-11.7188 -11.0684 -11.7188 -27.3438q0 -16.2764 11.7188 -27.9951q11.0674 -11.7188 27.3438 -11.7188
q16.2754 0 27.9941 11.7188zM0 752.833l84.6348 -52.083l1.95312 -116.536q0 -13.6719 7.16211 -18.2295l91.1455 -57.292q2.60449 -1.95312 3.25488 -8.46289v-1.95312q0 -4.55762 -1.95312 -6.51074l-42.9688 -26.6924l-106.771 -1.30273q-13.6719 0 -13.6719 -18.2285
q0 -18.8809 13.6719 -18.8809l119.792 -0.650391l121.744 70.9629l67.0576 104.818l67.708 0.650391v-7.8125q8.46387 -10.416 17.5781 -10.416q1.95312 0 3.90625 0.650391q16.9277 4.55762 27.3438 30.5996l38.4121 -0.651367v11.0674h-38.4121
q-8.46289 27.3438 -26.6924 33.2031q-2.60449 0.651367 -5.20801 0.651367q-9.11523 0 -15.625 -9.76562v-9.76562l-88.542 0.651367l-60.5469 -85.9375l-66.4062 34.5049q-5.85938 5.85938 -5.85938 12.3701q0 5.20801 3.25488 10.416l16.2764 31.9014
q3.25488 7.8125 3.25488 16.2764v2.60352q-1.30176 11.0684 -8.46289 14.9746l-205.729 128.255z" />
</svg>
