<?xml version="1.0" standalone="no"?>
<!DOCTYPE svg PUBLIC "-//W3C//DTD SVG 1.1//EN" "http://www.w3.org/Graphics/SVG/1.1/DTD/svg11.dtd" >
<svg xmlns="http://www.w3.org/2000/svg" xmlns:xlink="http://www.w3.org/1999/xlink" version="1.1" viewBox="-10 0 499 1000">
   <path fill="currentColor"
d="M458.658 544.5q0 79.4268 -5.20703 130.208l-3.25586 18.2295q-1.30273 5.85938 -3.90625 11.7188l-5.85938 11.0674q-3.90625 5.20898 -5.20898 7.8125l-57.291 74.2188l-20.1816 26.042q-10.418 16.2764 -20.1836 26.042q-5.85938 7.16113 -15.625 7.16113h-51.4316
q-10.416 -1.95312 -22.7871 -15.625q-31.9004 -34.5049 -31.9004 -75.5205v-1.30273h0.650391q-0.650391 -7.8125 -1.95312 -24.7393q-0.650391 -16.9268 -0.650391 -33.2031l-5.85938 -80.0781q-0.650391 -3.25488 -0.650391 -9.11426v-1.30273
q1.30078 -7.8125 9.11328 -12.3691q1.30273 -0.651367 2.60547 -0.651367q3.90625 0 7.8125 3.90625q5.20703 5.85938 9.11328 13.0205l23.4375 57.9434l22.7871 42.3174q3.90625 7.16113 9.76562 7.16113q1.95312 0 3.90625 -0.650391l3.90625 -1.30273
q76.1719 -30.5986 111.979 -104.817q8.46484 -18.8799 11.0684 -41.667l7.16211 -67.0566q0.650391 -6.51074 7.16016 -7.16211l13.0215 -0.650391h1.30273q6.50977 0 7.16016 7.8125v32.5518zM395.508 546.453q0 -0.651367 0.650391 -1.95312v-1.30176
q0 -56.6406 -34.5039 -101.562l-5.85938 14.9736l26.041 80.7295zM369.467 634.344q20.1816 -31.25 24.7383 -68.3594l-16.9258 -11.0674l-17.5781 27.9941l-3.90625 42.3184zM347.33 569.891l18.2305 -27.9951l-25.3906 -79.4268l-33.2031 -11.0674l-32.5527 41.0156
l20.834 63.1504zM260.742 482.651l31.9004 -41.667l-24.0879 -29.9482h-82.6816l-24.0898 29.9482l31.9023 41.667h67.0566zM180.014 492.417l-32.5527 -41.0156l-33.2031 11.0674l-25.3906 79.4268l17.5781 27.9951l52.7344 -14.3232zM107.748 640.203l-13.0215 7.8125
q29.2969 36.458 72.916 53.3857l3.90625 -14.3232zM98.6328 625.229l-3.90625 -42.3184l-17.5781 -27.9941l-16.9277 11.0674q4.55859 37.1094 24.7402 68.3594zM58.2676 543.198v1.30176q0.652344 1.30176 0.652344 1.95312l13.6719 -9.11426l26.041 -80.7295
l-5.85938 -14.9736q-34.5059 44.9219 -34.5059 101.562zM163.736 386.948q-33.8535 13.6719 -58.5938 39.7129l7.16211 18.8809l33.2031 -11.7188l26.041 -32.5527zM226.889 373.927q-22.1367 0 -46.875 7.16211l6.50977 13.0205h81.3809l6.50977 -13.0205
q-24.7402 -7.16211 -47.5254 -7.16211zM282.877 401.271l26.043 32.5527l33.2031 11.7188l7.16016 -18.8809q-24.7383 -26.041 -58.5938 -39.7129zM366.211 419.5q46.875 52.7344 46.875 123.698q0 6.50977 -0.650391 19.5312q-11.7188 104.817 -108.074 149.088
q-1.95312 0.651367 -3.25391 0.651367q-9.11523 0 -9.11523 -8.46387q0 -3.90625 3.90625 -6.50977q46.875 -28.6465 63.8027 -49.4795l-13.0215 -7.8125l-58.5938 42.9688q-2.60352 1.30176 -4.55664 1.30176q-9.11523 0 -9.11523 -8.46289q0 -5.85938 4.55664 -7.8125
l59.8965 -42.9688l3.90625 -39.0625l-52.7344 -14.3232l-41.0156 29.9482q-1.95312 0.650391 -3.90625 0.650391q-8.46289 0 -8.46289 -8.46289q0 -4.55762 3.90625 -7.16211l37.7598 -27.3438l-19.5312 -59.8955h-63.1504l-19.5312 59.8955l29.2969 21.4844
q3.25391 2.60449 3.25391 6.51074q0 8.46387 -8.46289 8.46387q-2.60352 0 -5.20898 -1.95312v0.650391l-30.5977 -22.7861l-52.084 14.3232l3.25586 39.0625l67.707 48.8281l16.2773 -3.90625l4.55664 9.76562q0 7.16113 -7.8125 8.46289q-1.30273 0 -7.8125 1.95312
l-4.55664 15.625q2.60352 0.651367 11.7188 2.60449q6.50977 1.30176 6.50977 8.46387q0 8.46289 -8.46289 8.46289h-0.652344l-0.650391 -0.650391h-1.95312q-59.2441 -11.7188 -100.26 -55.9902q-41.668 -44.9219 -48.1777 -106.119
q-0.650391 -13.0215 -0.650391 -19.5312q0 -70.9639 46.875 -123.698q31.9004 -35.8076 76.8223 -52.083q29.9473 -10.417 61.8496 -10.417q32.5508 0 62.5 10.417q44.9219 16.2754 76.8223 52.083z" />
</svg>
