<?xml version="1.0" standalone="no"?>
<!DOCTYPE svg PUBLIC "-//W3C//DTD SVG 1.1//EN" "http://www.w3.org/Graphics/SVG/1.1/DTD/svg11.dtd" >
<svg xmlns="http://www.w3.org/2000/svg" xmlns:xlink="http://www.w3.org/1999/xlink" version="1.1" viewBox="-10 0 520 1000">
   <path fill="currentColor"
d="M437.5 775.539l-129.214 35.8154q-7.72461 2.10645 -14.7471 2.10645q-11.2363 0 -21.0674 -4.91602q-16.1523 -7.72461 -22.4717 -25.2803q-2.10742 -6.32031 -2.10742 -14.0449q0 -7.02246 1.4043 -14.0449l2.10742 -0.703125q13.3428 6.32031 28.792 6.32031h2.10645
q45.6465 0 63.2021 -40.7305q17.5566 21.7705 49.8594 21.7705h9.12988q26.6855 0 44.2412 -18.2588q15.4492 -15.4492 21.7695 -44.2412l3.51172 -30.1973q6.32031 -44.2412 6.32031 -84.9717v-14.7471l2.10645 5.61816l2.80859 5.61719q3.51172 7.02344 4.91602 12.6406
q9.83203 35.1123 9.83203 70.2246q0 34.4102 -9.83203 68.8203q-16.8535 52.6689 -52.668 63.2021zM449.438 676.522q-2.10645 7.02246 -4.91504 13.3428q-3.51172 8.42676 -8.42773 14.7471q-12.6396 16.1523 -33.0049 16.1523h-9.12988q-18.2578 0 -31.6006 -11.9385
q-13.3428 -12.6406 -13.3428 -30.1973v-98.3145q0 -9.83105 -9.83203 -9.83105q-9.83105 0 -9.83105 9.83105v113.062q0 20.3652 -14.0449 33.707q-14.0449 13.3428 -35.1123 13.3428h-2.80957q-10.5332 0 -22.4717 -6.32031q-24.5781 -13.3418 -24.5781 -40.7295v-103.23
q0 -9.83203 -10.5342 -9.83203q-9.83105 0 -9.83105 9.83203v84.2695q0 19.6631 -14.0449 33.0059t-35.1123 13.3428h-2.10742q-20.3652 0 -34.4102 -13.3428t-14.0449 -33.0059v-84.2695q0 -9.83203 -9.83105 -9.83203q-10.5342 0 -10.5342 9.83203v73.0332
q0 16.1523 -11.2354 26.6855q-11.2363 10.5342 -28.792 10.5342q-18.2588 0 -26.6855 -6.32031t-13.3428 -22.4727l-4.21387 -18.96q-5.61719 -35.1123 -5.61719 -68.8203q0 -44.2422 9.83105 -87.0791q14.0449 -46.3477 40.0283 -46.3477q18.2578 0 30.8984 24.5781
q3.51172 4.91602 10.5342 4.91602h9.83105q3.51172 0 7.02246 -2.80957q2.80957 -2.80859 2.80957 -7.02246q0.702148 -19.6621 15.4492 -35.1123q14.7471 -14.7471 33.708 -14.7471h2.10645q14.0449 0 25.2812 11.2363q9.12891 9.12891 14.7471 23.1738
q1.4043 5.61816 9.12891 5.61816h9.83105q3.51172 0 7.02246 -2.80859q2.80957 -3.51172 2.80957 -7.02246q0.702148 -20.3652 15.4492 -35.1123q14.7471 -14.748 33.708 -14.748h0.702148q18.9609 0 33.708 14.748q14.7471 14.7471 15.4492 35.1123
q0 9.83105 10.5342 9.83105h9.83105q6.32031 0 9.83105 -7.02246q11.9385 -33.0059 35.8154 -33.0059h9.12891q18.2588 0 30.8984 16.8545q10.5342 14.0449 13.3428 34.4102q5.61816 32.3027 8.42676 59.6904q0.703125 14.0449 0.703125 29.4941q0 38.624 -4.91602 87.0791z
" />
</svg>
