<?xml version="1.0" standalone="no"?>
<!DOCTYPE svg PUBLIC "-//W3C//DTD SVG 1.1//EN" "http://www.w3.org/Graphics/SVG/1.1/DTD/svg11.dtd" >
<svg xmlns="http://www.w3.org/2000/svg" xmlns:xlink="http://www.w3.org/1999/xlink" version="1.1" viewBox="-10 0 520 1000">
   <path fill="currentColor"
d="M204.576 576.717q0 -9.42188 6.72949 -15.4766q6.72949 -6.05664 16.1504 -6.05664t16.1504 6.05664q6.72949 6.05469 6.72949 15.4766q0 8.74805 -6.72949 15.4785q-6.72949 6.05664 -16.1504 6.05664t-16.1504 -6.05664q-6.72949 -6.73047 -6.72949 -15.4785z
M229.475 493.945q-10.0938 0 -17.4961 -6.73047q-7.40234 -7.40234 -7.40234 -16.8242q0 -10.0938 7.40234 -16.8223q7.40234 -7.40234 17.4961 -7.40234q10.0947 0 17.4971 7.40234q7.40234 6.72852 7.40234 16.8223q0 9.42188 -7.40234 16.8242
q-7.40234 6.73047 -17.4971 6.73047zM481.83 658.816q6.05664 0.673828 10.0947 1.3457q8.0752 2.69141 8.0752 11.4414q0 2.01758 -0.672852 4.70898q0 8.75 -14.1318 8.75q-6.72949 0 -18.8428 -0.673828q-12.7861 -1.3457 -18.8428 -1.3457h-13.459
q-8.0752 -0.673828 -13.459 -2.01953q-22.8799 -8.74805 -41.7227 -32.9746q-3.36426 -6.05664 -6.05664 -6.05664h-1.3457q-1.3457 0 -8.74805 6.05664q-2.69238 3.36523 -6.72949 6.05664l-6.72949 4.71094q-8.0752 6.73047 -11.4404 11.4414
q-6.72949 6.05469 -6.72949 17.4961v2.01758q0 8.75 4.03809 23.5547q6.72949 19.5156 6.72949 39.0293q0 15.4785 -12.7861 15.4785q-8.0752 0 -13.459 -6.72852q-3.36523 -4.71094 -5.38379 -12.7871q-2.01855 -13.459 -10.0938 -39.0312
q-4.03809 -10.7656 -5.38379 -16.8223q-0.672852 -3.36523 -0.672852 -6.05664q0 -6.05664 2.01855 -12.1133q1.3457 -6.73047 6.72949 -14.1328l4.71094 -5.38281l4.70996 -6.73047l2.01953 -1.3457l2.01855 -2.69141q2.01855 -2.69141 3.36426 -4.71094
q2.69238 -3.36523 2.69238 -6.72852q0 -2.01953 -1.3457 -4.03906q-3.36523 -4.70898 -16.8242 -4.70898h-3.36426q-6.05664 0 -13.459 0.671875q-5.38379 0.673828 -10.0947 2.01953q-20.8613 3.36523 -41.7227 17.4961l-8.74805 5.38281l-8.0752 4.71094l-1.34668 12.7871
q-0.672852 8.07422 -0.672852 14.1309v39.0312q0 7.40234 -4.70996 12.7871q-4.71094 4.70898 -11.4404 4.70898h-2.01855q-6.05664 0 -10.7676 -5.38281q-4.03711 -5.38281 -4.03711 -12.1133v-48.4512l-0.673828 0.671875h-1.3457q-7.40234 0 -10.7666 -6.05664
q-1.3457 -2.69141 -1.3457 -5.38281q0 -3.36523 2.01855 -8.07617q1.3457 -4.03711 6.72949 -8.07422l-6.72949 -7.40234l-6.72949 -6.73047l-5.38379 -6.05664l-6.05664 -6.05664q-6.05664 -6.72852 -11.4404 -9.41992l-2.01855 -0.673828l-2.01855 -1.3457
q-3.36523 -1.3457 -5.38379 -2.01953h-2.69141q-4.03809 0 -4.03809 4.03906v54.5078q0 7.40234 -2.01855 12.7852q-3.36523 6.05664 -10.0947 10.0957q-5.38281 3.36328 -12.7861 5.38281l-18.8418 6.73047l-18.8428 7.40234q-24.8994 9.41992 -37.6855 14.1309
q-4.03711 2.01953 -8.74805 2.01953q-3.36426 0 -6.72949 -1.3457q-7.40234 -2.69336 -9.4209 -9.42188v-2.01953q-0.672852 -1.3457 -0.672852 -3.36328q0 -9.42188 15.4775 -16.1523l37.6855 -13.459q4.70996 -2.01758 16.1504 -5.38281l8.74805 -2.69141l8.0752 -2.69141
q5.38379 -2.69336 5.38379 -10.7676q0 -2.69141 -0.672852 -7.40234l-0.672852 -2.69141v-37.0137q0 -10.7656 0.672852 -18.8418q2.69141 -19.5156 12.1133 -33.6465q6.05664 -8.07617 20.8613 -22.209l10.7666 -10.7656q5.38379 -5.38477 9.42188 -10.7676
q10.0938 -12.1133 18.1689 -17.4961q9.42188 -6.73047 20.1885 -6.73047h3.36523q8.74805 0 22.207 6.73047l10.7676 5.38281l10.7666 5.38281q40.377 21.5352 66.6221 26.2461q2.01855 1.3457 6.05664 2.01758q4.03711 1.34766 6.05664 2.01953
q10.7666 4.03711 10.7666 11.4395v2.01953l-2.01855 4.03711l-2.01855 4.03906q-2.69238 4.71094 -6.72949 4.71094h-4.03809q-17.4961 -2.69336 -42.3955 -11.4414l-21.5342 -7.40234q-12.1133 -4.71094 -20.8613 -7.40234q-14.8047 0 -22.8809 4.71094
q-6.72949 2.01953 -16.8232 12.7852l-2.01855 2.01953l-2.01953 2.01953l-4.03711 4.03711q-5.38379 6.05664 -6.72949 11.4395q-0.672852 1.3457 -0.672852 2.69336q0 3.36328 2.69141 6.72852l3.36523 4.71094l3.36426 3.36523l9.4209 9.41992
q4.71094 5.38477 8.74902 8.07617l9.4209 7.40234q4.71094 4.71094 8.0752 8.07617q20.8613 -14.8066 32.9746 -24.2266q25.5723 -19.5156 45.0879 -21.5352q12.7861 -2.01758 24.2256 -2.01758q11.4404 0 21.5342 2.01758q54.5088 8.07617 74.6973 43.0684
q2.01953 3.36523 4.71094 8.74805l4.71094 9.42188q5.38281 10.7676 11.4395 14.8047q8.74902 4.03906 20.8613 5.38477q4.71094 0.671875 10.7676 0.671875h21.5342z" />
</svg>
