<?xml version="1.0" standalone="no"?>
<!DOCTYPE svg PUBLIC "-//W3C//DTD SVG 1.1//EN" "http://www.w3.org/Graphics/SVG/1.1/DTD/svg11.dtd" >
<svg xmlns="http://www.w3.org/2000/svg" xmlns:xlink="http://www.w3.org/1999/xlink" version="1.1" viewBox="-10 0 503 1000">
   <path fill="currentColor"
d="M400.391 857h-300.781q-1.30273 0 -2.60449 -0.651367q-3.25488 0 -6.51074 -0.650391q-30.5986 -3.90625 -50.7812 -27.9951q-9.76562 -11.7188 -13.6719 -26.6924q-5.85938 -26.6934 -7.8125 -54.0371q-0.650391 -10.416 -0.650391 -20.833
q0 -27.9951 5.20801 -55.9893q10.417 -52.7344 39.0625 -98.3076q20.1826 -33.2031 49.4795 -59.8955q2.60352 -1.95312 5.20801 -1.95312h263.021q7.8125 0 13.6719 5.85938q85.9375 85.2861 89.1934 205.729v6.51074q0 26.6924 -4.55762 53.3857
q-0.651367 2.60352 -0.651367 4.55664q-1.30176 9.76562 -4.55664 18.2295q-15.625 42.3174 -59.8965 50.7812q-3.90625 1.30176 -8.46289 1.30176q-1.95312 0.651367 -3.90625 0.651367zM276.041 642.156l35.1562 -3.90625v-1.30176q-7.16113 -27.3438 -33.8535 -35.8076
q-5.85938 -1.95312 -12.3701 -3.25488q-2.60449 0 -5.85938 -1.30273v-10.416h-20.1826v11.0674h-1.30176q-12.3701 1.30176 -22.7861 5.85938q-29.2969 14.3232 -29.2969 41.667q0 6.50977 1.95312 14.3223q5.85938 18.8809 23.4375 27.9951q12.3691 7.16113 26.041 10.417
q0.651367 0 1.30273 0.650391q0.650391 0.651367 0.650391 1.30273v47.5254q-17.5781 -7.8125 -22.1348 -26.041q-18.8809 1.95312 -36.459 3.25488q1.95312 15.625 11.0684 27.9951q13.6719 16.9268 35.1562 21.4844q3.90625 0.650391 8.46289 1.30176
q1.95312 0.651367 3.90625 0.651367v21.4844h20.1826v-21.4844q3.90625 -0.651367 7.16113 -1.95312q7.8125 -1.30273 14.3232 -3.90625q31.9014 -11.0684 36.458 -44.2715v-5.20801q0 -24.7393 -22.1348 -37.7607q-9.76562 -5.20801 -19.5312 -8.46289
q-5.85938 -1.95312 -11.0684 -3.25586l-5.20801 -1.30176v-45.5732q13.6719 4.55762 16.9268 18.2295zM341.797 357q1.95312 0 3.25488 0.651367q3.90625 0 7.8125 0.650391q31.9014 5.85938 56.6406 26.6934q13.6719 10.416 24.7393 24.7393l-0.650391 0.651367
q-0.651367 0 -1.30273 0.650391q-31.25 28.6465 -62.5 57.9434q-1.30176 1.95312 -3.90625 1.95312q-50.7812 -0.651367 -101.562 -0.651367h-130.208q-1.30176 0 -2.27832 -0.325195q-0.976562 -0.326172 -1.62793 -0.326172q-23.4375 -22.1348 -47.5264 -44.9219
l-15.625 -14.3223l-0.650391 -0.651367h-0.651367q0.651367 -1.30176 1.30176 -1.95312q1.30273 -1.95312 2.60449 -3.25488q24.0889 -27.9951 58.5938 -41.0156q13.6719 -5.20898 27.9951 -5.85938q0.650391 -0.651367 1.30176 -0.651367h16.2764l5.20801 1.30176
q18.8799 3.25586 35.8076 12.3701q9.76562 5.85938 19.5312 10.417q7.8125 3.90625 15.625 3.90625t15.625 -3.90625q8.46289 -4.55762 17.5781 -9.11523q15.625 -9.11426 33.2031 -13.0205q3.90625 -0.651367 8.46289 -1.30176q1.95312 -0.651367 3.90625 -0.651367
h13.0215zM259.114 748.927v-46.2236q5.85938 1.30176 11.3936 3.90625q5.5332 2.60449 8.78906 7.8125q3.25488 5.20801 3.25488 11.0674q0 3.25586 -1.30176 7.16211q-2.60449 6.50977 -9.11523 11.0674q-6.50977 4.55762 -13.0205 5.20801zM238.281 663.641
q-7.8125 -2.60449 -12.6953 -7.8125t-4.88281 -12.3701q0 -7.16113 5.20801 -12.6953q5.20801 -5.5332 12.3701 -7.48633v40.3643z" />
</svg>
