<?xml version="1.0" standalone="no"?>
<!DOCTYPE svg PUBLIC "-//W3C//DTD SVG 1.1//EN" "http://www.w3.org/Graphics/SVG/1.1/DTD/svg11.dtd" >
<svg xmlns="http://www.w3.org/2000/svg" xmlns:xlink="http://www.w3.org/1999/xlink" version="1.1" viewBox="-10 0 520 1000">
   <path fill="currentColor"
d="M491.525 398.721q8.47461 0 8.47461 8.47461v399.609q0 8.47461 -8.47461 8.47461h-483.051q-8.47461 0 -8.47461 -8.47461v-233.377q0 -7.82324 8.47461 -7.82324h66.4922q8.47461 0 8.47461 7.82324v205.997q0 7.82324 8.47461 7.82324h38.4619
q8.47461 0 8.47461 -7.82324v-122.556q0 -8.47363 8.47461 -8.47363h66.4922q8.47461 0 8.47461 8.47363v122.556q0 7.82324 8.47461 7.82324h38.4619q8.47461 0 8.47461 -7.82324v-261.408q0 -8.47461 8.47461 -8.47461h66.4922q8.47461 0 8.47461 8.47461v261.408
q0 7.82324 8.47461 7.82324h38.4619q8.47461 0 8.47461 -7.82324v-372.229q0 -8.47461 8.47461 -8.47461h66.4932z" />
</svg>
