<?xml version="1.0" standalone="no"?>
<!DOCTYPE svg PUBLIC "-//W3C//DTD SVG 1.1//EN" "http://www.w3.org/Graphics/SVG/1.1/DTD/svg11.dtd" >
<svg xmlns="http://www.w3.org/2000/svg" xmlns:xlink="http://www.w3.org/1999/xlink" version="1.1" viewBox="-10 0 520 1000">
   <path fill="currentColor"
d="M0 480.533q0 -33.8984 33.8975 -33.8984h203.391v84.0947q-28.6836 3.91113 -48.2402 25.4229q-19.5566 22.165 -19.5566 50.8477q0 28.6836 19.5566 50.8477q20.209 22.1641 48.2402 24.7715v84.7461h-203.391q-33.8975 0 -33.8975 -33.8984v-50.8477h84.7451v-151.89
h-84.7451v-50.1963zM466.102 446.635q33.8984 0 33.8984 33.8984v50.1963h-84.7461v151.89h84.7461v50.8477q0 33.8984 -33.8984 33.8984h-203.39v-84.7461q28.6826 -3.91113 48.2393 -25.4238q19.5566 -21.5117 19.5566 -50.1953q0 -29.335 -19.5566 -51.499
q-20.208 -22.1641 -48.2393 -24.7715v-84.0947h203.39zM186.44 607q0 -50.1953 50.8477 -59.3223v117.992q-50.8477 -8.47461 -50.8477 -58.6699zM436.114 552.241h63.8857v108.866h-63.8857v-108.866zM63.8848 661.107h-63.8848v-108.866h63.8848v108.866zM313.559 607
q0 50.1953 -50.8467 58.6699v-117.992q50.8467 9.12695 50.8467 59.3223z" />
</svg>
