<?xml version="1.0" standalone="no"?>
<!DOCTYPE svg PUBLIC "-//W3C//DTD SVG 1.1//EN" "http://www.w3.org/Graphics/SVG/1.1/DTD/svg11.dtd" >
<svg xmlns="http://www.w3.org/2000/svg" xmlns:xlink="http://www.w3.org/1999/xlink" version="1.1" viewBox="-10 0 520 1000">
   <path fill="currentColor"
d="M314.606 360.434q29.3389 119.85 83.6455 401.996l-315.854 74.9062q-55.5557 -265.293 -82.3975 -403.244q47.4404 -11.2363 314.606 -73.6582zM38.7012 459.684q11.8604 61.7988 13.1094 61.7988q247.19 -55.5566 251.561 -59.3008l-11.8604 -60.5508zM343.945 415.988
q156.055 31.8359 156.055 39.3262q-80.5244 388.889 -84.8936 398.252h-1.24902q-154.807 -35.5801 -154.807 -39.3262v-2.49609q117.978 -28.7148 158.552 -36.8301q-50.5615 -244.068 -50.5615 -253.432q16.8545 2.49609 81.1484 19.3496
q1.87305 -5.61719 13.7334 -62.4219q-106.117 -23.7207 -106.117 -29.3379q-7.49121 0 -11.8604 -33.084zM131.086 558.936q21.2236 98.002 42.4473 205.992q46.1924 0 96.7539 -34.332q16.2295 -21.2246 16.2295 -40.5742q-7.49023 -54.3086 -48.6885 -54.3086
l-1.87305 -3.74414v-2.49805q13.1084 0 21.2236 -36.8281v-6.24219q0 -38.7012 -50.5615 -45.5684h-1.87305q-19.9756 0 -73.6582 18.1035zM199.126 560.807q34.332 0 34.332 38.0781q0 28.0898 -57.4277 41.8223q-3.74609 -2.49609 -15.6055 -68.6641
q11.8594 -6.24219 38.7012 -11.2363zM215.98 651.943h8.11426q34.9561 4.99414 34.9561 38.0781v8.11523q0 30.5859 -62.4219 41.1973h-1.87207l-16.8545 -78.6523q0 -3.74414 38.0781 -8.73828z" />
</svg>
