<?xml version="1.0" standalone="no"?>
<!DOCTYPE svg PUBLIC "-//W3C//DTD SVG 1.1//EN" "http://www.w3.org/Graphics/SVG/1.1/DTD/svg11.dtd" >
<svg xmlns="http://www.w3.org/2000/svg" xmlns:xlink="http://www.w3.org/1999/xlink" version="1.1" viewBox="-10 0 520 1000">
   <path fill="currentColor"
d="M194.01 658.433q3.25586 -5.20898 3.25586 -10.417q0 -2.60449 -0.651367 -5.20801q-1.95312 -8.46387 -9.76562 -12.3701q-5.20801 -3.25488 -10.417 -3.25488q-2.60352 0 -5.20801 0.650391q-7.8125 1.95312 -12.3701 9.76562q-2.60352 4.55762 -2.60352 9.76562
q0 3.25586 0.650391 5.85938q1.95312 7.8125 9.11523 12.3701q5.20801 2.60449 9.76562 2.60449q3.25488 0 5.85938 -0.651367q8.46289 -1.95312 12.3691 -9.11426zM222.656 767.808q2.60352 -4.55762 2.60352 -9.76562q0 -2.60449 -0.650391 -5.85938
q-1.95312 -8.46387 -9.11523 -12.3701q-5.20801 -3.25488 -10.416 -3.25488q-2.60449 0 -5.20898 0.650391q-8.46289 2.60449 -12.3691 9.76562q-3.25586 5.20898 -3.25586 10.417q0 2.60449 0.651367 5.20801q1.95312 7.8125 9.76562 12.3701
q4.55762 2.60449 9.76562 2.60449q2.60449 0 5.85938 -0.651367q7.8125 -1.95312 12.3701 -9.11426zM154.947 730.698q2.60449 -5.20898 2.60449 -10.417q0 -2.60449 -0.651367 -5.20801q-1.95312 -8.46387 -9.76562 -13.0215q-4.55664 -2.60352 -9.76562 -2.60352
q-3.25488 0 -5.85938 0.650391q-7.8125 1.95312 -12.3691 9.76562q-2.60449 4.55762 -2.60449 9.76562q0 3.25586 0.651367 5.85938q1.95312 7.8125 9.11426 12.3701q5.20801 2.60449 10.417 2.60449q2.60352 0 5.20801 -0.651367q8.46387 -1.95312 13.0205 -9.11426z
M85.2861 686.427q2.60449 -4.55664 2.60449 -9.76562q0 -3.25488 -0.651367 -5.85938q-1.95312 -7.8125 -9.76562 -12.3691q-4.55762 -2.60449 -9.11426 -2.60449q-3.25586 0 -5.85938 0.651367q-8.46387 1.95312 -13.0215 9.11426q-2.60352 5.20801 -2.60352 10.417
q0 2.60352 0.650391 5.20801q1.95312 8.46387 9.11523 12.3701q5.20801 3.25488 11.0674 3.25488q1.95312 0 4.55762 -0.651367q8.46289 -1.95312 13.0205 -9.76562zM113.281 795.802q2.60352 -4.55664 2.60352 -9.76562q0 -2.60352 -0.650391 -5.85938
q-1.95312 -7.8125 -9.11523 -12.3691q-4.55664 -2.60449 -9.76562 -2.60449q-2.60352 0 -5.85938 0.651367q-8.46289 1.95312 -12.3691 9.11426q-3.25586 5.20801 -3.25586 11.0674q0 1.95312 0.651367 4.55762q2.60449 8.46387 9.76562 12.3701
q5.20801 3.25488 10.417 3.25488q2.60352 0 5.20801 -0.651367q7.8125 -1.95312 12.3701 -9.76562zM186.849 581.609q4.55762 -1.30176 9.11426 -1.30176q9.11523 0 17.5781 5.20801q12.3701 7.16113 16.2764 20.833l41.667 161.459q1.30176 4.55664 1.30176 8.46289
q0 9.11523 -5.20801 17.5781q-7.16211 13.0215 -21.4844 16.2764l-160.808 41.667q-4.55762 1.30176 -9.11426 1.30176q-9.11523 0 -17.5781 -5.20801q-12.3701 -7.16211 -15.625 -20.834l-41.667 -161.458q-1.30176 -4.55762 -1.30176 -9.76562
q0 -8.46387 4.55664 -16.2764q7.8125 -13.0205 21.4844 -16.2754zM447.916 531.479q0.651367 -2.60449 0.651367 -4.55762q0 -5.85938 -3.90625 -11.0674q-4.55762 -7.16211 -13.0205 -8.46387q-2.60449 -0.651367 -4.55762 -0.651367q-5.20801 0 -10.417 3.25586
q-7.16113 4.55664 -9.11426 13.0205v3.90625q0 5.85938 3.25488 11.7188q4.55762 7.16113 13.0215 8.46387q2.60352 0.650391 5.20801 0.650391q5.20801 0 10.417 -3.25488q7.16113 -5.20801 8.46289 -13.0205zM385.416 437.078v-3.90625q0 -5.85938 -3.25488 -11.0674
q-4.55762 -7.16211 -13.0205 -9.11523h-3.90625q-5.85938 0 -11.7188 3.25586q-6.51074 4.55664 -8.46387 13.0205q-0.651367 2.60449 -0.651367 4.55762q0 5.85938 3.90625 11.0674q4.55762 6.51074 13.0215 8.46387q2.60352 0.650391 4.55664 0.650391
q5.85938 0 10.417 -3.90625q7.16113 -4.55664 9.11426 -13.0205zM354.166 593.979v-3.90625q0 -5.85938 -3.25488 -11.7188q-4.55762 -7.16211 -13.0205 -8.46387q-2.60449 -0.651367 -5.20898 -0.651367q-5.20801 0 -10.416 3.25586q-7.16211 5.20801 -8.46387 13.6719
q-0.651367 1.95312 -0.651367 3.90625q0 5.85938 3.90625 11.0674q4.55762 7.16113 13.0215 9.11426h3.90625q5.85938 0 11.0674 -3.25488q7.16113 -4.55762 9.11426 -13.0205zM291.666 499.578v-3.25488q0 -5.85938 -3.25488 -11.7188q-4.55762 -7.16211 -13.0205 -9.11523
h-3.90625q-5.85938 0 -11.7188 3.25586q-7.16211 4.55664 -8.46387 13.0205q-0.651367 2.60449 -0.651367 5.20801q0 5.20898 3.25586 10.417q5.20801 7.16113 13.0205 8.46387q2.60449 0.650391 5.20801 0.650391q5.20898 0 10.417 -3.25488
q7.16113 -5.20801 9.11426 -13.6719zM494.141 515.203q5.85938 8.46387 5.85938 18.8799q0 3.25586 -0.651367 7.16211q-3.25488 14.3223 -14.9736 22.1348q-145.183 96.3545 -149.089 97.6562q-5.20801 1.30273 -9.76562 1.30273q-17.5781 0 -27.9951 -16.2764
l-92.4473 -138.021q-5.85938 -9.11523 -5.85938 -19.5312q0 -3.90625 0.650391 -7.16211q3.25586 -13.6719 14.9746 -22.1348l138.672 -91.7969q4.55664 -3.90625 10.416 -5.20898q5.20898 -1.30176 10.417 -1.30176q16.9268 0 27.3438 15.625z" />
</svg>
