<?xml version="1.0" standalone="no"?>
<!DOCTYPE svg PUBLIC "-//W3C//DTD SVG 1.1//EN" "http://www.w3.org/Graphics/SVG/1.1/DTD/svg11.dtd" >
<svg xmlns="http://www.w3.org/2000/svg" xmlns:xlink="http://www.w3.org/1999/xlink" version="1.1" viewBox="-10 0 520 1000">
   <path fill="currentColor"
d="M329.427 670.802q0 -5.20801 -5.20801 -9.76562q-3.90625 -3.90625 -9.76562 -3.90625h-2.60449l-38.4111 -39.0625q2.60352 -5.20801 2.60352 -11.0674t-2.60352 -11.0674l38.4111 -39.0625h2.60449q5.85938 0 9.76562 -3.90625q5.20801 -5.20898 5.20801 -9.76562
q0 -5.20898 -5.20801 -10.417q-5.20898 -5.20801 -10.417 -5.20801q-4.55762 0 -9.76562 5.20801q-3.90625 3.90625 -3.90625 9.76562v2.60449l-39.0625 38.4111q-5.20801 -2.60449 -11.0674 -2.60449t-11.0684 2.60449l-39.0625 -38.4111v-2.60449
q0 -5.85938 -3.90625 -9.76562q-4.55664 -5.20801 -9.76562 -5.20801q-5.20801 0 -10.416 5.20801q-4.55762 5.20801 -4.55762 10.417q0 4.55664 4.55762 9.76562q3.90625 3.90625 9.76562 3.90625h2.60352l38.4121 39.0625q-2.60449 5.20801 -2.60449 11.0674
t2.60449 11.0674l-38.4121 39.0625h-2.60352q-5.85938 0 -9.76562 3.90625q-4.55762 4.55762 -4.55762 9.76562q0 5.20898 4.55762 10.417q5.20801 4.55762 10.416 4.55762q5.20898 0 9.76562 -4.55762q3.90625 -3.90625 3.90625 -9.76562v-2.60449l39.0625 -38.4111
q5.20898 2.60449 11.0684 2.60449t11.0674 -2.60449l39.0625 38.4111v2.60449q0 5.85938 3.90625 9.76562q5.20801 4.55762 9.76562 4.55762q5.20801 0 10.417 -4.55762q5.20801 -5.20801 5.20801 -10.417zM250 472.886q55.3379 0 95.0518 39.0625
q39.0625 39.7129 39.0625 95.0518t-39.0625 95.0518q-39.7139 39.0625 -95.0518 39.0625q-55.3389 0 -95.0527 -39.0625q-39.0625 -39.7129 -39.0625 -95.0518t39.0625 -95.0518q39.7139 -39.0625 95.0527 -39.0625zM468.75 635.646q7.16113 0 7.8125 -6.50977
q1.30176 -11.7188 1.30176 -22.1357q0 -8.46387 -0.651367 -16.2764q-0.650391 -7.16113 -6.50977 -7.16113h-1.30273l-29.9473 2.60449q-7.16211 0.650391 -7.16211 6.50977v1.30273q0.651367 6.50977 0.651367 13.0205q0 9.11426 -0.651367 18.2295v1.95312
q0 5.20801 6.51074 5.85938zM455.078 705.958q1.30176 -1.95312 1.30176 -3.90625q0 -3.90625 -4.55762 -5.85938l-27.3438 -13.0205q-1.95312 -1.30176 -3.90625 -1.30176q-3.90625 0 -5.85938 4.55664q-6.50977 14.3232 -15.625 26.6934
q-1.95312 2.60352 -1.95312 5.20801t3.90625 5.20801l24.7402 16.9277q2.60352 1.95312 4.55664 1.95312q3.25586 0 5.20898 -3.25586q11.0674 -15.625 19.5312 -33.2031zM250 753.484q60.5469 0 103.516 -42.9688t42.9688 -103.516t-42.9688 -103.516t-103.516 -42.9688
t-103.516 42.9688t-42.9688 103.516t42.9688 103.516t103.516 42.9688zM378.906 795.151q3.25488 -2.60449 3.25488 -5.85938q0 -1.95312 -1.30176 -4.55762l-16.9277 -24.7393q-2.60352 -3.90625 -5.85938 -3.90625q-1.95312 0 -4.55664 1.95312
q-12.3701 8.46289 -26.6934 14.9736q-4.55664 1.95312 -4.55664 5.85938q0 1.95312 1.30176 3.90625l13.0205 27.3438q1.95312 4.55762 5.85938 4.55762q1.30273 0 3.25586 -0.651367q17.5781 -8.46387 33.2031 -18.8799zM268.88 834.214q7.16113 -0.651367 7.16113 -7.8125
l-2.60352 -30.5996q-0.651367 -6.50977 -6.51074 -6.50977h-1.30176q-7.8125 0.650391 -15.625 0.650391q-7.16211 0 -14.9746 -0.650391h-1.30176q-6.51074 0 -6.51074 6.50977l-2.60352 30.5996v1.30176q0 5.85938 6.50977 6.51074q9.76562 0.650391 18.8809 0.650391
q9.11426 0 18.8799 -0.650391zM176.432 782.781q1.30273 -1.95312 1.30273 -3.90625q0 -3.90625 -4.55762 -5.85938q-14.3232 -6.51074 -26.6924 -14.9736q-2.60449 -1.95312 -4.55762 -1.95312q-3.25488 0 -5.85938 3.90625l-16.9268 24.7393
q-1.30273 2.60449 -1.30273 4.55762q0 3.25488 3.25586 5.85938q15.625 10.416 33.2031 18.8799q1.95312 0.651367 3.25488 0.651367q3.90625 0 5.85938 -4.55762zM98.958 723.536q3.90625 -2.60352 3.90625 -5.85938q0 -1.95312 -1.95312 -4.55664
q-9.11426 -12.3701 -15.625 -26.6934q-1.95312 -4.55664 -5.85938 -4.55664q-1.95312 0 -3.90625 1.30176l-27.3438 13.0205q-4.55762 1.95312 -4.55762 5.85938q0 1.95312 1.30273 3.90625q8.46289 17.5781 19.5312 33.2031q1.95312 3.25586 5.20801 3.25586
q1.95312 0 4.55762 -1.95312zM23.4375 629.136q0.650391 6.50977 7.8125 6.50977l29.9473 -2.60352q6.51074 -0.651367 6.51074 -5.85938v-1.95312q-0.651367 -9.11523 -0.651367 -18.2295q0 -6.51074 0.651367 -13.0205v-1.30273q0 -5.85938 -7.16113 -6.50977
l-29.9482 -2.60449q-7.16113 0 -7.8125 7.16113q-0.651367 7.8125 -0.651367 16.2764q0 10.417 1.30273 22.1357zM42.9688 511.948q-1.30273 1.95312 -1.30273 3.90625q0 3.90625 4.55762 5.85938l27.3438 13.0205q1.95312 1.30176 3.90625 1.30176
q3.90625 0 5.85938 -4.55664q6.51074 -14.3232 15.625 -27.3438q1.30176 -2.60449 1.30176 -4.55762q0 -3.25488 -3.25488 -5.85938l-25.3906 -16.9268q-2.60449 -1.30273 -4.55762 -1.30273q-2.60352 0 -5.20801 3.25586q-11.0674 16.2754 -18.8799 33.2031z
M118.489 420.802q-3.25488 1.95312 -3.25488 5.20898q0 1.95312 1.95312 4.55664l16.9268 25.3906q2.60449 3.25586 5.85938 3.25586q1.95312 0 4.55762 -1.30273q13.0205 -9.11426 26.6924 -16.2754q5.20801 -1.95312 5.20801 -5.85938q0 -1.95312 -1.30176 -3.90625
l-13.6719 -27.3438q-1.95312 -4.55762 -5.20801 -4.55762q-1.95312 0 -3.90625 1.30176q-17.5781 8.46387 -33.8545 19.5312zM231.119 379.786q-7.16113 0.651367 -7.16113 6.51074v1.30176l2.60449 30.5996q0.650391 6.50977 6.50977 6.50977h1.30273
q7.8125 -0.650391 15.625 -0.650391t16.2754 0.650391h1.30273q5.85938 0 6.50977 -6.50977l1.95312 -30.5996v-1.30176q0 -5.85938 -6.50977 -6.51074q-10.417 -0.650391 -19.5312 -0.650391q-9.11523 0 -18.8809 0.650391zM324.869 431.87
q-1.30176 1.95312 -1.30176 3.90625q0 3.90625 4.55762 5.85938q14.3223 7.16113 27.3438 16.2754q2.60352 1.30273 4.55664 1.30273q3.25586 0 5.85938 -3.25586l16.9277 -25.3906q1.95312 -2.60352 1.95312 -4.55664q0 -3.25586 -3.25586 -5.20898
q-16.2754 -11.0674 -33.8535 -19.5312q-1.95312 -1.30176 -3.90625 -1.30176q-3.90625 0 -5.85938 4.55762zM402.994 493.719q-3.25488 2.60449 -3.25488 5.85938q0 1.95312 1.30176 4.55762q9.11523 13.0205 15.625 27.3438q1.95312 4.55664 5.85938 4.55664
q1.95312 0 3.90625 -1.30176l27.3438 -13.0205q4.55762 -1.95312 4.55762 -5.85938q0 -1.95312 -1.30176 -3.90625q-7.8125 -16.9277 -18.8809 -33.2031q-2.60352 -3.25586 -5.20801 -3.25586q-1.95312 0 -4.55762 1.30273zM250 357q103.516 0 177.083 72.917
q72.917 73.5674 72.917 177.083t-72.917 177.083q-73.5674 72.917 -177.083 72.917t-177.084 -72.917q-72.916 -73.5674 -72.916 -177.083t72.916 -177.083q73.5684 -72.917 177.084 -72.917z" />
</svg>
