<?xml version="1.0" standalone="no"?>
<!DOCTYPE svg PUBLIC "-//W3C//DTD SVG 1.1//EN" "http://www.w3.org/Graphics/SVG/1.1/DTD/svg11.dtd" >
<svg xmlns="http://www.w3.org/2000/svg" xmlns:xlink="http://www.w3.org/1999/xlink" version="1.1" viewBox="-10 0 499 1000">
   <path fill="currentColor"
d="M247.07 606.349q-1.95312 -1.30176 -2.60352 -1.30176q-0.651367 0 -1.95312 0.651367q-1.30273 0.650391 -2.60449 0.650391q-0.651367 0 -1.95312 -0.650391q-1.30176 -0.651367 -2.60449 -0.651367q-0.650391 0 -1.95312 1.30176q-1.30176 0.651367 -1.95312 0.651367
q3.90625 1.95312 8.46387 1.95312q5.20801 0 9.11426 -1.95312q-0.650391 0 -1.95312 -0.651367zM239.909 620.021q-15.625 0 -26.6924 -14.3223q-0.651367 0 -0.651367 -0.651367l0.651367 -0.651367q1.30176 -0.650391 5.20801 -3.25488
q9.76562 -5.85938 13.6719 -5.85938q1.95312 0 5.20801 1.30176q1.95312 0.651367 2.60449 0.651367q1.30176 0 3.25488 -0.651367q3.25586 -1.30176 5.20898 -1.30176q3.25488 0 13.6719 5.85938q3.90625 2.60449 4.55664 3.25488q0.651367 0 0.651367 0.651367v0.651367
q-11.7188 14.3223 -27.3438 14.3223zM243.815 687.078q-31.9014 0 -57.9424 -16.9268q-3.25586 -1.95312 -3.25586 -5.20898q0 -1.95312 1.95312 -4.55664q0.651367 -1.30273 8.46387 -11.7188l0.651367 -0.651367q2.60352 -2.60449 5.20801 -2.60449
q1.95312 0 3.90625 1.30273q0.651367 0 0.651367 0.650391q19.5312 11.0684 39.7129 11.0684q15.625 0 31.25 -6.51074q4.55762 -1.95312 9.11523 -5.20801q1.30176 0 1.95312 -0.651367q1.30176 -0.651367 1.95312 -0.651367q1.30176 0 2.60352 0.651367
q2.60449 0.651367 4.55762 2.60449l3.25488 4.55664q3.90625 5.20898 5.20898 7.16211q1.95312 2.60352 1.95312 4.55664q0 2.60449 -3.90625 5.20898q-26.042 16.9268 -57.292 16.9268zM272.461 359.604q55.3389 13.6719 88.542 50.7812q30.5986 35.1562 33.8545 79.4268
q0.650391 4.55762 0.650391 9.76562q0 39.0625 -24.0879 73.5674q-28.6465 41.667 -84.6357 63.1514q28.6455 -32.5518 41.0156 -59.2451q5.20801 -11.7188 5.20801 -24.7393q0 -13.6719 -5.85938 -27.9951q-12.3691 -29.9473 -42.3174 -37.1094
q-60.5469 -15.625 -67.0576 -53.3848q-11.0674 15.625 -15.625 24.7393q-3.90625 8.46387 -6.50977 17.5781q-3.25586 9.76562 -4.55762 18.2295q-2.60449 13.0205 -2.60449 24.7393q0 5.85938 0.651367 11.7188q1.95312 11.7188 11.7188 37.1094
q-17.5781 -14.9736 -24.0889 -34.5049q-3.90625 -11.7188 -3.90625 -24.0889q0 -8.46387 1.95312 -17.5781q1.95312 -9.76562 5.20898 -18.8799q-22.1357 33.8535 -22.1357 67.708q0 43.6201 37.1094 87.2393q-73.5674 -34.5049 -85.9375 -85.9375
q-3.25488 -15.625 -3.25488 -31.25q0 -24.7393 8.46289 -48.8281q13.0215 -36.458 34.5059 -48.8281q6.50977 -3.90625 14.9736 -6.50977q14.3232 -3.25586 16.2764 -3.25586h0.650391q26.6934 -46.2236 72.917 -46.2236q9.11426 0 18.8799 2.60449zM53.0605 857
q-11.0684 0 -11.0684 -17.5781q0 -5.20801 0.651367 -11.0674q3.25488 -26.6934 19.5312 -63.1514q41.0156 -91.1455 80.7295 -91.1455h27.9941q-9.76562 60.5469 -9.76562 83.9844q0 6.50977 0.651367 10.416q7.16113 47.5264 68.3594 49.4795q13.6719 0 15.625 -54.6875
q0.651367 54.6875 13.0205 54.6875q62.5 -0.651367 72.2656 -45.5732q1.30273 -5.20801 1.30273 -13.6719q0 -26.6924 -9.11523 -84.6348h30.5996q47.5254 1.30176 87.2393 91.7969q15.625 36.458 16.9268 62.5v5.85938q0 22.7861 -13.6719 22.7861h-391.275z" />
</svg>
