<?xml version="1.0" standalone="no"?>
<!DOCTYPE svg PUBLIC "-//W3C//DTD SVG 1.1//EN" "http://www.w3.org/Graphics/SVG/1.1/DTD/svg11.dtd" >
<svg xmlns="http://www.w3.org/2000/svg" xmlns:xlink="http://www.w3.org/1999/xlink" version="1.1" viewBox="-10 0 520 1000">
   <path fill="currentColor"
d="M228.813 594.288q-8.47461 -0.651367 -16.2979 -0.651367q-13.0371 0 -25.4238 1.95508l12.3867 -139.505q0.651367 -11.082 9.12598 -18.2529q7.1709 -5.86621 16.9492 -5.86621h1.95605l59.9736 5.21484q-3.91113 5.21484 -5.86719 10.4297zM165.58 598.852
q-31.9434 8.47461 -48.8926 25.4238l-25.4229 -144.068q-0.652344 -2.60742 -0.652344 -5.21484q0 -7.82227 5.21484 -14.3418q5.86719 -9.12598 16.2979 -11.082l71.0557 -12.3857q-3.91113 7.82227 -4.56348 16.9492zM418.514 610.585q14.3408 -7.82227 14.3408 -26.0752
v-1.30371q-1.30371 -18.9053 -17.6006 -27.3799q-5.21484 -3.25879 -13.0381 -3.25879q-2.60742 0 -5.86719 0.651367q-12.3857 1.30371 -19.5566 7.82324q-5.21484 -23.4688 -24.7715 -29.335q-5.21484 -1.95605 -10.4307 -1.95605q-11.7334 0 -21.5117 10.4307
q-8.47461 9.77832 -8.47461 20.208q0 5.21484 1.95508 11.082q5.21582 14.9941 31.9434 73.6641q58.6699 -26.7275 73.0117 -34.5508zM482.398 492.593q10.4307 3.91211 14.9932 13.6904q2.6084 5.86719 2.6084 11.7334q0 3.91211 -1.30371 8.47461l-80.835 220.991
q-3.25977 10.4307 -13.0381 14.9932q-5.86621 2.60742 -11.7334 2.60742q-3.91211 0 -8.47461 -1.30371l-67.1445 -24.7715v-9.12598q0 -5.21582 -1.95605 -9.7793q1.95605 -4.5625 1.95605 -9.12598v-24.7715q0 -5.21582 -1.95605 -9.77832
q1.95605 -4.56348 1.95605 -9.77832v-24.1201q0 -7.1709 -3.91211 -12.3857q-17.6006 -24.7725 -63.2334 -33.2471l51.5 -142.112q3.25879 -9.77832 13.0371 -14.3408q5.86719 -3.25977 11.083 -3.25977q4.5625 0 9.12598 1.95605zM110.821 721.407
q-2.60742 4.5625 -2.60742 9.12598v24.7715q0 2.6084 1.30371 5.86719l-106.259 -205.997q-3.25879 -5.86719 -3.25879 -12.3857q0 -3.91113 1.30371 -7.82324q3.25879 -10.4297 13.0371 -15.6455l57.3672 -29.335l36.5059 206.649v14.9941q0 5.21484 2.60742 9.77832z
M212.516 713.584q64.5371 0 84.0938 -27.3789v24.7715q-19.5566 27.3789 -84.0938 27.3789q-62.5811 0 -83.4414 -26.7266v-24.7725q20.8604 26.7275 83.4414 26.7275zM212.516 614.497q64.5371 0 84.0938 28.0312v24.1201q-19.5566 28.0312 -84.0938 28.0312
q-62.5811 0 -83.4414 -26.7275v-26.7275q20.8604 -26.7275 83.4414 -26.7275zM212.516 757.261q64.5371 0 84.0938 -27.3789v24.7715q-19.5566 27.3789 -84.0938 27.3789q-62.5811 0 -83.4414 -26.7275v-24.7715q20.8604 26.7275 83.4414 26.7275z" />
</svg>
