<?xml version="1.0" standalone="no"?>
<!DOCTYPE svg PUBLIC "-//W3C//DTD SVG 1.1//EN" "http://www.w3.org/Graphics/SVG/1.1/DTD/svg11.dtd" >
<svg xmlns="http://www.w3.org/2000/svg" xmlns:xlink="http://www.w3.org/1999/xlink" version="1.1" viewBox="-10 0 520 1000">
   <path fill="currentColor"
d="M458.931 430.99q16.9492 0 29.335 12.3848q11.7344 11.7344 11.7344 28.6836v314.863q0 16.9492 -11.7344 29.334q-12.3857 11.7344 -29.335 11.7344h-417.862q-16.9492 0 -29.335 -11.7344q-11.7334 -12.3848 -11.7334 -29.334v-314.863q0 -16.9492 11.7334 -28.6836
q12.3857 -12.3848 29.335 -12.3848h114.081v-24.7734q0 -8.47461 5.86719 -14.3418q5.86719 -5.86523 14.3418 -5.86523t14.3418 5.86523q6.51855 5.86719 6.51855 14.3418v24.7734h107.562v-24.7734q0 -8.47461 6.51953 -14.3418q5.86621 -5.86523 14.3408 -5.86523
t14.3418 5.86523q5.86719 5.86719 5.86719 14.3418v24.7734h114.081zM213.168 786.922q16.2969 0 16.2969 -16.2969v-169.492q0 -16.9492 -16.2969 -16.9492h-155.802q-16.2979 0 -16.2979 16.9492v169.492q0 16.2969 16.2979 16.2969h155.802zM442.633 786.922
q16.2979 0 16.2979 -16.2969v-169.492q0 -16.9492 -16.2979 -16.9492h-155.802q-16.2969 0 -16.2969 16.9492v169.492q0 16.2969 16.2969 16.2969h155.802zM382.008 620.689v138.201h-28.6836v-99.0879h-15.6455v-22.8164h3.91113q13.6904 0 18.9053 -13.6895
l0.651367 -2.60742h20.8613zM127.771 724.992q0 8.47461 6.51855 8.47461t6.51855 -8.47461v-70.4043q0 -8.47461 -6.51855 -8.47461t-6.51855 8.47461v70.4043zM134.289 619.385q35.2021 0 35.2021 36.5059v67.7969q0 36.5059 -35.2021 36.5059t-35.2021 -36.5059v-67.7969
q0 -36.5059 35.2021 -36.5059z" />
</svg>
