<?xml version="1.0" standalone="no"?>
<!DOCTYPE svg PUBLIC "-//W3C//DTD SVG 1.1//EN" "http://www.w3.org/Graphics/SVG/1.1/DTD/svg11.dtd" >
<svg xmlns="http://www.w3.org/2000/svg" xmlns:xlink="http://www.w3.org/1999/xlink" version="1.1" viewBox="-10 0 499 1000">
   <path fill="currentColor"
d="M320.312 498.927q0 -29.9473 -20.834 -50.7812q-20.832 -21.4844 -50.1289 -21.4844q-29.9492 0 -50.7812 21.4844q-20.834 20.834 -20.834 50.7812v55.9902h142.578v-55.9902zM266.275 711.167q23.4375 -11.0684 23.4375 -37.1094q0 -16.2764 -11.7188 -27.9951
q-11.7188 -12.3701 -27.9941 -12.3701t-27.9941 12.3701q-11.7188 11.7188 -11.7188 27.9951q0 25.3906 22.1348 36.458l-15.625 76.8232v1.30176q0 1.30176 0.650391 1.95312q1.30273 1.30176 2.60547 1.30176l58.5938 0.651367q3.90625 0 3.90625 -3.90625
q0 -0.651367 -0.652344 -1.30176zM394.531 554.917q19.5312 0 33.8535 13.6719q13.6719 14.3223 13.6719 34.5049v205.729q0 20.1816 -13.6719 33.8535q-14.3223 14.3232 -33.8535 14.3232h-289.062q-19.5312 0 -33.8535 -14.3232q-13.6719 -13.6719 -13.6719 -33.8535
v-205.729q0 -20.1826 13.6719 -34.5049q14.3223 -13.6719 33.8535 -13.6719h3.25586v-55.9902q0 -58.5938 41.0156 -100.26q41.666 -41.667 99.6094 -41.667q57.9414 0 98.957 41.667q41.0156 41.666 41.0156 100.26v55.9902h5.20898z" />
</svg>
