<?xml version="1.0" standalone="no"?>
<!DOCTYPE svg PUBLIC "-//W3C//DTD SVG 1.1//EN" "http://www.w3.org/Graphics/SVG/1.1/DTD/svg11.dtd" >
<svg xmlns="http://www.w3.org/2000/svg" xmlns:xlink="http://www.w3.org/1999/xlink" version="1.1" viewBox="-10 0 499 1000">
   <path fill="currentColor"
d="M247.396 357h3.25391q97.6562 0 135.418 108.073q3.90625 19.5312 3.90625 38.4111v50.1299q32.5508 0 46.2227 25.3906q5.85938 9.76562 5.85938 19.5312v214.193q-9.76562 44.2705 -44.2695 44.2705h-295.574q-44.2695 -9.11426 -44.2695 -44.2705v-214.193
q0 -36.458 48.1758 -44.9219h214.193v-44.2705q0 -57.9424 -44.2715 -76.8232q-13.6719 -3.90625 -26.6914 -5.85938q-47.5273 0 -67.709 52.084q-3.25586 20.833 -7.8125 20.833h-61.8496q-3.90625 0 -3.90625 -3.90625q0 -79.4268 81.3809 -125
q24.0879 -13.6719 57.9434 -13.6719zM210.287 673.406q0 19.5312 21.4844 39.0625q0 7.16113 -15.625 76.8232l3.90625 1.95312h61.8477l-15.625 -80.7295q23.4375 -11.0674 23.4375 -41.0156q-10.416 -34.5049 -35.1562 -34.5049h-7.16016q-30.5996 0 -37.1094 38.4111z
" />
</svg>
