<?xml version="1.0" standalone="no"?>
<!DOCTYPE svg PUBLIC "-//W3C//DTD SVG 1.1//EN" "http://www.w3.org/Graphics/SVG/1.1/DTD/svg11.dtd" >
<svg xmlns="http://www.w3.org/2000/svg" xmlns:xlink="http://www.w3.org/1999/xlink" version="1.1" viewBox="-10 0 520 1000">
   <path fill="currentColor"
d="M339.192 646.062q5.20801 -13.0205 5.20801 -27.9951q0 -14.3223 -5.20801 -27.3438q-5.85938 -13.0205 -15.625 -22.7861q-9.11426 -9.76562 -22.1357 -14.9736q-13.0205 -5.85938 -27.9941 -5.85938h-47.5264q-4.55762 0 -9.11426 -1.30273
q-3.90625 -1.95312 -7.16211 -5.20801q-3.25488 -3.25488 -5.20801 -7.8125q-1.95312 -3.90625 -1.95312 -9.11426q0 -5.20898 1.95312 -9.11523q1.95312 -4.55664 5.20801 -7.8125q3.25586 -3.25488 7.16211 -5.20801q4.55664 -1.30176 9.11426 -1.30176h108.724v-47.5264
h-108.724q-14.3232 0 -27.3438 5.85938q-13.0205 5.20801 -22.1357 14.9736q-9.76562 9.76562 -15.625 22.7871q-5.85938 12.3691 -5.85938 27.3438q0 14.3223 5.85938 27.3438q5.85938 13.0205 15.625 22.7861q9.11523 9.76562 22.1357 15.625
q13.0205 5.20801 27.3438 5.20801h47.5264q5.20801 0 9.11426 1.95312q4.55762 1.95312 7.8125 5.20898q3.25488 3.25488 5.20801 7.16113q1.95312 4.55762 1.95312 9.11426q0 5.20898 -1.95312 9.76562q-1.95312 3.90625 -5.20801 7.16211
q-3.25488 3.25488 -7.8125 5.20801q-3.90625 1.95312 -9.11426 1.95312h-104.818v46.875h104.818q14.9736 0 27.9941 -5.20801q13.0215 -5.85938 22.1357 -15.625q9.76562 -9.11523 15.625 -22.1357zM496.744 511.948q3.25586 3.25488 3.25586 7.16113t-3.25586 7.8125
l-238.281 276.692q-3.25488 3.90625 -8.46289 3.90625q-5.20898 0 -8.46387 -3.90625l-238.281 -276.692q-3.25488 -3.90625 -3.25488 -7.8125t3.25488 -7.16113l87.2393 -101.562q3.25586 -3.90625 8.46387 -3.90625h301.433q5.20801 0 9.11426 3.90625z" />
</svg>
