<?xml version="1.0" standalone="no"?>
<!DOCTYPE svg PUBLIC "-//W3C//DTD SVG 1.1//EN" "http://www.w3.org/Graphics/SVG/1.1/DTD/svg11.dtd" >
<svg xmlns="http://www.w3.org/2000/svg" xmlns:xlink="http://www.w3.org/1999/xlink" version="1.1" viewBox="-10 0 520 1000">
   <path fill="currentColor"
d="M338.541 542.222q15.625 7.8125 24.7402 16.9268l-24.0889 5.85938q-7.16113 -7.8125 -19.5312 -13.6719zM291.016 527.898q20.1816 3.25586 37.1094 9.76562l-16.2764 9.76562q-13.6719 -5.20801 -29.9482 -7.8125zM227.213 551.987l14.3232 -28.6455l-14.3232 -44.2715
h14.3232v-9.11426q-10.417 -5.85938 -10.417 -17.5781q0 -20.1826 20.1826 -20.1826q19.5312 0 19.5312 20.1826q0 11.7188 -10.417 17.5781v9.11426h14.3232l-14.3232 44.2715l14.3232 28.6455h-9.11426v15.625q0 6.51074 -14.3232 6.51074q-14.9736 0 -14.9736 -6.51074
v-15.625h-9.11523zM375 593.003q-2.60449 10.417 -11.7188 19.5312l-24.0889 -5.20801q7.8125 -7.8125 9.76562 -16.2764zM356.119 618.394q-11.7188 9.11426 -28.6455 15.625l-16.2764 -9.76562q13.6719 -5.20801 22.7871 -12.3701zM270.833 633.367
q16.9268 -1.95312 31.25 -6.50977l14.3232 11.0674q-18.8809 5.85938 -39.7139 7.8125zM368.489 565.659q7.16113 9.76562 7.16113 20.1826h-14.3223l-11.7188 1.30176v-1.30176q0 -8.46387 -5.85938 -16.2764zM225.911 633.367q11.0674 1.30273 22.7861 1.30273
q5.85938 0 11.0684 -0.651367l2.60352 13.0205q-7.16113 0.651367 -13.6719 0.651367q-14.9736 0 -28.6455 -1.95312zM250 681.545q-89.8438 0 -153.646 -30.5996q-63.1504 -30.5986 -63.1504 -74.2188q0 -87.2393 177.083 -102.864l4.55762 12.3701l3.90625 13.0205
q-132.812 12.3701 -132.812 77.4736q0 33.2031 48.1768 55.9902q48.1768 23.4375 115.886 23.4375q67.708 0 115.234 -23.4375q48.1768 -22.7871 48.1768 -55.9902q0 -64.4531 -130.208 -77.4736l3.90625 -13.0205l3.90625 -12.3701q175.781 16.2764 175.781 102.864
q0 43.6201 -63.8027 74.2188q-63.8018 30.5996 -152.994 30.5996zM158.203 629.461q-14.9746 -7.8125 -24.7402 -16.9268l24.0889 -5.85938q7.16113 7.8125 19.5312 13.6719zM206.38 643.784q-20.1826 -3.25488 -37.1094 -9.76562l16.2764 -9.76562
q13.0205 4.55762 29.2969 7.8125zM500 666.57q0 50.1309 -73.5684 83.334q-71.6143 31.9004 -176.432 31.9004q-105.469 0 -177.084 -31.9004q-72.916 -33.2031 -72.916 -83.334l17.5781 -74.8691q0 49.4785 67.708 84.6348q68.3594 35.1562 164.714 35.1562
q95.7031 0 164.062 -35.1562t68.3594 -84.6348zM147.786 585.842q0 8.46289 5.20801 16.2754l-24.7393 3.90625q-7.16113 -9.76562 -7.16113 -20.1816h26.6924zM180.989 533.758q18.2295 -5.85938 39.7139 -7.8125l5.85938 12.3701q-16.9277 1.30176 -31.25 5.85938z
M121.744 578.68q2.60449 -10.416 12.3701 -19.5312l23.4375 5.20898q-7.16113 7.8125 -9.11426 15.625zM185.547 547.43q-13.0215 5.20898 -22.1357 12.3701l-22.7861 -7.16113q11.7188 -8.46387 28.6455 -14.9746z" />
</svg>
