<?xml version="1.0" standalone="no"?>
<!DOCTYPE svg PUBLIC "-//W3C//DTD SVG 1.1//EN" "http://www.w3.org/Graphics/SVG/1.1/DTD/svg11.dtd" >
<svg xmlns="http://www.w3.org/2000/svg" xmlns:xlink="http://www.w3.org/1999/xlink" version="1.1" viewBox="-10 0 520 1000">
   <path fill="currentColor"
d="M345.052 658.107q0 9.11426 -7.16113 15.625q-5.85938 5.85938 -13.6719 5.85938h-21.4844q-40.3652 0 -93.0996 3.90625q-67.708 4.55664 -91.7969 4.55664q-4.55664 3.90625 -35.1562 43.6201q-31.25 39.7139 -35.8066 44.2705v-36.458q0 -22.1357 0.650391 -22.1357
q-3.90625 -39.0625 -24.7393 -39.0625h-1.30176q-21.4844 0 -21.4844 -22.1348v-139.323q0 -21.4844 21.4844 -21.4844h301.432q22.1357 0 22.1357 21.4844v141.276zM375.65 495.347q0 -30.5986 -30.5986 -30.5986h-160.156v-5.20898q0 -21.4844 21.4844 -21.4844h271.484
q22.1357 0 22.1357 21.4844v139.975q0 21.4844 -22.1357 21.4844h-0.651367q5.20898 21.4844 5.20898 68.3594q-65.1045 -63.8027 -106.771 -65.7559v-128.255z" />
</svg>
