<?xml version="1.0" standalone="no"?>
<!DOCTYPE svg PUBLIC "-//W3C//DTD SVG 1.1//EN" "http://www.w3.org/Graphics/SVG/1.1/DTD/svg11.dtd" >
<svg xmlns="http://www.w3.org/2000/svg" xmlns:xlink="http://www.w3.org/1999/xlink" version="1.1" viewBox="-10 0 518 1000">
   <path fill="currentColor"
d="M167.644 618.067h-4.55762q-9.11426 0 -15.625 -3.90625q-8.46289 -5.20801 -11.7188 -16.2754q3.90625 -0.651367 16.2764 -3.90625q1.30176 5.20801 5.20801 8.46289q3.90625 1.95312 7.16211 1.95312h1.95312q5.20801 -0.650391 7.8125 -5.85938
q2.60352 -3.25488 2.60352 -8.46289q0 -1.95312 -0.650391 -4.55762q-1.30273 -7.8125 -5.20898 -11.7188q-3.90625 -2.60449 -8.46289 -2.60449h-1.95312q-7.16211 1.30273 -11.7188 8.46387h-13.6719q0 -9.76562 0.650391 -23.4375q0.651367 -14.3232 1.30273 -23.4375
q20.833 -3.90625 41.666 -10.417q0.651367 5.85938 2.60449 16.2764q-14.3232 4.55762 -29.9482 7.8125v15.625q5.20898 -3.90625 10.417 -5.20801q2.60449 -0.651367 4.55762 -0.651367q8.46289 0 15.625 5.85938q7.8125 5.85938 10.416 16.9268
q-14.9736 17.5781 -24.7393 39.0625zM150.717 695.542q0 17.5781 3.25488 35.1562q-7.8125 -1.30273 -14.9736 -3.25586q-74.8701 -22.1348 -112.631 -91.1455q-23.4375 -42.9688 -23.4375 -87.8906q0 -27.3438 8.46387 -55.3389q22.1357 -75.5205 91.1455 -112.63
q42.9688 -23.4375 87.8906 -23.4375q27.3438 0 55.3389 8.46387q53.3857 15.625 89.1924 56.6406q35.1562 41.0156 43.6201 93.75q-21.4844 -5.20898 -42.9688 -5.20898q-69.0107 0 -121.094 44.9219q-9.76562 -39.0625 -41.0156 -60.5469
q-22.1357 -14.9736 -44.9219 -14.9736q-10.417 0 -20.1826 2.60449q-33.8535 8.46289 -51.4316 42.3174q-10.417 21.4844 -10.417 44.9219q0 13.6719 3.25488 27.9951q9.76562 38.4111 39.7139 59.8955q22.7861 16.9268 48.1768 16.9268q7.16211 0 14.3232 -1.30176
q-1.30176 11.0674 -1.30176 22.1357zM84.9609 605.047q1.95312 5.85938 5.85938 8.46387q3.25586 1.95312 6.51074 1.95312h1.95312q5.20801 -1.30273 7.8125 -5.85938q1.95312 -3.25586 1.95312 -8.46387q0 -2.60449 -0.651367 -5.85938
q-1.95312 -7.8125 -5.85938 -11.7188q-3.90625 -2.60449 -8.46289 -2.60449h-1.95312q-7.8125 1.30273 -12.3701 9.11523h-13.6719v-8.46387q0 -18.2295 4.55762 -39.7139q1.30176 0 42.9688 -5.85938q0.650391 7.8125 1.95312 15.625q-4.55762 0.651367 -15.625 2.60449
q-9.11523 1.30176 -16.2764 1.95312l-1.30176 15.625q5.20801 -3.90625 11.7188 -4.55762h3.90625q8.46289 0 16.2754 5.20898q9.11523 7.16113 11.0684 20.1816q0.650391 2.60449 0.650391 5.85938q0 7.16211 -3.90625 14.3232q-6.50977 13.0205 -20.833 16.2764
q-3.90625 0.650391 -7.16113 0.650391q-6.51074 0 -12.3701 -3.25488q-8.46387 -5.20801 -13.0205 -16.9268q5.20801 -1.30273 16.2754 -4.55762zM335.612 586.167q-24.7393 14.9736 -30.5986 45.5723q-1.30273 7.8125 -1.30273 14.9746q0 22.7861 13.0215 44.9219
q16.9268 28.6455 46.875 39.0625q11.7188 3.90625 22.7861 3.90625q16.9268 0 31.9014 -9.11523q24.7393 -14.3223 30.5986 -45.5723q1.30176 -7.8125 1.30176 -14.9746q0 -22.7861 -13.0205 -44.9219q-16.9268 -28.6455 -46.875 -39.0625
q-11.0674 -3.25488 -22.7861 -3.25488q-16.9277 0 -31.9014 8.46387zM221.68 809.474q-47.5254 -46.875 -47.5254 -113.932q0 -67.0576 47.5254 -113.933q47.5264 -47.5264 113.933 -47.5264q67.0576 0 114.583 47.5264q46.875 46.875 46.875 113.933
q0 67.0566 -46.875 113.932q-47.5254 47.5264 -114.583 47.5264q-66.4062 0 -113.933 -47.5264zM405.273 681.219q5.85938 -5.20801 5.85938 -11.0674q0 -5.20898 -5.20801 -11.0684q-5.85938 -7.16113 -12.3701 -7.16113q-5.20801 0 -10.416 4.55762
q-5.20898 5.20801 -5.20898 11.0674q0 5.20801 5.20898 11.7188q5.85938 6.51074 12.3691 6.51074q4.55762 0 9.76562 -4.55762zM374.023 646.062q5.20898 -4.55762 5.20898 -9.76562q0 -4.55762 -4.55762 -9.11426q-4.55762 -5.85938 -9.76562 -5.85938
q-4.55762 0 -9.11426 4.55664q-5.20898 4.55762 -5.20898 9.11523q0 4.55664 4.55762 9.76562q4.55762 5.85938 9.76562 5.85938q4.55762 0 9.11426 -4.55762zM364.258 663.641q-2.60352 0.651367 -5.85938 0.651367q-9.11426 0 -17.5781 -9.11523
q-8.46289 -9.76562 -8.46289 -18.8799q0 -11.7188 12.3691 -22.7861q11.7188 -9.76562 21.4844 -9.76562q11.0684 0 20.1826 10.416q7.8125 8.46387 7.8125 17.5781q0 3.25586 -1.30176 6.51074q3.90625 -1.30176 7.16113 -1.30176q9.76562 0 18.8799 9.76562
q10.417 11.7188 10.417 22.7861q0 12.3701 -12.3701 24.0889q-11.7188 10.416 -22.7861 10.416q-12.3701 0 -24.0889 -13.0205q-8.46289 -9.11426 -8.46289 -17.5781q0 -5.20801 2.60352 -9.76562z" />
</svg>
