<?xml version="1.0" standalone="no"?>
<!DOCTYPE svg PUBLIC "-//W3C//DTD SVG 1.1//EN" "http://www.w3.org/Graphics/SVG/1.1/DTD/svg11.dtd" >
<svg xmlns="http://www.w3.org/2000/svg" xmlns:xlink="http://www.w3.org/1999/xlink" version="1.1" viewBox="-10 0 520 1000">
   <path fill="currentColor"
d="M125 607q0 26.042 -18.2295 44.2705q-18.2295 18.2295 -44.2705 18.2295q-26.042 0 -44.2715 -18.2295q-18.2285 -18.2285 -18.2285 -44.2705t18.2285 -44.2705q18.2295 -18.2295 44.2715 -18.2295q26.041 0 44.2705 18.2295q18.2295 18.2285 18.2295 44.2705zM312.5 607
q0 26.042 -18.2295 44.2705q-18.2295 18.2295 -44.2705 18.2295q-26.042 0 -44.2715 -18.2295q-18.2285 -18.2285 -18.2285 -44.2705t18.2285 -44.2705q18.2295 -18.2295 44.2715 -18.2295q26.041 0 44.2705 18.2295q18.2295 18.2285 18.2295 44.2705zM375 607
q0 -26.042 18.2285 -44.2705q18.2295 -18.2295 44.2715 -18.2295q26.041 0 44.2705 18.2295q18.2295 18.2285 18.2295 44.2705t-18.2295 44.2705q-18.2295 18.2295 -44.2705 18.2295q-26.042 0 -44.2715 -18.2295q-18.2285 -18.2285 -18.2285 -44.2705z" />
</svg>
