<?xml version="1.0" standalone="no"?>
<!DOCTYPE svg PUBLIC "-//W3C//DTD SVG 1.1//EN" "http://www.w3.org/Graphics/SVG/1.1/DTD/svg11.dtd" >
<svg xmlns="http://www.w3.org/2000/svg" xmlns:xlink="http://www.w3.org/1999/xlink" version="1.1" viewBox="-10 0 520 1000">
   <path fill="currentColor"
d="M250 652.573q45.5723 0 45.5723 -45.5732q0 -42.9688 -45.5723 -42.9688q-45.5732 0 -45.5732 42.9688q0 45.5732 45.5732 45.5732zM495.442 583.562q4.55762 0 4.55762 3.90625v41.0156q0 4.55762 -4.55762 4.55762l-57.9424 13.0205q-1.95312 10.417 -6.51074 23.4375
l45.5732 41.0156h1.95312q0 1.95312 -1.95312 4.55762l-22.1357 36.458h-3.90625l-55.9893 -17.5781q-8.46387 9.11426 -17.5781 17.5781l17.5781 57.9424v1.95312l-2.60449 2.60449l-36.458 21.4844q-1.95312 0 -3.90625 -1.95312l-41.0156 -43.6201
q-11.0684 2.60449 -24.0889 6.51074l-13.0205 58.5938q0 1.95312 -1.95312 1.95312h-42.9688q-4.55762 0 -4.55762 -1.95312l-13.0205 -58.5938q-10.417 -3.90625 -23.4375 -6.51074l-41.0156 43.6201q0 1.95312 -4.55762 1.95312l-36.458 -21.4844v-4.55762
l17.5781 -57.9424q-9.11523 -8.46387 -17.5781 -17.5781l-57.9434 17.5781h-4.55664l-19.5312 -36.458v-4.55762l45.5723 -41.0156q-4.55664 -13.0205 -6.50977 -23.4375l-60.5469 -13.0205q-1.95312 0 -1.95312 -4.55762v-41.0156q0 -3.90625 1.95312 -3.90625
l60.5469 -13.0205q1.95312 -13.0215 6.50977 -24.0889l-45.5723 -41.0156v-3.90625l19.5312 -36.458l2.60352 -2.60449h1.95312l57.9434 19.5312q8.46289 -11.0674 17.5781 -16.9268l-17.5781 -58.5938v-3.90625l36.458 -22.1357h2.60449q1.95312 0 1.95312 2.60449
l41.0156 42.9688q13.0205 -4.55762 23.4375 -6.51074l13.0205 -57.9424q0 -4.55762 4.55762 -4.55762h42.9688q1.95312 0 1.95312 4.55762l13.0205 57.9424q13.0205 1.95312 24.0889 6.51074l41.0156 -42.9688l1.95312 -2.60449h1.95312l36.458 22.1357l2.60449 1.95312
v1.95312l-17.5781 58.5938q9.11426 5.85938 17.5781 16.9268l55.9893 -19.5312h1.95312q1.95312 0 1.95312 2.60449l22.1357 36.458q1.95312 0 1.95312 1.95312l-1.95312 1.95312l-45.5732 41.0156q4.55762 11.0674 6.51074 24.0889z" />
</svg>
