<?xml version="1.0" standalone="no"?>
<!DOCTYPE svg PUBLIC "-//W3C//DTD SVG 1.1//EN" "http://www.w3.org/Graphics/SVG/1.1/DTD/svg11.dtd" >
<svg xmlns="http://www.w3.org/2000/svg" xmlns:xlink="http://www.w3.org/1999/xlink" version="1.1" viewBox="-10 0 499 1000">
   <path fill="currentColor"
d="M213.217 426.661q-1.95312 -16.9268 -13.6719 -27.9941q-12.3711 -11.0684 -28.6465 -11.0684q-17.5781 0 -29.9473 12.3701q-12.3711 13.0205 -12.3711 31.25q0 16.9268 11.0684 29.2969q10.416 12.3701 26.6934 13.6719v0.651367h46.875v-48.1777zM242.514 423.406
v81.3799h-78.7773q-27.3438 -3.25488 -46.2227 -24.0879q-18.8809 -20.834 -18.8809 -49.4795q0 -31.25 21.4844 -52.7344q20.834 -21.4844 50.7812 -21.4844q27.9941 0 48.1777 19.5312q20.832 18.8799 23.4375 46.875zM328.451 478.094q14.3223 -1.95312 24.0879 -12.3701
q9.11523 -11.0674 9.11523 -26.041q0 -16.2764 -10.418 -27.3438q-11.0664 -11.0684 -26.6914 -11.0684q-14.3242 0 -25.3906 9.76562q-10.418 9.76562 -11.7188 24.7402h-0.652344v42.3174h41.668zM331.055 504.786h-69.6621v-71.6143q2.60547 -24.7393 20.1836 -41.667
q18.2285 -16.9268 42.9688 -16.9268q26.6914 0 44.9219 18.8799q18.8789 18.8809 18.8789 46.2246q0 25.3906 -16.9258 43.6191q-16.2773 18.8809 -40.3652 21.4844zM54.3613 701.401h181.641v155.599h-181.641v-155.599zM267.904 701.401h177.734v155.599h-177.734
v-155.599zM267.904 521.062h177.734v148.438h-177.734v-148.438zM54.3613 521.062h181.641v148.438h-181.641v-148.438z" />
</svg>
