<?xml version="1.0" standalone="no"?>
<!DOCTYPE svg PUBLIC "-//W3C//DTD SVG 1.1//EN" "http://www.w3.org/Graphics/SVG/1.1/DTD/svg11.dtd" >
<svg xmlns="http://www.w3.org/2000/svg" xmlns:xlink="http://www.w3.org/1999/xlink" version="1.1" viewBox="-10 0 520 1000">
   <path fill="currentColor"
d="M230.819 693.477l-70.8711 -70.8711l206.111 -204.812l71.5215 70.2207zM138.491 647.312l0.650391 -0.650391v-0.650391l68.2705 67.6211l-0.650391 0.648438l-76.0723 24.709h-3.25098q-9.75293 0 -9.75293 -7.15234q0 -1.95117 0.649414 -4.55273zM490.897 400.889
q9.10254 8.45117 9.10254 17.5547q0 8.45312 -9.10254 16.9043l-31.21 31.2109l-12.3535 -13.0039l-39.6621 -39.0117l-18.8555 -18.8555l31.209 -30.5605q5.85254 -6.50195 16.9053 -6.50195q11.0537 0 17.5557 6.50195zM216.515 743.541
q11.7041 -3.90039 20.1562 -12.3535l210.663 -208.713v301.691q0 31.209 -31.8594 31.209h-383.615q-31.8594 0 -31.8594 -31.209v-378.414q0 -31.209 31.8594 -31.209h293.238l-204.161 202.209q-9.10352 9.75391 -13.0039 22.7578l-20.1562 80.625
q-1.30078 5.85156 -1.30078 11.0527q0 12.3535 8.45312 23.4062q5.85156 7.15234 14.3037 11.0547q8.45312 4.55078 18.2061 4.55078q6.50195 0 13.0039 -1.95117z" />
</svg>
