<?xml version="1.0" standalone="no"?>
<!DOCTYPE svg PUBLIC "-//W3C//DTD SVG 1.1//EN" "http://www.w3.org/Graphics/SVG/1.1/DTD/svg11.dtd" >
<svg xmlns="http://www.w3.org/2000/svg" xmlns:xlink="http://www.w3.org/1999/xlink" version="1.1" viewBox="-10 0 520 1000">
   <path fill="currentColor"
d="M412.109 771.062q20.833 0 32.5518 0.651367q27.3438 2.60352 39.7139 13.0205q14.3223 12.3701 15.625 39.7139h-239.584q0.651367 -27.3438 15.625 -39.7139q12.3701 -10.417 39.7139 -13.0205q11.7188 -0.651367 32.5518 -0.651367h63.8027zM315.755 738.511h128.906
v24.7393q-13.0205 -1.30176 -32.5518 -1.30176q-5.20898 0 -15.625 0.650391h-32.5527q-10.416 -0.650391 -15.625 -0.650391q-19.5312 0 -32.5518 1.30176v-24.7393zM185.547 487.208q-8.46387 0 -15.625 -7.8125q-5.85938 -5.85938 -7.16211 -12.3691v-3.25586
q0 -5.20801 2.60449 -7.8125l21.4844 -21.4844l41.667 -42.3174q3.25488 -2.60449 7.8125 -2.60449q8.46289 0 16.2754 7.16211q7.16211 7.8125 7.16211 14.9736q0 2.60449 -0.651367 5.20801q-0.651367 2.60449 -1.95312 3.90625l-63.8018 63.1514
q-1.30273 1.95312 -3.90625 2.60449q-1.30273 0.650391 -3.90625 0.650391zM351.562 515.203q1.95312 -1.30176 4.55664 -1.95312q1.30273 -0.651367 3.25586 -0.651367q8.46289 0 16.2754 7.16211q5.85938 6.50977 7.16211 13.6719v1.95312q0 5.20801 -2.60449 8.46289
l-44.2705 43.6201l-19.5312 19.5312q-2.60449 2.60449 -7.8125 2.60449q-8.46387 0 -15.625 -7.16211q-7.8125 -7.8125 -7.8125 -15.625q0 -1.95312 0.650391 -3.90625q0.651367 -2.60352 2.60449 -4.55664zM72.916 760.646q-12.3691 12.3701 -29.9473 12.3701
t-30.5996 -12.3701q-12.3691 -12.3691 -12.3691 -30.5986q0 -17.5781 12.3691 -29.9482l122.396 -122.396q13.0205 -13.0205 28.6455 -13.0205q7.16113 0 14.3232 2.60352l37.7598 -37.7598q-14.3223 -16.9277 -22.1348 -35.1562q3.90625 -1.95312 6.50977 -4.55762
l63.1514 -63.1514q2.60449 -2.60352 3.90625 -6.50977q27.3438 12.3691 50.7812 35.8066q22.7861 22.7871 35.1562 49.4795q-4.55762 1.30176 -7.16113 3.90625l-63.1514 63.1514q-3.25488 2.60352 -4.55762 7.16113q-17.5781 -8.46387 -34.5049 -22.1357l-37.7607 37.7607
q2.60449 7.8125 2.60449 14.3232q0 16.2754 -13.0205 28.6455z" />
</svg>
