<?xml version="1.0" standalone="no"?>
<!DOCTYPE svg PUBLIC "-//W3C//DTD SVG 1.1//EN" "http://www.w3.org/Graphics/SVG/1.1/DTD/svg11.dtd" >
<svg xmlns="http://www.w3.org/2000/svg" xmlns:xlink="http://www.w3.org/1999/xlink" version="1.1" viewBox="-10 0 520 1000">
   <path fill="currentColor"
d="M417.317 621.974q-3.25488 -3.90625 -6.51074 -11.7188q-6.50977 -18.2285 -6.50977 -43.6191t6.50977 -43.6201q3.25586 -7.8125 6.51074 -11.7188q2.60449 -3.25488 5.20801 -3.25488q1.95312 0 4.55762 3.25488q3.25488 3.90625 6.51074 11.7188
q6.50977 18.2295 6.50977 43.6201t-6.50977 43.6191q-3.25586 7.8125 -6.51074 11.7188q-2.60449 3.25586 -4.55762 3.25586q-2.60352 0 -5.20801 -3.25586zM240.234 782.13q1.30176 3.25586 1.30176 6.51074q0 2.60449 -0.651367 5.20801q-1.95312 5.20898 -7.8125 7.8125
l-57.9424 22.7871q-2.60449 1.30176 -5.85938 1.30176q-2.60449 0 -5.20801 -1.30176q-5.20898 -2.60449 -7.16211 -9.11523l-39.7129 -156.9l62.5 12.3691zM123.047 566.636q0 37.7598 5.20801 72.916q-36.458 -5.20801 -68.3594 -5.20801h-32.5518l-27.3438 -46.2236
v-42.9688l27.3438 -46.2246h32.5518q31.9014 0 68.3594 -5.20801q-5.20801 34.5049 -5.20801 72.917zM422.525 717.677q5.20898 0 11.7188 -7.16113q9.76562 -10.417 17.5781 -31.25q17.5781 -46.2236 17.5781 -112.63t-17.5781 -112.631q-7.8125 -20.833 -17.5781 -31.25
q-6.50977 -7.8125 -11.7188 -7.8125q-5.20801 0 -12.3691 7.8125q-9.11523 10.417 -16.9277 31.25q-17.5781 46.2246 -17.5781 112.631t17.5781 112.63q7.8125 20.833 16.9277 31.25q7.16113 7.16113 12.3691 7.16113zM500 566.636q0 73.5674 -18.8809 125.65
q-18.8799 52.084 -45.5723 52.7344h-39.7139q-95.0518 -71.6143 -232.422 -99.6094q-6.51074 -36.458 -6.51074 -78.7754q0 -42.9688 6.51074 -78.7764q137.37 -27.9951 232.422 -99.6094h39.7139q26.6924 0.651367 45.5723 52.7344q18.8809 52.083 18.8809 125.651z" />
</svg>
