<?xml version="1.0" standalone="no"?>
<!DOCTYPE svg PUBLIC "-//W3C//DTD SVG 1.1//EN" "http://www.w3.org/Graphics/SVG/1.1/DTD/svg11.dtd" >
<svg xmlns="http://www.w3.org/2000/svg" xmlns:xlink="http://www.w3.org/1999/xlink" version="1.1" viewBox="-10 0 520 1000">
   <path fill="currentColor"
d="M497.396 786.688q2.60449 13.0205 2.60449 22.7861q0 23.4375 -17.5781 23.4375h-468.75q-13.6719 0 -13.6719 -18.2285q0 -12.3701 5.85938 -32.5527q7.16113 -20.1816 27.9941 -49.4785q25.3906 -35.8076 46.2246 -46.875q14.3223 -7.16211 50.1299 -16.9277
q30.5986 -8.46289 46.2236 -20.833q22.7871 29.9482 46.2246 39.0625q11.0674 3.90625 28.6455 3.90625t27.9951 -3.90625q24.0879 -9.11426 46.2236 -39.0625q14.9736 11.0674 46.875 19.5312q34.5049 7.8125 49.4795 18.2295q34.5049 22.7861 57.9424 62.5
q16.9268 28.6455 17.5781 38.4111zM139.322 532.13q-0.650391 -7.16113 -0.650391 -13.6719q0 -21.4844 8.46289 -33.2031v-9.76562q0 -24.0879 7.8125 -43.6191q14.9746 -33.8545 48.1777 -35.1562q3.90625 0 7.8125 -2.60449q15.625 -13.0205 43.6191 -13.0205
q6.51074 0 13.6719 0.650391q38.4121 4.55762 61.8496 26.6934q13.6719 12.3691 19.5312 35.1562q-6.51074 -9.76562 -16.2764 -18.2295q-31.9014 -28.6455 -77.4736 -28.6455q-30.5996 0 -55.9902 13.6719v0.650391q20.834 -9.76562 44.9219 -9.76562
q44.2715 0 76.1719 28.6465q10.417 9.11426 17.5781 20.833q10.417 15.625 13.0215 33.8545q-1.95312 -0.651367 -3.25586 -0.651367q-8.46289 0 -15.625 9.76562q-1.30176 1.95312 -3.90625 6.51074q-1.95312 3.90625 -3.25488 5.85938q-1.95312 1.95312 -2.60449 1.95312
q-1.30176 0 -1.95312 -1.30273q-0.650391 -1.30176 -1.30176 -16.2754q0 -6.51074 -5.20801 -6.51074q-1.95312 0 -3.90625 0.651367q-3.90625 1.30176 -11.0684 1.30176q-15.625 0 -46.2236 -5.20801q-42.9688 -7.16211 -57.9424 -14.3232
q-2.60449 -1.30176 -5.20898 -1.30176q-2.60352 0 -3.90625 1.95312q-1.95312 2.60352 -3.25488 7.16113q-1.30176 5.20801 -2.60449 24.0889q-0.650391 3.25488 -0.650391 3.90625q-0.651367 5.20801 -2.60449 5.20801q-0.651367 0 -1.30176 -0.651367
q-1.30273 -1.30176 -3.90625 -5.85938q-3.90625 -7.8125 -8.46387 -7.8125q-5.20801 0 -7.16113 11.0684q-1.95312 7.16113 -1.95312 16.9268q0 4.55762 0.650391 9.76562q3.90625 37.1094 16.2764 37.1094q2.60449 0 3.25488 2.60449q9.11523 44.9219 48.1777 67.0566
q13.0205 7.16211 26.6924 7.16211q13.0205 0 26.042 -6.51074q18.8799 -9.11426 32.5518 -27.9951q13.6719 -4.55664 25.3906 -12.3691q-15.625 35.1562 -52.083 55.3379q-15.625 9.11523 -31.25 9.11523q-16.2764 0 -33.2031 -10.417q-45.5732 -27.3438 -55.9902 -70.3125
q-17.5781 -10.417 -21.4844 -49.4795zM344.4 492.417q1.95312 -1.30273 4.55762 -1.30273q4.55762 0 9.11426 5.85938q6.51074 7.8125 6.51074 19.5312q0 3.25586 -0.651367 6.51074l-3.90625 34.5049q-1.30176 10.417 -7.8125 16.2764q-5.20801 3.90625 -10.416 3.90625
q-1.95312 0 -4.55762 -0.651367q-2.60449 -1.30176 -6.51074 -2.60352q-2.60352 -0.651367 -2.60352 -5.20898q-1.30273 -9.76562 -1.30273 -18.8799q0 -21.4844 7.16211 -42.3174q3.90625 -11.7188 10.416 -15.625zM339.844 584.214q-1.95312 1.95312 -4.55762 3.90625
q-24.7393 18.2285 -58.5938 24.0879q-3.25488 8.46387 -11.0674 8.46387h-31.25q-11.0684 0 -11.0684 -14.3232q0 -14.3223 11.0684 -14.3223h31.25q6.50977 0 9.76562 7.16113q27.3438 -4.55762 47.5254 -18.2295q0.651367 -1.95312 1.30273 -4.55664
q1.30176 2.60352 7.8125 4.55664q3.25488 0.651367 6.50977 0.651367h3.25586q-0.651367 1.30176 -1.95312 2.60449z" />
</svg>
