<?xml version="1.0" standalone="no"?>
<!DOCTYPE svg PUBLIC "-//W3C//DTD SVG 1.1//EN" "http://www.w3.org/Graphics/SVG/1.1/DTD/svg11.dtd" >
<svg xmlns="http://www.w3.org/2000/svg" xmlns:xlink="http://www.w3.org/1999/xlink" version="1.1" viewBox="-10 0 520 1000">
   <path fill="currentColor"
d="M500 607.65q0 40.3115 -27.959 68.9199q-28.6084 27.959 -68.9199 27.959l-115.085 -0.650391q-53.3154 0 -81.2744 -27.3086q-22.1064 -22.7568 -22.1064 -58.5176q0 -11.0527 7.15234 -18.2051q7.80176 -7.80176 18.2051 -7.80176t18.2061 7.80176
q7.15137 7.15234 7.15137 17.5557q0 14.3037 6.50195 22.1064q12.3535 13.6543 46.1641 13.6543l115.734 0.649414q18.8564 0 31.8604 -13.6533q13.6533 -13.0039 13.6533 -32.5098q0 -18.8555 -9.75293 -31.21q-10.4023 -14.9541 -29.2588 -14.9541h-37.0605
q-10.4033 0 -17.5557 -7.15234q-7.80176 -7.80176 -7.80176 -18.2051q0 -11.0537 7.80176 -18.2061q7.15234 -7.15137 18.2061 -7.15137h36.4102q39.0117 0 64.3701 27.3076q25.3574 27.959 25.3574 69.5713zM126.788 652.514q10.4033 0 18.2051 7.15234
q7.15234 7.80176 7.15234 18.2051t-7.15234 18.2051q-7.80176 7.15234 -18.2051 7.15234h-29.2588q-40.3125 0 -68.9209 -28.6084q-27.958 -28.6084 -28.6084 -68.2705q0 -40.3115 28.6084 -68.9209q27.958 -27.958 68.2705 -27.958l107.933 0.650391
q50.7148 0 80.624 23.4072q29.9092 23.4062 30.5586 62.418q0 11.0537 -7.80176 18.2061q-7.15234 7.80176 -17.5557 7.80176q-11.0527 0 -18.2051 -7.80176q-7.80273 -7.15234 -7.80273 -17.5557q0 -20.8057 -21.4561 -29.2588q-14.9541 -6.50195 -38.3613 -6.50195
l-107.933 -0.650391q-18.8555 0 -32.5098 13.6543q-13.0039 13.0039 -13.0039 32.5098q0 18.8555 13.6543 32.5098t32.5098 13.6543h29.2588z" />
</svg>
