<?xml version="1.0" standalone="no"?>
<!DOCTYPE svg PUBLIC "-//W3C//DTD SVG 1.1//EN" "http://www.w3.org/Graphics/SVG/1.1/DTD/svg11.dtd" >
<svg xmlns="http://www.w3.org/2000/svg" xmlns:xlink="http://www.w3.org/1999/xlink" version="1.1" viewBox="-10 0 499 1000">
   <path fill="currentColor"
d="M374.674 506.739h-249.348v50.1309h249.348v-50.1309zM374.674 607h-249.348v50.1299h249.348v-50.1299zM299.805 707.261h-174.479v49.4785h174.479v-49.4785zM250.326 407.13q-10.418 0 -18.2305 7.16211q-7.16016 7.16113 -7.16016 17.5781q0 10.416 7.16016 17.5781
q7.8125 7.8125 18.2305 7.8125q9.76562 0 17.5781 -7.8125q7.16016 -7.16211 7.16016 -17.5781q0 -10.417 -7.16016 -17.5781q-7.8125 -7.16211 -17.5781 -7.16211zM424.805 407.13q20.834 0 35.1562 14.3232q14.9746 14.9736 14.9746 35.8076v349.609
q0 20.833 -14.9746 35.1562q-14.3223 14.9736 -35.1562 14.9736h-349.609q-20.834 0 -35.1562 -14.9736q-14.9746 -14.3232 -14.9746 -35.1562v-349.609q0 -20.834 14.9746 -35.8076q14.3223 -14.3232 35.1562 -14.3232h104.166q18.2305 -50.1299 70.9648 -50.1299
q52.082 0 70.3125 50.1299h104.166z" />
</svg>
