<?xml version="1.0" standalone="no"?>
<!DOCTYPE svg PUBLIC "-//W3C//DTD SVG 1.1//EN" "http://www.w3.org/Graphics/SVG/1.1/DTD/svg11.dtd" >
<svg xmlns="http://www.w3.org/2000/svg" xmlns:xlink="http://www.w3.org/1999/xlink" version="1.1" viewBox="-10 0 520 1000">
   <path fill="currentColor"
d="M410.156 506.089l-21.4844 -5.85938q-8.46387 11.7188 -14.9746 15.625q-5.85938 2.60352 -13.6719 2.60352q-6.50977 0 -14.3223 -1.95312l-5.85938 22.7871l24.7393 7.16113l-41.667 156.901l31.9014 9.11426zM479.166 481.349q11.0684 2.60449 16.9277 13.0215
q3.90625 6.50977 3.90625 13.0205q0 3.90625 -1.30273 7.8125l-64.4531 240.886q-2.60352 11.0674 -13.0205 16.9268q-6.51074 3.90625 -13.0205 3.90625q-3.90625 0 -7.8125 -1.30176l-115.886 -30.5996q7.16113 -5.85938 11.7188 -14.3223
q7.16113 -11.7188 7.16113 -24.7402q0 -6.50977 -1.95312 -13.0205l-39.7129 -148.438l22.7861 -86.5889q3.25488 -11.0674 13.0205 -16.9268q6.51074 -3.90625 13.0215 -3.90625q3.90625 0 7.8125 1.30176zM213.541 699.448l-7.8125 -29.9482l-61.1973 16.9268
q-0.651367 -1.95312 -1.30273 -4.55664q-0.650391 -1.95312 -0.650391 -4.55762q0 -14.9736 19.5312 -54.0361q15.625 -31.9014 15.625 -58.5938q0 -11.7188 -3.25586 -22.7871q-11.0674 -41.666 -44.2705 -41.666q-7.8125 0 -17.5781 2.60352
q-37.7607 10.417 -37.7607 43.6201q0 9.76562 3.25586 20.833l5.20801 20.1826l30.5986 -8.46387l-5.85938 -21.4844q-1.30176 -5.20801 -1.30176 -9.11426q0 -13.0205 13.0205 -16.2764q2.60449 -0.650391 5.20898 -0.650391q12.3691 0 17.5781 20.1816
q1.95312 7.16211 1.95312 15.625q0 24.7402 -16.9277 57.292q-16.9268 31.9014 -16.9268 56.6406q0 9.11426 2.60449 17.5781l6.50977 25.3906zM279.947 698.797q1.30273 3.90625 1.30273 7.8125q0 6.51074 -3.90625 13.0205q-5.85938 10.417 -16.9277 13.0215
l-160.807 42.9688q-3.90625 1.30176 -7.8125 1.30176q-6.51074 0 -13.0215 -3.90625q-10.416 -5.85938 -13.0205 -16.9268l-64.4531 -240.886q-1.30176 -3.90625 -1.30176 -7.8125q0 -6.51074 3.90625 -13.0205q5.85938 -10.417 16.9268 -13.0215l160.808 -42.9688
q3.90625 -1.30176 7.8125 -1.30176q6.50977 0 13.0205 3.90625q9.76562 5.85938 13.0205 16.9268z" />
</svg>
