<?xml version="1.0" standalone="no"?>
<!DOCTYPE svg PUBLIC "-//W3C//DTD SVG 1.1//EN" "http://www.w3.org/Graphics/SVG/1.1/DTD/svg11.dtd" >
<svg xmlns="http://www.w3.org/2000/svg" xmlns:xlink="http://www.w3.org/1999/xlink" version="1.1" viewBox="-10 0 520 1000">
   <path fill="currentColor"
d="M327.474 633.692q-1.30176 0 -1.30176 1.30273v129.557q0 0.651367 1.30176 0.651367h7.16113q1.30273 0 1.30273 -0.651367v-129.557q0 -1.30273 -1.30273 -1.30273h-7.16113zM431.641 699.448q0 -6.51074 -5.20898 -10.417q-4.55664 -4.55762 -11.0674 -4.55762
q-7.16113 0 -11.7188 4.55762t-4.55762 10.417q0 6.50977 4.55762 11.0674t11.7188 4.55762q6.51074 0 11.0674 -4.55762q5.20898 -4.55762 5.20898 -11.0674zM289.713 724.188q-6.50977 0 -11.7188 4.55762q-4.55664 4.55664 -4.55664 11.0674t4.55664 11.0674
q5.20898 4.55762 11.7188 4.55762q6.51074 0 11.7188 -4.55762q4.55762 -4.55664 4.55762 -11.0674t-4.55762 -11.0674q-5.20801 -4.55762 -11.7188 -4.55762zM186.197 740.464q0 6.50977 5.20898 10.416q4.55664 4.55762 11.0674 4.55762q7.16113 0 11.7188 -4.55762
q5.20801 -3.90625 5.20801 -10.416q0 -6.51074 -5.20801 -11.0684q-4.55762 -4.55664 -11.7188 -4.55664q-6.51074 0 -11.0674 4.55664q-5.20898 4.55762 -5.20898 11.0684zM289.713 641.505q-6.50977 0 -11.0674 4.55762q-5.20801 4.55762 -5.20801 11.0674
q0 6.51074 5.20801 11.0684q4.55762 4.55664 11.0674 4.55664q7.16211 0 11.7188 -4.55664q5.20898 -4.55762 5.20898 -11.0684q0 -6.50977 -5.20898 -11.0674q-4.55664 -4.55762 -11.7188 -4.55762zM186.849 657.781q0 6.51074 4.55762 11.0674
q4.55664 4.55762 11.7188 4.55762q6.50977 0 11.7188 -4.55762q4.55664 -4.55664 4.55664 -11.0674q0 -5.85938 -4.55664 -10.417q-5.20898 -4.55664 -11.7188 -4.55664q-7.16211 0 -11.7188 4.55664q-4.55762 4.55762 -4.55762 10.417zM162.109 643.458
q0 -11.7188 8.46289 -20.1816q7.8125 -7.8125 19.5312 -7.8125h281.901q11.7188 0 19.5312 7.8125q8.46387 8.46289 8.46387 20.1816v112.631q0 11.7188 -8.46387 19.5312q-7.8125 8.46289 -19.5312 8.46289h-281.901q-11.7188 0 -19.5312 -8.46289
q-8.46289 -7.8125 -8.46289 -19.5312v-112.631zM172.525 580.308q1.30273 0 1.30273 -1.30273v-129.557q0 -1.30273 -1.30273 -1.30273h-7.16113q-1.30176 0 -1.30176 1.30273v129.557q0 1.30273 1.30176 1.30273h7.16113zM68.3594 514.552q0 5.85938 5.20801 10.417
q4.55762 4.55762 11.0674 4.55762q7.16211 0 11.7188 -4.55762q4.55762 -4.55762 4.55762 -10.417q0 -6.50977 -4.55762 -11.0674q-4.55664 -4.55762 -11.7188 -4.55762q-6.50977 0 -11.0674 4.55762q-5.20801 4.55762 -5.20801 11.0674zM39.0625 489.161
q6.50977 0 11.7188 -3.90625q4.55664 -4.55664 4.55664 -11.0674t-4.55664 -11.0674q-5.20898 -4.55762 -11.7188 -4.55762q-7.16211 0 -11.7188 4.55762q-4.55762 4.55664 -4.55762 11.0674t4.55762 11.0674q4.55664 3.90625 11.7188 3.90625zM142.578 473.536
q0 -6.50977 -5.20898 -10.416q-4.55664 -4.55762 -11.7188 -4.55762q-6.50977 0 -11.0674 4.55762q-5.20801 3.90625 -5.20801 10.416q0 6.51074 5.20801 11.0684q4.55762 4.55664 11.0674 4.55664q7.16211 0 11.7188 -4.55664q5.20898 -4.55762 5.20898 -11.0684z
M38.4111 572.495q7.16113 0 11.7188 -4.55762t4.55762 -11.0674q0 -6.51074 -4.55762 -11.0684q-4.55762 -4.55664 -11.7188 -4.55664q-6.51074 0 -11.0674 4.55664q-5.20898 4.55762 -5.20898 11.0684q0 6.50977 5.20898 11.0674q4.55664 4.55762 11.0674 4.55762z
M141.927 556.219q0 -6.51074 -4.55762 -11.0674q-5.20801 -4.55762 -11.7188 -4.55762q-6.50977 0 -11.7188 4.55762q-4.55664 4.55664 -4.55664 11.0674q0 5.85938 4.55664 10.417q5.20898 4.55664 11.7188 4.55664q6.51074 0 11.7188 -4.55664
q4.55762 -4.55762 4.55762 -10.417zM210.286 489.161q7.16113 0 11.7188 -3.90625q4.55762 -4.55664 4.55762 -11.0674t-4.55762 -11.0674q-4.55762 -4.55762 -11.7188 -4.55762q-6.51074 0 -11.7188 4.55762q-4.55762 4.55664 -4.55762 11.0674t4.55762 11.0674
q5.20801 3.90625 11.7188 3.90625zM313.802 473.536q0 -6.50977 -5.20801 -10.416q-4.55762 -4.55762 -11.0684 -4.55762q-7.16113 0 -11.7188 4.55762q-4.55664 3.90625 -4.55664 10.416q0 6.51074 4.55664 11.0684q4.55762 4.55664 11.7188 4.55664
q6.51074 0 11.0684 -4.55664q5.20801 -4.55762 5.20801 -11.0684zM210.286 572.495q6.51074 0 11.0674 -4.55762q5.20898 -4.55762 5.20898 -11.0674q0 -6.51074 -5.20898 -11.0684q-4.55664 -4.55664 -11.0674 -4.55664q-7.16113 0 -11.7188 4.55664
q-5.20801 4.55762 -5.20801 11.0684q0 6.50977 5.20801 11.0674q4.55762 4.55762 11.7188 4.55762zM313.15 556.219q0 -6.51074 -4.55664 -11.0674q-4.55762 -4.55762 -11.7188 -4.55762q-6.51074 0 -11.7188 4.55762q-4.55762 4.55664 -4.55762 11.0674
q0 5.85938 4.55762 10.417q5.20801 4.55664 11.7188 4.55664q7.16113 0 11.7188 -4.55664q4.55664 -4.55762 4.55664 -10.417zM337.891 570.542q0 11.7188 -7.8125 20.1816q-8.46387 7.8125 -20.1826 7.8125h-281.901q-11.7188 0 -19.5312 -7.8125
q-8.46289 -8.46289 -8.46289 -20.1816v-112.631q0 -11.7188 8.46289 -19.5312q7.8125 -8.46289 19.5312 -8.46289h281.901q11.7188 0 20.1826 8.46289q7.8125 7.8125 7.8125 19.5312v112.631z" />
</svg>
