<?xml version="1.0" standalone="no"?>
<!DOCTYPE svg PUBLIC "-//W3C//DTD SVG 1.1//EN" "http://www.w3.org/Graphics/SVG/1.1/DTD/svg11.dtd" >
<svg xmlns="http://www.w3.org/2000/svg" xmlns:xlink="http://www.w3.org/1999/xlink" version="1.1" viewBox="-10 0 520 1000">
   <path fill="currentColor"
d="M339.192 645.411q5.20801 -12.3691 5.20801 -27.3438q0 -14.3223 -5.20801 -27.3438q-5.85938 -13.0205 -14.9736 -22.1348q-9.76562 -9.76562 -22.7871 -14.9746q-13.0205 -5.85938 -27.9941 -5.85938h-46.875q-5.20898 0 -9.76562 -1.30176
q-3.90625 -1.95312 -7.16211 -5.20801q-3.25488 -3.25586 -5.20801 -7.8125q-1.95312 -3.90625 -1.95312 -9.11523q0 -4.55664 1.95312 -9.11426q1.95312 -3.90625 5.20801 -7.16113q3.25586 -3.25586 7.16211 -5.20898q4.55664 -1.95312 9.76562 -1.95312h108.072v-46.875
h-108.072q-14.9746 0 -27.9951 5.85938q-12.3701 5.20898 -22.1357 14.9746t-15.625 22.1348q-5.20801 13.0215 -5.20801 27.3438q0 14.3232 5.20801 27.3438q5.85938 13.0215 15.625 22.7871q9.76562 9.11426 22.1357 14.9736q13.0205 5.20801 27.9951 5.20801h46.875
q5.20801 0 9.76562 1.95312q3.90625 1.95312 7.16113 5.20898q3.25488 3.25488 5.20801 7.16113q1.95312 4.55762 1.95312 9.11426q0 5.20898 -1.95312 9.11523q-1.95312 4.55664 -5.20801 7.8125q-3.25488 3.25488 -7.16113 4.55664q-4.55762 1.95312 -9.76562 1.95312
h-104.818v46.875h104.818q14.9736 0 27.9941 -5.20801q13.0215 -5.85938 22.7871 -15.625q9.11426 -9.11426 14.9736 -22.1357zM496.744 513.25q3.25586 3.25488 3.25586 7.16113q0 3.25586 -3.25586 7.16211l-238.281 274.088q-3.25488 3.90625 -8.46289 3.90625
q-5.20898 0 -8.46387 -3.90625l-238.281 -274.088q-3.25488 -3.90625 -3.25488 -7.16211q0 -3.90625 3.25488 -7.16113l87.2393 -100.911q3.25586 -3.90625 8.46387 -3.90625h302.083q5.20898 0 8.46387 3.90625z" />
</svg>
