<?xml version="1.0" standalone="no"?>
<!DOCTYPE svg PUBLIC "-//W3C//DTD SVG 1.1//EN" "http://www.w3.org/Graphics/SVG/1.1/DTD/svg11.dtd" >
<svg xmlns="http://www.w3.org/2000/svg" xmlns:xlink="http://www.w3.org/1999/xlink" version="1.1" viewBox="-10 0 520 1000">
   <path fill="currentColor"
d="M225.26 631.739v-149.739h37.1094v131.511l112.631 66.4062l-18.8809 30.5986zM250 357q103.516 0 176.432 73.5674q73.5684 72.917 73.5684 176.433t-73.5684 176.433q-72.916 73.5674 -176.432 73.5674t-177.084 -73.5674q-72.916 -72.917 -72.916 -176.433
t72.916 -176.433q73.5684 -73.5674 177.084 -73.5674zM100.26 457.911q-61.8486 61.1982 -61.8486 149.089t61.8486 149.089q61.8496 62.5 149.74 62.5t149.088 -62.5q62.5 -61.1982 62.5 -149.089t-62.5 -149.089q-61.1973 -62.5 -149.088 -62.5t-149.74 62.5z" />
</svg>
