<?xml version="1.0" standalone="no"?>
<!DOCTYPE svg PUBLIC "-//W3C//DTD SVG 1.1//EN" "http://www.w3.org/Graphics/SVG/1.1/DTD/svg11.dtd" >
<svg xmlns="http://www.w3.org/2000/svg" xmlns:xlink="http://www.w3.org/1999/xlink" version="1.1" viewBox="-10 0 520 1000">
   <path fill="currentColor"
d="M248.697 424.058q75.5215 0 129.558 53.3848q53.3857 54.0371 53.3857 128.906q0 75.5215 -53.3857 129.558q-54.0361 53.3857 -129.558 53.3857q-75.5205 0 -129.557 -53.3857q-53.3857 -54.0361 -53.3857 -129.558q0 -74.8691 53.3857 -128.906
q54.0361 -53.3848 129.557 -53.3848zM248.697 808.823q83.9844 0 143.229 -59.2451q59.8955 -59.2451 59.8955 -143.229q0 -83.333 -59.8955 -142.578q-59.2451 -59.8955 -143.229 -59.8955t-143.229 59.8955q-59.8965 59.2451 -59.8965 142.578q0 83.9844 59.8965 143.229
q59.2441 59.2451 143.229 59.2451zM496.094 586.167q-11.7188 8.46289 -11.7188 23.4375q0 13.0205 11.0674 22.1348q3.90625 2.60449 3.90625 4.55762v1.30176q0 1.95312 -0.651367 5.20898q-1.30176 5.85938 -7.16113 8.46289q-14.9736 5.85938 -16.9268 24.0889v2.60449
q0 9.11426 7.16113 18.2285q1.30176 1.30273 1.30176 3.25586q0 1.30176 -0.650391 2.60352v0.651367l-0.651367 0.651367q-1.30176 7.16113 -12.3701 9.11426q-13.0205 3.25488 -19.5312 17.5781q-1.95312 3.90625 -1.95312 9.11426q0 7.8125 3.90625 16.9277
l-0.650391 0.650391q-5.20898 9.76562 -14.9746 9.76562h-6.50977q-8.46387 0 -16.2764 7.8125t-7.8125 17.5781v3.90625q0.651367 1.30273 0.651367 2.60449q0 5.20801 -7.8125 11.0674q-1.95312 1.30273 -3.90625 1.30273q-1.30273 0 -3.25586 -0.651367
q-5.85938 -3.25488 -12.3691 -3.25488q-5.85938 0 -11.7188 2.60352q-13.0215 6.51074 -16.9277 19.5312v3.25586q0 5.20801 -6.50977 7.8125q-2.60449 0.650391 -5.20898 0.650391q-3.25488 0 -5.85938 -1.95312q-7.16113 -5.85938 -18.2285 -5.85938h-1.95312
q-12.3701 0.651367 -18.2295 8.46387l-3.25488 4.55762q-1.95312 2.60352 -2.60449 4.55664q-1.30176 3.25586 -4.55762 4.55762l-3.25488 0.651367l-2.60449 0.650391q-1.30176 0.651367 -2.60352 0.651367q-2.60449 0 -5.20898 -3.90625
q-7.8125 -10.417 -20.1816 -12.3701q-12.3701 1.95312 -20.1826 12.3701q-2.60449 3.90625 -5.20801 3.90625q-1.30273 0 -2.60449 -0.651367l-2.60449 -0.650391l-3.25488 -0.651367q-3.25488 -1.30176 -4.55762 -4.55762q-1.30176 -3.25488 -5.85938 -9.11426
q-5.85938 -7.8125 -18.2285 -8.46387h-1.95312q-11.0684 0 -18.2295 5.85938q-2.60449 1.95312 -5.85938 1.95312q-2.60449 0 -5.20801 -0.650391q-6.51074 -2.60449 -6.51074 -7.8125v-3.25586q-3.90625 -13.0205 -16.9268 -19.5312q-5.85938 -2.60352 -11.7188 -2.60352
t-11.7188 3.25488q-1.95312 0.651367 -3.25586 0.651367q-2.60352 0 -4.55664 -1.30273q-7.8125 -5.85938 -7.8125 -11.0674q0 -1.30176 0.650391 -2.60449v-5.20801q0 -9.11426 -7.8125 -16.2764q-7.8125 -7.8125 -16.2754 -7.8125h-6.51074q-9.76562 0 -14.9736 -9.76562
l-0.651367 -0.650391q3.90625 -9.11523 3.90625 -16.9277q0 -5.20801 -1.95312 -9.11426q-6.51074 -14.3232 -19.5312 -17.5781q-11.0674 -1.95312 -12.3701 -9.11426l-0.650391 -0.651367v-0.651367q-0.651367 -1.30176 -0.651367 -2.60352q0 -1.95312 1.30176 -3.25586
q7.16211 -9.11426 7.16211 -18.2285v-2.60449q-1.95312 -18.2295 -16.9277 -24.0889q-5.20801 -2.60352 -7.16113 -8.46289q-0.651367 -3.25586 -0.651367 -5.20898v-1.30176q0.651367 -1.95312 3.90625 -4.55762q11.0684 -9.11426 11.0684 -22.1348
q0 -14.9746 -11.7188 -23.4375q-3.90625 -2.60449 -3.90625 -7.16211v-1.30176q0 -9.11426 7.16113 -11.0674l1.30176 -0.651367q11.0684 -5.85938 14.3232 -18.2295q1.30176 -3.90625 1.30176 -7.8125q0 -7.8125 -5.20801 -14.9736l-1.95312 -3.25488l-2.60449 -2.60449
l1.30273 -3.90625l1.30176 -3.25488q1.30176 -3.90625 2.60449 -5.20898q1.30176 -0.650391 5.20801 -1.30176q14.9736 -1.30176 22.1357 -15.625q3.25488 -6.51074 3.25488 -12.3701t-3.25488 -11.7188q-0.651367 -1.95312 -0.651367 -3.90625q0 -3.25488 1.95312 -6.50977
q3.25488 -4.55762 9.11426 -4.55762h5.85938q3.25586 0 5.20898 -0.651367q22.1348 -6.50977 22.1348 -26.6924v-4.55762q0 -7.8125 5.85938 -11.7188q2.60449 -1.95312 5.20898 -1.95312q1.95312 0 3.90625 0.651367q5.85938 2.60449 11.7188 2.60449
q6.50977 0 13.0205 -3.25586q12.3701 -7.16113 14.3232 -20.833q0.650391 -7.16113 7.8125 -9.76562l2.60352 -0.651367l1.30273 -0.650391l1.30176 -0.651367l3.90625 1.95312l3.25488 2.60449q3.90625 1.95312 7.16211 3.25488q4.55664 1.30176 8.46289 1.30176
q6.51074 0 12.3701 -3.25488q9.76562 -5.20801 14.3232 -16.2764q1.95312 -4.55664 5.85938 -4.55664h2.60352l3.25586 -0.651367h1.30176q3.25488 0 4.55762 2.60449q7.8125 12.3691 23.4375 12.3691h1.30176v-0.650391h1.30176v0.650391h1.30273
q15.625 0 23.4375 -12.3691q1.30176 -2.60449 4.55664 -2.60449h1.30273l3.25488 0.651367h2.60449q3.90625 0 5.85938 4.55664q4.55664 11.0684 14.3223 16.2764q6.51074 3.25488 13.0215 3.25488q3.90625 0 7.8125 -1.30176q3.25488 -1.30176 7.16113 -3.25488
l3.25488 -2.60449l3.90625 -1.95312l1.30273 0.651367l1.30176 0.650391l2.60449 0.651367q7.16113 2.60449 7.8125 9.76562q1.95312 13.6719 14.3223 20.833q6.51074 3.25586 13.0215 3.25586q6.50977 0 12.3691 -2.60449q1.95312 -0.651367 3.25586 -0.651367
q2.60352 0 5.20801 1.95312q5.85938 3.90625 5.85938 11.7188v4.55762q0 20.1826 22.1357 26.6924q1.95312 0.651367 5.20801 0.651367h5.85938q5.85938 0 9.11426 4.55762q1.95312 3.25488 1.95312 6.50977q0 1.95312 -0.650391 3.90625q-2.60449 5.85938 -2.60449 11.7188
t2.60449 12.3701q7.16113 14.3232 22.1348 15.625q3.90625 0.651367 5.20898 1.30176q1.30176 1.30273 2.60352 5.20898l1.30273 3.25488l1.30176 3.90625l-2.60449 2.60449l-1.95312 3.25488q-5.20801 7.16113 -5.20801 14.9736q0 3.90625 1.30176 7.8125
q3.25586 12.3701 14.3232 18.2295l1.30176 0.651367q7.16211 1.95312 7.16211 11.0674v1.30176q0 4.55762 -3.90625 7.16211z" />
</svg>
