<?xml version="1.0" standalone="no"?>
<!DOCTYPE svg PUBLIC "-//W3C//DTD SVG 1.1//EN" "http://www.w3.org/Graphics/SVG/1.1/DTD/svg11.dtd" >
<svg xmlns="http://www.w3.org/2000/svg" xmlns:xlink="http://www.w3.org/1999/xlink" version="1.1" viewBox="-10 0 520 1000">
   <path fill="currentColor"
d="M492.838 574.123l1.30273 1.95312q5.85938 5.85938 5.85938 12.3691t-7.16211 12.3691l-196.614 197.266q-6.51074 5.20898 -13.6719 5.20898q-3.90625 0 -7.8125 -1.30273q-11.7188 -4.55664 -11.7188 -17.5781v-101.562q-5.85938 -0.650391 -11.7188 -0.650391
q-14.3232 0 -29.2969 2.60352q-26.6924 4.55859 -52.083 16.2773q-67.0576 31.9004 -114.584 110.676l-11.7188 20.1836q-5.85938 9.11328 -16.9268 9.76562h-3.90625q-13.6719 -2.60547 -16.2764 -15.625l-3.90625 -22.7871v-1.30273q-2.60352 -19.5312 -2.60352 -38.4102
q0 -53.3867 20.1816 -104.168q26.6934 -69.0098 83.9844 -116.535q69.0107 -52.7344 156.25 -52.7344h1.95312v-97.0059q0 -7.8125 5.20898 -13.6719q7.16113 -7.16211 14.3223 -7.16211q7.16211 0 13.6719 6.51172l196.615 195.312h0.650391z" />
</svg>
