<?xml version="1.0" standalone="no"?>
<!DOCTYPE svg PUBLIC "-//W3C//DTD SVG 1.1//EN" "http://www.w3.org/Graphics/SVG/1.1/DTD/svg11.dtd" >
<svg xmlns="http://www.w3.org/2000/svg" xmlns:xlink="http://www.w3.org/1999/xlink" version="1.1" viewBox="-10 0 520 1000">
   <path fill="currentColor"
d="M500 505.111v203.777h-419.271l-80.7285 -102.215l80.7285 -101.562h419.271zM143.229 658.107v-63.1523l39.0625 63.1523h19.5312v-97.0059h-18.2285v65.1035l-39.7139 -65.1035h-19.5312v97.0059h18.8799zM296.224 658.107v-16.2773h-54.0361v-26.041h48.1768v-16.2754
h-48.1768v-21.4844h52.083v-16.9277h-71.6143v97.0059h73.5674zM347.656 658.107l19.5312 -72.2656l19.5312 72.2656h20.1816l24.0889 -97.0059h-20.1826l-14.3223 67.709l-16.9277 -67.709h-23.4375l-18.2285 66.4062l-14.3232 -66.4062h-20.1826l23.4375 97.0059h20.834z
" />
</svg>
