<?xml version="1.0" standalone="no"?>
<!DOCTYPE svg PUBLIC "-//W3C//DTD SVG 1.1//EN" "http://www.w3.org/Graphics/SVG/1.1/DTD/svg11.dtd" >
<svg xmlns="http://www.w3.org/2000/svg" xmlns:xlink="http://www.w3.org/1999/xlink" version="1.1" viewBox="-10 0 520 1000">
   <path fill="currentColor"
d="M301.432 607l83.334 -83.333q10.416 -10.417 10.416 -26.042q0 -14.9736 -10.416 -25.3906q-10.417 -10.417 -25.3906 -10.417q-15.625 0 -26.042 10.417l-83.333 83.333l-83.334 -83.333q-10.416 -10.417 -26.041 -10.417q-14.9746 0 -25.3906 10.417
q-10.417 10.417 -10.417 25.3906q0 15.625 10.417 26.042l83.333 83.333l-83.333 83.333q-10.417 10.417 -10.417 26.042q0 14.9736 10.417 25.3906q10.416 10.417 25.3906 10.417q15.625 0 26.041 -10.417l83.334 -83.333l83.333 83.333q10.417 10.417 26.042 10.417
q14.9736 0 25.3906 -10.417q10.416 -10.417 10.416 -25.3906q0 -15.625 -10.416 -26.042zM250 357q103.516 0 177.083 72.917q72.917 73.5674 72.917 177.083t-72.917 177.083q-73.5674 72.917 -177.083 72.917t-177.084 -72.917q-72.916 -73.5674 -72.916 -177.083
t72.916 -177.083q73.5684 -72.917 177.084 -72.917z" />
</svg>
