<?xml version="1.0" standalone="no"?>
<!DOCTYPE svg PUBLIC "-//W3C//DTD SVG 1.1//EN" "http://www.w3.org/Graphics/SVG/1.1/DTD/svg11.dtd" >
<svg xmlns="http://www.w3.org/2000/svg" xmlns:xlink="http://www.w3.org/1999/xlink" version="1.1" viewBox="-10 0 520 1000">
   <path fill="currentColor"
d="M184.896 748.276v-32.5527q-15.625 0 -33.8545 -4.55664q-16.2754 -4.55762 -26.041 -10.417l9.76562 -39.7139q13.6719 6.51074 26.041 9.76562q16.2764 5.20898 31.9014 5.20898q34.5049 0 34.5049 -22.7871q0 -19.5312 -37.1094 -29.9473
q-62.5 -20.834 -62.5 -65.1045q0 -22.7861 15.625 -39.7139q16.2764 -16.9268 44.2715 -22.7861v-35.1562h35.1562v29.9482q29.9473 0 50.1299 10.416l-10.417 39.7139l-3.90625 -1.95312l-4.55664 -1.95312q-5.20898 -2.60449 -11.0684 -3.90625
q-13.6719 -4.55762 -30.5986 -4.55762q-29.9482 3.25586 -29.9482 22.7871q0 9.11426 10.417 15.625q9.11426 6.50977 32.5518 14.3223q30.5996 11.0684 44.2715 26.6934q13.0205 14.9736 13.0205 38.4111q0 22.7861 -16.2764 40.3643q-16.9268 18.8809 -46.2236 24.0889
v35.1562zM414.713 662.989v-31.9004h-97.0049v-47.5264h97.0049v-32.5518l85.2871 54.6875zM402.344 662.989q-18.8809 64.4531 -73.5684 106.12q-55.3379 41.667 -123.697 41.667q-84.6357 0 -144.531 -60.5469q-60.5469 -59.8965 -60.5469 -144.531
q0 -84.6357 60.5469 -144.531q58.5938 -57.9434 139.322 -57.9434h5.20898q70.3125 0 125 41.667q53.3848 41.0156 72.2656 106.12h-42.3184q-16.9268 -49.4795 -58.5938 -79.4277q-42.9688 -30.5986 -96.3535 -30.5986q-67.709 0 -116.537 48.8281
q-48.8281 48.1768 -48.8281 115.886q0 67.708 48.1777 116.536q48.1768 48.8281 117.188 48.8281q52.083 0 95.0518 -30.5986q42.9688 -29.9482 59.8955 -77.4746h42.3184z" />
</svg>
