<?xml version="1.0" standalone="no"?>
<!DOCTYPE svg PUBLIC "-//W3C//DTD SVG 1.1//EN" "http://www.w3.org/Graphics/SVG/1.1/DTD/svg11.dtd" >
<svg xmlns="http://www.w3.org/2000/svg" xmlns:xlink="http://www.w3.org/1999/xlink" version="1.1" viewBox="-10 0 520 1000">
   <path fill="currentColor"
d="M250 538.818q28.4092 0 48.2959 19.8867q19.8857 19.8848 19.8857 48.2949q0 28.4082 -19.8857 48.2949q-19.8867 19.8867 -48.2959 19.8867t-48.2949 -19.8867q-19.8867 -19.8867 -19.8867 -48.2949q0 -28.4102 19.8867 -48.2949q19.8857 -19.8867 48.2949 -19.8867z
M250 720.637q46.875 0 80.2559 -33.3809t33.3809 -80.2559t-33.3809 -80.2559t-80.2559 -33.3809t-80.2559 33.3809t-33.3809 80.2559t33.3809 80.2559t80.2559 33.3809zM250 436.545q83.8066 0 152.699 47.5859q67.4717 46.875 97.3008 122.869
q-29.8291 75.9941 -97.3008 122.869q-68.8926 47.5859 -152.699 47.5859t-152.699 -47.5859q-67.4707 -46.875 -97.3008 -122.869q29.8301 -75.9941 97.3008 -122.869q68.8926 -47.5859 152.699 -47.5859z" />
</svg>
