<?xml version="1.0" standalone="no"?>
<!DOCTYPE svg PUBLIC "-//W3C//DTD SVG 1.1//EN" "http://www.w3.org/Graphics/SVG/1.1/DTD/svg11.dtd" >
<svg xmlns="http://www.w3.org/2000/svg" xmlns:xlink="http://www.w3.org/1999/xlink" version="1.1" viewBox="-10 0 520 1000">
   <path fill="currentColor"
d="M481.771 628.484q1.30176 -11.7188 1.30176 -23.4375q0 -7.8125 -0.650391 -15.625q-0.651367 -0.651367 -1.30273 -1.95312q-13.6719 -48.1768 -35.8066 -80.0781q-5.20898 -8.46387 -10.417 -14.3232l-27.3438 6.51074q0.651367 7.16113 0.651367 14.9736
q0 50.1309 -16.2764 84.6357q7.8125 8.46387 14.3232 18.2295q14.3223 20.833 21.4844 46.2236q20.1816 -1.30176 42.3174 -11.7188l1.30176 -0.651367q6.51074 -13.6719 10.417 -22.7861zM383.463 796.453q67.0576 -46.875 89.8438 -125.651
q-24.7393 10.417 -46.875 11.0684q-25.3906 48.1768 -55.9893 72.916q2.60449 12.3701 2.60449 24.0889q0 10.417 -1.95312 20.1826q5.85938 -1.30273 12.3691 -2.60449zM352.213 800.359q2.60449 -10.417 2.60449 -21.4844q0 -9.11426 -1.95312 -19.5312
q-40.3643 -3.90625 -68.3594 -21.4844q-39.7139 29.2969 -91.1455 33.8545v35.1562q42.3174 21.4844 85.2861 21.4844q18.8799 0 37.7607 -3.90625v-1.30273l4.55664 -0.650391q14.9746 -8.46387 26.042 -16.9277v-0.650391l3.90625 -2.60449
q0.651367 -1.30176 1.30176 -1.95312zM144.531 812.729q33.8535 17.5781 70.9629 22.7861q-18.8799 -5.85938 -37.1094 -16.2764q-16.9268 -1.30176 -33.8535 -6.50977zM183.594 754.136q52.7344 -1.95312 91.7969 -32.5527q0 -39.7129 8.46289 -80.0781
q-31.25 -19.5312 -82.6816 -70.3125l-80.0781 31.25q-10.417 33.8545 -10.417 67.0576q0 16.9268 2.60449 33.8545q26.041 31.9004 70.3125 50.7812zM93.75 697.495q-1.30273 -13.0215 -1.30273 -26.6934q0 -37.1094 11.7188 -74.2188q-5.20801 -5.85938 -9.11426 -12.3691
q-18.8799 -27.9951 -24.0889 -53.3857q-25.3906 14.9736 -37.1094 26.6924q-7.16113 17.5781 -15.625 39.0625v9.76562q0 10.417 0.651367 20.834q5.85938 23.4375 23.4375 49.4785q10.417 15.625 24.7393 30.5996q16.2764 -5.85938 26.6934 -9.76562zM38.4111 702.703
q11.7188 25.3906 29.2969 47.5264q-5.85938 -12.3701 -9.76562 -26.6934q-10.417 -10.416 -19.5312 -20.833zM119.791 412.989q-62.5 42.3184 -87.8906 113.281l1.95312 7.16211q16.2764 -12.3701 41.0156 -24.7402q16.9277 -27.9941 57.292 -67.0566v-3.25586
q0 -16.2754 5.85938 -34.5049h-3.90625zM158.854 399.317q-8.46289 20.1826 -8.46289 39.7139q37.7598 3.90625 66.4062 18.2295q37.7598 -25.3906 90.4941 -32.5527q1.95312 -11.7188 4.55762 -27.9941q-11.7188 -11.7188 -29.9482 -21.4844
q-16.2754 -2.60449 -33.2031 -2.60449q-37.7598 0 -74.8691 13.0205q-8.46387 9.11523 -14.9746 13.6719zM388.021 495.021q-23.4375 -33.8535 -71.6143 -52.7344q-53.3857 5.20898 -89.8438 30.5996q-5.85938 39.0625 -14.3232 83.333q50.7812 50.7812 80.7295 69.6611
q54.6875 -21.4844 81.3799 -31.25q15.625 -31.9004 15.625 -79.4268q0 -8.46387 -0.651367 -17.5781q0 -0.651367 -0.650391 -1.30176l-0.651367 -0.651367l4.55762 -3.90625zM250 357q103.516 0 177.083 72.917q72.917 72.916 72.917 177.083q0 103.516 -72.917 176.433
q-73.5674 73.5674 -177.083 73.5674t-176.433 -73.5674q-73.5674 -72.917 -73.5674 -176.433q0 -104.167 73.5674 -177.083q72.917 -72.917 176.433 -72.917z" />
</svg>
