<?xml version="1.0" standalone="no"?>
<!DOCTYPE svg PUBLIC "-//W3C//DTD SVG 1.1//EN" "http://www.w3.org/Graphics/SVG/1.1/DTD/svg11.dtd" >
<svg xmlns="http://www.w3.org/2000/svg" xmlns:xlink="http://www.w3.org/1999/xlink" version="1.1" viewBox="-10 0 520 1000">
   <path fill="currentColor"
d="M6.50977 510.972q-3.25488 -6.51074 -3.25488 -11.7188q0 -8.46387 10.417 -14.9736q5.85938 -3.25586 11.0674 -3.25586q8.46387 0 14.9736 10.417l43.6201 74.2188l68.3594 1.95312q-10.417 9.76562 -17.5781 24.0889v0.650391q-3.25488 5.85938 -6.51074 13.0215
l-55.9893 -1.30273q-11.0674 -0.650391 -16.2764 -9.76562zM387.369 656.154q-3.25488 1.95312 -7.16113 1.95312l-74.2188 1.95312l0.651367 -0.651367q10.416 -14.3232 10.416 -31.25q0 -3.25488 -0.650391 -7.16113l59.2441 -1.30273l56.6406 -24.0879
q5.20898 -2.60449 9.76562 -2.60449q10.417 0 15.625 13.0205q2.60449 5.20898 2.60449 9.76562q0 10.417 -13.0205 15.625zM202.474 562.404q-3.25488 -9.11523 -3.25488 -18.2295q0 -12.3701 5.20801 -24.0889q9.11426 -21.4844 28.6455 -31.25
q11.0684 -5.20801 21.4844 -5.20801q9.11523 0 17.5781 3.90625q18.8809 7.8125 26.042 28.6455q3.25488 9.11523 3.25488 18.2295q0 12.3701 -5.20801 24.0889q-9.11426 21.4844 -28.6455 31.25q-11.0684 5.20801 -22.1357 5.20801q-8.46387 0 -16.9268 -3.25488
q-18.8809 -8.46387 -26.042 -29.2969zM153.646 601.467q11.7188 -22.1357 29.2969 -27.9951q11.0674 27.3438 37.1094 38.4111q12.3701 5.20898 25.3906 5.20898q20.1826 0 38.4111 -11.0684q11.7188 10.417 11.7188 22.1357q0 9.11426 -7.16113 18.8799
q-8.46387 13.0215 -56.6406 91.7969q-3.25488 0.651367 -6.51074 1.95312q-9.76562 3.25586 -21.4844 11.7188q-5.85938 4.55762 -8.46289 5.85938q-3.25586 0.651367 -8.46387 1.30273h-1.30176q-3.90625 0 -7.16211 -1.30273q-2.60352 -0.650391 -8.46289 -4.55664
q-12.3701 -8.46387 -21.4844 -11.0684q-9.76562 -2.60352 -20.1826 -2.60352h-3.90625q-12.3701 0.650391 -23.4375 5.20801h-1.30176q21.4844 -74.8701 54.0361 -143.88zM483.072 767.482q4.55762 -1.30273 8.46387 -1.30273q4.55762 0 8.46387 1.30273
q-9.76562 1.30176 -15.625 4.55664q-5.20898 3.25586 -13.6719 10.417q-8.46387 7.16113 -15.625 10.417q-7.16211 3.90625 -17.5781 4.55664q-3.25586 0.651367 -6.51074 0.651367q-5.85938 0 -11.7188 -1.95312q-7.16113 -1.95312 -17.5781 -8.46387
q-7.8125 -4.55664 -13.0205 -6.50977q-3.90625 -0.651367 -8.46387 -0.651367h-5.20801q-7.8125 0.651367 -13.0215 2.60449q-5.20801 1.95312 -12.3691 7.8125q-9.76562 7.8125 -17.5781 10.416q-8.46387 3.25586 -19.5312 3.90625q-5.20898 0 -9.76562 -0.650391
q-5.20898 -0.651367 -10.417 -1.95312q-7.16113 -2.60449 -17.5781 -9.76562q-7.8125 -5.85938 -12.3701 -7.16211q-5.20801 -1.95312 -12.3691 -1.95312q-3.90625 0 -6.51074 0.651367l-6.51074 1.30176q-3.90625 1.30273 -11.7188 7.16211
q-10.416 7.16113 -18.2285 9.11426q-9.11523 3.25488 -19.5312 3.25488q-5.20898 0 -9.76562 -1.30176q-5.20898 -0.651367 -9.76562 -2.60449q-7.8125 -2.60352 -17.5781 -10.416q-7.16211 -5.85938 -12.3701 -7.8125q-5.85938 -2.60449 -13.0205 -2.60449h-5.20898
q-4.55664 0 -8.46289 0.651367q-5.20898 1.30176 -13.6719 6.50977q-10.417 6.51074 -16.9277 8.46387q-6.50977 1.30176 -13.6719 1.30176h-4.55664q-10.417 -0.650391 -17.5781 -4.55664q-7.16211 -3.25586 -15.625 -10.417q-8.46387 -7.8125 -13.6719 -10.417
q-5.85938 -3.25488 -15.625 -4.55664q4.55664 -1.30273 8.46289 -1.30273q4.55762 0 8.46387 1.30273q6.51074 1.30176 16.2764 7.16113q9.11426 4.55762 14.3223 5.85938q4.55762 1.30176 9.11523 1.30176q2.60352 0 5.85938 -0.650391q7.8125 -0.651367 14.3223 -3.25586
q4.55762 -2.60352 12.3701 -9.11426q9.11426 -7.16113 16.9268 -10.417q8.46387 -3.90625 18.8809 -3.90625h3.90625q8.46289 0 15.625 1.95312q6.50977 1.95312 17.5781 9.11523q7.16113 5.20801 12.3691 6.50977q5.20898 1.95312 13.0215 1.95312
q7.16113 -0.650391 12.3691 -2.60352q4.55762 -1.95312 12.3701 -7.16211q9.76562 -7.16113 17.5781 -10.416l10.417 -2.60449q4.55664 -0.651367 9.76562 -0.651367q11.0674 0 19.5312 3.25586q7.8125 3.25488 18.2285 10.416q7.16211 5.20898 11.7188 7.16211
q3.25586 1.30176 6.51074 1.95312q2.60449 0 6.51074 0.650391q7.16113 0 13.0205 -1.95312q4.55762 -1.30176 12.3701 -6.50977q10.416 -7.16211 17.5781 -9.11523q7.16113 -1.95312 15.625 -1.95312h3.90625q10.416 0 18.8799 3.90625q7.8125 3.25586 16.2764 10.417
q7.8125 6.51074 13.0205 9.11426q5.85938 2.60449 14.3232 3.25586q3.25488 0.650391 5.85938 0.650391q4.55664 0 9.11426 -1.30176q5.20801 -1.30176 14.3232 -5.85938q9.76562 -5.85938 16.2754 -7.16113zM121.744 514.227q-22.1348 0 -37.1094 -15.625
q-15.625 -14.9736 -15.625 -37.1094q0 -22.1348 15.625 -37.1094q14.9746 -15.625 37.1094 -15.625q22.1357 0 37.1094 15.625q15.625 14.9746 15.625 37.1094q0 22.1357 -15.625 37.1094q-14.9736 15.625 -37.1094 15.625z" />
</svg>
