<?xml version="1.0" standalone="no"?>
<!DOCTYPE svg PUBLIC "-//W3C//DTD SVG 1.1//EN" "http://www.w3.org/Graphics/SVG/1.1/DTD/svg11.dtd" >
<svg xmlns="http://www.w3.org/2000/svg" xmlns:xlink="http://www.w3.org/1999/xlink" version="1.1" viewBox="-10 0 519 1000">
   <path fill="currentColor"
d="M305.013 403.875q-55.9893 -20.833 -119.141 -20.833q-8.46289 0 -17.5781 0.650391q-18.2285 1.30273 -35.8066 3.25586q56.6406 -29.9482 119.791 -29.9482h7.8125l1.30273 0.651367q3.90625 1.30176 11.0674 5.20801q29.2969 15.625 32.5518 41.0156zM498.372 571.844
q-17.5781 -30.5986 -43.6191 -59.8955q8.46289 -7.8125 22.7861 -9.76562q15.625 33.2031 20.833 69.6611zM461.914 473.536q-16.9268 5.20898 -28.6455 16.2764q-15.625 -15.625 -33.2031 -30.5986q9.11426 -20.834 15.625 -39.7139q27.3438 23.4375 46.2236 54.0361z
M43.2939 577.052q-23.4375 20.834 -41.0156 46.2246q-0.650391 -9.11523 -0.650391 -18.8809q0 -61.1973 29.9473 -116.536q16.9277 -31.25 41.667 -55.9893q45.5732 -14.9746 97.0049 -16.9277q8.46387 -0.650391 16.9277 -0.650391q59.2441 0 111.328 20.1816
q-17.5781 35.1562 -98.959 65.1045q-4.55664 1.30176 -11.0674 3.90625q-8.46387 3.25488 -11.0674 3.90625l-1.95312 0.651367q-94.4014 35.1562 -132.162 69.0098zM335.612 416.896q0.650391 -3.90625 0.650391 -7.8125q0 -22.1348 -12.3691 -41.0156
q24.0879 7.16211 46.2236 18.8809q9.76562 5.85938 19.5312 12.3691q-6.51074 19.5312 -14.9736 40.3652q-18.8809 -12.3701 -39.0625 -22.7871zM432.617 610.255q0 -47.5254 6.51074 -69.0098q52.7344 63.1504 55.9893 117.188q-7.16113 35.8066 -24.7393 67.0566
q-27.3438 50.7812 -73.5684 83.9844q35.1562 -57.291 35.8076 -184.896v-14.3232zM361.653 468.979q-28.6455 61.8486 -68.3594 122.396q-70.3125 106.12 -180.338 223.308q-78.7764 -52.084 -102.865 -143.881v-0.650391q18.2295 -37.7607 54.0371 -69.6621
q33.2031 -30.5986 121.744 -63.1504l1.30273 -0.651367l12.3691 -4.55762q1.30273 -0.650391 4.55762 -1.30176q3.25488 -1.30176 5.20801 -1.95312l0.651367 -0.651367q94.4014 -34.5049 117.188 -80.7285q18.2295 9.76562 34.5049 21.4844zM401.367 624.578
q0 123.698 -35.1562 175.13q-14.9736 22.1357 -35.1562 41.667l-3.25488 3.25488q-39.7139 12.3701 -78.125 12.3701q-55.9902 0 -109.375 -26.042q109.375 -117.838 178.385 -222.656q39.0625 -58.5938 67.709 -119.141q15.625 13.0215 28.6455 26.042
q-13.0205 29.9482 -13.6719 95.0518v14.3232z" />
</svg>
