<?xml version="1.0" standalone="no"?>
<!DOCTYPE svg PUBLIC "-//W3C//DTD SVG 1.1//EN" "http://www.w3.org/Graphics/SVG/1.1/DTD/svg11.dtd" >
<svg xmlns="http://www.w3.org/2000/svg" xmlns:xlink="http://www.w3.org/1999/xlink" version="1.1" viewBox="-10 0 510 1000">
   <path fill="currentColor"
d="M207.683 781.479q64.4531 0 64.4531 -34.5059q0 -29.2969 -50.7812 -34.5049v34.5049q0 11.7188 -11.0684 11.7188q-18.2285 0 -18.2285 -11.7188v-34.5049q-46.875 4.55762 -46.875 34.5049q0 34.5059 62.5 34.5059zM229.167 649.969l138.021 -16.9268
q14.3232 -1.95312 26.042 -1.95312q43.6191 0 43.6191 27.3438q0 48.1768 -69.6611 120.442q-74.2188 78.125 -138.672 78.125q-165.364 0 -165.364 -103.516q0 -86.5889 128.906 -100.911v-281.901q0 -13.6719 12.3691 -13.6719q16.9277 0 16.9277 13.0205v279.948h7.8125z
M342.448 485.255q-11.0684 -0.650391 -20.1826 -0.650391q-68.3594 0 -79.4268 44.2705v-158.854q13.0205 -5.85938 26.041 -5.85938q29.9482 0 55.9902 33.2031q16.2754 21.4844 42.9688 21.4844q19.5312 0 44.9219 -11.7188q-7.8125 72.917 -70.3125 78.125z" />
</svg>
