<?xml version="1.0" standalone="no"?>
<!DOCTYPE svg PUBLIC "-//W3C//DTD SVG 1.1//EN" "http://www.w3.org/Graphics/SVG/1.1/DTD/svg11.dtd" >
<svg xmlns="http://www.w3.org/2000/svg" xmlns:xlink="http://www.w3.org/1999/xlink" version="1.1" viewBox="-10 0 511 1000">
   <path fill="currentColor"
d="M487.63 704.005v38.4121h-127.604q-13.6719 0 -23.4375 -18.8809l-44.2715 -85.2861l-41.0156 48.1768q-5.20801 6.51074 -5.20801 14.3232q0 8.46387 7.16113 18.2295q12.3701 20.1816 37.1094 61.1973q25.3906 41.0156 37.7607 61.8496h-52.083
q-7.8125 -11.7188 -39.7139 -58.5938q-24.7393 -35.8076 -39.7139 -57.9434q-6.50977 -11.0674 -6.50977 -22.1348q0 -9.11523 5.20801 -18.8809l40.3643 -61.1973v-37.7607q-2.60352 -3.90625 -7.8125 -13.6719q-4.55664 -9.76562 -7.16113 -13.6719
q-5.20801 -5.20801 -14.3232 -6.51074h-3.90625q-7.16113 0 -12.3691 3.25586l-56.6406 46.875h-89.1934l119.792 244.141h323.567v11.0674h-455.729q-16.2764 -1.95312 -18.2295 -24.0889h5.20801q3.25586 5.85938 6.51074 9.11523q3.25488 3.25488 7.16113 3.90625
h120.443l-121.094 -244.141h-7.8125q-10.417 -4.55762 -11.7188 -19.5312v-1.95312q0 -14.9746 11.7188 -20.834l94.4004 -1.95312l81.3809 -80.7285q8.46289 -9.11523 24.0879 -11.0684q3.90625 -0.650391 7.8125 -0.650391q10.417 0 18.8809 3.90625
q-7.8125 -18.2295 -24.0889 -55.9902q-16.2764 -37.7598 -24.0889 -55.9893h14.9746l36.458 84.6357q3.25488 0.650391 9.76562 1.30176q5.85938 0.651367 9.11426 1.30176q26.042 66.4062 34.5059 93.0996q37.7598 32.5518 83.9844 102.213
q-11.7188 8.46387 -35.1562 26.042q11.7188 24.0889 11.7188 24.7393l-0.651367 -0.650391q7.16113 13.0205 17.5781 14.3223h102.864zM192.708 398.016q11.7188 12.3701 11.7188 29.2969t-11.7188 28.6455q-12.3691 12.3701 -29.2969 12.3701q-16.9268 0 -29.2969 -12.3701
q-11.7188 -11.7188 -11.7188 -28.6455t11.7188 -29.2969q12.3701 -11.7188 29.2969 -11.7188q16.9277 0 29.2969 11.7188z" />
</svg>
