<?xml version="1.0" standalone="no"?>
<!DOCTYPE svg PUBLIC "-//W3C//DTD SVG 1.1//EN" "http://www.w3.org/Graphics/SVG/1.1/DTD/svg11.dtd" >
<svg xmlns="http://www.w3.org/2000/svg" xmlns:xlink="http://www.w3.org/1999/xlink" version="1.1" viewBox="-10 0 520 1000">
   <path fill="currentColor"
d="M108.724 357q91.1455 95.0518 91.1455 98.958q26.6934 -1.95312 41.0156 -1.95312h45.5732l91.1455 -97.0049v1.95312q0 4.55762 -45.5723 97.0049q162.109 13.0215 162.109 41.667q4.55664 0 5.85938 42.3174v11.0684q0 136.719 -47.5264 278.646
q-9.11426 9.11426 -10.417 9.11426h-1.30176q-14.3232 0 -24.7393 -70.9629h-22.1357q-74.8701 0 -290.364 11.7188v2.60352q0 74.8701 -14.9746 74.8701h-9.11426q-22.7861 -10.417 -41.0156 -69.6611q-38.4111 -116.537 -38.4111 -215.495v-12.3701
q0 -45.5723 22.1348 -57.9424q59.2451 -32.5518 114.584 -37.1094q18.8799 -3.25488 18.8799 -6.51074q-46.875 -94.4004 -46.875 -100.911zM52.083 545.151q4.55762 184.896 13.6719 184.896q11.7188 7.8125 17.5781 7.8125q348.958 -13.0205 348.958 -18.2295
q13.0215 -13.0205 13.6719 -23.4375q-5.20801 -182.291 -13.6719 -182.291q-12.3691 -9.76562 -20.1816 -9.76562q-338.542 13.6719 -346.354 17.5781q-13.6719 13.0205 -13.6719 23.4375zM246.094 561.427h40.3643q5.85938 0 25.3906 61.8496
q3.90625 7.16113 6.51074 7.16113q23.4375 -67.0576 27.9941 -69.0107h43.6201v1.95312q-43.6201 125 -51.4326 130.859h-44.9219q-3.25488 -3.25488 -51.4316 -130.859zM115.885 563.38h120.443q4.55664 0.651367 4.55664 3.90625v25.3906q0 4.55762 -4.55664 4.55762
h-33.8545v95.0518q0 3.90625 -4.55762 3.90625h-39.7129q-4.55762 0 -4.55762 -3.90625v-95.0518h-37.7607q-3.90625 0 -3.90625 -4.55762v-25.3906q0.651367 -3.90625 3.90625 -3.90625z" />
</svg>
