<?xml version="1.0" standalone="no"?>
<!DOCTYPE svg PUBLIC "-//W3C//DTD SVG 1.1//EN" "http://www.w3.org/Graphics/SVG/1.1/DTD/svg11.dtd" >
<svg xmlns="http://www.w3.org/2000/svg" xmlns:xlink="http://www.w3.org/1999/xlink" version="1.1" viewBox="-10 0 520 1000">
   <path fill="currentColor"
d="M144.531 822.82q0.650391 3.25586 0.650391 5.85938q0 11.0684 -13.0205 13.6719q-1.30176 0.650391 -3.25488 0.650391q-13.0215 0 -15.625 -13.0195l-89.8438 -413.412q-18.8809 -7.16211 -22.1357 -21.4844q-1.30176 -3.90625 -1.30176 -7.16211
q0 -16.9258 29.9473 -16.9258q34.5059 0 40.3652 24.0879q0.650391 2.60352 0.650391 5.20898q0 11.0664 -13.6719 16.2754zM427.083 684.148q-7.8125 -35.1562 -13.6719 -64.4531q35.1562 -1.30273 56.6406 -23.4375l-14.9736 -70.3125q-22.1357 22.1348 -57.292 23.4375
q-5.85938 -28.6465 -13.0205 -61.1973h-4.55762q-20.833 0 -54.0361 -10.418q-7.16211 -1.95312 -14.9746 -4.55664q8.46387 39.0625 13.0215 61.1973q-14.9746 -5.85938 -38.4121 -15.625t-38.4111 -15.625q-2.60449 -11.0664 -6.51074 -31.25l-6.50977 -29.2969
q-14.3232 -5.20703 -24.0889 -8.46289q-31.25 -9.11523 -49.4795 -9.11523h-0.650391l13.0205 62.5q-34.5049 1.95312 -56.6406 24.0898l14.9736 70.3125q22.1357 -22.1367 56.6406 -22.7871q1.95312 4.55664 14.3232 61.8496h4.55762q20.833 0 53.3848 10.416
q6.51074 1.95312 15.625 4.55664l-13.0205 -61.1973q14.9736 4.55664 37.7607 14.3223q23.4375 9.76562 39.0625 15.625q5.85938 26.6934 13.0205 61.8496q13.6719 5.20898 24.0889 8.46289q30.5986 9.11523 49.4785 9.11523h0.651367zM500 659.408v1.30273
q0 3.25586 -1.95312 5.20898q-30.5996 34.5039 -71.6152 34.5039q-21.4844 0 -54.0361 -10.416q-20.1826 -5.85938 -59.2451 -22.1348q-38.4111 -15.625 -57.291 -21.4844q-30.5996 -9.76562 -48.8281 -9.76562q-34.5059 0 -60.5469 29.2969
q-2.60449 2.60352 -5.85938 2.60352h-1.95312q-4.55762 -1.30273 -5.85938 -6.50977l-45.5732 -211.59q-0.651367 -1.30078 -0.651367 -2.60352q0 -2.60352 1.95312 -4.55664q30.5996 -34.5059 72.2656 -34.5059q20.834 0 54.0371 10.416q19.5312 5.85938 58.5938 22.1367
q38.4111 15.625 57.291 21.4844q31.25 9.76562 49.4795 9.76562q34.5049 0 60.5469 -29.2969q2.60449 -2.60547 5.20801 -2.60547q1.30273 0 2.60449 0.652344q4.55762 1.30078 5.85938 5.85938zM412.109 619.045h-4.55762q-27.3438 0 -67.708 -14.9746
q-13.0215 -59.2441 -15.625 -69.0098q41.0156 14.9727 67.708 14.9727h4.55762q3.25488 13.6719 7.8125 34.5059q4.55664 20.1816 7.8125 34.5059zM247.396 503.811l14.9736 70.3125q-42.3174 -15.625 -70.9629 -15.625h-2.60449q-7.16113 -32.5527 -14.9736 -70.3125
h2.60352q28.6465 0 70.9639 15.625z" />
</svg>
