<?xml version="1.0" standalone="no"?>
<!DOCTYPE svg PUBLIC "-//W3C//DTD SVG 1.1//EN" "http://www.w3.org/Graphics/SVG/1.1/DTD/svg11.dtd" >
<svg xmlns="http://www.w3.org/2000/svg" xmlns:xlink="http://www.w3.org/1999/xlink" version="1.1" viewBox="-10 0 520 1000">
   <path fill="currentColor"
d="M483.072 787.339q16.9277 0 16.9277 8.46289v19.5312q0 4.55762 -6.51074 9.76562q-5.85938 4.55762 -10.417 4.55762h-95.0518q-4.55762 0 -9.11426 -4.55762q-5.20898 -5.20801 -5.20898 -9.76562v-19.5312q0 -8.46289 11.7188 -8.46289h2.60449
q7.16113 0 10.417 -7.16211q1.30176 -2.60352 1.30176 -5.20801q0 -3.25488 -2.60449 -6.51074l-71.6143 -92.4473q5.20801 -2.60449 8.46387 -4.55762q7.8125 -5.85938 11.7188 -14.3232l97.0049 124.35q4.55762 5.85938 9.11426 5.85938h31.25zM264.974 487.208
q-20.833 0 -36.458 -14.9736q-14.9746 -14.9736 -14.9746 -36.458q0 -20.834 14.9746 -35.8076q15.625 -15.625 36.458 -15.625q21.4844 0 36.458 15.625q14.9746 14.9736 14.9746 35.8076q0 21.4844 -14.9746 36.458q-14.9736 14.9736 -36.458 14.9736zM100.26 567.938
q69.0107 9.76562 122.396 48.8281q83.9844 59.8955 106.119 175.781q0.651367 2.60449 0.651367 5.20801q0 8.46387 -5.20801 15.625q-5.85938 9.76562 -17.5781 11.7188q-2.60449 0.651367 -5.20898 0.651367q-22.7861 0 -27.3438 -22.7861
q-28.6455 -149.089 -165.364 -177.734q3.90625 5.20801 11.0674 13.6719q33.8545 39.7129 33.8545 65.1035q0 3.90625 -0.651367 7.16211q-7.8125 35.8066 -108.724 111.328q-7.16113 5.85938 -16.2764 5.85938q-14.3223 0 -22.1348 -11.0684
q-5.85938 -8.46289 -5.85938 -17.5781v-3.25488q1.95312 -11.7188 11.0674 -18.2295q69.0107 -52.083 86.5889 -77.4736q-3.25586 -6.51074 -20.1826 -25.3906q-35.1562 -41.0156 -44.2705 -68.3594q-2.60449 -8.46387 -2.60449 -16.9268q0 -60.5469 132.161 -143.229
q8.46387 -5.20801 16.2764 -5.20801q11.0674 0 20.1826 11.7188l130.859 167.969q5.85938 7.8125 5.85938 16.9268v3.25488q-1.30273 11.7188 -10.417 18.8809q-7.8125 5.20801 -16.9268 5.20801h-3.90625q-11.0684 -1.30176 -18.2295 -10.417l-115.234 -147.786
q-45.5732 31.9014 -70.9639 60.5469zM255.208 786.036q0 16.9277 -18.8799 28.6465q-19.5312 11.7188 -46.2246 11.7188q-27.3438 0 -46.875 -11.7188q-18.8799 -11.7188 -18.8799 -28.6465q0 -16.9268 18.8799 -29.2969q19.5312 -11.7188 46.875 -11.7188
q9.76562 0 20.834 1.95312q1.30176 -3.90625 1.30176 -6.50977q0 -5.85938 -3.90625 -8.46387q-5.85938 -3.90625 -16.2764 -3.90625q-9.11426 0 -22.1348 3.25488l-3.90625 -13.6719q14.3223 -3.90625 25.3906 -3.90625q14.9736 0 24.7393 7.16211
q9.76562 6.50977 9.76562 18.2285q0 5.20898 -1.95312 11.7188q31.25 12.3701 31.25 35.1562z" />
</svg>
