<?xml version="1.0" standalone="no"?>
<!DOCTYPE svg PUBLIC "-//W3C//DTD SVG 1.1//EN" "http://www.w3.org/Graphics/SVG/1.1/DTD/svg11.dtd" >
<svg xmlns="http://www.w3.org/2000/svg" xmlns:xlink="http://www.w3.org/1999/xlink" version="1.1" viewBox="-10 0 520 1000">
   <path fill="currentColor"
d="M367.838 699.447q1.30273 -1.30078 1.30273 -3.25391t-1.95312 -3.90625l-211.589 -9.11523q-13.6719 6.50977 -16.9268 14.9746q-4.55762 9.76562 -7.16211 14.9727l224.609 -6.50977q9.11523 -3.90625 11.7188 -7.16211zM414.713 692.287
q31.25 25.3906 53.3857 43.6191h-7.16113q-37.7607 0 -53.3857 18.2285q-1.30176 1.95312 -16.2764 36.459q-20.1816 -32.5527 -20.1816 -33.2031q-15.625 -18.2285 -46.875 -18.2285q-44.9219 0 -63.1514 51.4316q-22.7861 -48.8281 -74.2188 -48.8281
q-39.0625 0 -56.6406 41.666q-12.3701 -26.041 -27.3438 -35.1562q-14.3232 -9.11328 -40.3643 -9.11328h-3.25586q-37.7598 0.650391 -49.4785 41.0156l-9.76562 -1.95312q5.85938 -17.5781 5.85938 -21.4844q0 -1.30273 -0.651367 -1.30273l-0.651367 0.650391
q-1.30176 1.30273 -2.60352 1.30273v-1.30273q0 -1.30078 0.650391 -3.90625v-6.50977q16.9277 -7.8125 44.9219 -24.7402q32.5527 -20.1816 32.5527 -22.1348l-13.6719 -13.6719q-25.3906 -26.041 -28.6465 -53.3848q-0.650391 -3.90625 -0.650391 -7.8125
q0 -14.3242 5.85938 -34.5059q4.55664 -16.9277 4.55664 -20.834v-0.650391q-10.416 -5.20898 -10.416 -28.6465q0 -6.50977 0.650391 -14.9727q4.55762 -52.084 5.20898 -52.084q0 -7.16211 -16.2764 -16.9277q-4.55762 -21.4844 -9.11426 -37.7598
q-0.651367 -1.95312 -0.651367 -3.25586q0 -13.6719 37.1094 -15.625q0 -21.4844 13.0205 -21.4844h50.1309q36.458 0 54.0361 5.20898q31.9014 10.416 42.3174 36.459l8.46387 8.46289l-2.60449 24.0879l-11.0674 14.3242l65.7549 77.4727l12.3701 -3.25391
l16.9268 24.0879l17.5781 23.4375l114.584 37.7598q8.46289 14.3242 8.46289 26.6934v4.55664q-1.30176 13.0215 -14.9736 24.0898l-3.25488 9.76562zM488.281 765.854q11.7188 12.3711 11.7188 29.9492q0 16.9258 -11.7188 29.2969q-12.3701 11.7188 -29.9482 11.7188
q-16.9268 0 -29.2969 -13.0215t-12.3701 -29.9473q0 -17.5781 12.3701 -28.6465t29.2969 -11.0684q17.5781 0 29.9482 11.7188zM354.817 765.854q12.3701 12.3711 12.3701 29.2969q0 16.9277 -12.3701 29.2969q-12.3701 12.3711 -29.2969 12.3711
q-17.5781 0 -29.2969 -12.3711q-12.3701 -12.3691 -12.3701 -29.2969q0 -16.9258 12.3701 -29.2969q11.7188 -12.3691 29.2969 -12.3691q16.9268 0 29.2969 12.3691zM225.26 765.854q12.3701 12.3711 12.3701 29.2969q0 16.9277 -12.3701 29.2969
q-12.3691 12.3711 -29.2969 12.3711q-17.5781 0 -29.2969 -12.3711q-12.3691 -12.3691 -12.3691 -29.2969q0 -16.9258 12.3691 -29.2969q11.7188 -12.3691 29.2969 -12.3691q16.9277 0 29.2969 12.3691zM95.7031 765.854q12.3691 12.3711 12.3691 29.2969
q0 16.9277 -12.3691 29.2969q-12.3701 12.3711 -29.2969 12.3711q-17.5781 0 -29.2969 -12.3711q-12.3701 -12.3691 -12.3701 -29.2969q0 -16.9258 12.3701 -29.2969q11.7188 -12.3691 29.2969 -12.3691q16.9268 0 29.2969 12.3691z" />
</svg>
