<?xml version="1.0" standalone="no"?>
<!DOCTYPE svg PUBLIC "-//W3C//DTD SVG 1.1//EN" "http://www.w3.org/Graphics/SVG/1.1/DTD/svg11.dtd" >
<svg xmlns="http://www.w3.org/2000/svg" xmlns:xlink="http://www.w3.org/1999/xlink" version="1.1" viewBox="-10 0 520 1000">
   <path fill="currentColor"
d="M166.016 807.521l-25.3906 25.3906q-24.0889 24.0889 -58.5938 24.0889q-33.8545 0 -57.9434 -24.0889q-24.0879 -24.0879 -24.0879 -57.9424q0 -34.5049 24.0879 -57.9424l25.3906 -26.042zM441.406 592.026h25.3906q32.5518 0 33.2031 1.30176
q-5.20898 46.875 -31.25 61.8486q-199.87 80.0781 -205.078 80.7295l-70.3125 41.667l-8.46387 -8.46387l73.5674 -43.6201q8.46387 -10.416 20.1826 -23.4375q-26.042 6.51074 -48.8281 9.11523l-58.5938 44.9219l-11.7188 -12.3701l60.5469 -46.2236
q5.85938 -14.3232 13.6719 -29.9482q-20.833 5.85938 -38.4111 9.11426l-51.4326 52.084l-14.3232 -14.3232l50.1309 -50.7812q3.25488 -19.5312 9.76562 -41.667q-16.2764 8.46387 -30.5996 14.3232l-46.875 60.5469l-11.7188 -11.7188l44.9219 -58.5938
q2.60449 -21.4844 9.11523 -48.8281q-12.3701 11.0674 -24.0889 19.5312l-43.6201 74.2188l-8.46289 -8.46387l41.666 -70.3125q0.651367 -5.20801 80.7295 -205.078q15.625 -25.3906 62.5 -30.5986q1.30176 0.651367 1.30176 33.2031v25.3906l55.3389 -2.60449
q1.95312 1.95312 8.46387 52.7344q52.083 7.8125 53.3848 9.11523l8.46387 54.0361q52.083 5.85938 54.0361 8.46387z" />
</svg>
