<?xml version="1.0" standalone="no"?>
<!DOCTYPE svg PUBLIC "-//W3C//DTD SVG 1.1//EN" "http://www.w3.org/Graphics/SVG/1.1/DTD/svg11.dtd" >
<svg xmlns="http://www.w3.org/2000/svg" xmlns:xlink="http://www.w3.org/1999/xlink" version="1.1" viewBox="-10 0 520 1000">
   <path fill="currentColor"
d="M89.8438 682.521q14.3223 22.1357 14.3223 36.459q0 13.6719 -11.7188 21.4844q-7.16113 4.55664 -14.3223 4.55664q-18.2295 0 -37.7607 -29.9473q-14.3232 -22.1357 -14.3232 -36.459q0 -13.6719 12.3701 -21.4844q7.16113 -4.55664 14.3232 -4.55664
q18.2285 0 37.1094 29.9473zM159.505 481.349q65.7549 0 112.63 46.2246q46.875 46.2236 46.875 111.979q0 61.8496 -42.9688 106.771q-42.3174 45.5723 -104.166 50.1299q37.1094 -16.9268 44.2705 -67.0576q1.95312 -10.416 1.95312 -21.4844
q0 -42.9688 -27.3438 -87.8906q-33.8545 -56.6406 -87.8906 -73.5674q-17.5781 -5.85938 -33.2031 -5.85938q-29.9482 0 -49.4795 22.1357q45.5732 -81.3809 139.323 -81.3809zM144.531 796.453q-1.30273 0 -2.60449 -0.651367q0.651367 0 2.60449 0.651367z
M150.391 721.583q0 -31.9004 -20.834 -63.8018q-20.1816 -31.9014 -49.4785 -44.9219q-14.3232 -6.51074 -27.3438 -6.51074q-12.3701 0 -22.7871 6.51074q-20.833 13.6719 -20.833 45.5732q0 31.9004 20.833 64.4531q20.834 31.9004 50.1309 44.9219
q14.3223 6.50977 26.6924 6.50977q13.0205 0 23.4375 -7.16113q20.1826 -13.0205 20.1826 -45.5732zM163.411 633.692q23.4375 34.5059 23.4375 78.125q0 10.417 -1.30176 21.4844q-7.16211 57.9434 -44.2715 62.5q-59.8955 -6.50977 -100.26 -50.7812
q-41.0156 -44.9219 -41.0156 -105.469q0 -22.1348 5.85938 -42.9688q15.625 -28.6455 47.5254 -28.6455q11.7188 0 25.3906 3.90625q51.4326 13.0205 84.6357 61.8486zM298.177 464.422v-1.95312q1.30176 -26.6924 42.9688 -26.6924h7.8125q48.1768 2.60352 48.1768 30.5986
v1.95312q-1.30176 26.6924 -43.6191 26.6924h-7.8125q-47.5264 -2.60352 -47.5264 -30.5986zM223.307 470.281q0 0.651367 -1.30176 1.95312zM500 577.052q0 47.5264 -32.5527 92.4482q-48.8281 66.4062 -121.094 66.4062q-21.4844 0 -44.2705 -5.20801
q27.3438 -41.667 27.3438 -91.1465q0 -13.6719 -1.95312 -27.3438q5.85938 0.651367 10.417 0.651367q9.76562 0.651367 18.8799 0.651367q53.3857 0 91.7969 -27.9951q37.1094 -27.3438 37.1094 -61.8486q0 -7.16211 -1.30176 -14.3232q15.625 34.5049 15.625 67.708z
M464.844 477.442q5.85938 12.3701 5.85938 24.0889q0 26.042 -28.6465 49.4795q-39.7129 31.9004 -95.0518 31.9004h-4.55762q-11.0674 0 -23.4375 -3.25488q-12.3691 -31.25 -35.1562 -55.3389q24.7402 15.625 58.5938 17.5781h7.8125q33.8545 0 57.9434 -14.3223
q27.9941 -15.625 29.2969 -40.3652v-2.60352q0 -22.7871 -24.7402 -41.0156q-26.041 -18.8809 -63.8018 -20.834h-8.46387q-32.5518 0 -57.291 13.6719q-27.9951 16.2764 -29.2969 41.0156v1.95312q0 13.6719 9.11426 26.042q-19.5312 -14.9736 -42.9688 -23.4375
q0.651367 -6.51074 3.90625 -12.3701q41.0156 -44.2705 100.911 -50.7812q9.76562 -1.30176 19.5312 -1.30176q48.8281 0 89.8438 29.9482q16.9277 13.0205 30.5996 29.9473z" />
</svg>
