<?xml version="1.0" standalone="no"?>
<!DOCTYPE svg PUBLIC "-//W3C//DTD SVG 1.1//EN" "http://www.w3.org/Graphics/SVG/1.1/DTD/svg11.dtd" >
<svg xmlns="http://www.w3.org/2000/svg" xmlns:xlink="http://www.w3.org/1999/xlink" version="1.1" viewBox="-10 0 520 1000">
   <path fill="currentColor"
d="M177.734 683.823q179.688 -48.1777 242.838 -111.979q42.9688 -42.3174 44.2715 -76.8232v-1.30176q0 -30.5986 -35.1562 -65.7549v-0.651367q-35.1562 -35.1562 -66.4062 -35.1562h-1.30273q-34.5049 1.30176 -76.8223 43.6201q-64.4531 63.8018 -111.979 243.489
l-0.651367 3.25488q0 1.95312 -0.650391 2.60449q1.30176 -0.651367 2.60352 -0.651367zM183.594 720.281q-49.4795 12.3701 -82.6826 51.4326h-3.25488l-5.20898 5.20801l-1.95312 3.90625v9.11426l-67.0566 67.0576l-23.4375 -23.4375l67.0566 -67.0576h9.11523
l3.90625 -1.95312l5.20801 -5.20801v-3.25488q38.4111 -33.2031 51.4326 -82.6826q51.4316 -192.708 122.396 -263.021q52.7344 -53.3857 104.167 -53.3857q46.875 0 91.7969 44.2705l0.650391 0.651367q44.2715 44.9219 44.2715 91.7969q0 51.4326 -53.3857 104.167
q-70.3125 70.9629 -263.021 122.396zM333.333 741.766q14.9736 14.9736 14.9736 35.8076q0 21.4844 -14.9736 36.458t-36.458 14.9736q-20.834 0 -36.459 -14.9736q-14.9736 -14.9736 -14.9736 -36.458q0 -20.834 14.9736 -35.8076q15.625 -14.9736 36.459 -14.9736
q21.4844 0 36.458 14.9736z" />
</svg>
