<?xml version="1.0" standalone="no"?>
<!DOCTYPE svg PUBLIC "-//W3C//DTD SVG 1.1//EN" "http://www.w3.org/Graphics/SVG/1.1/DTD/svg11.dtd" >
<svg xmlns="http://www.w3.org/2000/svg" xmlns:xlink="http://www.w3.org/1999/xlink" version="1.1" viewBox="-10 0 499 1000">
   <path fill="currentColor"
d="M250 357h7.8125q61.1973 7.16113 61.1973 54.0361l-1.95312 13.0215q9.76562 25.3906 9.76562 29.2969v3.90625q-36.457 84.6348 -76.8223 84.6348q-36.459 0 -63.1504 -61.8486q-8.46484 -9.11426 -13.6719 -17.5781v-9.11426q11.7188 -24.0889 11.7188 -50.1309
q17.5781 -46.2236 65.1035 -46.2236zM194.01 554.917q31.9023 85.9375 35.1562 86.5879q0 -3.25488 14.9746 -50.1299q-9.76562 -13.0205 -9.76562 -18.8799q8.46289 -15.625 17.5781 -15.625l11.7188 15.625v7.8125q-9.76562 8.46289 -9.76562 11.0674
q13.6719 48.1768 17.5781 48.1768l26.6934 -82.6816h1.95312q76.8223 29.2969 76.8223 74.8691v25.3906q0 3.90625 -3.90625 3.90625h-244.141q-7.8125 0 -7.8125 -23.4375v-5.85938q0 -42.9688 72.916 -76.8223zM67.0566 677.964h365.887q28.6445 0 28.6445 29.2969
v32.5518q0 24.7393 -36.457 24.7393h-30.5996q-7.16211 0 -19.5312 80.7295q-3.25586 11.7188 -5.85938 11.7188h-246.094q-7.16211 0 -17.5781 -70.9639q-4.55664 -21.4844 -9.11523 -21.4844h-21.4844q-36.457 0 -36.457 -28.6455v-28.6455
q2.60352 -29.2969 28.6445 -29.2969z" />
</svg>
