<?xml version="1.0" standalone="no"?>
<!DOCTYPE svg PUBLIC "-//W3C//DTD SVG 1.1//EN" "http://www.w3.org/Graphics/SVG/1.1/DTD/svg11.dtd" >
<svg xmlns="http://www.w3.org/2000/svg" xmlns:xlink="http://www.w3.org/1999/xlink" version="1.1" viewBox="-10 0 520 1000">
   <path fill="currentColor"
d="M111.328 504.786q-29.2969 -29.2969 -64.4531 -29.2969h-7.16211q1.95312 -2.60352 4.55762 -5.85938q20.833 -20.1816 49.4795 -20.1816q28.6455 0 48.8281 20.1816q20.1816 20.834 20.1816 49.4795t-20.1816 48.8281q-0.651367 0 -1.95312 1.30176
q-0.651367 -35.8066 -29.2969 -64.4531zM130.208 577.703q-16.9268 10.417 -35.8076 10.417q-4.55664 0 -8.46289 -0.651367q-24.0889 -2.60449 -41.667 -19.5312q-21.4844 -21.4844 -21.4844 -46.875q0 -16.9268 9.76562 -35.1562h3.25488q36.459 0 65.1045 29.2969
q27.9951 27.3438 29.2969 62.5zM494.141 374.578q5.85938 6.51074 5.85938 13.0205q0 5.85938 -5.85938 12.3701q-67.709 71.6143 -93.0996 97.0049q-10.416 11.0684 -11.7188 24.7402q0 0.650391 -0.650391 13.6719l-66.4062 -66.4062q12.3691 -1.30273 13.0205 -1.30273
q13.6719 -1.30176 24.7393 -11.7188q25.3906 -24.7393 97.0059 -93.0986q6.50977 -5.85938 12.3691 -5.85938q6.51074 0 13.0215 5.85938zM377.604 567.938q5.85938 5.85938 5.85938 11.7188t-5.85938 11.7188q0 0.651367 -2.60352 3.25488
q-186.198 186.85 -247.396 248.047q-13.0205 13.0215 -20.833 14.3232h-13.6719q-20.833 -5.20801 -36.458 -17.5781q-22.1357 -16.9268 -39.0625 -39.0625q-11.7188 -14.9736 -17.5781 -36.458v-13.6719q1.95312 -7.8125 14.3223 -20.1826
q55.9902 -55.9893 248.047 -247.396q2.60449 -3.25586 3.25586 -3.25586q6.50977 -5.85938 12.3691 -5.85938t11.0684 5.85938q44.2705 43.6201 88.541 88.542z" />
</svg>
