<?xml version="1.0" standalone="no"?>
<!DOCTYPE svg PUBLIC "-//W3C//DTD SVG 1.1//EN" "http://www.w3.org/Graphics/SVG/1.1/DTD/svg11.dtd" >
<svg xmlns="http://www.w3.org/2000/svg" xmlns:xlink="http://www.w3.org/1999/xlink" version="1.1" viewBox="-10 0 520 1000">
   <path fill="currentColor"
d="M466.797 362.859q33.2031 5.85938 33.2031 34.5049v3.90625q-207.031 264.975 -352.865 432.943q-34.5049 16.9268 -52.083 16.9268q-57.292 0 -91.1455 -81.3799q-3.90625 -14.9746 -3.90625 -24.7402v-11.0674q0 -39.7139 50.1299 -60.5469h4.55762
q22.1348 0 22.1348 39.7139v4.55664q0 10.417 -9.11426 46.2246q0 18.2285 24.7393 20.1816h15.625q20.834 0 156.25 -170.572l196.615 -250.651h5.85938zM436.849 795.802q0 22.1357 -17.5781 38.0859q-17.5781 15.9512 -41.667 15.9512q-25.3906 0 -42.3174 -15.9512
q-16.9268 -15.9502 -16.9268 -38.0859q0 -22.1348 16.9268 -38.0859q16.9268 -15.9502 42.3174 -15.9502q24.0889 0 41.667 15.9502q17.5781 15.9512 17.5781 38.0859z" />
</svg>
