<?xml version="1.0" standalone="no"?>
<!DOCTYPE svg PUBLIC "-//W3C//DTD SVG 1.1//EN" "http://www.w3.org/Graphics/SVG/1.1/DTD/svg11.dtd" >
<svg xmlns="http://www.w3.org/2000/svg" xmlns:xlink="http://www.w3.org/1999/xlink" version="1.1" viewBox="-10 0 520 1000">
   <path fill="currentColor"
d="M483.724 662.014l-185.547 -0.652344q-12.3701 -10.416 -39.0625 -27.3438q35.1562 -21.4844 35.1562 -52.7344q0 -24.0879 -20.833 -54.0352q8.46289 0.650391 16.2754 0.650391q85.9375 0 114.584 -39.0625q76.8223 80.0781 79.4268 173.178zM243.489 595.607
q-8.46387 8.46289 -20.833 8.46289q-11.7188 0 -20.834 -8.46289q-8.46289 -8.46484 -8.46289 -20.1836q0 -12.3691 8.46289 -20.832q9.11523 -8.46484 20.834 -8.46484q12.3691 0 20.833 8.46484q8.46387 8.46289 8.46387 20.832q0 11.7188 -8.46387 20.1836z
M222.656 615.789q16.9268 0 28.6455 -11.7188q12.3701 -12.3691 12.3701 -28.6465q0 -16.9258 -12.3701 -29.2969q-11.7188 -11.7188 -28.6455 -11.7188q-16.9277 0 -28.6465 11.7188q-11.7188 12.3711 -11.7188 29.2969q0 16.2773 11.7188 28.6465
q11.7188 11.7188 28.6465 11.7188zM222.656 515.529q24.7393 0 42.3174 17.5781q17.5781 16.9258 17.5781 42.3164q0 24.7402 -17.5781 41.668q-17.5781 17.5781 -42.3174 17.5781q-24.7402 0 -42.3184 -17.5781q-17.5781 -16.9277 -17.5781 -41.668
q0 -25.3906 17.5781 -42.3164q17.5781 -17.5781 42.3184 -17.5781zM50.7812 490.789l-3.90625 12.3691q-40.3652 52.7344 -41.667 120.443h-5.20801v-89.1934q42.9688 -33.2031 42.9688 -42.3164zM326.172 443.914q-24.7402 -9.76562 -62.5 -9.76562
q-19.5312 0 -42.9688 2.60352q74.2188 0 93.75 23.4375zM492.188 678.289q7.8125 24.7402 7.8125 46.875q0 39.7129 -24.0889 70.9629h-399.739l-10.417 -48.1758q-55.3389 -54.0371 -55.3389 -119.141q0 -110.678 101.562 -178.387q49.4795 -32.5508 122.396 -32.5508
q11.7188 0 23.4375 0.650391q92.4473 5.85938 132.812 58.5938q-44.2715 30.5996 -83.334 30.5996q-19.5312 0 -42.3174 -3.25586q-22.7861 -3.90625 -38.4111 -3.90625q-28.6465 0 -50.1309 18.2285q-25.3906 21.4844 -25.3906 55.9902q0 35.1562 23.4375 55.3379
q20.1826 18.2305 48.8281 18.2305q35.1562 0 69.0107 29.9473h199.87z" />
</svg>
