<?xml version="1.0" standalone="no"?>
<!DOCTYPE svg PUBLIC "-//W3C//DTD SVG 1.1//EN" "http://www.w3.org/Graphics/SVG/1.1/DTD/svg11.dtd" >
<svg xmlns="http://www.w3.org/2000/svg" xmlns:xlink="http://www.w3.org/1999/xlink" version="1.1" viewBox="-10 0 520 1000">
   <path fill="currentColor"
d="M317.708 536.361h-136.067l66.4062 111.328zM115.885 658.107h108.725l-63.1514 -106.121zM338.541 550.686l-79.4268 126.953q-3.90625 5.85938 -10.417 5.85938h-152.344q-6.50977 0 -10.416 -5.85938q-2.60449 -3.25586 -2.60449 -7.16211
q0 -1.95312 1.30176 -4.55664l60.5469 -140.625l-29.9473 -50.1309q0.650391 0 0.650391 -0.650391l-0.650391 -0.652344h-33.2031q-12.3701 0 -12.3701 -13.0195q0 -12.3711 12.3701 -12.3711h71.6143q12.3701 0 12.3701 12.3711q0 13.0195 -12.3701 13.0195h-9.11426
l22.1348 37.1094h154.948l-19.5312 -46.875q-1.30176 -2.60352 -1.30176 -5.20703q0 -3.25586 2.60352 -6.51172q3.25586 -5.85938 10.417 -5.85938h82.6826q18.8799 0 32.5518 13.6719t13.6719 32.5527t-13.6719 32.5527t-32.5518 13.6719q-13.0215 0 -13.0215 -13.0215
q0 -12.3691 13.0215 -12.3691q20.833 0 20.833 -20.834t-20.833 -20.834h-63.8027l82.0312 194.012q1.30273 3.25391 1.30273 5.85938q0 7.16016 -8.46387 11.0664q-1.95312 0.652344 -4.55762 0.652344q-8.46289 0 -11.7188 -7.8125zM471.354 738.836
q-27.9941 27.9941 -68.3594 27.9941q-40.3643 0 -69.0098 -27.9941q-27.9951 -28.6465 -27.9951 -69.0098q0 -45.5742 35.1562 -74.8711l36.458 86.5898q7.16211 16.2754 25.3906 16.2754q5.20898 0 10.417 -1.95312q17.5781 -7.16211 17.5781 -21.4844
q0 -6.50977 -3.25488 -13.6719l-36.459 -87.2402q6.51074 -0.650391 11.7188 -0.650391q40.3652 0 68.3594 28.6465q28.6465 27.9941 28.6465 68.3594q0 40.3633 -28.6465 69.0098zM96.3535 697.82h93.75q-8.46289 30.5996 -34.5049 50.1309
q-25.3906 19.5312 -58.5938 19.5312q-39.7139 0 -68.3594 -28.6465q-28.6455 -27.9941 -28.6455 -68.3594t28.6455 -69.0098q28.6455 -27.9961 68.3594 -27.9961q5.20801 0 11.7188 0.652344l-37.1094 85.9375q-2.60449 5.85938 -2.60449 11.0664q0 7.8125 4.55762 14.3242
q8.46387 12.3691 22.7861 12.3691z" />
</svg>
