<?xml version="1.0" standalone="no"?>
<!DOCTYPE svg PUBLIC "-//W3C//DTD SVG 1.1//EN" "http://www.w3.org/Graphics/SVG/1.1/DTD/svg11.dtd" >
<svg xmlns="http://www.w3.org/2000/svg" xmlns:xlink="http://www.w3.org/1999/xlink" version="1.1" viewBox="-10 0 520 1000">
   <path fill="currentColor"
d="M359.375 448.797q11.7188 11.0674 11.7188 27.9951q0 16.2754 -11.7188 27.3438q-11.7188 11.7188 -27.3438 11.7188q-16.2764 0 -27.9951 -11.7188q-11.7188 -11.0684 -11.7188 -27.3438q0 -16.9277 11.7188 -27.9951q11.7188 -11.7188 27.9951 -11.7188
q15.625 0 27.3438 11.7188zM443.359 685.125l56.6406 106.771v22.1357l-67.0576 -125l-0.651367 -2.60449v-0.650391l-74.8691 -4.55762q-14.9746 -1.95312 -21.4844 -18.2295l-35.1562 -69.0098q-2.60449 -3.90625 -9.76562 -5.20898h-1.30273q-6.50977 0 -11.7188 3.25586
l-62.5 33.2031l16.9277 39.0625q3.25488 7.16113 3.25488 14.9736q0 3.90625 -0.651367 8.46387q-2.60352 12.3691 -11.0674 16.9268l-87.8906 46.875l221.354 67.708q18.8799 5.85938 36.458 5.85938q19.5312 0 36.458 -6.50977q-3.90625 13.6719 -30.5986 19.5312
q-11.7188 2.60352 -22.1357 2.60352q-12.3691 0 -23.4375 -3.90625l-354.166 -108.724v-18.2295l78.125 24.0889l1.95312 -7.8125l51.4316 -35.1562l-11.0674 -82.0312q-0.651367 -4.55762 -0.651367 -8.46387q0 -16.9268 12.3701 -24.0879l80.7295 -39.0625
q9.76562 -3.25586 9.76562 -16.9277v-3.25488l-40.3652 -29.2969l-99.6094 -6.51074q-7.8125 -1.30176 -8.46289 -13.0205q-0.651367 -2.60449 -0.651367 -4.55762q0 -8.46289 5.20801 -13.6719q-33.8535 -62.5 -41.666 -76.8223h11.7188q11.7188 20.833 39.7129 71.6143
h1.30273l95.7031 4.55762l123.697 76.8223l18.2295 26.042l46.2236 94.4014l70.3125 7.8125z" />
</svg>
