<?xml version="1.0" standalone="no"?>
<!DOCTYPE svg PUBLIC "-//W3C//DTD SVG 1.1//EN" "http://www.w3.org/Graphics/SVG/1.1/DTD/svg11.dtd" >
<svg xmlns="http://www.w3.org/2000/svg" xmlns:xlink="http://www.w3.org/1999/xlink" version="1.1" viewBox="-10 0 512 1000">
   <path fill="currentColor"
d="M10.0908 826.401q-1.30176 -3.25586 -1.30176 -5.85938q0 -2.60449 0.651367 -5.20898q1.30176 -5.20801 6.50977 -7.8125q0.651367 0 8.46387 -3.90625q270.183 -133.463 351.562 -175.13q23.4375 -11.7188 23.4375 -20.1826q-1.30176 -2.60352 -1.30176 -5.85938
q0 -1.95312 0.650391 -3.90625q1.95312 -5.20801 7.16211 -7.8125q3.25488 -1.30176 5.85938 -1.30176q9.11426 0 13.0205 7.8125q3.25488 7.16113 3.25488 13.6719q0 22.7861 -39.7129 42.9688q-85.2871 42.9688 -356.771 177.083l-3.25488 1.30273
q-2.60449 1.95312 -5.85938 1.95312q-8.46387 0 -12.3701 -7.8125zM73.2422 849.188q-1.30176 -3.25488 -1.30176 -5.85938t0.650391 -4.55762q1.95312 -5.85938 7.16211 -8.46289l8.46289 -3.90625q269.531 -133.464 350.912 -174.479q23.4375 -11.7188 23.4375 -20.833
q-0.651367 -2.60449 -0.651367 -4.55762q0 -2.60449 0.651367 -5.20801q1.95312 -5.20898 7.16113 -7.8125q2.60449 -1.30273 5.85938 -1.30273q8.46387 0 12.3701 8.46387q3.25488 6.51074 3.25488 13.6719q0 22.1357 -39.0625 42.3174q-85.9375 42.9688 -357.422 177.084
l-2.60449 1.95312q-3.25488 1.30176 -6.50977 1.30176q-8.46387 0 -12.3701 -7.8125zM152.669 526.922q-5.85938 5.85938 -11.7188 5.85938q-7.16113 0 -13.0205 -7.16113q-5.20801 -5.85938 -5.20801 -11.7188q0 -6.51074 7.16113 -12.3701
q98.3076 -86.5889 200.521 -86.5889h9.11523q8.46289 0 15.625 2.60449q7.16113 20.1826 24.7393 32.5518v0.651367q0 41.0156 -74.8701 114.583q-5.20801 5.20898 -12.3691 5.20898q-7.16211 0 -12.3701 -5.20898q-5.85938 -5.85938 -5.85938 -12.3691
q0 -5.85938 6.51074 -12.3701q26.6924 -26.042 44.2705 -48.8281q-47.5264 29.2969 -72.2656 57.292q-43.6201 50.7812 -59.2451 157.552q-13.0205 5.85938 -55.3379 27.3438q12.3691 -145.183 75.5205 -218.75q26.6924 -29.9482 72.917 -60.5469
q-72.917 18.2295 -134.115 72.2656zM413.737 447.495q-18.8809 0 -31.9014 -13.6719q-13.6719 -13.0215 -13.6719 -31.9014t13.6719 -31.9014q13.0205 -13.0205 31.9014 -13.0205q18.8799 0 31.9004 13.0205q13.0215 13.0215 13.0215 31.9014t-13.0215 31.9014
q-13.0205 13.6719 -31.9004 13.6719z" />
</svg>
