<?xml version="1.0" standalone="no"?>
<!DOCTYPE svg PUBLIC "-//W3C//DTD SVG 1.1//EN" "http://www.w3.org/Graphics/SVG/1.1/DTD/svg11.dtd" >
<svg xmlns="http://www.w3.org/2000/svg" xmlns:xlink="http://www.w3.org/1999/xlink" version="1.1" viewBox="-10 0 520 1000">
   <path fill="currentColor"
d="M473.958 467.026q11.0674 11.7188 11.0674 27.9941q0 16.2764 -11.0674 27.3438q-11.7188 11.7188 -27.9951 11.7188q-16.2754 0 -27.9941 -11.7188q-11.0684 -11.0674 -11.0684 -27.3438q0 -16.2754 11.0684 -27.9941q11.7188 -11.7188 27.9941 -11.7188
q16.2764 0 27.9951 11.7188zM500 599.839v41.666h-125q-22.7871 0 -26.042 -20.833q-0.651367 -7.16113 -2.60449 -21.4844q-1.95312 -14.9736 -3.25488 -22.1357q-1.30176 -7.16113 -9.11426 -8.46289h-3.25586q-5.85938 0 -11.7188 3.25488
q-7.16113 4.55762 -57.9424 36.458q-4.55762 3.90625 -5.20801 11.0684q0 7.16113 3.90625 13.0205q13.0205 15.625 19.5312 24.0889q5.20801 6.50977 5.85938 18.8799v1.95312q0 11.7188 -6.51074 16.2764q-59.8955 39.0625 -128.906 83.9844
q-8.46387 6.50977 -15.625 6.50977q-6.51074 0 -11.7188 -6.50977l-13.0205 -19.5312q-4.55762 -5.85938 -11.0684 -5.85938q-6.50977 0 -14.9736 5.85938q-55.3389 31.25 -83.333 46.875q0.650391 -18.2295 1.30176 -54.0371q79.4268 -50.1299 119.141 -74.8691
q8.46387 -9.76562 36.458 -63.1514q24.0889 -46.875 48.8281 -65.1045q13.0215 -7.8125 38.4121 -23.4375q26.041 -15.625 38.4111 -22.7861q3.25488 -1.95312 3.25488 -7.16113v-1.95312q-0.650391 -5.85938 -3.90625 -9.76562q-12.3691 -11.7188 -18.8799 -17.5781
q-8.46387 -5.20898 -16.2764 -5.20898q-9.11426 0 -18.2285 5.85938l-64.4531 38.4121q-4.55762 3.25488 -9.11523 3.25488q-9.11426 0 -17.5781 -13.0205q-6.50977 -9.11523 -6.50977 -15.625q0 -7.8125 7.16113 -13.0215q70.9639 -43.6191 81.3799 -49.4785
q11.7188 -7.16211 22.7871 -7.16211q11.7188 0 22.7861 7.16211q56.6406 35.1562 123.698 76.8223q0.650391 18.2295 1.95312 53.3857q0.650391 37.7607 1.30176 53.3857h108.073z" />
</svg>
