<?xml version="1.0" standalone="no"?>
<!DOCTYPE svg PUBLIC "-//W3C//DTD SVG 1.1//EN" "http://www.w3.org/Graphics/SVG/1.1/DTD/svg11.dtd" >
<svg xmlns="http://www.w3.org/2000/svg" xmlns:xlink="http://www.w3.org/1999/xlink" version="1.1" viewBox="-10 0 520 1000">
   <path fill="currentColor"
d="M178.385 410.711h5.20898q38.4111 7.8125 38.4111 36.458v7.8125q0 27.9951 -36.458 34.5049h-5.20898q-30.5986 0 -36.458 -38.4111q7.8125 -40.3643 34.5049 -40.3643zM327.474 410.711h5.85938q38.4111 7.8125 38.4111 38.4111q-7.8125 40.3643 -40.3643 40.3643
q-40.3643 -6.50977 -40.3643 -38.4111q5.85938 -40.3643 36.458 -40.3643zM130.208 492.742q76.1719 17.5781 91.7969 17.5781h15.625q26.042 0 55.3389 -7.8125q7.16113 0 15.625 11.7188v13.0205q0 13.0205 -130.209 21.4844q0 42.9688 47.5264 59.2451
q32.5518 8.46289 32.5518 30.5986q-9.76562 7.8125 -18.8799 7.8125q-82.6826 -18.2295 -82.6826 -38.4111l-13.0205 -17.5781q-17.5781 29.9473 -17.5781 34.5049q57.292 52.083 57.292 76.8232v1.95312q-7.16211 97.6562 -30.5996 97.6562h-3.25488
q-19.5312 -3.90625 -19.5312 -18.8809q1.95312 -27.9941 9.76562 -63.1504q0 -21.4844 -26.6924 -38.4121h-1.95312v1.95312q5.20801 9.76562 5.20801 18.8809v5.85938q0 18.8799 -61.1982 69.0098q-22.1348 26.6934 -34.5049 26.6934h-1.95312
q-18.8799 -3.90625 -18.8799 -18.8809v-1.95312q0 -11.7188 63.1504 -72.916q0 -7.16211 1.95312 -17.5781q-18.8799 -30.5996 -18.8799 -61.1982q0 -49.4795 59.2451 -130.208q17.5781 -7.8125 24.7393 -7.8125zM373.697 492.742h3.90625q28.6465 0 59.2451 67.0566
q30.5986 50.1309 30.5986 69.0107q0 6.51074 -22.7861 69.0107v3.90625q0 13.0205 53.3857 65.1035l1.95312 13.6719v5.85938q-3.25586 16.9277 -15.625 16.9277q-15.625 0 -91.7969 -83.9844q-1.95312 -7.8125 -1.95312 -13.6719q0 -11.0684 9.76562 -30.5996h-1.95312
q-41.0156 24.7402 -72.917 112.631q-8.46387 15.625 -18.8799 15.625h-1.95312q-19.5312 -2.60449 -19.5312 -16.9277v-3.90625q22.7861 -85.2861 67.0566 -132.161q25.3906 -16.9268 25.3906 -30.5986l-25.3906 -46.2246h-1.95312q-17.5781 30.5996 -39.7129 30.5996
h-9.76562q-76.8232 -7.8125 -76.8232 -28.6465v-1.95312q7.16113 -11.7188 17.5781 -11.7188q11.0674 0 55.3389 3.90625q13.6719 0 44.2705 -55.3379q16.2764 -17.5781 32.5518 -17.5781z" />
</svg>
