<?xml version="1.0" standalone="no"?>
<!DOCTYPE svg PUBLIC "-//W3C//DTD SVG 1.1//EN" "http://www.w3.org/Graphics/SVG/1.1/DTD/svg11.dtd" >
<svg xmlns="http://www.w3.org/2000/svg" xmlns:xlink="http://www.w3.org/1999/xlink" version="1.1" viewBox="-10 0 520 1000">
   <path fill="currentColor"
d="M196.871 436.855v1.95703q0 28.0312 -21.5127 52.8027q-11.7334 -20.8613 -11.7334 -43.0254q0 -14.3418 4.5625 -28.6836q3.91211 -13.0371 12.3867 -24.1191q15.6445 17.6016 16.2969 41.0684zM188.396 508.564q29.335 -31.291 29.335 -69.0996v-3.25977
q0 -31.9434 -22.1641 -56.0625q24.1201 -19.5566 54.7588 -19.5566q14.3418 0 27.3789 4.5625q5.86719 1.95508 12.3867 5.21484q-45.6328 28.6836 -45.6328 80.834v1.30469q0.652344 47.5879 41.7207 74.3145q-17.6006 7.82422 -35.8535 7.82422
q-13.6895 0 -27.3799 -4.56445q-19.5566 -6.51758 -34.5498 -21.5117zM265.319 451.85v-1.30273q0 -44.3301 44.3291 -66.4941q28.6826 26.7285 28.6826 60.627q0 14.9922 -5.21484 30.6387q-7.82227 22.8164 -26.7275 38.4609q-40.417 -18.9043 -41.0693 -61.9297z
M376.793 806.479q5.86719 0.652344 9.77832 5.21484t3.91113 9.12695q0 5.21484 -5.86719 10.4297l-22.1641 18.2539q-3.25977 3.25781 -8.47461 3.25781h-1.30371q-5.86719 -0.650391 -9.77832 -4.5625q-3.25977 -4.5625 -3.25977 -9.12695q0 -3.25977 1.95605 -7.16992
q-5.86719 -9.7793 -26.0762 -33.2461l-48.8916 -58.6699q-21.5117 -25.4238 -78.2266 -73.0117q-57.3662 -47.5898 -101.695 -100.393q-14.9932 -18.252 -76.9229 -89.9609q-9.77832 -11.7344 -9.77832 -27.3789v-5.21484q1.95605 -18.2539 14.9932 -28.6836
q11.083 -9.12695 26.7275 -9.12695h5.21582q18.9043 1.30469 29.9863 14.3418q61.2783 71.709 76.9238 89.3086q41.7207 50.1973 79.5303 116.037q38.4619 65.1895 59.9736 91.2656l49.5439 58.6699q20.209 24.1191 28.0312 31.291q3.25977 -0.652344 5.86719 -0.652344z
M500 446.635v5.86719q0 15.6445 -9.12598 26.7266q-58.6709 69.7539 -73.6641 88.0059q-39.1133 45.6328 -123.207 117.34q-7.82324 -7.16992 -16.2979 -22.1641q-10.4297 -16.2969 -15.6445 -22.8164q42.3721 -74.3145 88.0049 -129.074q14.9932 -17.6016 74.3154 -88.0039
q11.082 -13.0391 29.335 -14.9941h3.91113q15.6455 0 28.0312 9.77734q13.0381 10.4316 14.3418 29.3359zM213.168 713.91q12.3867 7.16992 24.7725 25.4238q-2.60742 2.60742 -49.5439 59.9727q-20.209 24.1211 -26.0752 33.248q1.95508 3.91016 1.95508 7.16992
q0 4.5625 -3.25977 9.12695q-3.91113 3.91016 -9.77832 4.5625h-1.30371q-5.21484 0 -9.12598 -3.25977l-21.5127 -18.252q-5.86719 -5.21484 -5.86719 -10.4297q0 -4.56445 3.91211 -9.12695q3.91113 -5.21484 10.4297 -5.21484q2.60742 0 5.21484 0.650391
q7.82324 -7.16992 28.0312 -31.2891l48.8926 -58.6719q0.651367 -0.650391 3.25879 -3.91016z" />
</svg>
