<?xml version="1.0" standalone="no"?>
<!DOCTYPE svg PUBLIC "-//W3C//DTD SVG 1.1//EN" "http://www.w3.org/Graphics/SVG/1.1/DTD/svg11.dtd" >
<svg xmlns="http://www.w3.org/2000/svg" xmlns:xlink="http://www.w3.org/1999/xlink" version="1.1" viewBox="-10 0 520 1000">
   <path fill="currentColor"
d="M460.938 378.158q15.625 0 15.625 15.625v9.76562q0 61.1992 -73.5684 91.1465q0 3.25586 -93.0986 7.8125q-40.3643 18.8809 -40.3643 52.084l-5.85938 5.85938h-29.2969v-7.8125q0 -59.2461 73.5674 -85.2871q10.417 -1.95312 19.5312 -1.95312h33.2031
q57.9424 0 77.4736 -44.2715q3.90625 -42.9688 19.5312 -42.9688h3.25586zM127.604 550.686q18.8809 0 97.0059 33.2031q16.9268 1.95312 27.3438 1.95312h1.95312q26.041 0 100.911 -33.2031q16.9268 -1.95312 19.5312 -1.95312q67.0576 0 113.933 132.16
q11.7188 40.3652 11.7188 71.6152v9.76562q0 71.6152 -57.9434 71.6152h-1.95312q-44.2705 0 -112.63 -77.4746q-15.625 -11.7188 -75.5205 -11.7188q-73.5684 0 -87.2402 19.5312q-61.8486 69.6621 -110.677 69.6621q-46.875 0 -54.0361 -65.7559v-9.76562
q0 -102.213 73.5674 -186.197q32.5518 -23.4375 54.0361 -23.4375zM347.005 612.533q4.55762 23.4375 21.4844 23.4375h3.90625q14.9736 0 20.833 -21.4844q0 -20.1816 -24.7393 -22.7852q-14.3232 0 -21.4844 20.832zM110.677 624.252v19.5312q0 3.90625 -3.90625 3.90625
h-25.3906q-15.625 0 -15.625 15.625v1.95312q0 17.5781 29.2969 17.5781q3.25488 -1.95312 7.8125 -1.95312h3.90625q3.90625 0.652344 3.90625 3.90625v18.8809q0 23.4375 16.9268 23.4375q17.5781 0 17.5781 -21.4844v-18.8809q0 -3.25391 5.85938 -5.85938h23.4375
q15.625 0 15.625 -15.625v-1.95312q0 -15.625 -15.625 -15.625h-25.3906q-3.90625 0 -3.90625 -3.90625v-21.4844q0 -20.832 -17.5781 -20.832q-16.9268 2.60352 -16.9268 22.7852zM302.083 657.455v3.90625q3.25488 21.4844 21.4844 21.4844
q23.4375 -3.90625 23.4375 -21.4844v-1.95312q-3.90625 -21.4844 -19.5312 -21.4844h-5.85938q-19.5312 3.90625 -19.5312 19.5312zM393.229 661.361q0 17.5781 23.4375 21.4844q21.4844 -3.90625 21.4844 -21.4844v-3.90625q-3.90625 -19.5312 -19.5312 -19.5312h-1.95312
q-23.4375 0 -23.4375 23.4375zM347.005 705.633q5.20801 23.4375 23.4375 23.4375q20.833 -4.55664 20.833 -19.5312v-7.8125q0 -15.625 -22.7861 -18.8809q-15.625 0 -21.4844 22.7871z" />
</svg>
