<?xml version="1.0" standalone="no"?>
<!DOCTYPE svg PUBLIC "-//W3C//DTD SVG 1.1//EN" "http://www.w3.org/Graphics/SVG/1.1/DTD/svg11.dtd" >
<svg xmlns="http://www.w3.org/2000/svg" xmlns:xlink="http://www.w3.org/1999/xlink" version="1.1" viewBox="-10 0 520 1000">
   <path fill="currentColor"
d="M356.119 774.969q44.9219 -44.2705 46.2246 -85.9375q-18.2295 3.90625 -30.5996 7.16113q21.4844 -60.5469 22.1357 -65.1035q5.85938 -20.834 5.85938 -40.3652q0 -22.7861 -8.46387 -42.9688q-18.8799 -42.9688 -54.6875 -51.4316q-7.8125 -1.95312 -15.625 -1.95312
q-28.6455 0 -55.9893 24.0879q-0.651367 0.651367 -14.3232 14.9746q-39.0625 -29.2969 -41.666 -30.5996q-15.625 -9.11426 -31.25 -9.11426q-16.2764 0 -32.5527 9.76562q-37.1094 22.7861 -44.9219 65.1045q-1.95312 11.0674 -1.95312 22.7861q0 30.5986 13.6719 67.708
q0.651367 1.95312 14.9746 37.7607q-19.5312 -5.20801 -33.2031 -8.46387q13.0205 61.8496 63.1504 100.912q42.9688 34.5049 92.4482 34.5049q7.16113 0 14.3232 -0.651367q46.875 -3.90625 92.4473 -48.1768zM477.213 477.442q1.30273 0.651367 22.7871 14.9746
q-57.292 141.275 -62.5 154.947q-34.5059 82.0312 -45.5732 103.516q-29.2969 56.6406 -80.7295 85.9375q-31.25 18.2295 -63.1504 18.2295q-29.9482 0 -60.5469 -16.9268q-41.667 -23.4375 -68.3594 -65.7559q-25.3906 -40.3643 -40.3652 -76.1719
q-15.625 -36.458 -39.0625 -95.7031q-29.2969 -75.5205 -37.7598 -96.3535q-1.95312 -3.90625 -1.95312 -7.16211q0 -7.8125 7.8125 -12.3691q90.4941 -57.292 163.411 -70.3125q0.651367 0 20.1826 -2.60449q1.95312 -11.0674 1.95312 -11.7188
q5.20801 -35.1562 39.0625 -39.7139q7.8125 -1.30176 15.625 -1.30176t15.625 1.30176q36.458 4.55762 41.0156 41.667q0.650391 9.76562 7.16113 10.417q72.2656 8.46289 165.364 65.1035zM141.927 603.094q9.76562 -14.9736 33.2031 -16.9268h3.90625
q20.833 0 35.1562 12.3691q-27.9951 1.95312 -72.2656 4.55762zM283.854 598.536q11.0684 -12.3691 30.5996 -12.3691h5.85938q24.7393 1.30176 35.1562 16.9268zM233.072 749.578l32.5527 -0.651367h1.95312q18.2285 0 27.9941 11.0684h-92.4473
q27.9941 -10.417 29.9473 -10.417zM281.25 776.271q-10.417 13.0215 -31.9014 13.0215q-20.833 0 -33.8545 -13.0215h65.7559zM292.317 651.922q3.90625 -13.0205 17.5781 -17.5781q5.85938 -1.95312 11.7188 -1.95312q7.8125 0 16.9268 3.90625
q-15.625 5.20801 -46.2236 15.625zM207.031 648.016q-0.651367 0.651367 -1.30273 1.95312q0 1.30176 -0.650391 2.60449q-7.16211 -2.60449 -22.1357 -7.8125q-15.625 -5.85938 -22.7861 -8.46387q7.8125 -3.90625 16.2754 -3.90625q5.20898 0 10.417 1.30176
q14.3232 3.25586 20.1826 14.3232z" />
</svg>
