<?xml version="1.0" standalone="no"?>
<!DOCTYPE svg PUBLIC "-//W3C//DTD SVG 1.1//EN" "http://www.w3.org/Graphics/SVG/1.1/DTD/svg11.dtd" >
<svg xmlns="http://www.w3.org/2000/svg" xmlns:xlink="http://www.w3.org/1999/xlink" version="1.1" viewBox="-10 0 517 1000">
   <path fill="currentColor"
d="M147.135 623.927l-41.0156 -0.650391l29.2969 68.3594h65.1045l67.0576 63.8018q5.20801 5.20801 5.20801 11.0674q0 7.8125 -9.76562 16.9277q-3.90625 4.55664 -9.76562 4.55664q-7.8125 0 -18.8799 -10.416q-17.5781 -15.625 -48.1777 -46.875h-88.541
q-14.3232 -1.30273 -26.042 -26.042l-26.6924 -67.708q-3.90625 -8.46387 -3.90625 -16.2764q0 -11.7188 9.11426 -20.1826q6.51074 -8.46289 19.5312 -8.46289q2.60449 0 5.85938 0.650391q13.0205 0 65.7549 0.651367l47.5264 -24.0889q3.90625 -1.30176 6.51074 -1.30176
q7.8125 0 11.7188 8.46387q1.95312 3.25488 1.95312 5.20801q0 7.8125 -11.7188 16.2764q-12.3701 7.16113 -50.1309 26.041zM292.969 762.599l-155.6 -405.599q77.4746 14.3232 156.901 57.9424q158.854 88.542 169.922 238.281zM55.3379 584.864
q-13.0205 0 -21.4844 -9.76562q-8.46289 -9.11426 -8.46289 -22.1348q0 -13.0215 8.46289 -22.1357q8.46387 -9.11426 21.4844 -9.11426q12.3701 0 20.1826 9.11426q9.11426 9.11426 9.11426 22.1357q0 13.0205 -9.11426 22.1348q-7.8125 9.76562 -20.1826 9.76562z
M479.817 819.891q3.90625 -1.30176 7.8125 -1.30176q4.55762 0 8.46387 1.30176q-9.76562 1.30176 -15.625 4.55762q-5.20898 2.60352 -13.0215 9.76562q-8.46289 7.8125 -15.625 11.0674q-7.16113 3.25488 -16.9268 3.90625q-3.25488 0.651367 -6.51074 0.651367
q-5.85938 0 -11.7188 -1.95312q-6.50977 -1.30273 -16.9268 -7.8125q-8.46387 -5.20898 -13.0205 -6.51074q-5.85938 -1.30176 -13.6719 -1.30176q-7.8125 0.650391 -13.0215 3.25488q-4.55664 1.95312 -12.3691 7.8125q-9.76562 7.16113 -16.9277 9.76562
q-8.46289 3.25488 -18.8799 3.90625q-5.20801 0 -9.76562 -0.651367q-5.20801 -0.650391 -9.76562 -1.95312q-7.8125 -2.60352 -18.2295 -9.76562q-7.16113 -5.20801 -11.7188 -6.50977q-5.20801 -1.95312 -12.3691 -1.95312h-6.51074q-3.25488 0.650391 -5.85938 1.30176
q-4.55762 1.95312 -12.3701 7.16113q-9.76562 7.16211 -17.5781 9.11523q-8.46289 3.25488 -18.8799 3.25488q-5.20801 0 -9.76562 -1.30176q-5.20801 -0.651367 -9.76562 -2.60449q-7.16113 -2.60449 -16.9268 -9.76562q-7.8125 -5.85938 -12.3701 -7.8125
q-5.85938 -2.60449 -13.0205 -3.25488q-7.8125 0 -13.6719 1.30176q-4.55762 1.30176 -13.0215 6.51074q-10.416 5.85938 -16.9268 7.8125q-5.85938 1.95312 -11.7188 1.95312q-2.60449 0 -5.85938 -0.651367q-10.417 -0.651367 -17.5781 -3.90625t-14.9736 -11.0674
q-8.46387 -7.16211 -13.6719 -9.76562q-6.51074 -3.25586 -15.625 -4.55762q4.55664 -1.30176 8.46289 -1.30176t7.8125 1.30176q6.51074 1.30176 16.2764 6.51074q9.11426 5.20801 14.3232 6.50977q4.55664 0.651367 9.11426 0.651367h5.20801
q8.46387 -0.651367 14.3232 -3.90625q5.20801 -1.95312 12.3701 -8.46387q9.11426 -7.16113 16.2754 -10.416q9.11523 -3.25586 18.8809 -3.90625h3.90625q8.46289 0 14.9736 1.95312q7.16113 2.60352 17.5781 9.11426q7.16113 5.20801 12.3701 6.51074
q3.90625 1.30176 9.11426 1.30176h3.25488q7.8125 0 13.0215 -1.95312q4.55664 -1.95312 11.7188 -7.16113q9.76562 -7.16211 17.5781 -9.76562q4.55664 -1.95312 9.76562 -2.60449q4.55664 -0.651367 9.76562 -0.651367q10.416 0 19.5312 3.25586
q7.8125 2.60352 17.5781 9.76562q7.16113 5.20801 11.7188 7.16113q3.25488 0.651367 5.85938 1.30176q3.25488 0.651367 6.50977 0.651367h3.90625q5.20898 0 9.11523 -1.30176q5.20801 -1.30273 12.3691 -6.51074q10.417 -6.51074 17.5781 -9.11426
q6.51074 -1.95312 14.9746 -1.95312h3.90625q10.416 0.650391 18.8799 3.90625q7.16113 3.25488 16.2764 10.416q7.16113 6.51074 12.3691 8.46387q5.85938 2.60449 13.6719 3.90625h5.20898q5.20801 0 9.76562 -0.651367q5.20801 -1.30176 14.3223 -6.50977
q9.76562 -5.20898 16.2764 -6.51074z" />
</svg>
