<?xml version="1.0" standalone="no"?>
<!DOCTYPE svg PUBLIC "-//W3C//DTD SVG 1.1//EN" "http://www.w3.org/Graphics/SVG/1.1/DTD/svg11.dtd" >
<svg xmlns="http://www.w3.org/2000/svg" xmlns:xlink="http://www.w3.org/1999/xlink" version="1.1" viewBox="-10 0 499 1000">
   <path fill="currentColor"
d="M143.88 357q26.6924 0 30.5986 34.5049q0 18.2295 29.2969 52.084q0 44.2705 18.8809 52.083l19.5312 11.7188q0 16.9268 29.2969 46.2236q72.2656 86.5889 80.7285 95.0527l17.5781 -21.4844q-0.650391 -3.25586 -15.625 -19.5312h-5.85938
q-1.95312 11.7188 -5.85938 11.7188l-63.8018 -76.8232q16.2764 -13.6719 41.0156 -13.6719q31.25 0 94.4014 92.4482v5.85938q0 21.4844 -34.5059 50.1299l1.95312 9.76562v1.95312q0 3.90625 -3.90625 3.90625h-5.85938q-3.90625 -3.90625 -25.3906 -5.85938
q-7.8125 -8.46387 -7.8125 -17.5781q3.90625 -7.8125 3.90625 -11.0674l-9.76562 -7.8125l-16.9268 42.3174q0 4.55762 46.2236 38.4111q3.90625 7.16211 3.90625 15.625q0 13.6719 -29.2969 48.1777q-27.3438 42.3174 -38.4111 42.3174h-1.95312
q-26.6924 -3.25488 -26.6924 -20.833q0 -12.3701 36.458 -57.9434v-1.95312q-2.60449 -8.46289 -67.708 -54.0361q-5.85938 -10.417 -5.85938 -17.5781l31.25 -88.542h-5.85938q-29.2969 20.834 -44.2715 20.834q-13.6719 -5.20898 -13.6719 -16.9277
q0 -22.1348 11.7188 -97.0049q-16.2754 -22.7861 -46.2236 -22.7861q-31.25 -36.459 -65.7549 -44.2715q-13.6719 -10.416 -13.6719 -21.4844v-5.85938q0 -34.5049 44.2705 -50.1299q2.60449 -1.95312 13.6719 -1.95312zM95.7031 407.13v9.76562
q3.90625 11.7188 17.5781 11.7188q0 -22.7861 50.1299 -46.2236q-3.90625 -11.7188 -13.6719 -15.625h-9.76562q-28.6455 0 -44.2705 40.3643zM221.354 384.344q11.0684 3.90625 11.0684 13.0205q-2.60449 8.46387 -9.76562 11.7188h-1.30273q-13.6719 0 -13.6719 -13.6719
q0 -11.0674 13.6719 -11.0674zM124.349 436.427q7.8125 0 48.1768 36.459q13.0215 0 23.4375 -21.4844q0 -3.90625 -23.4375 -32.5527q0 -1.95312 -7.16113 -21.4844q-22.1357 0 -41.0156 39.0625zM361.979 432.521h7.8125q37.1094 0 44.2715 50.1309
q0 35.1562 -48.1777 46.2236q-48.1768 -9.76562 -48.1768 -46.2236v-5.85938q9.76562 -44.2715 44.2705 -44.2715zM244.141 546.453l-1.95312 9.11426v1.95312q1.95312 0 5.85938 1.95312q3.90625 -1.95312 5.85938 -1.95312v-1.95312q0 -2.60352 -9.76562 -9.11426z
M228.516 710.516q0 1.95312 39.0625 30.5986q-11.7188 42.3184 -42.9688 63.8027q-70.3125 52.083 -78.7764 52.083h-5.85938q-16.2764 0 -23.4375 -25.3906q1.30176 -18.2295 73.5674 -67.0576q16.9277 -7.16113 36.459 -54.0361h1.95312z" />
</svg>
