<?xml version="1.0" standalone="no"?>
<!DOCTYPE svg PUBLIC "-//W3C//DTD SVG 1.1//EN" "http://www.w3.org/Graphics/SVG/1.1/DTD/svg11.dtd" >
<svg xmlns="http://www.w3.org/2000/svg" xmlns:xlink="http://www.w3.org/1999/xlink" version="1.1" viewBox="-10 0 520 1000">
   <path fill="currentColor"
d="M180.338 395.411q24.7402 0 32.5527 36.459v3.90625q-7.8125 36.458 -36.459 36.458q-35.8066 0 -40.3643 -42.3174q9.11426 -34.5059 34.5049 -34.5059h9.76562zM13.6719 437.729h5.20801q3.90625 0 36.458 36.458q30.5996 18.8799 54.0371 18.8799h9.11426
l115.234 -15.625h3.90625q37.7607 0 116.536 32.5527q7.8125 8.46289 7.8125 15.625q0 11.7188 -14.9736 13.6719q-70.9639 -23.4375 -107.422 -23.4375h-1.95312q-11.7188 1.30176 -11.7188 5.85938q4.55762 60.5469 13.6719 67.0566h20.833q61.1982 0 78.7764 55.3389
q0 13.6719 3.90625 13.6719q5.85938 0 152.995 -46.2236h1.95312l1.95312 3.90625v3.90625q-66.4062 89.1924 -193.359 128.255q-33.8545 11.7188 -134.115 24.7393q-38.4111 46.2246 -69.0098 46.2246h-1.95312q-3.90625 0 -3.90625 -3.90625v-1.95312
q26.6924 -29.2969 26.6924 -40.3652q-42.9688 0 -65.1045 -20.833v-9.76562q16.2764 -21.4844 48.1777 -30.5986q-7.8125 -24.7402 -7.8125 -36.459v-9.11426q0 -31.9014 48.1768 -55.9893q-17.5781 -31.25 -17.5781 -72.2656v-3.90625h-3.90625
q-89.8438 0 -126.302 -78.7764v-7.8125q2.60352 -9.11426 13.6719 -9.11426zM143.88 671.453q4.55762 26.6924 9.11426 26.6924q141.928 -26.041 141.928 -30.5986v-11.7188q0 -22.7861 -40.3652 -22.7861q-101.562 9.11426 -110.677 38.4111z" />
</svg>
