<?xml version="1.0" standalone="no"?>
<!DOCTYPE svg PUBLIC "-//W3C//DTD SVG 1.1//EN" "http://www.w3.org/Graphics/SVG/1.1/DTD/svg11.dtd" >
<svg xmlns="http://www.w3.org/2000/svg" xmlns:xlink="http://www.w3.org/1999/xlink" version="1.1" viewBox="-10 0 520 1000">
   <path fill="currentColor"
d="M438.802 640.203v-3.25488q0 -24.0889 -24.7393 -28.6465q-3.90625 -0.650391 -7.16211 -0.650391q-18.2285 0 -27.3438 21.4844q-1.95312 4.55664 -11.7188 13.6719q-1.30176 1.30176 -5.20801 3.25488q-3.90625 1.30176 -5.20801 2.60449
q-1.30273 0.650391 -7.8125 11.7188q11.0674 6.50977 11.7188 6.50977q1.95312 0.651367 24.7393 0.651367h22.1357q28.6455 -1.30176 30.5986 -27.3438zM391.275 742.417q-16.2754 -22.7871 -39.7129 -22.7871q-52.7344 -0.650391 -102.865 -0.650391
q-50.7812 0 -98.958 0.650391q-24.7393 0 -39.7139 22.7871h281.25zM115.234 666.896v0.651367q24.0879 0 27.3438 -0.651367q7.8125 -0.650391 9.11426 -6.50977v-1.30273q0 -3.90625 -4.55762 -9.11426q0 -0.651367 -8.46289 -4.55762
q-16.2764 -8.46289 -18.2295 -18.8799q-2.60449 -10.417 -13.0205 -15.625q-6.51074 -3.25488 -13.0215 -3.25488q-3.90625 0 -7.16113 0.650391q-24.0889 5.20898 -24.0889 26.6934v4.55664q1.95312 26.042 27.3438 27.3438h24.7402zM145.833 506.089
q-3.25488 4.55664 -22.7861 40.3643q19.5312 5.85938 20.833 5.85938q48.1768 9.76562 104.167 9.76562q32.5518 0 67.708 -3.25488q7.16113 -0.651367 51.4326 -8.46387q7.8125 -1.95312 7.8125 -6.51074q0 -2.60352 -1.95312 -6.50977
q-9.11523 -14.9746 -13.0215 -22.7871q-5.20801 -13.0205 -21.4844 -13.0205h-89.1924q-61.8486 -0.651367 -89.1924 -0.651367q-10.417 0 -14.3232 5.20898zM450.521 571.844q23.4375 16.2764 31.25 42.9688q2.60449 11.0674 2.60449 21.4844q0 15.625 -5.85938 31.25
q-10.417 26.042 -42.9688 97.6562q-8.46387 19.5312 -31.25 19.5312h-99.6094q-179.037 0 -205.729 0.651367q-29.9482 0 -40.3643 -26.042q-20.834 -52.083 -33.8545 -76.1719q-12.3701 -23.4375 -12.3701 -45.5732q0 -14.3223 5.20898 -27.9941
q13.6719 -35.8076 55.3379 -52.084q-12.3691 -7.16113 -13.6719 -7.16113q-9.11426 -5.85938 -9.11426 -12.3701q0 -5.20801 5.20801 -11.0674q10.417 -11.7188 22.7871 -11.7188q3.90625 0 8.46289 1.30176l10.417 2.60449q7.16113 -13.0205 19.5312 -32.5518h-39.7139
q-16.2754 -1.30273 -16.2754 -11.7188q0 -4.55762 3.90625 -11.7188q15.625 -30.5996 18.8799 -32.5527q2.60449 -1.30176 35.1562 -1.95312h272.786q20.834 0 27.3438 16.2764l9.11523 18.8799q3.90625 7.16211 3.90625 11.7188q0 11.0684 -18.2295 11.7188h-31.9014
q3.90625 6.51074 10.417 16.9277q6.51074 11.0674 9.11426 14.9736q23.4375 -1.95312 25.3906 -1.95312q9.11523 1.30176 16.2764 9.76562q5.85938 6.51074 5.85938 11.7188q0 7.8125 -10.417 13.6719l-10.416 5.85938q22.1348 12.3701 22.7861 13.6719zM0.650391 685.776
l1.95312 -1.95312q4.55762 9.76562 20.834 47.5254q13.0205 29.2969 21.4844 48.1777q-9.11523 0.650391 -16.2764 0.650391q-15.625 0 -20.833 -3.90625q-7.8125 -6.50977 -7.8125 -28.6455v-6.51074q0.650391 -1.30176 0.650391 -55.3379zM500 688.38v76.1719
q-0.651367 14.3232 -18.2295 15.625h-26.042q18.8809 -42.9688 40.3652 -91.7969h3.90625z" />
</svg>
