<?xml version="1.0" standalone="no"?>
<!DOCTYPE svg PUBLIC "-//W3C//DTD SVG 1.1//EN" "http://www.w3.org/Graphics/SVG/1.1/DTD/svg11.dtd" >
<svg xmlns="http://www.w3.org/2000/svg" xmlns:xlink="http://www.w3.org/1999/xlink" version="1.1" viewBox="-10 0 520 1000">
   <path fill="currentColor"
d="M153.646 374.578h37.1094q96.3545 0 96.3545 12.3701q-22.7871 10.416 -117.188 10.416q-112.631 -1.95312 -112.631 -12.3691q16.2764 -10.417 96.3545 -10.417zM37.1094 390.854q40.3643 10.416 126.953 10.416h16.2754q86.5889 0 126.953 -10.416l12.3701 32.5518
l-5.85938 4.55762q-65.7549 3.90625 -115.234 3.90625h-53.3857q-46.2236 0 -116.536 -3.90625q0 -4.55762 -3.90625 -4.55762zM20.1816 442.286q59.8965 5.85938 139.975 5.85938h24.0879q80.0781 0 139.323 -5.85938q6.51074 8.46387 6.51074 16.2764
q0 8.46387 -160.156 10.417q-155.6 0 -155.6 -12.3701q0 -5.20801 5.85938 -14.3232zM10.416 476.792q82.6826 8.46289 161.459 8.46289q79.4268 0 162.109 -8.46289q1.95312 5.20801 8.46289 41.0156q-54.0361 8.46289 -88.541 28.6455q-50.1309 35.1562 -67.709 96.3545
q-3.90625 17.5781 -7.8125 49.4785q-167.969 -3.90625 -167.969 -12.3691q-10.416 -54.0371 -10.416 -96.3545v-16.2764q0 -51.4316 10.416 -90.4941zM342.447 530.177h5.85938q94.4014 0 141.276 98.3076q10.417 22.7861 10.417 53.3857v5.85938
q0 94.4004 -98.3076 141.275q-22.7861 10.417 -53.3857 10.417h-5.85938q-94.4004 0 -141.927 -98.3076q-9.76562 -22.7861 -9.76562 -53.3848v-5.85938q0 -94.4014 98.3076 -141.276q22.7861 -10.417 53.3848 -10.417zM225.26 685.776q0 81.3799 94.4014 114.583
q25.3906 1.95312 26.6924 1.95312q81.3809 0 114.584 -93.75q1.95312 -25.3906 1.95312 -26.6924q0 -81.3809 -93.75 -114.584q-1.30273 0 -26.6934 -1.95312q-82.0312 0 -115.234 93.75q0 1.30273 -1.95312 26.6934zM299.479 626.531q36.459 0 36.459 30.5986v1.95312
q0 22.7871 -36.459 53.3857h36.459q3.90625 0.651367 3.90625 3.90625v10.417q0 3.90625 -3.90625 3.90625h-65.7559q-3.90625 0 -3.90625 -3.90625v-12.3701q42.9688 -34.5049 42.9688 -51.4326v-7.8125q-3.25488 -8.46289 -14.3223 -8.46289q-9.11523 0 -22.1357 8.46289
h-4.55762v-18.2285q0 -7.16211 31.25 -10.417zM385.416 628.484h14.3232q3.90625 0.651367 3.90625 3.90625v80.0781h18.2295q4.55664 0.651367 4.55664 3.90625v10.417q0 3.90625 -4.55664 3.90625h-59.2451q-3.90625 0 -3.90625 -3.90625v-10.417
q0.651367 -3.90625 3.90625 -3.90625h16.2764v-53.3857h-16.2764q-3.90625 0 -3.90625 -3.90625v-8.46289q0 -2.60449 20.1826 -7.8125q1.95312 -10.417 6.50977 -10.417zM18.2285 700.099q52.084 6.51074 119.141 6.51074h41.0156q3.25586 0 7.8125 18.2295
l-3.90625 1.95312h-26.6924q-135.417 -0.651367 -135.417 -10.417q0 -3.90625 -3.90625 -14.3232q1.95312 0 1.95312 -1.95312zM30.5986 737.208q44.2705 5.85938 143.88 5.85938h14.3232q3.90625 0 16.2764 30.5996h-53.3857q-116.536 0 -116.536 -20.1826
l-6.51074 -14.3232q1.95312 0 1.95312 -1.95312z" />
</svg>
