<?xml version="1.0" standalone="no"?>
<!DOCTYPE svg PUBLIC "-//W3C//DTD SVG 1.1//EN" "http://www.w3.org/Graphics/SVG/1.1/DTD/svg11.dtd" >
<svg xmlns="http://www.w3.org/2000/svg" xmlns:xlink="http://www.w3.org/1999/xlink" version="1.1" viewBox="-10 0 520 1000">
   <path fill="currentColor"
d="M295.572 475.164q0 9.11523 20.1826 17.5781q12.3701 4.55664 19.5312 4.55664t9.11426 -4.55664q0.651367 -1.30273 0.651367 -3.25586q0 -8.46289 -20.833 -17.5781q-11.7188 -5.20703 -18.8809 -5.20703q-7.16113 0 -9.11426 5.20703
q-0.651367 1.95312 -0.651367 3.25586zM16.9268 729.07q-16.9268 -37.1094 -16.9268 -76.1719q0 -11.0684 1.30176 -22.7871q1.95312 -13.0195 7.16113 -17.5781q17.5781 -13.6719 50.7812 -54.0352q40.3652 -50.7812 63.1514 -63.8027q4.55762 -2.60352 9.11426 -9.11523
q3.90625 -4.55664 9.76562 -14.9727h-33.8535q0.650391 -2.60547 2.60352 -9.76562q1.30273 -5.85938 2.60449 -9.11523q1.95312 -5.20898 5.20801 -14.9746q4.55762 -10.416 5.85938 -14.3223q5.85938 -17.5781 5.85938 -18.8809q7.16211 -13.6719 13.0215 -19.5312
q9.76562 -9.76562 20.1816 -9.76562q5.85938 0 11.7188 3.25586q4.55762 2.60352 11.7188 5.20898q27.3438 7.16016 47.5264 27.9941q13.0205 13.0215 32.5518 16.2754q24.7402 4.55859 27.3438 4.55859q34.5059 3.25391 55.9902 31.25q3.25488 5.20703 10.416 13.6719
q7.16211 9.11328 10.417 13.6719q11.0674 13.6719 25.3906 22.1348q18.8799 10.416 49.4795 28.6465q37.7598 22.1348 49.4785 29.2969q5.20898 2.60352 5.20898 9.11328q0 32.5527 -32.5527 35.8086q-10.416 1.30078 -14.9736 9.76562q0 0.650391 -1.30176 2.60352
q-1.30273 1.95312 -1.30273 2.60352q-5.85938 11.0684 -16.9268 11.0684h-1.95312q-8.46387 -1.30273 -31.25 -5.20898q-26.6924 -4.55664 -26.6924 -5.20703q-41.667 0 -64.4531 -9.76562q-0.651367 0 -7.8125 -1.95312q-5.20898 -1.30273 -10.417 -1.30273
q-12.3701 0 -23.4375 7.16211q-23.4375 14.9727 -39.7139 35.8066q-43.6191 55.3379 -59.8955 134.766q-0.651367 2.60352 -8.46387 44.2715q-29.9473 -1.95312 -55.9893 -16.2773q-56.6406 -30.5977 -85.9375 -94.4004z" />
</svg>
