<?xml version="1.0" standalone="no"?>
<!DOCTYPE svg PUBLIC "-//W3C//DTD SVG 1.1//EN" "http://www.w3.org/Graphics/SVG/1.1/DTD/svg11.dtd" >
<svg xmlns="http://www.w3.org/2000/svg" xmlns:xlink="http://www.w3.org/1999/xlink" version="1.1" viewBox="-10 0 499 1000">
   <path fill="currentColor"
d="M386.719 857h-273.438l28.6455 -67.708q0.651367 -1.95312 3.90625 -1.95312h30.5986q5.20898 0 8.46387 -5.85938q2.60449 -7.16211 9.76562 -8.46387h3.90625l3.25488 -0.651367l3.25586 -0.650391q10.416 -0.651367 11.0674 -0.651367
q9.11426 -1.95312 12.3701 -5.85938q2.60352 -3.25488 3.25488 -10.417q0.651367 -1.30176 0.651367 -2.60352v-12.3701q-1.30273 -13.6719 -5.20898 -34.5049l-1.30176 -9.76562l-2.60449 -15.625v-3.25586q0 -12.3691 1.30273 -25.3906
q0.650391 -4.55664 0.650391 -9.11426q0 -2.60449 -0.650391 -5.85938q-0.651367 -5.85938 -3.25586 -14.9736l-1.95312 -7.16211l-1.95312 -7.8125v-1.30176q-1.95312 -13.6719 -1.95312 -27.3438t1.95312 -26.6924l1.30273 -7.16211l1.30176 -6.50977
q0.651367 -0.651367 0.651367 -1.30273q0 -0.650391 -1.30273 -1.30176q-9.11426 -1.30176 -14.3223 -9.11426q-3.25586 -9.11523 -5.20898 -19.5312l-4.55664 -17.5781v-2.60449q-2.60449 -11.7188 -2.60449 -24.7393v-3.90625q0 -7.16211 2.60449 -14.3232
q1.30176 0 1.30176 -1.30176q1.95312 -3.90625 6.51074 -5.85938h0.650391v-0.651367l0.651367 -0.651367q1.30176 0 1.95312 -0.650391l5.85938 -2.60449q5.85938 -1.30176 11.7188 -4.55762q8.46387 -3.25488 11.0674 -13.0205v-2.60449q0 -3.90625 -1.95312 -6.50977
q-3.90625 -11.0684 -3.90625 -23.4375v-7.16211q0.651367 -2.60352 1.30273 -5.20801q1.30176 -3.25488 3.25488 -5.85938q5.85938 -5.85938 16.2764 -5.85938q10.416 0 15.625 5.85938q1.95312 2.60449 3.25488 5.85938q1.30176 2.60449 1.30176 5.20801
q0.651367 3.90625 0.651367 7.8125q0 11.7188 -4.55762 22.7871q-1.30176 2.60352 -1.30176 5.85938v3.25488q1.95312 9.76562 11.0674 13.0205q5.85938 3.25586 11.7188 4.55762l5.85938 2.60449q0.651367 0.650391 1.30273 0.650391l0.650391 0.651367l0.651367 0.651367
h0.651367q3.90625 1.95312 6.50977 5.85938q0 1.30176 0.651367 1.30176q3.25488 7.16113 3.25488 14.3232v1.30176q0 14.3232 -2.60352 27.3438v2.60449l-4.55762 17.5781q-2.60449 11.0674 -5.20801 19.5312q-5.20898 7.8125 -14.3232 9.11426
q-1.30176 0.651367 -1.30176 1.30176v1.30273l1.95312 6.50977l1.30176 7.16211q1.95312 13.0205 1.95312 26.6924t-2.60449 27.3438v1.30176l-1.30176 7.8125l-1.95312 7.16211q-2.60449 9.11426 -3.25488 14.9736q-0.651367 3.90625 -0.651367 7.16113
q0 3.90625 0.651367 7.8125q0.650391 10.417 0.650391 20.834v7.8125l-1.95312 15.625l-1.30176 9.76562q-3.90625 20.833 -5.20801 34.5049v14.9736q1.30176 7.16211 3.90625 10.417q3.25488 3.90625 12.3691 5.85938q0.651367 0 10.417 0.651367l3.90625 0.650391
l3.25488 0.651367h3.90625q7.16211 1.30176 9.76562 8.46387q2.60449 5.85938 8.46387 5.85938h30.5986q3.25586 0 3.90625 1.95312z" />
</svg>
