<?xml version="1.0" standalone="no"?>
<!DOCTYPE svg PUBLIC "-//W3C//DTD SVG 1.1//EN" "http://www.w3.org/Graphics/SVG/1.1/DTD/svg11.dtd" >
<svg xmlns="http://www.w3.org/2000/svg" xmlns:xlink="http://www.w3.org/1999/xlink" version="1.1" viewBox="-10 0 502 1000">
   <path fill="currentColor"
d="M124.023 468.328q-8.46289 18.2295 -12.3691 37.7607q-1.30273 6.50977 -1.30273 13.0205t1.30273 13.0205q1.95312 8.46387 10.416 12.3701q1.95312 0.651367 3.90625 0.651367q3.25586 0 6.50977 -1.30273q-5.20703 -5.85938 -7.16016 -13.6719
q-1.30273 -8.46289 -1.30273 -16.2754q0 -9.76562 1.95312 -19.5312q7.16211 -31.25 22.7871 -58.5938q14.3223 -24.7402 32.5508 -44.9219q-13.6719 11.7188 -25.3906 26.041q-19.5312 23.4375 -31.9004 51.4326zM241.211 368.067q1.95312 8.46387 1.95312 17.5781
q0 6.51074 -1.30273 13.6719q-1.30078 13.0215 -5.20703 24.7402q-7.8125 22.1348 -17.5781 42.3174q-11.0684 21.4844 -26.6934 39.7139q-9.11523 9.76562 -19.5312 16.9268q-7.16211 4.55762 -16.2754 5.20801h-1.30273q-6.50977 0 -10.416 -5.85938
q-3.90625 -6.50977 -3.90625 -13.6719v-6.50977q0 -15.625 5.20703 -30.5996q9.11523 -27.9941 26.6934 -50.7812q6.50977 -9.11426 14.3223 -17.5781q7.16211 -7.8125 16.2773 -13.0205q4.55664 -2.60449 9.76562 -2.60449q5.85938 0.651367 7.8125 5.85938
q1.30078 2.60449 1.30078 5.85938q0 2.60449 -1.30078 5.20898q-3.25586 13.0205 -13.6719 21.4844q-8.46484 7.8125 -20.1836 7.8125l-0.650391 5.85938h1.95312q11.7188 0 20.834 -7.16211q11.0664 -9.11426 16.2754 -22.1348q2.60352 -5.20898 2.60352 -11.0684
q0 -1.95312 -0.650391 -4.55664q-1.30273 -7.16211 -7.16211 -11.0684q-4.55664 -2.60352 -9.11328 -2.60352q-2.60547 0 -5.85938 1.30176q-11.0684 4.55762 -18.8809 13.0205q-19.5312 18.8809 -32.5527 42.9688q-8.46289 14.9746 -13.6719 31.25
q-5.20703 16.2764 -5.85938 33.2031q0 9.11523 2.60547 17.5781q2.60352 6.51074 8.46289 10.417q5.85938 3.25488 11.7188 3.25488q2.60352 0 5.85938 -0.650391q12.3691 -3.25586 21.4844 -11.7188q16.2754 -14.3232 27.9941 -32.5527q8.46484 -12.3691 14.3242 -25.3906
l7.8125 3.25586l4.55664 -11.7188l4.55664 -11.7188q9.76562 -28.6465 11.0684 -58.5938v-3.25586q0 -10.416 -3.25586 -20.1816q10.418 9.11426 11.0684 23.4375v3.25488q0 25.3906 -8.46289 48.1768q23.4375 32.5527 54.0352 58.5938q10.418 9.76562 25.3906 20.834
q15.625 11.0674 25.3906 28.6455q7.8125 15.625 7.8125 31.9014q0 16.2754 -8.46289 33.2031l-29.2969 -4.55762q6.50977 -7.16113 9.11523 -17.5781q0.650391 -4.55762 0.650391 -8.46387q0 -7.16113 -2.60352 -14.3223l-70.9648 10.416q-2.60352 0 -4.55664 0.651367
q-1.95312 3.90625 -5.20898 6.51074q-3.25391 2.60352 -5.85938 2.60352q-3.90625 0 -7.16016 -3.25488q-5.85938 -5.20801 -5.85938 -11.7188q0 -4.55762 2.60352 -9.76562q3.25586 -6.51074 9.76562 -6.51074h1.30273q6.50977 0.651367 9.11328 6.51074l33.8555 -5.20801
l33.8535 -4.55762q-8.46289 -7.8125 -18.8809 -11.0674q-20.1816 -7.16211 -41.0156 -10.417q-33.8535 -5.85938 -67.707 -5.85938q0 -0.651367 -0.652344 -0.651367l-0.650391 0.651367l-0.650391 0.651367q-10.418 10.416 -23.4375 18.2285
q-11.7188 7.16211 -25.3906 7.8125q-5.20898 0 -9.76562 -1.95312q-5.20898 2.60449 -11.0684 2.60449h-2.60352q-12.3711 -1.30176 -17.5781 -11.7188q-3.90625 -8.46387 -3.90625 -17.5781q0.650391 -17.5781 6.50977 -34.5049q9.11523 -27.3438 24.7402 -51.4326
q16.9258 -26.6924 40.3633 -46.875q10.418 -9.76562 21.4844 -17.5781q9.76562 -7.16113 20.834 -11.7188q4.55664 -1.95312 9.76562 -1.95312h2.60352q6.51172 4.55762 11.0684 11.0674zM224.936 588.12h13.6719q21.4844 0 41.666 1.30176q9.76562 1.30176 18.8809 3.25488
q4.55664 0.651367 8.46289 2.60449q0.650391 0.651367 0.650391 1.95312q-0.650391 1.30176 -1.30078 1.30176q-5.20898 2.60449 -10.418 3.25586q-22.1348 3.25488 -44.2695 3.90625h-11.7188q-22.7871 0 -45.5742 -1.95312q-10.416 -0.651367 -20.1816 -2.60449
q-3.25586 -1.30176 -6.50977 -2.60449q-0.652344 -0.650391 -0.652344 -1.95312v-0.650391h0.652344q3.25391 -2.60449 6.50977 -3.25586q12.3691 -2.60352 24.7402 -3.25488q12.3691 -1.30176 25.3906 -1.30176zM191.08 608.302q16.2773 3.25586 32.5527 3.90625
q14.3223 0.651367 28.6465 0.651367q14.3223 0 28.6445 -0.651367q16.9277 -0.650391 33.8555 -3.90625q5.20703 -0.650391 8.46289 -3.90625v15.625q-1.95312 1.95312 -5.20898 2.60449q-9.76562 2.60449 -19.5312 3.25488q-18.8789 1.95312 -37.7598 1.95312h-9.76562
q-15.625 0 -29.2969 -0.650391q-13.6719 -0.651367 -27.3438 -3.25586q-4.55664 -0.650391 -9.11523 -2.60352l-1.30078 -0.651367q-0.652344 -0.651367 -0.652344 -1.95312l-0.650391 -7.16113v-7.16211q3.90625 3.25586 8.46289 3.90625zM142.904 625.88l106.119 14.9746
q3.25586 0 6.50977 -0.651367l102.215 -14.3232v83.9844l-106.771 14.9746q-2.60352 0 -5.85938 -0.651367l-102.213 -14.3232v-83.9844zM71.2891 784.734l35.8066 -67.0576l138.021 19.5312q2.60352 0.651367 5.85938 0.651367l140.625 -19.5312h1.30273
q0.650391 0 0.650391 0.651367l29.9473 55.9893l14.9746 26.6924l14.3223 27.3438l-201.172 27.9951q-3.25391 0 -6.50977 -0.651367l-197.916 -27.3438l11.7188 -22.1348l11.7188 -22.1357h0.650391z" />
</svg>
