<?xml version="1.0" standalone="no"?>
<!DOCTYPE svg PUBLIC "-//W3C//DTD SVG 1.1//EN" "http://www.w3.org/Graphics/SVG/1.1/DTD/svg11.dtd" >
<svg xmlns="http://www.w3.org/2000/svg" xmlns:xlink="http://www.w3.org/1999/xlink" version="1.1" viewBox="-10 0 520 1000">
   <path fill="currentColor"
d="M151.577 739.373l-1.37207 -8.23047q-0.685547 -9.60156 -1.37109 -15.7754q0.685547 -4.80078 4.11523 -8.23047l22.6338 -19.8906l21.9473 -20.5762q4.11523 -3.42773 7.54492 -6.85742l-8.23047 -5.48828l-7.54492 -6.17188l-15.0889 -10.9746
q-12.3457 -9.60156 -26.0635 -16.4609q-10.2881 -4.80078 -13.7168 -15.0879q-1.37207 -2.74414 -2.05762 -8.91602l-1.37207 -5.48828l-0.685547 -4.80078h49.3828q3.42871 0.685547 6.17285 3.42969l21.2617 17.832q12.3457 10.2891 21.2617 17.1465
q6.8584 4.11523 14.4033 5.48828q5.4873 1.37109 10.2881 1.37109q17.833 0 29.4922 -15.7754q1.37207 -1.37109 4.11523 -3.42969l2.05762 -2.05664l2.05762 -1.37109q14.4033 -17.834 36.3516 -21.9492q8.23047 -1.37109 18.5186 -1.37109q10.9736 0 24.0059 1.37109
l-1.37207 9.60352q-1.37207 5.48633 -2.74316 8.91602q-3.42969 10.2871 -13.7178 15.0879q-25.377 15.7754 -49.3828 34.2949l-2.74316 2.05664l-2.05762 2.05859l-2.05762 1.37109l3.42871 3.42969l2.74414 2.74219l22.6338 19.8906l22.6338 20.5762
q3.42871 4.80078 4.11523 10.9746v2.05664q0 2.05859 -0.686523 4.11523l-4.11523 24.0059l-18.5186 2.05859l-19.2041 1.37109q-0.685547 0 -2.74316 -2.05664l-1.37207 -1.37305l-1.37207 -2.05664l-16.4609 -22.6348l-16.4609 -23.3184
q-4.80078 -6.17383 -13.0312 -6.17383q-3.42969 -0.685547 -7.54492 -0.685547q-6.8584 0 -13.7168 3.42969q-10.2881 4.80078 -15.0889 15.0879q-10.9746 17.834 -24.0059 34.2949q-4.11523 4.80078 -9.60254 5.48633q-6.8584 -0.685547 -17.1465 -1.37109
l-8.91602 -1.37305l-8.91699 -0.685547zM474.622 657.754q5.4873 2.05859 5.4873 8.91602q0 3.42969 -1.37207 7.54492q-4.11523 28.8066 -26.0625 48.0117q-10.9746 7.54492 -23.3203 11.6602q-13.7168 3.42969 -32.9219 6.85742l-17.1465 3.42969l-17.832 4.11523
l4.11523 -39.0938l13.0312 -0.685547l13.7178 -1.37305q9.60156 0 17.1465 -7.54492q6.8584 -6.85742 6.8584 -16.4609v-2.05664q0 -6.85938 -6.17285 -6.85938h-19.8896l4.80078 -30.8633h18.5186q12.3457 0 13.7168 -17.834v-2.05664q0 -8.91602 -13.7168 -8.91602
h-34.2939l1.37207 -6.85938l1.37207 -6.17188q2.05762 -7.54492 3.42871 -12.3457q2.05762 -3.42969 6.17285 -3.42969l43.8955 -0.685547l44.582 0.685547h2.05762q6.17285 0 11.6602 4.11523q5.48633 4.80078 6.17285 12.3457v2.05664q0 4.80273 -2.05762 8.91797
q-4.11523 14.4023 -10.2881 28.1191q-5.4873 8.91602 -13.0322 16.4609zM120.027 744.174l-19.2051 -3.42969q-21.2617 -4.80078 -36.3506 -8.91602q-27.4346 -8.23047 -35.665 -35.6641l-3.42969 -10.2891l-3.42969 -10.9746q-1.37109 -3.42773 -1.37109 -6.85742
q0 -8.23047 8.23047 -11.6602q-15.0898 -4.80078 -17.833 -20.5762q-1.37207 -4.11523 -4.11523 -11.6602l-2.74316 -6.17188l-2.05762 -5.48828q-2.05762 -4.11523 -2.05762 -7.54297q0 -3.42969 1.37109 -6.85938q2.74414 -6.85938 9.60254 -10.2891
q4.11523 -2.05664 8.91602 -2.05664l44.582 -0.685547l44.5811 0.685547q4.11523 0 5.4873 3.42969q2.05762 5.48633 3.42969 12.3457l1.37109 6.17188l2.05762 6.85938h-32.9219q-15.0889 0 -15.7744 10.9727v1.37305q0 16.4609 16.4609 16.4609h16.4609l4.80078 30.8633
h-18.5186q-7.54492 0 -7.54492 7.54492v1.37109q0 9.60352 6.85938 17.1484q6.8584 6.85742 17.1465 6.85742h1.37207l12.3457 1.37305l12.3457 0.685547l1.37109 4.11523v3.42969q0.686523 6.17188 2.05762 15.0879l0.686523 8.23047l0.685547 8.23047zM227.709 545.271
l4.11523 -1.37109l3.42871 -1.37305l8.23047 -3.42773q10.2881 -4.11523 17.833 -8.23047q20.5762 -11.6602 28.1211 -27.4355l8.91602 4.80078l8.91602 6.17383q-15.7744 32.9219 -37.0371 63.0996l-17.832 26.0625h-2.05762q-4.11523 0 -8.23047 -2.05664
q-10.2881 -7.54492 -25.377 -19.8906l-13.0322 -9.60156l-12.3457 -10.2891q-1.37109 -0.685547 -2.74316 -1.37109q11.6602 -4.80078 23.3193 -8.91602zM329.218 558.988q-19.2041 0.6875 -34.2939 11.6602q13.7178 -22.6328 25.3779 -46.6387l7.54395 7.54492
l6.85938 6.85742q-3.42969 9.60352 -5.4873 20.5762zM336.076 517.15l-8.91602 -7.54492l2.74316 -7.54297l1.37207 -3.42969l1.37207 -2.74414q10.9736 10.2891 19.2041 24.0059q-4.11523 2.05664 -7.54492 4.80078q-2.74316 -2.05664 -8.23047 -7.54492zM316.187 491.088
l-1.37207 4.11523l-1.37207 4.11523q-9.60156 -6.85938 -20.5762 -12.3457q0.686523 -3.42969 0.686523 -6.85938q0 -5.48633 -2.05762 -10.2871q14.4033 5.48633 27.4346 14.4023q-0.685547 2.74414 -2.74316 6.85938zM277.092 480.799
q-29.4932 -10.2871 -59.6709 -10.2871h-10.2881q20.5762 -7.54492 41.8379 -8.23047q9.60254 0 18.5186 1.37109q7.54492 6.85938 9.60254 17.1465zM157.064 558.988h-22.6338q6.8584 -40.4648 38.4082 -67.9004q17.1475 -3.42969 34.9795 -4.80078h7.54492
q30.1777 0 58.9844 10.2871q-19.8896 26.0645 -52.126 33.6074zM349.108 537.041q4.80078 -3.42969 10.2881 -4.11523q6.8584 13.7168 9.60156 28.8066q-8.91602 -13.0312 -19.8896 -24.6914zM339.506 558.988q0.685547 -6.17188 2.74316 -11.6582
q8.23047 6.17188 14.4033 14.4023z" />
</svg>
