<?xml version="1.0" standalone="no"?>
<!DOCTYPE svg PUBLIC "-//W3C//DTD SVG 1.1//EN" "http://www.w3.org/Graphics/SVG/1.1/DTD/svg11.dtd" >
<svg xmlns="http://www.w3.org/2000/svg" xmlns:xlink="http://www.w3.org/1999/xlink" version="1.1" viewBox="-10 0 520 1000">
   <path fill="currentColor"
d="M188.15 477.443q17.5781 16.9268 17.5781 41.666v131.511q0 6.51074 -3.90625 10.417q-4.55664 4.55664 -10.416 4.55664h-87.8906q-5.85938 0 -10.417 -4.55664q-3.90625 -3.90625 -3.90625 -10.417v-131.511q0 -24.7393 17.5781 -41.666
q18.2295 12.3691 41.0156 12.3691q22.1357 0 40.3643 -12.3691zM176.432 694.891v102.865q0 5.85938 -3.90625 9.76562q-4.55664 4.55664 -10.416 4.55664h-29.2969q-5.85938 0 -10.417 -4.55664q-3.90625 -3.90625 -3.90625 -9.76562v-102.865h57.9424zM178.385 385.646
q13.0215 13.0205 13.0215 30.5986q0 18.2295 -13.0215 31.25q-13.0205 13.0205 -31.25 13.0205q-17.5781 0 -30.5986 -13.0205t-13.0205 -31.25q0 -17.5781 13.0205 -30.5986q13.0205 -13.0215 30.5986 -13.0215q18.2295 0 31.25 13.0215zM383.463 385.646
q13.0215 13.0205 13.0215 30.5986q0 18.2295 -13.0215 31.25q-13.0205 13.0205 -30.5986 13.0205q-18.2295 0 -31.25 -13.0205t-13.0205 -31.25q0 -17.5781 13.0205 -30.5986q13.0205 -13.0215 31.25 -13.0215q17.5781 0 30.5986 13.0215zM393.229 477.443
q17.5781 16.9268 17.5781 41.666v131.511q0 6.51074 -3.90625 10.417q-4.55664 4.55664 -10.416 4.55664h-87.8906q-5.85938 0 -10.417 -4.55664q-3.90625 -3.90625 -3.90625 -10.417v-133.464q0 -23.4375 17.5781 -39.7129q18.2295 12.3691 41.0156 12.3691
q22.1357 0 40.3643 -12.3691zM235.677 519.109h28.6455v87.8906h-28.6455v-87.8906zM59.2441 519.109v87.8906h-44.9219q-5.85938 0 -9.76562 -4.55664q-4.55664 -3.90625 -4.55664 -10.417v-58.5938q0 -5.85938 4.55664 -9.76562q3.90625 -4.55762 9.76562 -4.55762
h44.9219zM485.677 519.109q5.85938 0 10.417 4.55762q3.90625 3.90625 3.90625 10.417v58.5938q0 5.85938 -4.55762 9.76562q-3.90625 4.55664 -9.76562 4.55664h-44.9219v-87.8906h44.9219zM457.031 766.506q12.3691 13.0205 12.3691 31.25q0 18.2285 -13.0205 30.5986
q-12.3701 13.0205 -30.5986 13.0205h-0.651367q-17.5781 0 -30.5986 -13.0205q-12.3701 -12.3701 -13.0215 -30.5986v-0.651367q0 -18.2295 13.0215 -30.5986q13.0205 -13.0215 31.25 -13.0215q18.2285 0 31.25 13.0215zM381.51 694.891v44.2715
q-16.9268 12.3691 -24.0879 32.5518q-5.20898 13.0205 -5.20898 26.6924q0 6.51074 1.30273 13.6719h-15.625q-5.85938 0 -10.417 -4.55664q-4.55762 -3.90625 -4.55762 -9.76562v-102.865h58.5938z" />
</svg>
