<?xml version="1.0" standalone="no"?>
<!DOCTYPE svg PUBLIC "-//W3C//DTD SVG 1.1//EN" "http://www.w3.org/Graphics/SVG/1.1/DTD/svg11.dtd" >
<svg xmlns="http://www.w3.org/2000/svg" xmlns:xlink="http://www.w3.org/1999/xlink" version="1.1" viewBox="-10 0 499 1000">
   <path fill="currentColor"
d="M314.127 711.167v5.20801q0 24.0889 -16.9258 41.667q-17.5781 16.9268 -41.668 16.9268h-5.20703q2.60352 -25.3906 20.832 -42.9688q17.5781 -17.5781 42.9688 -20.833zM331.705 856.349v-6.50977q0 -23.4375 16.9277 -40.3652q16.9277 -16.9268 40.3652 -16.9268
h6.50977q-3.25586 25.3906 -20.834 42.9688q-18.2285 17.5781 -42.9688 20.833zM395.508 778.224h-6.50977q-29.2969 0 -50.7812 20.834q-20.834 21.4844 -20.834 50.7812v6.50977q-27.3438 -1.95312 -46.2246 -20.833q-19.5312 -19.5312 -21.4844 -46.2236h6.51172
q29.9473 0 50.7812 -20.834q21.4844 -21.4844 21.4844 -51.4316v-6.51074q26.6914 1.95312 46.2227 21.4844q18.8809 18.8799 20.834 46.2236zM462.564 398.667q-3.25391 5.20801 -9.11328 5.20801h-1.95312l-14.9746 -2.60449l-262.369 365.234l-21.4844 59.2451
q-3.25586 9.76562 -12.3711 14.9736q-29.9473 16.2764 -55.3379 16.2764q-17.5781 0 -32.5527 -7.16113q-24.7383 -11.0684 -24.7383 -39.7139q0 -3.90625 0.650391 -9.11426q1.95312 -18.2295 9.76562 -33.8545q8.46289 -10.417 20.834 -11.7188
q37.7598 -3.90625 84.6348 -46.875q59.8965 -55.3389 156.25 -180.339q22.1348 -28.6455 70.9629 -93.75q38.4121 -52.083 54.0371 -70.9629q5.20898 -5.85938 14.9746 -6.51074h1.95312q9.11328 0 14.3223 5.20801l13.0215 12.3701q3.25391 3.25488 3.25391 6.51074
q0 2.60352 -1.95312 5.85938z" />
</svg>
