<?xml version="1.0" standalone="no"?>
<!DOCTYPE svg PUBLIC "-//W3C//DTD SVG 1.1//EN" "http://www.w3.org/Graphics/SVG/1.1/DTD/svg11.dtd" >
<svg xmlns="http://www.w3.org/2000/svg" xmlns:xlink="http://www.w3.org/1999/xlink" version="1.1" viewBox="-10 0 520 1000">
   <path fill="currentColor"
d="M293.125 556.688l42.5 -40l-59.375 -10l-26.25 -54.375l-26.25 54.375l-59.375 10l42.5 40l-9.375 60l52.5 -28.75l52.5 28.75zM250 423.562q91.875 0 176.875 53.75q32.5 20.625 53.75 42.5q19.375 21.25 19.375 32.5q0 43.75 -71.25 73.75v14.375
q-0.625 13.75 -11.875 21.25q-70.625 12.5 -141.875 12.5q-12.5 0 -25 -0.625h-20q-73.75 0 -146.875 -11.875q-11.25 -7.5 -11.875 -21.25v-14.375l-15.625 -6.25l-14.375 -5.625q-15 -5.625 -22.5 -10.625q-18.75 -13.75 -18.75 -51.25q0 -45.625 73.125 -85.625
q77.5 -43.125 176.875 -43.125zM90.625 711.688q68.125 14.375 138.125 14.375h16.25q10.625 0.625 20.625 0.625q70 0 139.375 -15v5q-23.75 39.375 -64.375 59.375q-43.75 14.375 -89.375 14.375h-7.5q-45.625 0 -88.75 -14.375q-41.25 -20 -64.375 -59.375v-5z" />
</svg>
