<?xml version="1.0" standalone="no"?>
<!DOCTYPE svg PUBLIC "-//W3C//DTD SVG 1.1//EN" "http://www.w3.org/Graphics/SVG/1.1/DTD/svg11.dtd" >
<svg xmlns="http://www.w3.org/2000/svg" xmlns:xlink="http://www.w3.org/1999/xlink" version="1.1" viewBox="-10 0 509 1000">
   <path fill="currentColor"
d="M125.785 357h248.432v3.76367q-43.916 77.792 -52.0703 85.9473h-144.291q-36.3867 -54.5791 -52.0703 -89.7109zM116.373 360.764h1.88281q6.90039 7.52832 114.178 196.361q-57.7148 13.8018 -85.3184 40.1514q-14.4297 -17.5664 -89.0859 -150.565v-2.50879
q25.0957 -30.7402 58.3438 -83.4385zM381.744 360.764h1.88281q6.27344 11.9199 58.3438 85.9473v1.25488q-85.9473 143.037 -93.4766 147.428q-40.7773 -34.5039 -79.0469 -34.5039l-2.50781 -3.76465q107.904 -190.087 114.805 -196.361zM249.373 562.145
q102.885 0 143.664 108.532q5.64648 28.2305 5.64648 40.7773q0 94.7305 -104.77 139.272q-23.8379 6.27344 -35.7578 6.27344h-16.3125q-78.418 0 -125.471 -82.8105q-15.0547 -33.25 -15.0547 -63.9902q0 -87.2021 86.5742 -134.253q27.6035 -13.8018 61.4805 -13.8018z
M125.785 703.926v13.8018q0 68.3818 73.3984 106.65q11.9199 7.52832 50.1895 11.292q77.791 0 117.314 -79.6738q7.5293 -18.8203 7.5293 -38.2686v-13.8018q0 -70.8906 -80.3027 -108.532q-18.8203 -7.52734 -38.2676 -7.52734h-11.293q-75.2812 0 -112.295 82.8105
q-6.27344 18.1924 -6.27344 33.249zM245.609 656.875h12.5469q3.76367 1.25391 3.76367 5.01855v109.786q0 3.76465 -3.76367 3.76465h-16.3125q-3.76367 0 -3.76367 -3.76465v-77.791q-20.7031 13.8018 -26.9766 13.8018l-2.50781 -3.76465v-13.8018
q25.7207 -15.0566 37.0137 -33.249z" />
</svg>
