<?xml version="1.0" standalone="no"?>
<!DOCTYPE svg PUBLIC "-//W3C//DTD SVG 1.1//EN" "http://www.w3.org/Graphics/SVG/1.1/DTD/svg11.dtd" >
<svg xmlns="http://www.w3.org/2000/svg" xmlns:xlink="http://www.w3.org/1999/xlink" version="1.1" viewBox="-10 0 499 1000">
   <path fill="currentColor"
d="M424.805 532.13h-349.609v274.74h349.609v-274.74zM424.805 407.13q20.834 0 35.1562 14.3232q14.9746 14.9736 14.9746 35.8076v349.609q0 20.833 -14.9746 35.1562q-14.3223 14.9736 -35.1562 14.9736h-349.609q-20.834 0 -35.8066 -14.9736
q-14.3242 -14.3232 -14.3242 -35.1562v-349.609q0 -20.834 14.9746 -35.8076q14.3223 -14.3232 35.1562 -14.3232h24.7402v-50.1299h50.1289v50.1299h199.871v-50.1299h50.1289v50.1299h24.7402zM374.674 756.739h-49.4785v-49.4785h49.4785v49.4785zM275.064 756.739
h-50.1289v-49.4785h50.1289v49.4785zM174.805 756.739h-49.4785v-49.4785h49.4785v49.4785zM374.674 631.739h-49.4785v-49.4785h49.4785v49.4785zM275.064 631.739h-50.1289v-49.4785h50.1289v49.4785zM174.805 631.739h-49.4785v-49.4785h49.4785v49.4785z" />
</svg>
