<?xml version="1.0" standalone="no"?>
<!DOCTYPE svg PUBLIC "-//W3C//DTD SVG 1.1//EN" "http://www.w3.org/Graphics/SVG/1.1/DTD/svg11.dtd" >
<svg xmlns="http://www.w3.org/2000/svg" xmlns:xlink="http://www.w3.org/1999/xlink" version="1.1" viewBox="-10 0 499 1000">
   <path fill="currentColor"
d="M209.961 357h11.7188q162.76 0 162.76 214.192h64.4531q3.90625 0.651367 3.90625 3.25586v39.0625q0 3.90625 -3.90625 3.90625h-64.4531v37.1094h64.4531q3.90625 0.650391 3.90625 3.90625v38.4111q0 3.90625 -3.90625 3.90625h-64.4531v152.344
q0 3.90625 -3.90625 3.90625h-60.5469q-3.90625 0 -3.90625 -3.90625v-152.344h-69.6602q-3.90625 0 -3.90625 -3.90625v-38.4111q0.650391 -3.90625 3.90625 -3.90625h69.6602v-37.1094h-69.6602q-3.90625 0 -3.90625 -3.90625v-39.0625
q0.650391 -3.25586 3.90625 -3.25586h69.6602v-1.95312q0 -113.281 -48.1758 -142.578q-24.0898 -13.6719 -54.0371 -13.6719q-56.6406 0 -80.0781 44.2715q-18.2285 29.2969 -18.2285 110.025q0 3.90625 -3.90625 3.90625h-60.5469q-3.90625 0 -3.90625 -3.90625v-11.7188
q0 -154.297 104.166 -190.755q33.8535 -7.8125 58.5938 -7.8125z" />
</svg>
