<?xml version="1.0" standalone="no"?>
<!DOCTYPE svg PUBLIC "-//W3C//DTD SVG 1.1//EN" "http://www.w3.org/Graphics/SVG/1.1/DTD/svg11.dtd" >
<svg xmlns="http://www.w3.org/2000/svg" xmlns:xlink="http://www.w3.org/1999/xlink" version="1.1" viewBox="-10 0 520 1000">
   <path fill="currentColor"
d="M342.447 646.389q16.2764 0 27.3438 -11.0684q11.7188 -11.7188 11.7188 -27.9941q0 -16.2773 -11.7188 -27.9961q-11.0674 -11.7188 -27.3438 -11.7188q-16.9268 0 -27.9941 11.7188q-11.7188 11.7188 -11.7188 27.9961q0 16.2754 11.7188 27.9941
q11.0674 11.0684 27.9941 11.0684zM236.979 501.857h263.021v210.285h-263.021v-210.285zM473.958 764.877v26.6934q0 21.4844 -15.625 37.1094q-15.625 14.9746 -37.1094 14.9746h-368.489q-22.1357 0 -37.1094 -14.9746q-15.625 -15.625 -15.625 -37.1094v-368.49
q0 -21.4844 15.625 -37.1094q14.9736 -15.625 37.1094 -15.625h368.489q21.4844 0 37.1094 15.625t15.625 37.1094v26.6934h-236.979q-22.1348 0 -37.1094 14.9746q-15.625 15.625 -15.625 37.1094v210.285q0 22.1367 15.625 37.1094q14.9746 15.625 37.1094 15.625h236.979
z" />
</svg>
