<?xml version="1.0" standalone="no"?>
<!DOCTYPE svg PUBLIC "-//W3C//DTD SVG 1.1//EN" "http://www.w3.org/Graphics/SVG/1.1/DTD/svg11.dtd" >
<svg xmlns="http://www.w3.org/2000/svg" xmlns:xlink="http://www.w3.org/1999/xlink" version="1.1" viewBox="-10 0 499 1000">
   <path fill="currentColor"
d="M333.008 801.661h55.9902v-55.9893h-55.9902v55.9893zM111.003 801.661h55.9893v-55.9893h-55.9893v55.9893zM166.992 523.667h-55.9893v55.3379h55.9893v-55.3379zM333.008 579.005h55.9902v-55.3379h-55.9902v55.3379zM333.008 690.333h55.9902v-55.3379h-55.9902
v55.3379zM277.67 523.667h-55.3389v55.3379h55.3389v-55.3379zM166.992 634.995h-55.9893v55.3379h55.9893v-55.3379zM277.67 745.672h-55.3389v55.9893h55.3389v-55.9893zM222.331 690.333h55.3389v-55.3379h-55.3389v55.3379zM111.003 468.328h277.995v-55.9893h-277.995
v55.9893zM55.6641 357h388.672v500h-388.672v-500z" />
</svg>
