<?xml version="1.0" standalone="no"?>
<!DOCTYPE svg PUBLIC "-//W3C//DTD SVG 1.1//EN" "http://www.w3.org/Graphics/SVG/1.1/DTD/svg11.dtd" >
<svg xmlns="http://www.w3.org/2000/svg" xmlns:xlink="http://www.w3.org/1999/xlink" version="1.1" viewBox="-10 0 520 1000">
   <path fill="currentColor"
d="M185.547 671.453q53.3848 0 91.1455 -37.7607q37.7607 -37.7598 37.7607 -91.1455q0 -52.7344 -37.7607 -90.4951q-37.7607 -37.7598 -91.1455 -37.7598q-53.3857 0 -91.1465 37.7598q-37.1094 37.7607 -37.1094 90.4951q0 53.3857 37.1094 91.1455
q37.7607 37.7607 91.1465 37.7607zM500 814.031l-42.9688 42.9688l-142.578 -142.578v-22.7861l-7.8125 -7.8125q-52.7344 44.9219 -121.094 44.9219q-76.8232 0 -131.511 -54.6875q-54.0361 -54.0371 -54.0361 -131.511q0 -76.8232 54.0361 -130.859
q54.6875 -54.6875 131.511 -54.6875q76.8223 0 131.51 54.6875q54.6875 54.0361 54.6875 130.859q0 69.0107 -44.9219 121.094l7.8125 7.8125h22.7871z" />
</svg>
