<?xml version="1.0" standalone="no"?>
<!DOCTYPE svg PUBLIC "-//W3C//DTD SVG 1.1//EN" "http://www.w3.org/Graphics/SVG/1.1/DTD/svg11.dtd" >
<svg xmlns="http://www.w3.org/2000/svg" xmlns:xlink="http://www.w3.org/1999/xlink" version="1.1" viewBox="-10 0 520 1000">
   <path fill="currentColor"
d="M46.2236 807.195q-3.90625 -5.20898 -3.90625 -9.76562q0 -6.50977 7.16113 -11.7188l9.11523 -6.50977l78.125 -55.9902l17.5781 -13.6719l1.30176 -0.650391l59.8955 -43.6211l6.51074 -4.55664l11.0674 -8.46289l18.8809 -13.6719l17.5781 -13.0215
q5.20801 -3.25586 9.76562 -3.25586q5.85938 0 11.0674 5.20898l3.90625 3.25586l24.0889 24.0879l15.625 14.9746l14.9736 -11.0684l24.0889 -18.2285l17.5781 -13.6719l31.9004 -27.3438l16.9277 -13.0215h-27.9951q-2.60449 0 -5.85938 -0.650391
q-9.76562 -3.90625 -9.76562 -14.3242q0 -9.76562 9.11426 -13.6719h-0.650391l1.30176 -0.650391q3.25488 -1.30273 5.85938 -1.30273h72.917q6.50977 0 11.0674 4.55859q4.55762 4.55664 4.55762 10.416v67.0566q0 15.625 -15.625 15.625t-15.625 -15.625v-34.5039
l-1.95312 1.30078l-51.4326 42.3184l-24.7393 18.8809l-17.5781 13.6719l-24.0889 17.5781l-6.51074 5.20703q-5.20801 3.90625 -10.416 3.90625q-5.85938 0 -11.0684 -5.20703l-26.6924 -26.6934l-16.9268 -16.2754l-25.3906 18.8789l-18.8809 13.6719l-11.0674 7.8125
l-6.51074 5.20898l-59.8955 43.6191l-1.30176 0.652344l-17.5781 13.0195l-68.3594 49.4805q-3.25586 1.95312 -6.51074 2.60352q-1.95312 0.650391 -3.90625 0.650391q-7.16113 0 -11.7188 -6.50977zM108.724 725.814q-14.3232 -58.5938 -25.3906 -101.562
q2.60449 -1.30078 5.85938 -2.60352q78.7764 -38.4121 132.812 -52.7344q52.083 -14.3223 141.276 -22.7871l5.85938 -0.650391l16.9268 67.709l-1.95312 1.95312l-14.3232 10.416q-8.46289 -34.5059 -11.0674 -43.6191l-5.20801 0.650391h-3.90625
q-15.625 0 -18.8809 -13.0215l-1.30176 -5.20703q-46.2236 5.85938 -89.1924 15.625q14.9736 1.95312 27.3438 13.0195q6.50977 6.51172 11.0674 15.625q-8.46387 0 -15.625 5.20898l-11.7188 8.46289q-3.25488 -0.650391 -5.85938 -0.650391
q-11.7188 -2.60352 -13.6719 -3.90625q-2.60449 -0.650391 -3.25488 -5.20898v-2.60352q0 -2.60352 2.60352 -3.25586h1.95312q1.30273 0 1.95312 0.652344q1.30273 1.30078 1.95312 5.85938l0.651367 2.60352l22.7861 -5.20898q0 -2.60352 -0.650391 -3.90625
q-2.60449 -13.0195 -17.5781 -13.0195q-3.25586 0 -7.16211 0.650391l-0.650391 -5.85938l-11.0684 2.60352l1.30273 5.85938q-11.0684 3.90625 -16.2764 9.76562q-4.55762 5.85938 -4.55762 11.7188q0 7.16211 9.11523 14.3242q4.55664 3.25391 16.2754 5.20703
l-13.0205 9.76562l-4.55762 1.30273l0.651367 1.95312l-13.6719 9.76562q-7.8125 -13.6719 -7.8125 -28.6465q0 -9.11328 3.25488 -18.8789q5.20898 -15.625 17.5781 -25.3906q-44.2705 13.6719 -84.6348 31.9004q0 0.650391 0.650391 5.20898
q0.651367 2.60352 0.651367 5.85938q0 11.0664 -13.6719 17.5781q-2.60449 1.30078 -5.20801 1.95312l13.6719 55.9883l5.20801 -2.60352q4.55762 -1.95312 8.46387 -1.95312q1.95312 0 3.90625 0.650391zM411.458 666.57l35.8076 -27.3438v172.525
q0 5.85938 -5.20898 5.85938h-49.4785q-4.55762 0 -4.55762 -5.85938v-127.604zM347.005 715.398l23.4375 -17.5781v113.932q0 5.85938 -5.20801 5.85938h-49.4795q-4.55762 0 -4.55762 -5.85938v-101.562l5.85938 6.51172l2.60449 2.60352q5.20801 5.20898 11.0674 5.20898
q4.55762 0 9.76562 -3.90625zM277.344 676.986l16.2754 16.2773v118.488q0 5.85938 -5.20801 5.85938h-49.4795q-5.20801 0 -5.20801 -5.85938v-102.863l18.8799 -13.6719zM158.203 764.227l57.9424 -42.3184v89.8438q0 5.85938 -4.55762 5.85938h-49.4785
q-5.20898 0 -5.20898 -5.85938v-46.875zM85.2861 817.611q-0.651367 0 54.0361 -39.7129v33.8535q0 5.85938 -5.20801 5.85938h-48.8281zM164.713 550.033q6.51074 11.0684 22.1357 18.2305q-10.417 3.25391 -21.4844 7.8125zM164.713 508.367
q16.2764 27.3438 70.9639 27.3438q54.0361 0 70.3125 -27.3438v24.0879q-2.60449 5.20898 -8.46387 9.76562q-42.3174 6.51172 -78.125 15.625l-3.25488 1.30273q-39.0625 -5.85938 -51.4326 -26.6934v-24.0879zM0 661.361v-24.0879q17.5781 26.6934 70.3125 26.6934
q5.85938 0 11.0674 -0.652344l6.51074 24.0898q-8.46387 0.650391 -17.5781 0.650391q-52.7344 0 -70.3125 -26.6934zM70.3125 486.883q-57.9434 0 -57.9434 24.0879q0 24.0898 57.9434 24.0898q57.9424 0 57.9424 -24.0898q0 -24.0879 -57.9424 -24.0879zM70.3125 560.451
q-52.7344 0 -70.3125 -26.6934v-26.041q17.5781 -26.6934 70.3125 -26.6934q54.0361 0 70.9629 27.3438v24.7402q-16.9268 27.3438 -70.9629 27.3438zM0 553.289q17.5781 26.6934 70.3125 26.6934q54.0361 0 70.9629 -27.9961v24.7402q-16.9268 27.3438 -70.9629 27.3438
q-52.7344 0 -70.3125 -26.6934v-24.0879zM0 594.955q16.9268 26.6934 68.3594 26.6934h2.60352l6.51074 24.7402h-7.16113q-52.7344 0 -70.3125 -26.6934v-24.7402zM164.713 466.049q16.2764 27.9961 70.9639 27.9961q54.0361 0 70.3125 -27.9961v24.7402
q-16.2764 27.3438 -70.3125 27.3438q-54.6875 0 -70.9639 -27.3438v-24.7402zM235.677 402.898q-58.5938 0 -58.5938 24.0879q0 24.0898 58.5938 24.0898q57.9424 0 57.9424 -24.0898q0 -24.0879 -57.9424 -24.0879zM235.677 476.467q-54.6875 0 -70.9639 -27.9961v-24.0879
q16.2764 -27.9941 70.9639 -27.9941q54.0361 0 70.3125 27.9941v24.0879q-16.2764 27.9961 -70.3125 27.9961z" />
</svg>
