<?xml version="1.0" standalone="no"?>
<!DOCTYPE svg PUBLIC "-//W3C//DTD SVG 1.1//EN" "http://www.w3.org/Graphics/SVG/1.1/DTD/svg11.dtd" >
<svg xmlns="http://www.w3.org/2000/svg" xmlns:xlink="http://www.w3.org/1999/xlink" version="1.1" viewBox="-10 0 520 1000">
   <path fill="currentColor"
d="M303.385 793.198h-294.922q-6.50977 0 -7.8125 -35.1562q-0.650391 -17.5781 -0.650391 -26.6934q0 -8.46289 0.650391 -8.46289v-9.76562q0 -40.3652 29.2969 -48.1777q39.7139 -10.416 71.6152 -32.5518l25.3906 78.7764l3.90625 14.3223l4.55664 13.0215
l13.0215 -37.7607q-13.0215 -17.5781 -13.0215 -28.6455q0 -6.51074 4.55762 -10.417q5.85938 -5.20801 16.2764 -5.20801h1.95312q10.416 0 16.2754 5.20801q4.55762 3.90625 4.55762 10.417q0 11.0674 -13.0205 28.6455l13.0205 37.7607l4.55762 -13.0215
l4.55664 -14.3223l24.7402 -78.7764q32.5518 22.1357 71.6143 32.5518q29.9482 7.8125 29.9482 49.4795q0 3.90625 -0.651367 8.46387q0 70.3125 -10.417 70.3125zM77.4736 554.266q-3.25488 -10.417 -3.25488 -17.5781q0 -10.417 8.46289 -10.417h1.30273
q-1.95312 -5.85938 -2.60449 -10.416q-1.95312 -10.417 -1.95312 -19.5312q0 -7.8125 1.95312 -14.3232q4.55762 -18.8799 19.5312 -33.8545q7.8125 -8.46289 18.2295 -14.9736q8.46289 -5.85938 16.9268 -9.11426q7.8125 -2.60449 16.2764 -2.60449
q3.25488 -0.651367 6.50977 -0.651367q18.2295 0 33.2031 9.11523q14.3232 7.16113 19.5312 17.5781q8.46387 0.650391 14.9746 9.11426q9.11426 11.7188 9.11426 34.5049q0 11.0684 -2.60449 24.7402q-0.650391 4.55664 -2.60352 10.416h1.30176q8.46387 0 8.46387 11.0684
q0 6.50977 -2.60449 16.9268q-7.16113 23.4375 -14.3232 24.7393q-2.60352 17.5781 -14.9736 33.8545q-13.6719 18.8799 -33.8545 25.3906q-8.46289 3.25488 -18.2285 3.25488q-8.46387 0 -16.9277 -2.60352q-19.5312 -7.16211 -33.2031 -26.042
q-12.3691 -16.2764 -14.9736 -33.8545q-7.16113 -1.30176 -13.6719 -24.7393zM441.406 531.479q5.85938 0 10.416 -4.55762q4.55762 -4.55762 4.55762 -11.0674q0 -5.85938 -4.55762 -11.0684q-4.55664 -4.55664 -10.416 -4.55664q-7.16211 0 -11.7188 4.55664
q-3.90625 5.20898 -3.90625 11.0684q0 6.50977 3.90625 11.0674q4.55664 4.55762 11.7188 4.55762zM382.812 531.479q6.50977 0 11.0674 -4.55762t4.55762 -11.0674q0 -6.51074 -4.55762 -11.0684q-4.55762 -4.55664 -11.0674 -4.55664q-6.51074 0 -11.0684 4.55664
q-4.55664 5.20898 -4.55664 11.0684q0 6.50977 4.55664 11.0674q4.55762 4.55762 11.0684 4.55762zM324.869 531.479q6.51074 0 11.0684 -4.55762q3.90625 -4.55762 3.90625 -11.0674q0 -5.85938 -3.90625 -11.0684q-4.55762 -4.55664 -11.0684 -4.55664
q-6.50977 0 -11.0674 4.55664q-4.55762 4.55762 -4.55762 11.0684q0 6.50977 4.55762 11.0674t11.0674 4.55762zM470.703 443.589q11.0674 0 20.1816 7.8125q9.11523 9.11426 9.11523 18.8799v104.167q0 9.76562 -9.11523 15.625q-8.46289 6.50977 -20.1816 6.50977
h-126.303l-58.5938 34.5059l9.11523 -35.1562q-11.0684 -0.651367 -20.1826 -6.51074q-8.46387 -6.51074 -8.46387 -14.9736v-104.167q0 -9.76562 10.417 -18.8799q10.417 -7.8125 21.4844 -7.8125h172.526z" />
</svg>
