<?xml version="1.0" standalone="no"?>
<!DOCTYPE svg PUBLIC "-//W3C//DTD SVG 1.1//EN" "http://www.w3.org/Graphics/SVG/1.1/DTD/svg11.dtd" >
<svg xmlns="http://www.w3.org/2000/svg" xmlns:xlink="http://www.w3.org/1999/xlink" version="1.1" viewBox="-10 0 520 1000">
   <path fill="currentColor"
d="M417.21 581.902l-83.4424 83.4414v-167.535zM87.3525 707.065q66.4932 0 87.3535 -28.6836v25.4238q-20.8604 28.6836 -87.3535 28.6836q-65.8408 0 -87.3525 -28.0312v-25.4238q21.5117 28.0312 87.3525 28.0312zM87.3525 512.802q66.4932 0 87.3535 28.6836v25.4238
q-20.8604 28.6826 -87.3535 28.6826q-65.8408 0 -87.3525 -27.3789v-27.3799q21.5117 -28.0312 87.3525 -28.0312zM87.3525 615.801q66.4932 0 87.3535 -28.6836v25.4238q-20.8604 28.6836 -87.3535 28.6836q-65.8408 0 -87.3525 -28.0312v-25.4238
q21.5117 28.0312 87.3525 28.0312zM87.3525 660.781q66.4932 0 87.3535 -28.6836v25.4238q-20.8604 28.6836 -87.3535 28.6836q-65.8408 0 -87.3525 -27.3799v-25.4238q21.5117 27.3799 87.3525 27.3799zM212.516 583.857q67.1445 0 88.0059 -28.6826v25.4238
q-20.8613 28.6826 -88.0059 28.6826q-10.4297 0 -22.8154 -1.30371v-25.4238q12.3857 1.30371 22.8154 1.30371zM212.516 481.511q67.1445 0 88.0059 28.6836v25.4238q-20.8613 28.6826 -88.0059 28.6826q-10.4297 0 -22.8154 -1.95508v-25.4238l-3.25977 -3.91113
q-14.9932 -20.8604 -54.7588 -29.9873q26.0752 -21.5127 80.834 -21.5127zM212.516 629.49q67.1445 0 88.0059 -28.6836v25.4238q-20.8613 28.6836 -88.0059 28.6836q-10.4297 0 -22.8154 -1.95605v-25.4238q12.3857 1.95605 22.8154 1.95605zM500 581.902l-94.5244 100.391
l-22.1641 -23.4678l72.3594 -76.9229l-72.3594 -76.9229l22.1641 -23.4688z" />
</svg>
