<?xml version="1.0" standalone="no"?>
<!DOCTYPE svg PUBLIC "-//W3C//DTD SVG 1.1//EN" "http://www.w3.org/Graphics/SVG/1.1/DTD/svg11.dtd" >
<svg xmlns="http://www.w3.org/2000/svg" xmlns:xlink="http://www.w3.org/1999/xlink" version="1.1" viewBox="-10 0 520 1000">
   <path fill="currentColor"
d="M250 759.018q29.9473 0 29.9473 -30.5977q-0.650391 -30.5996 -29.9473 -30.5996q-29.9482 0 -29.9482 30.5996q0 30.5977 29.9482 30.5977zM223.307 529.201l7.8125 152.344h38.4121l7.16113 -152.344h-53.3857zM496.094 785.711q3.90625 7.16211 3.90625 14.3223
q0 6.51172 -3.25586 13.0215q-7.8125 14.3223 -24.7393 14.3223h-443.359q-16.2764 0 -24.7393 -13.0195q-3.90625 -7.16211 -3.90625 -13.6719q0 -7.8125 4.55664 -15.625q55.3389 -97.0059 221.354 -384.115q8.46387 -14.3223 24.0889 -14.3223t24.0879 14.3223
q148.438 251.953 222.006 384.766z" />
</svg>
