<?xml version="1.0" standalone="no"?>
<!DOCTYPE svg PUBLIC "-//W3C//DTD SVG 1.1//EN" "http://www.w3.org/Graphics/SVG/1.1/DTD/svg11.dtd" >
<svg xmlns="http://www.w3.org/2000/svg" xmlns:xlink="http://www.w3.org/1999/xlink" version="1.1" viewBox="-10 0 520 1000">
   <path fill="currentColor"
d="M68.3594 714.096q-27.9951 0 -48.1777 -20.1816q-20.1816 -20.1816 -20.1816 -48.8281t20.1816 -48.8281q20.1826 -20.1816 48.1777 -20.1816q16.2754 0 31.25 7.8125l24.0879 -27.3438q-9.76562 -16.9277 -9.76562 -35.8086q0 -28.6445 20.1826 -48.8281
q20.1826 -20.1816 48.8281 -20.1816q27.9951 0 48.1768 20.1816q20.1826 20.1836 20.1826 48.8281q0 21.4844 -12.3701 39.7148l48.1777 62.5q13.6719 -5.85938 28.6455 -5.85938q2.60449 0 9.11426 0.650391l56.6406 -102.865q-19.5312 -20.1816 -19.5312 -48.1758
q0 -28.6465 20.1826 -48.8281q20.1826 -20.1836 48.8281 -20.1836t48.8281 20.1836q20.1826 20.1816 20.1826 48.8281q0 28.6445 -20.1826 48.8281q-20.1826 20.1816 -48.8281 20.1816q-7.16113 0 -14.3232 -1.30273l-55.3379 100.262q23.4375 20.832 23.4375 51.4316
q0 28.6465 -20.834 48.8281q-20.1816 20.1816 -48.1768 20.1816q-28.6455 0 -48.8281 -20.1816t-20.1826 -48.8281q0 -19.5312 10.417 -36.459l-50.1299 -65.1035q-12.3701 5.20898 -24.0889 5.20898q-14.9736 0 -29.2969 -6.51172l-25.3906 27.9961
q9.11426 16.2754 9.11426 33.8535q0 28.6465 -20.1816 48.8281q-20.1826 20.1816 -48.8281 20.1816zM0 772.689h500v43.6211h-500v-43.6211z" />
</svg>
