<?xml version="1.0" standalone="no"?>
<!DOCTYPE svg PUBLIC "-//W3C//DTD SVG 1.1//EN" "http://www.w3.org/Graphics/SVG/1.1/DTD/svg11.dtd" >
<svg xmlns="http://www.w3.org/2000/svg" xmlns:xlink="http://www.w3.org/1999/xlink" version="1.1" viewBox="-10 0 520 1000">
   <path fill="currentColor"
d="M498.047 557.846q1.95312 5.20898 1.95312 9.76562q0 9.76562 -7.8125 16.9277q-6.51074 6.50977 -15.625 7.16211q-1.95312 0.650391 -3.25586 0.650391q-9.11426 0 -16.9268 -5.85938l-1.95312 -1.95312l-11.0674 -10.416q-70.3125 74.2188 -150.391 218.098
q-5.20898 8.46484 -14.9746 8.46484q-7.16113 0 -12.3691 -4.55859l-70.9639 -67.707l-35.8076 -34.5059l-36.458 -34.5059l-70.9639 -67.707q-4.55664 -4.55859 -4.55664 -11.0684v-2.60352q1.30176 -8.46484 8.46289 -12.3711q151.693 -76.8223 228.516 -143.879
l-11.0674 -10.418l-1.95312 -1.95312q-5.20801 -6.50977 -5.20801 -14.9727v-3.90625q0.650391 -8.46484 7.16113 -14.9746q7.8125 -7.16211 17.5781 -7.16211q5.20801 0 10.417 1.95312q5.20801 1.95312 9.11426 5.20898l10.417 9.76562l161.458 154.297l10.417 9.76562
q3.90625 3.90625 5.85938 8.46289zM164.062 748.602l-140.625 93.75q-4.55762 3.25586 -9.11523 3.25586q-5.20801 0 -9.76562 -4.55859q-4.55664 -4.55664 -4.55664 -9.76562q0 -3.90625 3.25488 -8.46289l97.6562 -134.115l31.9014 29.9492z" />
</svg>
