<?xml version="1.0" standalone="no"?>
<!DOCTYPE svg PUBLIC "-//W3C//DTD SVG 1.1//EN" "http://www.w3.org/Graphics/SVG/1.1/DTD/svg11.dtd" >
<svg xmlns="http://www.w3.org/2000/svg" xmlns:xlink="http://www.w3.org/1999/xlink" version="1.1" viewBox="-10 0 520 1000">
   <path fill="currentColor"
d="M500 801.661q0 55.3389 -55.3389 55.3389h-388.672q-55.9893 0 -55.9893 -55.3389v-389.322q0 -55.3389 55.9893 -55.3389h388.672q55.3389 0 55.3389 55.3389v389.322zM189.453 504.786q34.5049 -20.833 66.4062 -20.833q46.2236 0 85.2861 46.2236
q32.5518 38.4121 32.5518 76.8232q0 39.0625 -33.2031 77.4736zM159.505 683.823q-32.5518 -38.4121 -32.5518 -76.8232q0 -39.0625 33.2031 -77.4736l151.041 179.688q-34.5049 20.833 -66.4062 20.833q-46.2236 0 -85.2861 -46.2236zM92.4473 593.328
q-0.650391 7.16113 -0.650391 14.3232q0 55.9893 37.7598 100.911q41.667 50.1299 107.422 55.9893q7.8125 0.651367 15.625 0.651367q55.3389 0 99.6094 -37.1094q50.1309 -42.3174 55.9902 -107.422q0.650391 -7.16113 0.650391 -14.3232q0 -56.6406 -37.7598 -101.562
q-42.3184 -50.1299 -107.422 -55.3379q-7.8125 -0.651367 -15.625 -0.651367q-55.3389 0 -99.6094 37.1094q-50.1309 42.3174 -55.9902 107.422z" />
</svg>
