<?xml version="1.0" standalone="no"?>
<!DOCTYPE svg PUBLIC "-//W3C//DTD SVG 1.1//EN" "http://www.w3.org/Graphics/SVG/1.1/DTD/svg11.dtd" >
<svg xmlns="http://www.w3.org/2000/svg" xmlns:xlink="http://www.w3.org/1999/xlink" version="1.1" viewBox="-10 0 520 1000">
   <path fill="currentColor"
d="M69.0098 745.672h-26.041q-42.9688 0 -42.9688 -42.9688v-301.432q0 -42.9688 42.9688 -42.9688h302.083q42.9688 0 42.9688 42.9688v24.0879h-233.073q-85.9375 0 -85.9375 86.5879v233.725zM391.927 576.4h-29.9482l-55.9893 55.3398l-55.9893 -55.3398h-29.9482
v29.9492l55.3389 55.9883l-55.3389 55.9902v29.9473h29.9482l55.9893 -55.9883l55.9893 55.9883h29.9482v-29.9473l-55.3389 -55.9902l55.3389 -55.9883v-29.9492zM457.031 468.328q42.9688 0 42.9688 43.6191v300.781q0 42.9688 -42.9688 42.9688h-302.084
q-42.9688 0 -42.9688 -42.9688v-300.781q0 -43.6191 42.9688 -43.6191h302.084z" />
</svg>
