<?xml version="1.0" standalone="no"?>
<!DOCTYPE svg PUBLIC "-//W3C//DTD SVG 1.1//EN" "http://www.w3.org/Graphics/SVG/1.1/DTD/svg11.dtd" >
<svg xmlns="http://www.w3.org/2000/svg" xmlns:xlink="http://www.w3.org/1999/xlink" version="1.1" viewBox="-10 0 520 1000">
   <path fill="currentColor"
d="M277.994 787.664h222.006v55.3379h-222.006v-55.3379zM277.994 704.33h222.006v55.3398h-222.006v-55.3398zM277.994 620.998h222.006v55.3379h-222.006v-55.3379zM277.994 537.664h222.006v55.3379h-222.006v-55.3379zM277.994 454.33h222.006v55.3398h-222.006
v-55.3398zM277.994 370.998h222.006v55.3379h-222.006v-55.3379zM0 787.664h222.005v55.3379h-222.005v-55.3379zM0 704.33h222.005v55.3398h-222.005v-55.3398zM0 620.998h222.005v55.3379h-222.005v-55.3379zM0 537.664h222.005v55.3379h-222.005v-55.3379zM0 454.33
h222.005v55.3398h-222.005v-55.3398zM0 370.998h222.005v55.3379h-222.005v-55.3379z" />
</svg>
