<?xml version="1.0" standalone="no"?>
<!DOCTYPE svg PUBLIC "-//W3C//DTD SVG 1.1//EN" "http://www.w3.org/Graphics/SVG/1.1/DTD/svg11.dtd" >
<svg xmlns="http://www.w3.org/2000/svg" xmlns:xlink="http://www.w3.org/1999/xlink" version="1.1" viewBox="-10 0 520 1000">
   <path fill="currentColor"
d="M401.041 763.25q52.084 -51.4326 63.1514 -126.302h-80.7295q-2.60352 55.9893 -18.2285 104.817q24.0879 12.3701 35.8066 21.4844zM35.8066 636.948q11.0684 76.1719 63.1514 127.604q22.7861 -16.9268 35.8076 -24.0879q-15.625 -49.4795 -18.2295 -103.516h-80.7295z
M97.6562 455.308q-59.2451 59.2441 -62.5 141.927h80.7285q1.30273 -64.4531 18.2295 -118.489q-18.8799 -9.76562 -36.458 -23.4375zM349.609 597.234q-1.30273 -56.6406 -15.625 -104.167q-34.5059 11.7188 -74.2188 14.3232v89.8438h89.8438zM259.766 709.864
q30.5986 1.30273 73.5674 16.9277q10.417 -34.5059 15.625 -89.8438h-89.1924v72.916zM352.213 770.411q-9.11426 19.5312 -20.1816 35.8076q22.1348 -9.11426 41.666 -22.7861q-11.0674 -7.8125 -21.4844 -13.0215zM259.766 821.192q35.8066 -9.76562 61.1973 -65.1035
q-29.2969 -9.76562 -61.1973 -11.7188v76.8223zM167.969 806.219q-11.0684 -16.2764 -20.1826 -35.8076q-11.0674 5.20898 -21.4844 13.0215q19.5312 13.6719 41.667 22.7861zM220.052 745.672q-21.4844 1.95312 -46.2236 10.417q20.833 46.2236 46.2236 59.2441v-69.6611z
M151.041 636.948q5.85938 67.708 13.0215 89.8438q39.7129 -14.3232 55.9893 -15.625v-74.2188h-69.0107zM220.052 506.089q-27.3438 -2.60449 -56.6406 -13.0215q-11.7188 37.7607 -13.0205 104.167h69.6611v-91.1455zM146.484 446.192q9.11426 -21.4844 21.4844 -38.4111
q-23.4375 9.76562 -43.6201 24.7393q10.417 7.16211 22.1357 13.6719zM220.052 399.317q-26.6924 13.6719 -47.5264 60.5469q25.3906 9.11523 47.5264 11.0684v-71.6152zM332.031 407.781q12.3691 16.9268 21.4844 38.4111q11.0674 -6.50977 22.1348 -13.6719
q-20.1816 -14.9736 -43.6191 -24.7393zM259.766 472.234q32.5518 -1.30176 62.5 -12.3701q-25.3906 -56.6406 -62.5 -67.0566v79.4268zM464.844 597.234q-3.25586 -82.6826 -62.5 -141.927q-16.9277 13.6719 -36.459 23.4375q16.9277 54.0361 18.2295 118.489h80.7295z
M250 357q103.516 0 176.432 73.5674q73.5684 72.917 73.5684 176.433t-73.5684 176.433q-72.916 73.5674 -176.432 73.5674t-176.433 -73.5674q-73.5674 -72.917 -73.5674 -176.433t73.5674 -176.433q72.917 -73.5674 176.433 -73.5674z" />
</svg>
