<?xml version="1.0" standalone="no"?>
<!DOCTYPE svg PUBLIC "-//W3C//DTD SVG 1.1//EN" "http://www.w3.org/Graphics/SVG/1.1/DTD/svg11.dtd" >
<svg xmlns="http://www.w3.org/2000/svg" xmlns:xlink="http://www.w3.org/1999/xlink" version="1.1" viewBox="-10 0 520 1000">
   <path fill="currentColor"
d="M500 382.064v399.74q0 20.834 -14.3232 35.8066q-14.9736 14.3242 -35.8076 14.3242h-399.739q-20.833 0 -35.8076 -14.3242q-14.3223 -14.9727 -14.3223 -35.8066v-399.74l41.666 41.668l41.667 -41.668l41.667 41.668l41.666 -41.668l41.667 41.668l41.667 -41.668
l41.666 41.668l41.667 -41.668l41.667 41.668l41.666 -41.668l41.667 41.668zM225.26 632.064h-175.13v149.74h175.13v-149.74zM449.869 731.674h-175.13v50.1309h175.13v-50.1309zM449.869 632.064h-175.13v50.1309h175.13v-50.1309zM449.869 507.064h-399.739v74.8711
h399.739v-74.8711z" />
</svg>
