<?xml version="1.0" standalone="no"?>
<!DOCTYPE svg PUBLIC "-//W3C//DTD SVG 1.1//EN" "http://www.w3.org/Graphics/SVG/1.1/DTD/svg11.dtd" >
<svg xmlns="http://www.w3.org/2000/svg" xmlns:xlink="http://www.w3.org/1999/xlink" version="1.1" viewBox="-10 0 520 1000">
   <path fill="currentColor"
d="M122.396 601.467l4.55762 12.3691l1.30176 2.60352v0.652344q0 1.95312 -1.95312 3.25391q-9.76562 7.8125 -14.9736 11.7188l-13.0215 10.418q-0.650391 0.650391 -1.95312 0.650391q-0.650391 0 -1.95312 -0.650391q0 -0.652344 -15.625 -10.418
q-1.30176 -1.30078 -4.55664 -3.25391q-3.90625 -2.60547 -5.20898 -3.25586q-5.85938 -3.90625 -5.85938 -5.85938v-0.650391l5.20898 -17.5781q0.650391 -3.90625 2.60352 -11.0684q1.30273 -3.25586 1.95312 -5.20898q0.651367 -3.25391 2.60449 -3.25391
l3.25488 -0.652344l18.8809 -0.650391h12.3691q1.95312 -0.650391 2.60449 -0.650391q1.30176 0 1.30176 0.650391q0.651367 0 1.95312 3.25586q0.651367 1.95312 3.25586 8.46289q1.95312 5.85938 3.25488 9.11523zM188.15 620.998q-0.650391 5.20703 -1.95312 10.416
q-6.50977 28.6465 -27.9941 48.1777q-22.7871 20.832 -53.3857 24.0879q-5.85938 0.650391 -11.0674 0.650391q-22.7871 0 -43.6201 -11.0664q-26.6924 -14.3242 -40.3643 -41.0156q-9.76562 -20.1836 -9.76562 -41.668q0 -7.16016 1.30176 -14.9727
q4.55762 -28.6465 24.0889 -49.4805q4.55664 -5.20703 10.416 -9.76562q24.0889 -19.5312 55.3389 -20.1816h4.55762q26.041 0 48.8281 14.3223q18.8799 11.7188 30.5986 31.9023l-10.417 8.46289q-1.95312 -3.25586 -3.25488 -5.85938
q-0.651367 -0.650391 -1.95312 -0.650391q-1.30176 0.650391 -1.30176 1.95312v4.55664q0 3.90625 -1.95312 4.55664q-0.651367 0 -3.90625 -0.650391q-3.25586 -0.650391 -9.11523 -1.95312q-7.16113 -1.30273 -9.76562 -1.95312l-9.76562 -2.60352
q-0.650391 0 -2.60352 -2.60547l-3.90625 -5.20703q-8.46387 -10.418 -12.3701 -15.625l-1.95312 -2.60547q-0.651367 -0.650391 -0.651367 -1.95312q0 -1.30078 2.60449 -2.60352q3.90625 -1.95312 9.11426 -3.90625q1.95312 -0.650391 2.60449 -1.30273
q-11.0674 -3.25391 -22.1357 -3.25391q-9.76562 0 -19.5312 2.60352q-1.30176 0 -1.30176 1.30273q0 1.30078 1.30176 1.95312q0.651367 0 1.95312 0.650391q1.95312 0.650391 2.60449 0.650391q2.60449 0.652344 2.60449 2.60547q0 0.650391 -0.651367 1.30078
l-1.95312 3.25586q-3.25488 5.20898 -9.76562 16.2754q-0.651367 0.652344 -1.95312 2.60547t-1.95312 3.25391q-1.30176 2.60547 -2.60449 3.25586q-2.60352 0.650391 -7.8125 2.60352q-5.20801 1.95312 -8.46289 2.60547q-1.95312 0.650391 -5.85938 2.60352
l-5.85938 1.95312q-2.60449 0.650391 -3.25586 0.650391q-1.95312 -0.650391 -2.60352 -4.55664v-3.25586q0 -1.95312 -0.651367 -3.25391q0 -1.30273 -1.30176 -1.30273h-0.651367l-0.651367 0.650391q-11.7188 18.2305 -12.3691 40.3652q0 1.30273 1.30176 1.95312
q1.30176 0 1.95312 -0.650391q0 -0.652344 1.30176 -1.95312q0.651367 -1.30273 1.30273 -1.95312q1.95312 -3.90625 3.90625 -3.90625q0.650391 0 3.25488 2.60352q1.95312 2.60352 6.51074 7.16211q4.55664 5.20703 7.16113 7.8125l4.55762 4.55664
q2.60352 2.60352 2.60352 3.90625l0.651367 10.416l1.30176 19.5312q0 3.90625 -1.95312 4.55859q-0.650391 0 -5.20801 -0.652344q-1.30176 -0.650391 -4.55762 -1.30078q-3.90625 0 -5.20801 -0.652344h-1.95312q15.625 20.1836 40.3643 27.9961
q1.30273 0 1.95312 -0.652344q0.651367 -0.650391 0.651367 -1.30078q0 -0.652344 -0.651367 -0.652344l-2.60352 -3.90625l-3.90625 -5.20703q-1.30273 -1.30273 -1.30273 -2.60547q0 -1.30078 1.95312 -1.95312l17.5781 -7.16016q11.0684 -5.20898 11.7188 -5.20898
h0.651367q0.651367 0 2.60449 0.650391l6.50977 1.95312q6.51074 1.95312 20.1826 5.85938q3.90625 0.652344 3.90625 2.60547v0.650391q0 0.650391 -1.95312 3.90625q-3.25488 6.50977 -3.90625 7.16211q0.651367 1.30078 1.30176 1.30078l0.651367 1.30273
q21.4844 -9.76562 34.5049 -28.6465q0.651367 -0.650391 0.651367 -1.30078q0 -0.652344 -0.651367 -0.652344q-0.650391 -0.650391 -1.30176 -0.650391h-0.651367q-0.650391 0 -1.95312 0.650391q-1.95312 0.652344 -2.60352 0.652344q-3.90625 1.30078 -4.55762 1.30078
q-1.95312 0 -1.95312 -3.25391q-0.651367 -3.25586 -1.30176 -9.11523q0 -5.85938 -0.651367 -9.11523l-1.30176 -11.7188q0 -1.95312 3.90625 -7.16016q1.95312 -2.60547 5.20801 -7.8125q3.90625 -5.20898 5.85938 -8.46484l0.651367 -0.650391v-0.650391z
M435.547 628.158q0 -1.95312 -1.95312 -3.90625q-1.30273 -1.30078 -3.25586 -1.30078h-1.30176l-14.3232 -14.9746q0.651367 -1.95312 0.651367 -3.90625q0 -2.60352 -0.651367 -4.55664l14.3232 -14.3242q2.60449 0 4.55762 -1.95312t1.95312 -3.25391
q0 -1.95312 -1.95312 -3.90625t-3.90625 -1.95312t-3.90625 1.95312q-1.30273 1.95312 -1.30273 4.55664l-14.3223 14.3223q-1.95312 -0.650391 -4.55762 -0.650391q-1.95312 0 -3.90625 0.650391l-14.9736 -14.3223v-1.30273q0 -1.95312 -1.30273 -3.25391
q-1.95312 -1.95312 -3.90625 -1.95312t-3.90625 1.95312q-1.30176 1.95312 -1.30176 3.90625t1.30176 3.90625q1.95312 1.30078 4.55762 1.30078l14.9736 14.3242q-1.30176 1.95312 -1.30176 4.55664q0 1.95312 1.30176 3.90625l-14.9736 14.9746h-1.30176
q-1.95312 0 -3.25586 1.30078q-1.30176 1.95312 -1.30176 3.90625q0 1.30273 1.30176 3.25586q1.95312 1.95312 3.90625 1.95312t3.90625 -1.95312q1.30273 -1.30273 1.30273 -2.60352v-1.30273l14.9736 -14.9746q1.95312 1.30273 3.90625 1.30273
q2.60449 0 4.55762 -1.30273l14.3223 14.9746q0 2.60352 1.30273 3.90625q1.95312 1.95312 3.90625 1.95312t3.90625 -1.95312t1.95312 -3.25586zM405.599 553.289q20.833 0 35.8076 14.9746q14.9736 14.9727 14.9736 35.8066t-14.9736 35.8066
q-14.9746 14.3242 -35.8076 14.3242t-35.8076 -14.3242q-14.3223 -14.9727 -14.3223 -35.8066t14.3223 -35.8066q14.9746 -14.9746 35.8076 -14.9746zM488.281 614.486q2.60352 0 3.25488 -2.60352v-14.3223q0 -2.60547 -3.25488 -2.60547l-11.0684 1.30273
q-2.60352 0 -2.60352 2.60352v12.3711q0 1.95312 2.60352 2.60352zM483.072 641.18q0.651367 -0.650391 0.651367 -1.95312t-1.95312 -1.95312l-10.417 -4.55664q-0.650391 -0.652344 -1.30176 -0.652344q-1.30176 0 -1.95312 1.95312q-2.60449 5.20898 -6.51074 9.76562
q-0.650391 0.652344 -0.650391 1.95312q0 1.30273 1.95312 1.95312l9.11426 6.51172q0.651367 0.650391 1.30176 0.650391q1.30273 0 2.60449 -1.30273q3.90625 -5.85938 7.16113 -12.3691zM405.599 659.408q22.7861 0 39.0625 -16.2754t16.2764 -39.0625t-16.2764 -39.0625
t-39.0625 -16.2754t-39.0625 16.2754t-16.2764 39.0625t16.2764 39.0625t39.0625 16.2754zM454.427 674.383q1.30176 -0.650391 1.30176 -1.95312q0 -0.650391 -0.650391 -1.30273l-6.51074 -9.76562q-0.651367 -1.30078 -1.95312 -1.30078q-0.651367 0 -1.95312 0.650391
q-4.55762 3.25586 -9.76562 5.85938q-1.95312 0.650391 -1.95312 1.95312q0 0.650391 0.651367 1.30273l4.55664 10.416q0.651367 1.95312 1.95312 1.95312q1.30273 0 1.95312 -0.650391q6.51074 -2.60547 12.3701 -7.16211zM412.76 689.357q2.60449 0 2.60449 -2.60547
l-0.651367 -11.7188q0 -2.60352 -3.25488 -2.60352q-2.60449 0.650391 -5.85938 0.650391q-2.60449 0 -5.85938 -0.650391q-2.60449 0 -2.60449 2.60352l-0.650391 11.7188v0.652344q0 1.95312 1.95312 1.95312q3.90625 0.650391 7.16113 0.650391
q3.90625 0 7.16113 -0.650391zM378.255 669.826q0.651367 -0.652344 0.651367 -1.30273q0 -1.30273 -1.95312 -1.95312q-5.20898 -2.60352 -10.417 -5.85938q-0.651367 -0.650391 -1.30176 -0.650391q-1.30273 0 -2.60449 1.30078l-5.85938 9.76562
q-0.651367 0.652344 -0.651367 1.30273q0 1.30273 1.30273 1.95312q5.85938 4.55664 12.3691 7.16211q0.651367 0.650391 1.30273 0.650391q1.30176 0 1.95312 -1.95312zM348.958 565.008q0.651367 -0.650391 0.651367 -1.30273q0 -1.30078 -1.30273 -2.60352
l-9.76562 -6.50977q-0.650391 -0.652344 -1.30176 -0.652344q-1.30176 0 -2.60449 1.30273q-3.90625 6.50977 -7.16113 13.0215v1.30078q0 1.30273 1.30176 1.95312l10.417 5.20898q0.651367 0.650391 1.95312 0.650391t1.95312 -1.95312q2.60449 -5.20703 5.85938 -10.416z
M356.119 533.758q-1.30176 0.650391 -1.30176 1.95312q0 0.650391 0.651367 1.95312l6.50977 9.11523q1.30273 1.30078 1.95312 1.30078q1.30273 0 1.95312 -0.650391q5.20898 -3.25586 10.417 -5.85938q1.95312 -0.650391 1.95312 -1.95312t-0.651367 -1.95312
l-5.20801 -9.76562q-0.651367 -1.95312 -1.95312 -1.95312q-0.651367 0 -1.30176 0.650391q-7.16211 2.60547 -13.0215 7.16211zM398.438 518.133q-2.60449 0.650391 -2.60449 3.25586l1.30176 11.0664q0 2.60547 1.95312 2.60547h13.6719q1.95312 0 1.95312 -2.60547
l0.651367 -11.0664v-0.652344q0 -1.95312 -2.60449 -2.60352h-14.3223zM434.244 537.664q-0.650391 0.650391 -0.650391 1.95312t1.95312 1.95312q5.20801 2.60352 9.76562 5.85938q1.30176 0.650391 1.95312 0.650391q1.30176 0 1.95312 -1.30078l6.50977 -9.11523
q0.651367 -1.30273 0.651367 -1.95312q0 -1.30273 -1.30176 -1.95312q-5.85938 -4.55664 -12.3701 -7.16211q-0.651367 -0.650391 -1.95312 -0.650391t-1.95312 1.95312zM463.541 561.102q-1.30176 1.30273 -1.30176 1.95312q0 1.30273 0.651367 1.95312
q3.25488 5.20898 5.85938 10.416q0.650391 1.95312 1.95312 1.95312q0.650391 0 1.30176 -0.650391l10.417 -5.20898q1.95312 -0.650391 1.95312 -1.95312q0 -0.650391 -0.651367 -1.30078q-2.60449 -6.51172 -7.16113 -13.0215q-0.651367 -1.30273 -1.95312 -1.30273
q-0.651367 0 -1.95312 0.652344zM405.599 509.67q39.0625 0 67.0576 27.3438q27.3438 27.9941 27.3438 67.0566t-27.3438 66.4062q-27.9951 27.3438 -67.0576 27.3438q-44.2705 0 -72.917 -34.5059l28.6465 -24.0879l-30.5996 -25.3906h3.90625
q2.60449 -0.650391 2.60449 -3.25586q-0.651367 -3.25391 -0.651367 -6.50977q0 -2.60352 0.651367 -5.20898q0 -2.60352 -2.60449 -2.60352l-11.7188 -1.30273q-2.60352 0 -2.60352 2.60547q-0.651367 3.25391 -0.651367 6.50977v0.650391l-7.8125 -6.50977
q1.95312 -37.1094 29.2969 -63.1504q27.3438 -25.3906 64.4531 -25.3906zM445.312 542.873q-6.51074 0 -6.51074 -5.85938t6.51074 -5.85938q5.85938 0 5.85938 5.85938t-5.85938 5.85938zM284.505 679.592v-20.1836h-48.1768v-40.3633h48.1768v-20.1836l48.1768 40.3652z
M271.484 606.674h-48.1777v19.5312l-48.1768 -39.7129l48.1768 -40.3652v20.1836h48.1777v40.3633z" />
</svg>
