<?xml version="1.0" standalone="no"?>
<!DOCTYPE svg PUBLIC "-//W3C//DTD SVG 1.1//EN" "http://www.w3.org/Graphics/SVG/1.1/DTD/svg11.dtd" >
<svg xmlns="http://www.w3.org/2000/svg" xmlns:xlink="http://www.w3.org/1999/xlink" version="1.1" viewBox="-10 0 510 1000">
   <path fill="currentColor"
d="M422.201 469.63q11.0664 0 11.0664 -13.6719q0 -14.3223 -11.0664 -14.3223h-123.047q-11.7188 0 -11.7188 14.3223q0 13.6719 11.7188 13.6719h123.047zM422.201 511.948q11.0664 0 11.0664 -13.6719q0 -14.3232 -11.0664 -14.3232h-123.047
q-11.7188 0 -11.7188 14.3232q0 13.6719 11.7188 13.6719h123.047zM287.436 540.594q0 13.6719 7.16016 13.6719h75.5215q7.16211 0 7.16211 -13.6719q0 -14.3232 -7.16211 -14.3232h-75.5215q-7.16016 0 -7.16016 14.3232zM422.201 695.542q11.0664 0 11.0664 -14.3232
q0 -13.6719 -11.0664 -13.6719h-123.047q-11.7188 0 -11.7188 13.6719q0 14.3232 11.7188 14.3232h123.047zM370.117 737.859q7.16211 0 7.16211 -14.3232q0 -13.6719 -7.16211 -13.6719h-75.5215q-7.16016 0 -7.16016 13.6719q0 14.3232 7.16016 14.3232h75.5215z
M236.002 439.683q0 -10.417 -8.46289 -18.2295t-20.834 -7.8125h-111.328q-11.7188 0 -20.1816 7.8125t-8.46289 18.2295v102.213q0 11.0684 8.46289 18.8809t20.1816 7.8125h111.328q12.3711 0 20.834 -7.8125t8.46289 -18.8809v-39.7129l-39.0625 36.458
q-5.20703 3.90625 -12.3691 3.90625t-11.7188 -3.90625l-78.125 -71.6143q-5.20898 -5.20898 -5.20898 -9.76562q0 -5.20898 5.20898 -10.417l3.25586 -2.60449q5.85938 -5.20801 11.0664 -5.20801q5.20898 0 10.418 5.20801l65.1035 59.2451l51.4316 -46.875v-16.9268z
M236.002 648.667q0 -15.625 -11.0664 -26.6934q-11.0684 -11.0674 -26.6934 -11.0674h-93.75q-15.625 0 -26.6934 11.0674q-11.0664 11.0684 -11.0664 26.6934v79.4268q0 15.625 11.0664 26.6924q11.0684 11.0684 26.6934 11.0684h93.75q15.625 0 26.6934 -11.0684
q11.0664 -11.0674 11.0664 -26.6924v-79.4268zM464.518 357q10.418 0 18.2305 7.16113q7.16016 7.16211 7.16016 17.5781v416.016q0 8.46387 -5.20703 14.9746v0.650391l-1.30273 0.651367q-0.650391 1.30176 -1.95312 1.95312l-38.4121 37.1094
q-3.90625 3.90625 -7.8125 3.90625q-3.25391 0 -7.16016 -3.90625l-31.25 -29.9482l-30.5996 29.9482q-3.90625 3.90625 -7.8125 3.90625t-7.8125 -3.90625l-27.9941 -27.3438l-28.6465 27.3438q-3.90625 3.90625 -7.8125 3.90625t-7.8125 -3.90625l-27.9941 -27.3438
l-28.6465 27.3438q-3.90625 3.90625 -7.8125 3.90625t-7.8125 -3.90625l-27.9941 -27.3438l-28.6465 27.3438q-3.90625 3.90625 -7.8125 3.90625t-7.8125 -3.90625l-30.5996 -29.9482l-30.5977 29.9482q-3.90625 3.90625 -7.8125 3.90625t-7.8125 -3.90625
l-38.4121 -37.1094q-1.30273 -0.651367 -1.95312 -1.95312l-1.30273 -1.30176q-5.20703 -6.51074 -5.20703 -14.9746v-416.016q0 -10.416 7.16016 -17.5781q7.8125 -7.16113 18.2305 -7.16113h429.035z" />
</svg>
