<?xml version="1.0" standalone="no"?>
<!DOCTYPE svg PUBLIC "-//W3C//DTD SVG 1.1//EN" "http://www.w3.org/Graphics/SVG/1.1/DTD/svg11.dtd" >
<svg xmlns="http://www.w3.org/2000/svg" xmlns:xlink="http://www.w3.org/1999/xlink" version="1.1" viewBox="-10 0 520 1000">
   <path fill="currentColor"
d="M285.156 759.344q77.4736 -14.9736 78.125 -78.7764q0 -70.9629 -104.818 -98.3066q-66.4062 -16.9277 -66.4062 -47.5264q0 -18.2295 15.625 -29.2969q16.9277 -11.7188 44.2715 -11.7188q53.3848 0 55.3379 46.875h49.4795q-1.30176 -30.5986 -18.8799 -52.7344
q-18.8809 -24.0889 -52.7344 -31.9014v-48.8281h-66.4062v48.1777q-34.5059 7.16113 -55.3389 27.3438q-22.7861 22.1348 -22.7861 52.7344q0 66.4062 104.817 91.7969q66.4062 15.625 66.4062 53.3848q0 14.9746 -11.7188 26.042q-15.625 13.6719 -48.1768 13.6719
q-61.8496 0 -66.4062 -46.2236h-48.8281q3.90625 68.3594 82.0312 84.6348v48.1777h66.4062v-47.5264zM250 357q103.516 0 176.432 73.5674q73.5684 72.917 73.5684 176.433t-73.5684 176.433q-72.916 73.5674 -176.432 73.5674t-176.433 -73.5674
q-73.5674 -72.917 -73.5674 -176.433t73.5674 -176.433q72.917 -73.5674 176.433 -73.5674z" />
</svg>
