<?xml version="1.0" standalone="no"?>
<!DOCTYPE svg PUBLIC "-//W3C//DTD SVG 1.1//EN" "http://www.w3.org/Graphics/SVG/1.1/DTD/svg11.dtd" >
<svg xmlns="http://www.w3.org/2000/svg" xmlns:xlink="http://www.w3.org/1999/xlink" version="1.1" viewBox="-10 0 499 1000">
   <path fill="currentColor"
d="M249.674 357q12.3711 0 21.4844 8.46387q8.46484 9.11426 8.46484 21.4844q0 12.3691 -20.1836 69.6611q-2.60352 6.51074 -9.76562 6.51074q-6.50977 0 -9.11328 -6.51074q-20.1836 -57.292 -20.1836 -69.6611q0 -12.3701 8.46484 -21.4844
q9.11328 -8.46387 20.832 -8.46387zM262.695 599.839q9.76562 0 14.3223 7.8125l13.0215 22.1348q2.60352 3.90625 2.60352 8.46387q0 3.90625 -2.60352 7.8125l-13.0215 22.1357q-4.55664 8.46289 -14.3223 8.46289h-25.3906q-9.76562 0 -14.3223 -8.46289
l-13.0215 -22.1357q-1.95312 -3.90625 -1.95312 -7.8125q0 -4.55762 1.95312 -8.46387l13.0215 -22.1348q4.55664 -7.8125 14.3223 -7.8125h25.3906zM311.523 427.964q7.16211 1.95312 7.16211 7.8125q0 2.60352 -1.30273 5.85938l-46.875 113.281
q-2.60352 5.85938 -9.11523 5.85938h-1.30078q-5.20898 -0.651367 -10.418 -0.651367q-4.55664 0 -9.76562 0.651367h-1.30078q-6.51172 0 -9.11523 -5.85938l-46.875 -113.281q-1.30273 -3.25586 -1.30273 -5.85938q0 -5.85938 7.16211 -7.8125
q3.90625 -0.651367 7.16211 -1.95312q1.95312 -0.651367 3.25391 -0.651367q6.51172 0 8.46484 7.16113q8.46289 24.7402 20.832 57.9434l12.3711 33.8535q2.60352 5.85938 9.11328 5.85938q7.16211 0 9.76562 -5.85938l12.3711 -33.8535q12.3691 -33.2031 20.832 -57.9434
q1.95312 -7.16113 8.46484 -7.16113q1.30078 0 3.25391 0.651367q3.25586 1.30176 7.16211 1.95312zM229.492 721.583q1.95312 -5.85938 7.8125 -5.85938h2.60352q5.20898 0.651367 10.418 0.651367q5.20703 0 9.76562 -0.651367h2.60352q5.85938 0 7.8125 5.85938
l46.875 113.281q1.30273 3.25586 1.30273 5.85938q0 5.20898 -7.16211 7.16211q-30.5996 9.11426 -61.1973 9.11426q-30.5996 0 -61.8496 -9.11426q-7.16211 -1.95312 -7.16211 -7.16211q0 -2.60352 1.30273 -5.85938zM446.939 570.542q2.60547 -1.30273 5.20898 -1.30273
q5.85938 0 7.8125 7.8125q9.11523 30.5996 9.11523 61.1982t-9.11523 61.1982q-1.95312 7.16113 -7.16211 7.16113q-2.60352 0 -5.85938 -1.30176l-113.281 -46.875q-5.85938 -1.95312 -5.85938 -7.8125v-2.60449q0.652344 -5.20801 0.652344 -9.76562
q0 -5.20801 -0.652344 -9.76562v-2.60449q0 -5.85938 5.85938 -8.46289zM176.758 682.521q1.95312 -0.650391 3.90625 -0.650391q3.90625 0 7.16211 3.90625q6.50977 7.8125 14.3223 14.3223q3.90625 3.25586 3.90625 7.8125q0 1.95312 -0.650391 3.90625l-46.875 113.281
q-3.25586 6.51074 -7.8125 6.51074q-2.60547 0 -5.85938 -1.95312q-55.9902 -30.5986 -86.5898 -86.5889q-1.95312 -3.25488 -1.95312 -5.85938q0 -4.55664 6.51172 -7.8125zM294.596 711.817q-0.650391 -1.95312 -0.650391 -3.90625q0 -4.55664 3.90625 -7.8125
q7.8125 -6.50977 14.3223 -14.3223q3.25586 -3.90625 7.16211 -3.90625q1.95312 0 3.90625 0.650391l113.932 46.875q6.51172 3.25586 6.51172 7.8125q0 2.60449 -1.95312 5.85938q-30.5996 55.9902 -86.5898 86.5889q-3.25391 1.95312 -5.85938 1.95312
q-4.55664 0 -7.8125 -6.51074zM323.242 593.979q-1.95312 0.650391 -3.90625 0.650391q-3.90625 0 -7.16211 -3.90625q-6.50977 -8.46289 -14.3223 -14.3223q-3.90625 -3.25586 -3.90625 -7.8125q0 -1.95312 0.650391 -3.90625l46.875 -113.281
q3.25586 -7.16211 7.8125 -7.16211q2.60547 0 5.85938 1.95312q55.9902 31.25 86.5898 86.5889q1.95312 3.25488 1.95312 5.85938q0 5.20801 -6.51172 7.8125zM166.342 617.417q5.85938 2.60352 5.85938 8.46289v2.60449q-0.652344 4.55762 -0.652344 9.76562
q0 4.55762 0.652344 9.76562v2.60449q0 5.85938 -5.85938 7.8125l-113.281 46.875q-3.25586 1.30176 -5.85938 1.30176q-5.20898 0 -7.16211 -7.16113q-9.11523 -30.5996 -9.11523 -61.1982t9.11523 -61.1982q1.95312 -7.8125 7.8125 -7.8125q2.60352 0 5.20898 1.30273z
M62.8262 546.453q-6.51172 -2.60449 -6.51172 -7.8125q0 -2.60449 1.95312 -5.85938q30.5996 -55.9893 86.5898 -86.5889q3.25391 -1.95312 5.85938 -1.95312q4.55664 0 7.8125 7.16211l46.875 113.281q0.650391 1.95312 0.650391 3.90625q0 4.55664 -3.90625 7.8125
q-7.8125 5.85938 -14.3223 14.3223q-3.25586 3.90625 -7.16211 3.90625q-1.95312 0 -3.90625 -0.650391z" />
</svg>
