<?xml version="1.0" standalone="no"?>
<!DOCTYPE svg PUBLIC "-//W3C//DTD SVG 1.1//EN" "http://www.w3.org/Graphics/SVG/1.1/DTD/svg11.dtd" >
<svg xmlns="http://www.w3.org/2000/svg" xmlns:xlink="http://www.w3.org/1999/xlink" version="1.1" viewBox="-10 0 520 1000">
   <path fill="currentColor"
d="M402.344 631.089q30.5986 0 61.1973 12.3691q36.459 14.9746 36.459 36.459v24.7393h-195.312v-24.7393q0 -21.4844 36.458 -36.459q30.5986 -12.3691 61.1982 -12.3691zM402.344 607q-20.1826 0 -34.5059 -14.3232q-14.3223 -14.3223 -14.3223 -34.5049
t14.3223 -34.5049q14.3232 -14.3232 34.5059 -14.3232q20.1816 0 34.5049 14.3232q14.3232 14.3223 14.3232 34.5049t-14.3232 34.5049q-14.3232 14.3232 -34.5049 14.3232zM288.411 640.854v-24.0889h-57.9424v-48.1768h57.9424v-24.0889l57.9424 48.1768zM60.5469 623.927
q46.2236 0 60.5469 -19.5312v17.5781q-14.3232 19.5312 -60.5469 19.5312q-45.5732 0 -60.5469 -18.8799v-17.5781q14.9736 18.8799 60.5469 18.8799zM60.5469 552.964q46.2236 0 60.5469 19.5312v17.5781q-14.3232 20.1816 -60.5469 20.1816q-45.5732 0 -60.5469 -19.5312
v-18.8799q14.9736 -18.8799 60.5469 -18.8799zM60.5469 655.177q46.2236 0 60.5469 -19.5312v17.5781q-14.3232 19.5312 -60.5469 19.5312q-45.5732 0 -60.5469 -18.8799v-17.5781q14.9736 18.8799 60.5469 18.8799zM60.5469 687.078q46.2236 0 60.5469 -20.1826v18.2295
q-14.3232 19.5312 -60.5469 19.5312q-45.5732 0 -60.5469 -18.8799v-18.2295q14.9736 19.5312 60.5469 19.5312zM147.135 601.792q46.875 0 61.1982 -19.5312v17.5781q-14.3232 20.1816 -61.1982 20.1816q-7.16113 0 -15.625 -1.30176v-17.5781
q8.46387 0.651367 15.625 0.651367zM147.135 530.828q46.875 0 61.1982 20.1826v17.5781q-14.3232 19.5312 -61.1982 19.5312q-7.16113 0 -15.625 -0.651367v-18.2295l-1.95312 -2.60352q-10.416 -14.3232 -38.4111 -20.1826q18.2295 -15.625 55.9893 -15.625z
M147.135 633.042q46.875 0 61.1982 -19.5312v17.5781q-14.3232 19.5312 -61.1982 19.5312q-7.16113 0 -15.625 -0.651367v-17.5781q8.46387 0.651367 15.625 0.651367z" />
</svg>
