<?xml version="1.0" standalone="no"?>
<!DOCTYPE svg PUBLIC "-//W3C//DTD SVG 1.1//EN" "http://www.w3.org/Graphics/SVG/1.1/DTD/svg11.dtd" >
<svg xmlns="http://www.w3.org/2000/svg" xmlns:xlink="http://www.w3.org/1999/xlink" version="1.1" viewBox="-10 0 520 1000">
   <path fill="currentColor"
d="M110.025 693.264h-55.3379q1.95312 -1.30273 5.85938 -4.55762q3.25488 -2.60449 8.46289 -8.46387q5.85938 -5.20801 9.76562 -9.76562l2.60449 -3.25488l2.60449 -2.60449l4.55664 -6.50977q4.55762 -6.51074 8.46387 -13.6719q3.90625 -7.16211 5.85938 -14.9746
t1.95312 -15.625q0 -7.16113 -1.95312 -13.0205q-2.60449 -6.51074 -7.16113 -11.0674q-5.20898 -5.85938 -11.7188 -8.46387q-7.8125 -2.60449 -16.9277 -2.60449q-9.76562 0 -18.8799 3.90625q-8.46387 3.90625 -13.6719 11.0684q-5.85938 7.8125 -7.16113 16.9268
l18.2285 8.46387q1.30273 -7.8125 7.16211 -13.6719q4.55664 -4.55762 11.0674 -4.55762h3.25488q3.25586 0 7.16211 1.95312t5.85938 5.85938q1.95312 4.55762 1.95312 9.11426q0 7.16211 -2.60449 13.6719q-2.60449 7.16211 -7.16113 13.6719
q-4.55762 7.16211 -9.76562 13.6719q-6.51074 7.8125 -12.3701 13.6719q-4.55762 5.20898 -12.3701 12.3701l-11.7188 11.7188v17.5781h83.9844v-20.833zM138.021 718.003q0 12.3701 6.51074 22.7861h-121.745q-9.76562 0 -16.2764 -6.50977
q-6.50977 -7.16211 -6.50977 -16.2764v-143.229q0 -9.11426 6.50977 -16.2754q6.51074 -6.51074 16.2764 -6.51074h115.886zM277.994 507.717h-24.0879l-26.042 18.8799l-26.042 19.5312l17.5781 27.3438l25.3906 -18.2295v154.948h33.2031v-202.474zM320.312 473.211
q9.11426 0 15.625 6.51074q6.50977 6.51074 7.16113 16.2764l0.651367 222.005q-0.651367 9.11426 -7.16211 15.625q-6.50977 6.51074 -15.625 7.16113h-141.927q-9.11426 0 -15.625 -7.16113q-6.51074 -6.51074 -6.51074 -15.625l0.651367 -222.005
q0 -9.76562 6.51074 -16.2764q6.50977 -6.51074 15.625 -6.51074h140.625zM462.891 699.123q2.60352 -6.51074 2.60352 -13.0215q0 -5.85938 -1.95312 -11.7188q-2.60352 -5.20801 -6.50977 -8.46289q-5.20898 -3.90625 -11.0684 -4.55762v-0.651367
q7.16211 -3.25488 11.7188 -9.76562q3.90625 -6.50977 3.90625 -13.0205v-1.95312q0 -7.8125 -3.90625 -14.3232q-3.90625 -6.50977 -10.416 -9.11426q-5.85938 -3.25488 -13.0215 -3.25488h-5.20801q-8.46387 0 -16.2764 3.90625q-7.8125 4.55664 -12.3691 12.3691
l9.76562 11.7188q3.25488 -5.20801 8.46289 -8.46289q5.20898 -2.60449 11.0684 -2.60449q4.55664 0 7.8125 1.95312q2.60352 1.30176 4.55664 4.55762q1.30273 3.25488 1.30273 5.85938q0 4.55664 -2.60449 8.46289q-1.95312 3.25586 -5.85938 4.55762
q-3.25488 1.95312 -7.8125 1.95312h-6.51074v16.9268h7.16211q5.85938 0 10.416 1.95312q4.55762 1.30273 7.16211 5.20898q1.95312 3.25488 1.95312 7.8125q0 3.90625 -1.95312 7.16113q-1.95312 3.90625 -5.20898 5.20801q-3.90625 1.95312 -7.8125 1.95312h-1.95312
q-4.55664 0 -8.46289 -1.30176q-4.55762 -1.95312 -7.8125 -4.55762q-3.25586 -3.25488 -5.85938 -6.50977l-9.76562 12.3691q2.60352 5.20898 7.16113 9.11523q5.20801 3.90625 11.0674 5.85938q7.16211 2.60352 14.3232 2.60352t13.6719 -2.60352
q5.85938 -1.95312 11.0674 -5.85938q4.55762 -3.90625 7.16211 -9.76562zM477.213 585.842q9.76562 0 16.2764 6.50977q6.51074 6.51074 6.51074 16.2764v109.375q0 9.11426 -6.51074 15.625t-16.2764 7.16113h-121.744q6.50977 -9.76562 6.50977 -20.833v-134.114h115.234z
" />
</svg>
