<?xml version="1.0" standalone="no"?>
<!DOCTYPE svg PUBLIC "-//W3C//DTD SVG 1.1//EN" "http://www.w3.org/Graphics/SVG/1.1/DTD/svg11.dtd" >
<svg xmlns="http://www.w3.org/2000/svg" xmlns:xlink="http://www.w3.org/1999/xlink" version="1.1" viewBox="-10 0 499 1000">
   <path fill="currentColor"
d="M250 809.474q69.0098 0 117.838 -48.8281t48.8281 -117.838q0 -69.0107 -48.8281 -117.839t-117.838 -48.8281t-117.838 48.8281t-48.8281 117.839q0 69.0098 48.8281 117.838t117.838 48.8281zM417.318 509.344q46.875 58.5938 46.875 133.464q0 88.541 -62.5 151.692
q-63.1523 62.5 -151.693 62.5t-151.693 -62.5q-62.5 -63.1514 -62.5 -151.692q0 -88.542 62.5 -151.693q63.1523 -62.5 151.693 -62.5q74.8691 0 133.463 46.875l33.8555 -33.8535q17.5781 14.3223 33.8535 33.8535zM225.912 523.667h48.1758v142.578h-48.1758v-142.578z
M321.615 404.526h-143.23v-47.5264h143.23v47.5264z" />
</svg>
