<?xml version="1.0" standalone="no"?>
<!DOCTYPE svg PUBLIC "-//W3C//DTD SVG 1.1//EN" "http://www.w3.org/Graphics/SVG/1.1/DTD/svg11.dtd" >
<svg xmlns="http://www.w3.org/2000/svg" xmlns:xlink="http://www.w3.org/1999/xlink" version="1.1" viewBox="-10 0 520 1000">
   <path fill="currentColor"
d="M338.541 613.511q24.0889 0 24.0889 43.6191q0 44.2715 -24.0889 44.2715q-11.7188 0 -18.2285 -12.3701q-6.51074 -11.7188 -6.51074 -31.9014q0 -43.6191 24.7393 -43.6191zM337.239 732.651q28.6455 0 47.5264 -19.5312q20.833 -22.1357 20.833 -58.5938
q0 -31.9014 -17.5781 -51.4326q-17.5781 -20.833 -48.1768 -20.833q-30.5996 0 -50.1309 22.1348q-18.2285 21.4844 -18.2285 54.6875t18.8799 54.0371q18.8799 19.5312 46.875 19.5312zM335.286 480.698h-30.5986l-140.625 252.604h30.5986zM94.4004 557.521
q0 33.8545 19.5312 54.0371q18.8809 20.1816 47.5264 20.1816q27.9951 0 46.875 -20.1816q20.833 -21.4844 20.833 -58.5938q0 -31.9014 -16.9268 -52.084q-18.2295 -20.1816 -48.8281 -20.1816t-50.1299 22.1348q-18.8809 20.834 -18.8809 54.6875zM250.65 357
q100.912 0 173.828 70.3125q74.2188 72.2656 75.5215 175.781v3.90625q0 100.911 -70.3125 173.828q-72.2656 74.8701 -175.781 76.1719h-3.90625q-100.912 0 -173.828 -70.3125q-74.8701 -72.2656 -76.1719 -175.781v-3.90625q0 -100.911 70.3125 -173.828
q72.2656 -74.8701 175.781 -76.1719h4.55664zM161.458 511.948q25.3906 0 25.3906 43.6191q0 44.9219 -24.0889 44.9219q-12.3691 0 -19.5312 -13.0205q-5.85938 -10.417 -5.85938 -27.9951v-3.25488q0 -44.2705 24.0889 -44.2705z" />
</svg>
