<?xml version="1.0" standalone="no"?>
<!DOCTYPE svg PUBLIC "-//W3C//DTD SVG 1.1//EN" "http://www.w3.org/Graphics/SVG/1.1/DTD/svg11.dtd" >
<svg xmlns="http://www.w3.org/2000/svg" xmlns:xlink="http://www.w3.org/1999/xlink" version="1.1" viewBox="-10 0 520 1000">
   <path fill="currentColor"
d="M130.208 763.576q-5.20801 0 -8.46387 -3.25586q-3.90625 -3.90625 -3.90625 -8.46289v-75.5215q0 -5.20898 3.90625 -8.46289q3.25586 -3.25586 8.46387 -3.25586h60.5469v86.5879q0 6.51172 3.25488 12.3711h-63.8018zM132.161 749.252h44.2705v-10.416h-29.2969
q1.30273 -1.30273 2.60449 -2.60352l2.60449 -1.95312l2.60352 -2.60547l2.60449 -2.60352l2.60449 -2.60352q1.95312 -1.95312 4.55664 -6.51172q2.60449 -3.25391 4.55762 -7.16016t3.25488 -7.8125q1.30273 -3.90625 1.30273 -8.46484q0 -3.25391 -1.30273 -6.50977
q-1.30176 -3.25586 -3.90625 -5.85938q-2.60352 -2.60352 -6.50977 -3.90625q-4.55762 -1.95312 -9.11523 -1.95312q-4.55664 0 -9.11426 1.95312t-7.8125 5.85938q-2.60449 3.90625 -3.25488 9.11523l9.11426 4.55664q1.30176 -4.55664 3.90625 -7.16211
q2.60449 -2.60352 6.51074 -2.60352q2.60352 0 5.20801 1.30273q1.95312 0.650391 2.60449 3.25391q1.30176 1.95312 1.30176 4.55859q0 3.25391 -1.30176 7.16016q-1.95312 3.25586 -3.90625 7.16211q-2.60449 3.25586 -5.20898 7.16211q-1.95312 2.60352 -6.50977 7.16016
q-3.90625 4.55859 -6.51074 6.51172l-5.85938 5.85938v9.11328zM345.052 751.205q3.90625 0 7.16113 -1.30078q3.25586 -0.652344 5.85938 -3.25586q2.60449 -1.95312 3.90625 -5.20898q1.30273 -3.25391 1.30273 -6.50977t-1.30273 -5.85938
q-1.30176 -3.25586 -3.25488 -5.20898q-2.60449 -1.95312 -5.85938 -2.60352q3.90625 -1.30273 5.85938 -5.20898q2.60449 -3.25391 2.60449 -7.8125q0 -3.90625 -1.95312 -7.16016q-2.60449 -3.25586 -5.85938 -4.55859q-3.90625 -1.95312 -8.46387 -1.95312
q-5.20801 0 -9.76562 1.95312q-3.90625 2.60547 -6.51074 6.51172l5.20898 6.50977q1.95312 -3.25586 4.55664 -5.20898q2.60449 -1.30078 5.85938 -1.30078q1.95312 0 3.90625 0.650391q1.30273 1.30273 2.60449 2.60352q0.651367 1.95312 0.651367 3.25586
q0 2.60352 -1.30273 4.55664q-1.30176 1.30273 -3.25488 2.60547q-1.95312 0.650391 -3.90625 0.650391h-3.90625v9.11523h3.90625q3.25488 0 5.85938 0.650391q1.95312 0.650391 3.25488 2.60352q1.30273 1.95312 1.30273 4.55859q0 1.95312 -0.651367 3.90625
q-1.30176 1.95312 -3.25488 2.60352q-2.60449 1.30273 -5.20898 1.30273q-1.95312 0 -4.55664 -1.30273q-1.95312 -0.650391 -3.90625 -1.95312q-1.95312 -1.95312 -3.25586 -3.90625l-5.20801 7.16211q1.95312 2.60352 4.55762 4.55664q2.60352 1.95312 5.85938 3.25586
q3.25488 1.30078 7.16113 1.30078zM224.609 661.361l9.76562 14.3242l13.0205 -9.76562v81.3789h17.5781v-106.119h-13.0205zM212.891 622.951h73.5674q5.20801 0 8.46387 3.25391q3.90625 3.90625 3.90625 8.46484v117.188q0 4.55664 -3.25586 8.46289
q-3.90625 3.25586 -8.46289 3.25586h-74.8701q-4.55762 0 -8.46387 -3.25586q-3.25488 -3.90625 -3.25488 -8.46289l0.651367 -117.188q0 -4.55859 3.25488 -8.46484q3.25488 -3.25391 8.46387 -3.25391zM369.791 682.195q4.55762 0 8.46387 3.25586
q3.25488 3.90625 3.25488 8.46289v57.291q0 5.20898 -3.25488 9.11523q-3.90625 3.25586 -8.46387 3.25586h-64.4531q3.90625 -5.20898 3.90625 -12.3711v-69.0098h60.5469zM292.317 568.264l-39.0625 -19.5312l-38.4111 20.832l6.50977 -42.9688l-31.9004 -29.9473
l43.6191 -6.50977l18.2295 -39.7148l20.1826 39.0625l43.6191 5.20898l-31.25 31.25zM276.041 521.389l22.1357 -22.7871l-31.9014 -3.90625l-14.3223 -28.6465l-13.6719 29.2969l-31.9014 5.20898l23.4375 21.4844l-5.20801 31.9004l28.6455 -14.9727l28.6455 14.3223z
M486.328 624.252l-22.7871 -11.7188l-22.7861 12.3711l3.90625 -25.3906l-18.8799 -17.5781l26.041 -4.55859l11.0684 -23.4375l11.7188 23.4375l25.3906 3.25586l-18.2295 18.2285zM477.213 596.258l13.0215 -13.6719l-18.8809 -1.95312l-8.46289 -16.9277
l-8.46387 16.9277l-18.8799 3.25586l14.3223 13.0195l-3.25488 18.2305l16.9268 -9.11523l16.9277 9.11523zM60.5469 624.252l-22.7871 -11.7188l-22.7861 12.3711l3.90625 -25.3906l-18.8799 -17.5781l25.3906 -4.55859l11.0674 -23.4375l11.7188 23.4375l26.042 3.25586
l-18.2295 18.2285zM50.7812 596.258l13.6719 -13.6719l-18.8809 -1.95312l-9.11426 -16.9277l-7.8125 16.9277l-18.8799 3.25586l13.6719 13.0195l-2.60449 18.2305l16.2764 -9.11523l17.5781 9.11523zM401.041 591.701l-26.041 -13.0215l-26.6934 14.3223l4.55762 -29.9473
l-21.4844 -20.1816l29.2969 -4.55859l13.0205 -26.6914l13.6719 26.041l29.2969 3.90625l-20.833 20.834zM389.974 559.799l15.625 -15.625l-21.4844 -2.60352l-10.417 -19.5312l-9.11426 19.5312l-22.1357 3.90625l16.2764 14.9746l-3.25488 21.4844l18.8799 -10.418
l19.5312 9.76562zM388.021 572.17l-13.6719 -6.51172l-13.0205 7.16211l1.95312 -14.9746l-11.0684 -10.416l14.9746 -2.60352l6.50977 -13.6719l7.16211 13.6719l14.9736 1.95312l-10.417 10.416zM157.552 587.143l-26.042 -13.6719l-26.041 14.3242l4.55664 -29.2969
l-22.1348 -20.1836l29.2969 -4.55664l13.0205 -26.6934l13.6719 26.043l29.2969 3.90625l-20.833 20.832zM146.484 555.242l15.625 -15.625l-21.4844 -2.60352l-10.417 -19.5312l-9.11426 19.5312l-22.1357 3.90625l16.2764 14.9727l-3.25586 21.4844l18.8809 -10.416
l20.1816 9.76562zM144.531 567.611l-13.6719 -7.16016l-13.0215 7.8125l1.95312 -14.9746l-11.0674 -10.416l14.9736 -2.60547l6.51074 -13.6719l7.16113 13.6719l14.9746 1.95312l-10.417 10.418z" />
</svg>
