<?xml version="1.0" standalone="no"?>
<!DOCTYPE svg PUBLIC "-//W3C//DTD SVG 1.1//EN" "http://www.w3.org/Graphics/SVG/1.1/DTD/svg11.dtd" >
<svg xmlns="http://www.w3.org/2000/svg" xmlns:xlink="http://www.w3.org/1999/xlink" version="1.1" viewBox="-10 0 510 1000">
   <path fill="currentColor"
d="M350.261 651.922h-121.745v41.667h121.745v-41.667zM350.261 732.651h-121.745v42.3174h121.745v-42.3174zM189.453 693.589v-41.667h-41.667v41.667h41.667zM189.453 774.969v-42.3174h-41.667v42.3174h41.667zM433.594 610.256v227.864
q-3.90625 14.9736 -18.8799 18.8799h-332.031q-16.2764 -1.30176 -17.5781 -18.8799v-227.864h368.489zM146.484 446.844l5.85938 3.90625l5.20801 3.90625q29.2969 16.2764 60.5469 25.3906v-2.60352l-4.55664 -13.0215l-5.20898 -12.3691
q-6.50977 -20.1826 -17.5781 -39.0625l-3.90625 -5.20898l-3.90625 -3.90625q-7.8125 -9.11426 -17.5781 -9.11426q-3.90625 0 -7.8125 1.30176q-22.7861 6.51074 -22.7861 27.9951v5.20801q1.30176 11.0684 11.7188 17.5781zM283.203 480.047
q29.9482 -9.11426 59.2451 -25.3906l5.20801 -3.90625l5.85938 -3.90625q10.417 -6.50977 11.7188 -17.5781v-5.20801q0 -21.4844 -22.7861 -27.9951q-3.90625 -1.30176 -7.8125 -1.30176q-9.76562 0 -17.5781 9.11426l-3.90625 3.90625l-3.90625 5.20898
q-9.76562 18.8799 -17.5781 39.0625l-5.20898 12.3691l-3.25488 13.0215v2.60352zM430.989 493.719q18.8809 0 20.1826 20.1826v58.5938q0 22.7861 -22.7861 22.7861h-359.375q-18.8809 0 -20.1826 -20.833v-60.5469q0 -18.8799 20.1826 -20.1826h77.4736l-7.8125 -5.20801
l-6.51074 -5.20801q-5.85938 -4.55762 -8.46289 -5.85938q-22.7871 -15.625 -25.3906 -44.2715q-1.30273 -5.20801 -1.30273 -10.416q0 -21.4844 14.9746 -40.3652q7.8125 -9.11426 17.5781 -14.9736q16.9268 -10.417 34.5049 -10.417q7.8125 0 16.2764 2.60449
q26.6924 6.51074 40.3643 30.5986q9.11426 14.9746 15.625 31.25l7.16113 14.9746l6.51074 15.625l7.8125 -15.625l5.85938 -14.9746q6.51074 -16.2754 16.9268 -31.25q13.6719 -24.0879 40.3652 -30.5986q7.16113 -2.60449 14.9736 -2.60449q17.5781 0 34.5049 10.417
q9.76562 5.85938 17.5781 14.9736q14.9746 17.5781 14.9746 39.0625q0 5.20898 -1.30273 11.7188q-2.60352 28.6465 -25.3906 44.2715q-1.30176 1.30176 -8.46289 5.85938l-6.51074 5.20801l-7.8125 5.20801h77.4736z" />
</svg>
