<?xml version="1.0" standalone="no"?>
<!DOCTYPE svg PUBLIC "-//W3C//DTD SVG 1.1//EN" "http://www.w3.org/Graphics/SVG/1.1/DTD/svg11.dtd" >
<svg xmlns="http://www.w3.org/2000/svg" xmlns:xlink="http://www.w3.org/1999/xlink" version="1.1" viewBox="-10 0 520 1000">
   <path fill="currentColor"
d="M158.854 664.617h-39.0625v-39.0625h-19.5312v39.0625h-39.7129v19.5312h39.7129v39.7129h19.5312v-39.7129h39.0625v-19.5312zM187.5 752.508q-32.5527 31.9004 -77.4746 31.9004q-45.5723 0 -78.125 -31.9004q-31.9004 -32.5527 -31.9004 -78.125t31.9004 -77.4746
q32.5527 -31.9004 78.125 -31.9004q44.9219 0 77.4746 31.9004q31.9004 31.9023 31.9004 77.4746t-31.9004 78.125zM223.307 470.607q39.0625 0 70.9639 10.416q30.5986 10.416 42.3174 26.6934v33.2031q-11.7188 16.2754 -42.3174 26.6914q-31.9014 10.418 -70.9639 10.418
q-9.76562 0 -20.1816 -0.652344q-39.7139 -37.7598 -93.0996 -37.7598v-33.2031q12.3701 -15.625 42.9688 -25.3906q31.25 -10.416 70.3125 -10.416zM386.067 620.998q39.7139 0 70.9639 -10.418q31.25 -10.416 42.9688 -26.6914v33.2031q-11.7188 16.2754 -42.9688 26.6914
q-31.25 10.418 -70.9639 10.418q-14.3232 0 -29.9482 -1.95312v-33.2031q16.2764 1.95312 29.9482 1.95312zM386.067 563.055q39.7139 0 70.9639 -11.0684q31.25 -9.76562 42.9688 -26.6914v33.2031q-11.7188 16.2754 -42.9688 26.6914q-31.25 10.418 -70.9639 10.418
q-14.3232 0 -29.9482 -1.95312v-32.5527q15.625 1.95312 29.9482 1.95312zM386.067 429.592q39.7139 0 70.9639 10.416t42.9688 26.6934v33.2031q-11.7188 16.2754 -42.9688 26.6914q-31.25 10.418 -70.9639 10.418q-13.6719 0 -29.9482 -1.95312v-33.2031
l-3.90625 -5.20898q-18.8799 -26.6934 -71.6143 -39.0625q33.8545 -27.9941 105.469 -27.9941zM236.328 721.258q76.8223 -3.25586 100.26 -36.459v33.2031q-11.7188 16.2773 -42.3174 26.6934q-31.9014 10.416 -70.9639 10.416h-5.20801q11.0674 -15.625 18.2295 -33.8535z
M244.141 661.361q70.3125 -5.20703 92.4473 -36.457v33.2031q-22.1348 31.25 -93.75 36.457q1.95312 -11.0664 1.95312 -20.1816q0 -6.50977 -0.650391 -13.0215zM336.588 599.514q-22.7861 32.5508 -97.6562 36.457q-4.55664 -16.2754 -14.3223 -31.9004
q39.0625 -0.650391 69.6611 -11.0684q31.25 -10.416 42.3174 -26.041v32.5527z" />
</svg>
