<?xml version="1.0" standalone="no"?>
<!DOCTYPE svg PUBLIC "-//W3C//DTD SVG 1.1//EN" "http://www.w3.org/Graphics/SVG/1.1/DTD/svg11.dtd" >
<svg xmlns="http://www.w3.org/2000/svg" xmlns:xlink="http://www.w3.org/1999/xlink" version="1.1" viewBox="-10 0 520 1000">
   <path fill="currentColor"
d="M247.904 527.74q28.6318 0 48.8828 20.252q20.252 20.25 20.252 48.8809v4.19141l-71.2295 -71.2305zM149.44 547.992q-11.1729 16.7598 -11.1729 35.6133q0 7.68164 2.09473 15.3633q0 47.4863 33.5195 80.3066q33.5195 33.5195 80.3076 33.5195
q25.8379 0 49.5811 -11.1719l-35.6143 -35.6152q-6.28516 2.0957 -12.5703 2.0957h-3.49121q-28.6318 0 -48.8828 -20.252q-20.252 -20.252 -20.252 -48.8828v-2.79297q0 -6.28516 2.0957 -12.5703zM53.0723 391.566l402.234 402.234l-28.6309 28.6328l-67.0391 -67.0391
l-9.07812 -9.08008q-46.7881 20.252 -97.0674 20.252h-5.58691q-81.7041 0 -149.441 -46.0898q-68.4355 -46.7871 -98.4629 -123.604q26.5361 -68.4355 84.4971 -113.826l-11.1738 -11.1738l-50.9775 -51.6758zM250 483.047h-4.88867q-20.251 0 -37.71 11.1738
l-48.8818 -49.582q44.6924 -14.6641 91.4805 -15.3633q83.0996 0 151.536 46.0898q68.4355 46.7891 98.4639 123.604q-26.5371 62.8496 -78.2129 107.543l-67.0391 -67.0391q9.07812 -18.8555 9.07812 -39.8047v-2.79492q0 -46.7871 -33.5195 -80.3066t-80.3066 -33.5195z
" />
</svg>
