<?xml version="1.0" standalone="no"?>
<!DOCTYPE svg PUBLIC "-//W3C//DTD SVG 1.1//EN" "http://www.w3.org/Graphics/SVG/1.1/DTD/svg11.dtd" >
<svg xmlns="http://www.w3.org/2000/svg" xmlns:xlink="http://www.w3.org/1999/xlink" version="1.1" viewBox="-10 0 809 1000">
   <path fill="currentColor"
d="M314 552q5 -8 5 -16q0 -4 -1 -8q-3 -13 -15 -19q-8 -5 -16 -5q-4 0 -8 1q-12 3 -19 15q-4 7 -4 15q0 5 1 9q3 12 14 19q8 4 15 4q5 0 9 -1q13 -3 19 -14zM358 720q4 -7 4 -15q0 -4 -1 -9q-3 -13 -14 -19q-8 -5 -16 -5q-4 0 -8 1q-13 4 -19 15q-5 8 -5 16q0 4 1 8
q3 12 15 19q7 4 15 4q4 0 9 -1q12 -3 19 -14zM254 663q4 -8 4 -16q0 -4 -1 -8q-3 -13 -15 -20q-7 -4 -15 -4q-5 0 -9 1q-12 3 -19 15q-4 7 -4 15q0 5 1 9q3 12 14 19q8 4 16 4q4 0 8 -1q13 -3 20 -14zM147 595q4 -7 4 -15q0 -5 -1 -9q-3 -12 -15 -19q-7 -4 -14 -4q-5 0 -9 1
q-13 3 -20 14q-4 8 -4 16q0 4 1 8q3 13 14 19q8 5 17 5q3 0 7 -1q13 -3 20 -15zM190 763q4 -7 4 -15q0 -4 -1 -9q-3 -12 -14 -19q-7 -4 -15 -4q-4 0 -9 1q-13 3 -19 14q-5 8 -5 17q0 3 1 7q4 13 15 19q8 5 16 5q4 0 8 -1q12 -3 19 -15zM303 434q7 -2 14 -2q14 0 27 8
q19 11 25 32l64 248q2 7 2 13q0 14 -8 27q-11 20 -33 25l-247 64q-7 2 -14 2q-14 0 -27 -8q-19 -11 -24 -32l-64 -248q-2 -7 -2 -15q0 -13 7 -25q12 -20 33 -25zM704 357q1 -4 1 -7q0 -9 -6 -17q-7 -11 -20 -13q-4 -1 -7 -1q-8 0 -16 5q-11 7 -14 20v6q0 9 5 18q7 11 20 13
q4 1 8 1q8 0 16 -5q11 -8 13 -20zM608 212v-6q0 -9 -5 -17q-7 -11 -20 -14h-6q-9 0 -18 5q-10 7 -13 20q-1 4 -1 7q0 9 6 17q7 10 20 13q4 1 7 1q9 0 16 -6q11 -7 14 -20zM560 453v-6q0 -9 -5 -18q-7 -11 -20 -13q-4 -1 -8 -1q-8 0 -16 5q-11 8 -13 21q-1 3 -1 6q0 9 6 17
q7 11 20 14h6q9 0 17 -5q11 -7 14 -20zM464 308v-5q0 -9 -5 -18q-7 -11 -20 -14h-6q-9 0 -18 5q-11 7 -13 20q-1 4 -1 8q0 8 5 16q8 11 20 13q4 1 8 1q8 0 16 -5q11 -8 14 -21zM775 332q9 13 9 29q0 5 -1 11q-5 22 -23 34q-223 148 -229 150q-8 2 -15 2q-27 0 -43 -25
l-142 -212q-9 -14 -9 -30q0 -6 1 -11q5 -21 23 -34l213 -141q7 -6 16 -8q8 -2 16 -2q26 0 42 24z" />
</svg>
