<?xml version="1.0" standalone="no"?>
<!DOCTYPE svg PUBLIC "-//W3C//DTD SVG 1.1//EN" "http://www.w3.org/Graphics/SVG/1.1/DTD/svg11.dtd" >
<svg xmlns="http://www.w3.org/2000/svg" xmlns:xlink="http://www.w3.org/1999/xlink" version="1.1" viewBox="-10 0 809 1000">
   <path fill="currentColor"
d="M401 352q43 0 74 31q30 30 30 74v5l-110 -110h6zM244 380q-18 37 -18 76q0 73 51 124t123 51q39 0 77 -19l-54 -54q-12 3 -23 3q-43 0 -74 -31q-31 -30 -31 -74q0 -11 3 -22zM95 142l619 619l-44 44l-102 -102l-15 -14q-73 29 -153 29q-129 0 -235 -73
q-103 -72 -149 -189q41 -104 131 -174l-16 -16l-80 -79zM400 282q-33 0 -64 12l-75 -75q67 -24 139 -24q129 0 235 73q103 72 149 188q-38 98 -120 166l-102 -102q13 -31 13 -64q0 -72 -51 -123q-52 -51 -124 -51z" />
</svg>
