<?xml version="1.0" standalone="no"?>
<!DOCTYPE svg PUBLIC "-//W3C//DTD SVG 1.1//EN" "http://www.w3.org/Graphics/SVG/1.1/DTD/svg11.dtd" >
<svg xmlns="http://www.w3.org/2000/svg" xmlns:xlink="http://www.w3.org/1999/xlink" version="1.1" viewBox="-10 0 809 1000">
   <path fill="currentColor"
d="M595 555q5 1 10 1q20 0 34 -17q9 -12 9 -24q0 -8 -4 -17q-10 -20 -58 -94q-79 42 -98 54q-17 11 -17 30q0 4 1 8q4 25 29 34q8 3 17 3q14 0 29 -9l-9 34l13 3l9 -34q14 24 35 28zM472 342q2 0 6 1t7 1q12 0 16 -16l16 -58l-13 -3l-16 59q-2 6 -6 6h-3q-3 -1 -4 -1z
M752 283q17 5 26 20q6 10 6 20q0 6 -2 12l-99 363q-4 17 -20 25q-10 6 -20 6q-6 0 -12 -2l-178 -46q11 -9 18 -21q11 -18 11 -37q0 -10 -3 -20l-61 -224l36 -131q4 -17 19 -25q10 -6 21 -6q6 0 12 2zM87 337l17 38l-13 3zM313 468q4 -8 4 -17q0 -13 -10 -26q-14 -18 -36 -18
q-4 0 -8 1q-11 2 -24 12q-14 12 -16 25q-19 -17 -38 -17q-8 0 -16 3q-26 9 -30 36v7q0 22 18 34q20 13 100 58q46 -77 56 -98zM129 395l-36 -74l-19 5l8 81l12 -3l-2 -15l17 -4l6 13zM445 612q1 5 1 10q0 12 -6 22q-8 15 -25 19l-247 64q-6 2 -12 2q-11 0 -21 -6
q-15 -9 -19 -25l-98 -364q-2 -6 -2 -12q0 -10 6 -20q9 -15 26 -19l247 -64q6 -2 12 -2q10 0 20 6q15 9 20 25z" />
</svg>
