<?xml version="1.0" standalone="no"?>
<!DOCTYPE svg PUBLIC "-//W3C//DTD SVG 1.1//EN" "http://www.w3.org/Graphics/SVG/1.1/DTD/svg11.dtd" >
<svg xmlns="http://www.w3.org/2000/svg" xmlns:xlink="http://www.w3.org/1999/xlink" version="1.1" viewBox="-10 0 809 1000">
   <path fill="currentColor"
d="M270 458q-43 9 -74 39l-39 -222v-6q0 -13 7 -23q10 -14 26 -17l108 -19q-7 12 -8 27zM367 452q-7 -1 -15 -1q-7 0 -14 1h-6q-16 0 -33 3l20 -215q2 -16 15 -26q11 -10 26 -10h3l92 8q-4 7 -8 15zM186 647q-4 5 -4 12v42l1 2q1 3 1 4l-164 -316q-4 -9 -4 -18q0 -6 2 -13
q5 -15 20 -23l88 -46l56 318v23q0 8 4 15zM357 703q64 0 114 -43v39q-13 19 -49 31q-36 11 -80 11q-8 1 -16 1q-63 0 -113 -41v-39q50 41 113 41h31zM694 420l-65 -29l-6 -71l-48 53l-70 -17l37 62l-39 61l70 -15l46 54l8 -71zM757 294q15 7 22 21q4 8 4 16q0 7 -2 14
l-123 341q-6 15 -21 23q-9 4 -18 4q-6 0 -13 -2l-103 -33v-16q0 -8 -3 -15q3 -8 3 -15v-39q0 -8 -3 -15q3 -8 3 -16v-40q0 -9 -5 -18q-40 -43 -99 -49l80 -218q5 -16 20 -24q9 -4 18 -4q6 0 14 3zM422 623q36 -11 49 -30v39q-13 19 -49 30q-36 12 -80 12h-17q-63 0 -112 -40
v-39q49 41 112 41q8 0 17 -1q44 0 80 -12zM360 482q61 0 111 42v38q-13 19 -49 31q-36 11 -80 11q-9 1 -17 1q-63 0 -112 -41v-40q49 -41 112 -41h17q9 -1 18 -1z" />
</svg>
